<?xml version="1.0" encoding="UTF-8"?>
<svg version="1.1" xmlns="http://www.w3.org/2000/svg" width="1000" height="200">
<path d="M0 0 C5.83541386 5.07706713 9.63234442 10.50692025 12.7734375 17.54296875 C12.98097656 16.98609375 13.18851563 16.42921875 13.40234375 15.85546875 C16.33000447 8.60368989 20.16249364 2.78175394 26.8984375 -1.39453125 C36.60250805 -4.98081819 46.94424006 -4.49852801 56.44921875 -0.61328125 C59.23288504 0.77153425 61.53606137 2.38274352 63.7734375 4.54296875 C66.2378612 3.44766933 67.88058103 2.43907199 69.8359375 0.54296875 C78.28309066 -5.20828446 89.31299723 -3.64732838 98.84765625 -1.890625 C110.79561116 0.7865736 121.14859084 5.9285475 128.5625 15.96484375 C134.92715716 26.06050683 138.27314247 36.81205709 135.6484375 48.66796875 C134.16701142 53.93751632 132.07403508 58.19515608 128.7734375 62.54296875 C128.17402344 63.36539063 127.57460938 64.1878125 126.95703125 65.03515625 C124.60050072 67.74158308 122.32767988 69.36352114 119.2734375 71.23046875 C118.335 71.81183594 117.3965625 72.39320312 116.4296875 72.9921875 C114.24178653 74.26953557 112.05717156 75.44957721 109.7734375 76.54296875 C109.8353125 77.49171875 109.8971875 78.44046875 109.9609375 79.41796875 C109.91484777 85.09852753 108.87867885 90.95394719 105.2265625 95.4453125 C99.24609858 100.85683848 93.4121721 101.92322192 85.5078125 101.81640625 C82.88795141 101.55442014 81.04389638 101.02488882 78.6484375 99.98046875 C74.84003735 98.32059577 72.10539103 98.58580888 68.0546875 99.203125 C60.65845423 100.30496112 53.62001544 99.7056012 46.7734375 96.54296875 C44.41274511 94.69853116 42.72132271 92.84967492 40.7734375 90.54296875 C40.1134375 91.45046875 39.4534375 92.35796875 38.7734375 93.29296875 C34.29922455 98.5795388 29.13862443 100.59432895 22.3359375 101.35546875 C18.01139612 101.62537771 13.96468541 101.33085867 9.68359375 100.734375 C7.22117224 100.48762929 5.18456144 101.01369764 2.7734375 101.54296875 C-5.65315295 102.21411312 -12.33769296 100.96434035 -19.5390625 96.48046875 C-23.98570647 91.62018348 -26.2265625 86.13035145 -26.2265625 79.54296875 C-27.7115625 80.03796875 -27.7115625 80.03796875 -29.2265625 80.54296875 C-30.95451602 80.61099842 -32.68491615 80.6279252 -34.4140625 80.60546875 C-35.76564453 80.59193359 -35.76564453 80.59193359 -37.14453125 80.578125 C-37.83160156 80.56652344 -38.51867187 80.55492187 -39.2265625 80.54296875 C-39.1646875 81.55359375 -39.1028125 82.56421875 -39.0390625 83.60546875 C-39.32172574 89.54139687 -40.82766632 93.14407257 -45.0390625 97.35546875 C-51.49981934 101.78932148 -57.56176146 102.24076003 -65.2265625 101.54296875 C-70.96543556 100.28297604 -75.09895796 97.67057329 -79.2265625 93.54296875 C-79.94529511 91.89808406 -80.62174608 90.23306322 -81.2265625 88.54296875 C-81.89300781 88.99027344 -82.55945313 89.43757813 -83.24609375 89.8984375 C-95.50827791 97.94174432 -108.29347343 104.87541365 -123.32421875 101.9375 C-131.33863466 100.01910397 -131.33863466 100.01910397 -134.3828125 98.38671875 C-137.42375342 96.99510172 -140.10627832 98.62222916 -143.2265625 99.54296875 C-150.33322785 100.3751619 -158.41438647 99.52146811 -164.19140625 95.0078125 C-165.8515625 93.35546875 -165.8515625 93.35546875 -168.2265625 90.54296875 C-168.8865625 91.45046875 -169.5465625 92.35796875 -170.2265625 93.29296875 C-174.66343894 98.53542332 -179.87234206 100.58704118 -186.6015625 101.48046875 C-191.51365858 101.79473359 -195.4389235 100.92294156 -200.03515625 99.234375 C-202.93509551 98.3194209 -205.30724657 98.13711059 -208.12890625 99.3828125 C-209.13630859 99.92615234 -209.13630859 99.92615234 -210.1640625 100.48046875 C-219.94251359 104.9689381 -230.28463498 104.12521882 -240.2265625 100.54296875 C-241.7115625 99.55296875 -241.7115625 99.55296875 -243.2265625 98.54296875 C-246.1326117 98.74338594 -247.44429108 99.7075928 -249.7890625 101.48046875 C-254.77920875 104.9119799 -260.99624313 105.89056409 -266.94921875 105.25 C-269.40223524 104.75791675 -271.80930781 104.18671735 -274.2265625 103.54296875 C-278.64858437 102.51644328 -278.64858437 102.51644328 -282.9765625 103.48046875 C-290.24605852 105.85703476 -296.98242668 104.96634329 -303.8984375 101.8671875 C-309.8993083 98.45394052 -313.5744288 94.07669307 -315.71875 87.53515625 C-316.86361823 83.04375012 -317.35875197 78.90356476 -317.38769531 74.2590332 C-317.39730286 73.01035965 -317.4069104 71.7616861 -317.41680908 70.47517395 C-317.42165895 69.11886784 -317.42593731 67.76255959 -317.4296875 66.40625 C-317.43251488 65.71723288 -317.43534225 65.02821575 -317.43825531 64.31831932 C-317.45321448 60.66932166 -317.46246357 57.02036317 -317.46679688 53.37133789 C-317.47226523 49.62703594 -317.4962676 45.88310061 -317.52476883 42.13891315 C-317.54352007 39.23816427 -317.54860747 36.33750134 -317.55013275 33.43669701 C-317.55313362 32.05777173 -317.56107391 30.67884701 -317.57431793 29.29998207 C-317.73801737 10.94111871 -317.73801737 10.94111871 -312.91607666 4.90156555 C-307.21777818 -0.25264025 -300.21254446 -0.87814603 -292.9140625 -1.58203125 C-292.11033203 -1.66839844 -291.30660156 -1.75476562 -290.47851562 -1.84375 C-277.68429144 -3.14067055 -266.16891405 -2.69078031 -255.1640625 4.75 C-253.22081696 5.79371626 -253.22081696 5.79371626 -251.16796875 4.8359375 C-248.97932004 3.42357937 -248.97932004 3.42357937 -246.1640625 1.04296875 C-238.21701368 -4.61909352 -229.00930033 -3.70306697 -219.8046875 -2.203125 C-210.54497032 -0.27233244 -205.03293221 3.06836556 -198.2578125 9.71484375 C-196.43425902 11.76595699 -196.43425902 11.76595699 -194.2265625 11.54296875 C-192.8160029 9.88579238 -192.8160029 9.88579238 -191.4140625 7.79296875 C-186.72714997 1.40479711 -181.99990312 -1.86338177 -174.2265625 -3.45703125 C-162.22037491 -4.71844083 -152.61474613 -1.96757815 -143.2265625 5.54296875 C-142.6284375 4.80046875 -142.0303125 4.05796875 -141.4140625 3.29296875 C-134.7682007 -3.16879715 -125.71991457 -4.03467217 -116.85424805 -3.93164062 C-105.25418354 -3.46943551 -94.26223767 -0.34334072 -84.2265625 5.54296875 C-83.6903125 4.77984375 -83.1540625 4.01671875 -82.6015625 3.23046875 C-78.37007669 -1.55779151 -73.27810643 -3.26161218 -67.0546875 -3.66015625 C-56.27693795 -3.80134948 -50.21175393 -2.47677961 -41.890625 4.3359375 C-40.29935928 5.73868688 -40.29935928 5.73868688 -38.2265625 5.54296875 C-37.6490625 4.80046875 -37.0715625 4.05796875 -36.4765625 3.29296875 C-32.48463046 -1.5860593 -27.98205864 -4.11615697 -21.8515625 -5.265625 C-14.18434136 -5.82469321 -6.31210835 -4.54098934 0 0 Z " fill="#FCFCFC" transform="translate(591.2265625,50.45703125)"/>
<path d="M0 0 C8.81507351 5.36250305 11.5037817 14.65957327 13.875 24.140625 C15.7496885 32.09944214 17.35723115 40.10701869 18.875 48.140625 C19.07851074 49.19854248 19.07851074 49.19854248 19.28613281 50.27783203 C22.98579776 69.8652131 22.98579776 69.8652131 19.49609375 76.93359375 C17.46429521 79.69977731 16.19219541 80.31132615 12.875 81.140625 C7.08194745 81.79644227 2.50535277 80.66489818 -2.125 77.140625 C-4.17577581 73.12452237 -4.125 70.74401833 -4.125 66.140625 C-9.075 66.140625 -14.025 66.140625 -19.125 66.140625 C-19.2075 67.6875 -19.29 69.234375 -19.375 70.828125 C-19.82066651 75.38813309 -20.69215474 77.91583097 -24.125 81.140625 C-26.79596694 82.47610847 -28.95539424 82.38326062 -31.9375 82.453125 C-32.97519531 82.49050781 -34.01289063 82.52789062 -35.08203125 82.56640625 C-38.95808884 82.02405673 -40.53022013 81.06331661 -43.125 78.140625 C-43.61328125 74.90625 -43.61328125 74.90625 -43.4375 71.390625 C-43.39238281 70.22015625 -43.34726562 69.0496875 -43.30078125 67.84375 C-43.24277344 66.95171875 -43.18476563 66.0596875 -43.125 65.140625 C-43.640625 66.295625 -44.15625 67.450625 -44.6875 68.640625 C-47.77241875 74.75615055 -52.21066923 81.4193255 -58.98828125 83.734375 C-67.16814025 85.28959499 -74.69394338 84.97338323 -81.97265625 80.73828125 C-90.38540494 74.49360935 -93.54030408 64.16742827 -95.125 54.140625 C-95.37830813 51.03933161 -95.53787341 47.93594289 -95.6875 44.828125 C-95.73068359 43.99216797 -95.77386719 43.15621094 -95.81835938 42.29492188 C-95.92385307 40.24365565 -96.02487315 38.1921602 -96.125 36.140625 C-97.50011396 37.49467594 -98.84952446 38.87486484 -100.1875 40.265625 C-100.94160156 41.03132813 -101.69570313 41.79703125 -102.47265625 42.5859375 C-104.42801806 45.03052778 -104.42801806 45.03052778 -103.85961914 47.94873047 C-103.14617668 51.04861307 -102.21412058 53.81910291 -101.0234375 56.765625 C-100.61609375 57.80203125 -100.20875 58.8384375 -99.7890625 59.90625 C-98.92861244 62.06519741 -98.06139964 64.2214616 -97.1875 66.375 C-96.78273438 67.41140625 -96.37796875 68.4478125 -95.9609375 69.515625 C-95.58501465 70.45148438 -95.2090918 71.38734375 -94.82177734 72.3515625 C-93.99412639 75.66448631 -94.26375371 77.85421488 -95.125 81.140625 C-97.86192533 84.51616623 -100.01076543 85.91864856 -104.39453125 86.37890625 C-108.48264484 86.49822139 -111.58026884 86.34618393 -115.4375 84.890625 C-119.53767109 80.6951011 -121.18271532 75.60652348 -123.125 70.140625 C-123.15078125 70.88828125 -123.1765625 71.6359375 -123.203125 72.40625 C-123.6592067 80.32548672 -123.6592067 80.32548672 -125.625 83.765625 C-130.04830311 86.19844171 -134.43202375 86.86001409 -139.34765625 85.546875 C-143.61751686 83.69527189 -146.4114869 81.45274073 -148.37492371 77.18881226 C-151.04536861 69.89679243 -150.28546758 61.12484046 -150.29296875 53.4765625 C-150.29629715 52.28511627 -150.29962555 51.09367004 -150.30305481 49.86611938 C-150.30809474 47.35996891 -150.31046405 44.85381179 -150.31030273 42.34765625 C-150.31249708 38.5207215 -150.33070573 34.69407167 -150.34960938 30.8671875 C-150.35254236 28.42448015 -150.35452779 25.98177143 -150.35546875 23.5390625 C-150.36265427 22.40036713 -150.36983978 21.26167175 -150.37724304 20.08847046 C-150.36092035 14.40341885 -150.21250184 9.46432631 -148.125 4.140625 C-140.96814854 -2.3656036 -125.4642092 -0.39823146 -116.39453125 -0.04736328 C-109.72621622 0.50498209 -103.83754344 3.42808156 -99.125 8.140625 C-96.01948162 12.10878738 -94.60344086 15.11699596 -94.125 20.140625 C-93.465 20.140625 -92.805 20.140625 -92.125 20.140625 C-92.0425 19.150625 -91.96 18.160625 -91.875 17.140625 C-90.99540417 11.18829156 -88.62221844 6.12466485 -84 2.203125 C-78.08905633 -2.03733459 -72.23443938 -1.49245711 -65.125 -0.859375 C-56.41061885 1.40819442 -49.80098044 5.47010627 -44.88671875 13.05078125 C-40.21244354 21.60045554 -39.84119071 30.46263515 -40 40.015625 C-40.00902344 41.046875 -40.01804687 42.078125 -40.02734375 43.140625 C-40.04467945 45.0376457 -40.06614835 46.93463682 -40.09326172 48.83154297 C-40.11758426 50.60110145 -40.125 52.37089937 -40.125 54.140625 C-39.91746094 53.13128906 -39.70992188 52.12195313 -39.49609375 51.08203125 C-37.50688753 41.65246073 -35.2086429 32.31701555 -32.6875 23.015625 C-32.41156006 21.96189697 -32.13562012 20.90816895 -31.85131836 19.82250977 C-29.53357796 11.44031582 -26.64045444 4.08500292 -19.125 -0.859375 C-12.98000603 -2.90770632 -5.94711252 -2.63783217 0 0 Z " fill="#009FEF" transform="translate(434.125,58.859375)"/>
<path d="M0 0 C7.58263619 4.22877788 10.84517105 10.23265471 13.31640625 18.2890625 C17.42811953 33.19167197 18.46352538 48.43485148 19.25 63.8125 C19.3951001 63.15580322 19.5402002 62.49910645 19.68969727 61.82250977 C22.49263058 49.21640726 25.42900856 36.65176119 28.8125 24.1875 C29.21480835 22.65331421 29.21480835 22.65331421 29.62524414 21.08813477 C31.90771131 12.86701985 34.88899611 5.65526572 42.25 0.8125 C48.39499397 -1.23583132 55.42788748 -0.96595717 61.375 1.671875 C70.19007351 7.03437805 72.8787817 16.33144827 75.25 25.8125 C77.1246885 33.77131714 78.73223115 41.77889369 80.25 49.8125 C80.45351074 50.87041748 80.45351074 50.87041748 80.66113281 51.94970703 C84.36079776 71.5370881 84.36079776 71.5370881 80.87109375 78.60546875 C78.83929521 81.37165231 77.56719541 81.98320115 74.25 82.8125 C68.45694745 83.46831727 63.88035277 82.33677318 59.25 78.8125 C57.19922419 74.79639737 57.25 72.41589333 57.25 67.8125 C52.3 67.8125 47.35 67.8125 42.25 67.8125 C42.1675 69.359375 42.085 70.90625 42 72.5 C41.55433349 77.06000809 40.68284526 79.58770597 37.25 82.8125 C34.55893093 84.15803453 32.37834578 84.01844114 29.375 84.0625 C28.32570313 84.08828125 27.27640625 84.1140625 26.1953125 84.140625 C22.926553 83.77646612 21.56241815 83.11374705 19.25 80.8125 C19.25 80.1525 19.25 79.4925 19.25 78.8125 C18.59 78.8125 17.93 78.8125 17.25 78.8125 C17.0025 79.43125 16.755 80.05 16.5 80.6875 C14.96177504 83.30248244 14.12649576 83.87958246 11.25 84.8125 C5.7997622 85.32667338 2.06395665 84.4046305 -2.75 81.8125 C-6.98371329 77.29653915 -6.9385039 72.55251013 -7.06640625 66.64453125 C-7.08718735 65.84971848 -7.10796844 65.0549057 -7.12937927 64.23600769 C-7.19472087 61.69909237 -7.25368808 59.16207427 -7.3125 56.625 C-7.35569986 54.90428628 -7.39931463 53.18358292 -7.44335938 51.46289062 C-7.55038648 47.24619887 -7.65169724 43.0294038 -7.75 38.8125 C-8.41 38.8125 -9.07 38.8125 -9.75 38.8125 C-9.9975 40.070625 -10.245 41.32875 -10.5 42.625 C-13.89772401 57.56082847 -13.89772401 57.56082847 -18.4375 62 C-22.75162682 64.36055996 -25.9402506 64.85704154 -30.75 63.8125 C-34.03746766 62.25731749 -37.16370094 60.39879906 -39.75 57.8125 C-39.72905273 58.42246826 -39.70810547 59.03243652 -39.68652344 59.66088867 C-39.60307139 62.44042294 -39.55124989 65.2196932 -39.5 68 C-39.44972656 69.43956055 -39.44972656 69.43956055 -39.3984375 70.90820312 C-39.29965057 78.04555877 -39.29965057 78.04555877 -41.578125 81.92578125 C-44.34583923 84.33010854 -46.31725368 84.76158867 -49.9375 85.1875 C-54.8811354 84.70124078 -58.06314069 83.12484764 -61.75 79.8125 C-69.910774 65.33370743 -66.9165738 43.06524539 -67.09103394 26.90890503 C-67.11362247 25.1406468 -67.14477001 23.37247658 -67.18460083 21.60452271 C-67.23869962 19.08882545 -67.25992657 16.57479544 -67.2734375 14.05859375 C-67.29606155 13.30105804 -67.31868561 12.54352234 -67.34199524 11.76303101 C-67.3260885 7.73551249 -66.92179641 6.02319535 -64.34228516 2.85961914 C-59.40395126 -1.04016704 -54.88265853 -0.76840135 -48.75 -0.1875 C-41.21708608 1.94276186 -36.88927653 7.17180462 -33.046875 13.7109375 C-31.57204033 16.39182857 -30.13995818 19.08680186 -28.75 21.8125 C-28.36328125 20.94367188 -27.9765625 20.07484375 -27.578125 19.1796875 C-21.66574134 6.09634346 -16.19915972 -5.12973391 0 0 Z " fill="#009FEF" transform="translate(581.75,57.1875)"/>
<path d="M0 0 C7.38087715 3.69043857 10.46475958 9.1576657 13.0546875 16.703125 C17.09848229 30.80627707 18.21125097 45.22787351 18.29516602 59.83422852 C18.30682612 61.24904264 18.32749165 62.66380827 18.35668945 64.07836914 C18.39915591 66.14499101 18.41548526 68.21034134 18.42578125 70.27734375 C18.44036377 71.49671631 18.45494629 72.71608887 18.4699707 73.97241211 C18 77 18 77 16.18432617 78.89672852 C12.95408169 80.52827818 10.57372948 80.36969615 7 80 C1.66761931 77.98778087 1.66761931 77.98778087 -0.14648438 75.30371094 C-1.27308869 72.26291051 -1.29222137 69.63248636 -1.34375 66.390625 C-1.37210938 65.08496582 -1.40046875 63.77930664 -1.4296875 62.43408203 C-1.4409668 61.74944885 -1.45224609 61.06481567 -1.46386719 60.35943604 C-0.28309976 41.49620279 -0.28309976 41.49620279 -5 25 C-5.31227539 25.92337158 -5.62455078 26.84674316 -5.94628906 27.7980957 C-7.11083972 31.23000148 -8.29276844 34.65570841 -9.47998047 38.07983398 C-9.99091265 39.56127812 -10.49714784 41.04435102 -10.99853516 42.52905273 C-11.72103063 44.66577945 -12.46034432 46.79603439 -13.203125 48.92578125 C-13.42309143 49.58838455 -13.64305786 50.25098785 -13.86968994 50.93367004 C-15.22057735 54.74455447 -16.36285964 57.09080197 -20 59 C-24.72587794 59.53356686 -26.77234354 59.61304228 -31.05078125 57.4765625 C-34.80594289 54.32322147 -35.83691351 51.50400862 -37.3125 46.9375 C-37.56322266 46.21755859 -37.81394531 45.49761719 -38.07226562 44.75585938 C-38.73443476 42.84391257 -39.36879742 40.92239222 -40 39 C-40.33 38.01 -40.66 37.02 -41 36 C-40.98428955 37.26183105 -40.9685791 38.52366211 -40.95239258 39.82373047 C-40.89819693 44.49391323 -40.86368779 49.16406807 -40.83520508 53.83447266 C-40.82009474 55.85795766 -40.79960563 57.8814098 -40.77368164 59.90478516 C-40.73739672 62.80900165 -40.72029645 65.71278615 -40.70703125 68.6171875 C-40.69154739 69.52556366 -40.67606354 70.43393982 -40.66011047 71.36984253 C-40.65988388 72.21056305 -40.65965729 73.05128357 -40.65942383 73.91748047 C-40.65276199 74.65916473 -40.64610016 75.400849 -40.63923645 76.16500854 C-40.75828842 76.77055573 -40.87734039 77.37610291 -41 78 C-44.72579089 80.48386059 -46.58711402 80.3804212 -51 80 C-55.17358841 78.19776864 -57.09183106 76.10256322 -59 72 C-61.79583611 58.11614628 -61.23740209 43.24815093 -61.29516602 29.13842773 C-61.30685914 27.14779654 -61.32757187 25.15720062 -61.35668945 23.16674805 C-61.39910825 20.25027788 -61.41547598 17.33470774 -61.42578125 14.41796875 C-61.45204338 13.08526192 -61.45204338 13.08526192 -61.47883606 11.72563171 C-61.45722441 5.62575418 -61.45722441 5.62575418 -59.1328125 2.44458008 C-55.07814498 -0.30169599 -50.68455625 0.37361552 -46 1 C-35.18369123 4.96597988 -30.58348931 17.22860522 -26 27 C-23.82119884 23.73179826 -22.56272702 20.39495029 -21.1875 16.75 C-16.97267054 5.90390797 -12.86328887 -1.6254702 0 0 Z " fill="#009FEF" transform="translate(579,59)"/>
<path d="M0 0 C7.17331652 5.30665423 10.84664886 12.82302931 13 21.3125 C13.18304687 22.02664062 13.36609375 22.74078125 13.5546875 23.4765625 C15.3132797 34.67601809 15.37922564 47.1537001 10 57.3125 C9.63777344 58.034375 9.27554688 58.75625 8.90234375 59.5 C3.25776596 69.60283753 -6.05446368 75.14671411 -17 78.3125 C-24.40680282 79.42812373 -31.56926359 79.46872879 -38 75.3125 C-41.63630105 70.74731197 -41.97943614 65.6521062 -42.65625 60.0390625 C-42.78197388 59.02856842 -42.90769775 58.01807434 -43.03723145 56.97695923 C-44.23396059 46.58240038 -44.52435994 36.22719658 -44.50097656 25.77148438 C-44.49998035 22.62543504 -44.54234121 19.481652 -44.5859375 16.3359375 C-44.59113002 14.31510916 -44.59383293 12.29427251 -44.59375 10.2734375 C-44.6183429 8.87827408 -44.6183429 8.87827408 -44.64343262 7.45492554 C-44.59480001 2.92709338 -44.49364416 0.95002138 -41.64453125 -2.72949219 C-30.08841944 -11.28562372 -11.43140656 -6.8741624 0 0 Z " fill="#00A1F1" transform="translate(499,63.6875)"/>
<path d="M0 0 C5.75991508 5.30763538 9.66691935 9.92188758 10.00390625 17.99609375 C9.76785283 25.94322558 5.07981721 31.11824629 -0.30859375 36.55859375 C-1.29859375 37.05359375 -1.29859375 37.05359375 -2.30859375 37.55859375 C-1.65512162 41.47043795 -0.48292226 44.88935613 1.01171875 48.55859375 C1.46417969 49.69296875 1.91664063 50.82734375 2.3828125 51.99609375 C3.3396343 54.37380895 4.30319903 56.74882166 5.2734375 59.12109375 C5.72332031 60.25546875 6.17320312 61.38984375 6.63671875 62.55859375 C7.05453613 63.58984375 7.47235352 64.62109375 7.90283203 65.68359375 C8.76167288 68.81477325 8.68006403 70.49435624 7.69140625 73.55859375 C5.85581929 75.77659466 4.43445388 76.44470608 1.6015625 76.87890625 C-2.30954047 77.07413602 -4.47619106 77.06881649 -7.90234375 74.96875 C-10.74404437 72.12243623 -12.03568863 69.26983254 -13.37109375 65.55859375 C-13.62004395 64.90084961 -13.86899414 64.24310547 -14.12548828 63.56542969 C-14.87281154 61.56967666 -15.59481568 59.56656284 -16.30859375 57.55859375 C-16.72753906 56.388125 -17.14648438 55.21765625 -17.578125 54.01171875 C-20.30859375 46.10011318 -20.30859375 46.10011318 -20.30859375 42.55859375 C-20.96859375 42.55859375 -21.62859375 42.55859375 -22.30859375 42.55859375 C-22.23640625 43.28820312 -22.16421875 44.0178125 -22.08984375 44.76953125 C-21.4854643 51.56880001 -21.12830646 58.35948994 -20.99609375 65.18359375 C-20.96644531 65.96524902 -20.93679688 66.7469043 -20.90625 67.55224609 C-20.84881019 73.02458504 -20.84881019 73.02458504 -23.05078125 75.58203125 C-26.9504807 77.26875247 -30.29476984 76.70540058 -34.30859375 75.55859375 C-38.78798876 72.50879289 -39.85079644 69.50324665 -40.91809082 64.29995728 C-41.69300046 58.86002619 -41.59224872 53.39882875 -41.57421875 47.9140625 C-41.5761322 46.62671707 -41.57804565 45.33937164 -41.58001709 44.01301575 C-41.58294612 41.30590951 -41.57873948 38.59893634 -41.56933594 35.8918457 C-41.55788516 32.42737212 -41.56455007 28.96320659 -41.57648087 25.49874401 C-41.58544601 22.17882546 -41.57917174 18.8589898 -41.57421875 15.5390625 C-41.57826721 14.29738815 -41.58231567 13.05571381 -41.58648682 11.77641296 C-41.5801825 10.62453995 -41.57387817 9.47266693 -41.56738281 8.28588867 C-41.56499603 6.76773811 -41.56499603 6.76773811 -41.56256104 5.21891785 C-41.30131105 2.48230694 -40.80030984 0.85173671 -39.30859375 -1.44140625 C-30.15674382 -6.01733122 -8.43665092 -6.01643995 0 0 Z " fill="#009FEE" transform="translate(328.30859375,65.44140625)"/>
<path d="M0 0 C7.73538435 4.3631709 13.10102899 10.9149395 16.07421875 19.2578125 C17.91406051 26.67193674 17.4964619 34.18346962 13.73046875 40.90234375 C10.04688807 46.5575846 5.10951617 50.61533712 -1.26953125 52.90234375 C-4.26085531 53.36117867 -7.25342537 53.66151245 -10.26953125 53.90234375 C-10.24858398 54.48725586 -10.22763672 55.07216797 -10.20605469 55.67480469 C-10.1227301 58.3338084 -10.07082228 60.9925373 -10.01953125 63.65234375 C-9.98601563 64.57273437 -9.9525 65.493125 -9.91796875 66.44140625 C-9.81904645 73.26704468 -9.81904645 73.26704468 -12.09765625 76.48046875 C-16.13519566 79.12374995 -19.53724849 79.22317648 -24.26953125 78.90234375 C-28.44002484 77.26685607 -31.37774163 75.32964997 -34.26953125 71.90234375 C-35.13855097 69.29528458 -35.44474952 67.5652071 -35.5793457 64.87915039 C-35.64088081 63.66261024 -35.64088081 63.66261024 -35.70365906 62.42149353 C-35.76140251 61.09910423 -35.76140251 61.09910423 -35.8203125 59.75 C-35.86215164 58.82421646 -35.90399078 57.89843292 -35.94709778 56.94459534 C-36.36951906 46.78398435 -36.455638 36.62561267 -36.45483398 26.45727539 C-36.45707115 23.28323896 -36.47546874 20.10952455 -36.49414062 16.93554688 C-36.49706684 14.90234492 -36.49905679 12.86914134 -36.5 10.8359375 C-36.50718552 9.89439316 -36.51437103 8.95284882 -36.52177429 7.98277283 C-36.51869766 7.10988113 -36.51562103 6.23698944 -36.51245117 5.33764648 C-36.51387619 4.57491928 -36.51530121 3.81219208 -36.51676941 3.02635193 C-36.23309465 0.58931915 -35.53461859 -1.00595649 -34.26953125 -3.09765625 C-25.34510272 -9.70678493 -8.6764907 -4.19637502 0 0 Z " fill="#009FEF" transform="translate(700.26953125,63.09765625)"/>
<path d="M0 0 C8.01169334 4.72319144 10.62736801 13.01065215 12.91552734 21.56762695 C14.77836343 29.10612594 16.19394639 36.73370603 17.5625 44.375 C17.89133179 46.17952637 17.89133179 46.17952637 18.22680664 48.02050781 C19.53457973 55.71626975 20.8427857 63.76873796 19.75 71.5625 C17.87531994 74.11452548 17.1483876 74.49526159 13.97265625 75.03125 C5.53376784 75.11470007 5.53376784 75.11470007 2 72.625 C0.75 69.5625 0.75 69.5625 0.75 60.5625 C-5.52 60.8925 -11.79 61.2225 -18.25 61.5625 C-18.848125 63.66625 -19.44625 65.77 -20.0625 67.9375 C-21.875 74.3125 -21.875 74.3125 -25.25 76.5625 C-27.625 76.828125 -27.625 76.828125 -30.25 76.8125 C-31.11625 76.81765625 -31.9825 76.8228125 -32.875 76.828125 C-35.25 76.5625 -35.25 76.5625 -38.25 74.5625 C-40.08256952 65.66603292 -36.81954777 55.94123115 -34.6875 47.3125 C-34.32245051 45.80502737 -33.95746086 44.29754025 -33.5925293 42.79003906 C-31.42394002 33.91702709 -29.13400891 25.07811739 -26.5625 16.3125 C-26.30202881 15.39823242 -26.04155762 14.48396484 -25.77319336 13.54199219 C-23.90422083 7.45199024 -21.69624848 2.87335654 -16.234375 -0.7890625 C-10.94387526 -2.51784785 -5.10852155 -2.1514735 0 0 Z " fill="#009FEF" transform="translate(432.25,61.4375)"/>
<path d="M0 0 C8.81507351 5.36250305 11.5037817 14.65957327 13.875 24.140625 C15.7496885 32.09944214 17.35723115 40.10701869 18.875 48.140625 C19.07851074 49.19854248 19.07851074 49.19854248 19.28613281 50.27783203 C22.98579776 69.8652131 22.98579776 69.8652131 19.49609375 76.93359375 C17.46429521 79.69977731 16.19219541 80.31132615 12.875 81.140625 C7.08194745 81.79644227 2.50535277 80.66489818 -2.125 77.140625 C-4.17577581 73.12452237 -4.125 70.74401833 -4.125 66.140625 C-9.075 66.140625 -14.025 66.140625 -19.125 66.140625 C-19.2075 67.6875 -19.29 69.234375 -19.375 70.828125 C-19.82066651 75.38813309 -20.69215474 77.91583097 -24.125 81.140625 C-26.79596694 82.47610847 -28.95539424 82.38326062 -31.9375 82.453125 C-32.97519531 82.49050781 -34.01289063 82.52789062 -35.08203125 82.56640625 C-38.95808884 82.02405673 -40.53022013 81.06331661 -43.125 78.140625 C-43.61328125 74.90625 -43.61328125 74.90625 -43.4375 71.390625 C-43.39238281 70.22015625 -43.34726562 69.0496875 -43.30078125 67.84375 C-43.24277344 66.95171875 -43.18476563 66.0596875 -43.125 65.140625 C-43.640625 66.295625 -44.15625 67.450625 -44.6875 68.640625 C-47.77241875 74.75615055 -52.21066923 81.4193255 -58.98828125 83.734375 C-67.16814025 85.28959499 -74.69394338 84.97338323 -81.97265625 80.73828125 C-90.38540494 74.49360935 -93.54030408 64.16742827 -95.125 54.140625 C-95.37830813 51.03933161 -95.53787341 47.93594289 -95.6875 44.828125 C-95.73068359 43.99216797 -95.77386719 43.15621094 -95.81835938 42.29492188 C-95.92385307 40.24365565 -96.02487315 38.1921602 -96.125 36.140625 C-97.50011396 37.49467594 -98.84952446 38.87486484 -100.1875 40.265625 C-100.94160156 41.03132813 -101.69570313 41.79703125 -102.47265625 42.5859375 C-104.42801806 45.03052778 -104.42801806 45.03052778 -103.85961914 47.94873047 C-103.14617668 51.04861307 -102.21412058 53.81910291 -101.0234375 56.765625 C-100.61609375 57.80203125 -100.20875 58.8384375 -99.7890625 59.90625 C-98.92861244 62.06519741 -98.06139964 64.2214616 -97.1875 66.375 C-96.78273438 67.41140625 -96.37796875 68.4478125 -95.9609375 69.515625 C-95.58501465 70.45148438 -95.2090918 71.38734375 -94.82177734 72.3515625 C-93.99412639 75.66448631 -94.26375371 77.85421488 -95.125 81.140625 C-97.86192533 84.51616623 -100.01076543 85.91864856 -104.39453125 86.37890625 C-108.48264484 86.49822139 -111.58026884 86.34618393 -115.4375 84.890625 C-119.53767109 80.6951011 -121.18271532 75.60652348 -123.125 70.140625 C-123.15078125 70.88828125 -123.1765625 71.6359375 -123.203125 72.40625 C-123.6592067 80.32548672 -123.6592067 80.32548672 -125.625 83.765625 C-130.04830311 86.19844171 -134.43202375 86.86001409 -139.34765625 85.546875 C-143.61751686 83.69527189 -146.4114869 81.45274073 -148.37492371 77.18881226 C-151.04536861 69.89679243 -150.28546758 61.12484046 -150.29296875 53.4765625 C-150.29629715 52.28511627 -150.29962555 51.09367004 -150.30305481 49.86611938 C-150.30809474 47.35996891 -150.31046405 44.85381179 -150.31030273 42.34765625 C-150.31249708 38.5207215 -150.33070573 34.69407167 -150.34960938 30.8671875 C-150.35254236 28.42448015 -150.35452779 25.98177143 -150.35546875 23.5390625 C-150.36265427 22.40036713 -150.36983978 21.26167175 -150.37724304 20.08847046 C-150.36092035 14.40341885 -150.21250184 9.46432631 -148.125 4.140625 C-140.96814854 -2.3656036 -125.4642092 -0.39823146 -116.39453125 -0.04736328 C-109.72621622 0.50498209 -103.83754344 3.42808156 -99.125 8.140625 C-96.01948162 12.10878738 -94.60344086 15.11699596 -94.125 20.140625 C-93.465 20.140625 -92.805 20.140625 -92.125 20.140625 C-92.0425 19.150625 -91.96 18.160625 -91.875 17.140625 C-90.99540417 11.18829156 -88.62221844 6.12466485 -84 2.203125 C-78.08905633 -2.03733459 -72.23443938 -1.49245711 -65.125 -0.859375 C-56.41061885 1.40819442 -49.80098044 5.47010627 -44.88671875 13.05078125 C-40.21244354 21.60045554 -39.84119071 30.46263515 -40 40.015625 C-40.00902344 41.046875 -40.01804687 42.078125 -40.02734375 43.140625 C-40.04467945 45.0376457 -40.06614835 46.93463682 -40.09326172 48.83154297 C-40.11758426 50.60110145 -40.125 52.37089937 -40.125 54.140625 C-39.91746094 53.13128906 -39.70992188 52.12195313 -39.49609375 51.08203125 C-37.50688753 41.65246073 -35.2086429 32.31701555 -32.6875 23.015625 C-32.41156006 21.96189697 -32.13562012 20.90816895 -31.85131836 19.82250977 C-29.53357796 11.44031582 -26.64045444 4.08500292 -19.125 -0.859375 C-12.98000603 -2.90770632 -5.94711252 -2.63783217 0 0 Z M-22.125 5.140625 C-25.76862219 10.71151242 -27.64161524 16.32229606 -29.4375 22.703125 C-29.73019775 23.72946045 -30.02289551 24.7557959 -30.32446289 25.81323242 C-32.5682921 33.83407123 -34.64247423 41.89673008 -36.59042358 49.99411011 C-37.05096958 51.90527624 -37.52109153 53.81412677 -37.99145508 55.72290039 C-40.54204535 66.33369206 -40.54204535 66.33369206 -40.125 77.140625 C-36.9399857 79.26396787 -35.88043693 79.46009211 -32.1875 79.515625 C-31.33285156 79.54398437 -30.47820312 79.57234375 -29.59765625 79.6015625 C-26.25645463 78.97871607 -25.17927101 77.81699551 -23.125 75.140625 C-22.01605003 72.35410382 -22.01605003 72.35410382 -21.375 69.390625 C-20.75625 66.791875 -20.75625 66.791875 -20.125 64.140625 C-13.855 63.810625 -7.585 63.480625 -1.125 63.140625 C-1.125 66.110625 -1.125 69.080625 -1.125 72.140625 C-0.11380188 75.40469362 -0.11380188 75.40469362 2.875 77.140625 C9.99882943 78.21449497 9.99882943 78.21449497 16.52832031 75.97387695 C20.47191729 70.60540891 17.87450221 60.34206003 16.95703125 54.16015625 C16.54836423 51.75530166 16.12480829 49.35293662 15.6875 46.953125 C15.46118896 45.68952148 15.23487793 44.42591797 15.00170898 43.12402344 C11.88306041 21.31174485 11.88306041 21.31174485 0.06640625 3.72265625 C-7.17478717 -0.54629681 -15.82418353 -0.71013315 -22.125 5.140625 Z M-85.125 7.140625 C-93.43151804 22.13970032 -95.15458918 43.34857257 -91.13671875 59.86328125 C-88.57935893 68.49093608 -85.12415972 75.54536304 -77.125 80.140625 C-71.10968399 82.14573034 -63.72185378 82.23364923 -57.8125 79.765625 C-50.51654136 75.4792493 -46.43766334 66.97798409 -44.125 59.140625 C-41.65856852 45.81139957 -40.12623142 27.25545248 -47.125 15.140625 C-51.91297348 8.2423125 -57.05920136 4.49035231 -65.125 2.140625 C-76.46535335 0.91336595 -76.46535335 0.91336595 -85.125 7.140625 Z M-146.125 6.140625 C-147.16813994 9.27004483 -147.25792299 11.47053474 -147.27026367 14.75439453 C-147.27664352 15.90634308 -147.28302338 17.05829163 -147.28959656 18.24514771 C-147.29070938 19.49198334 -147.2918222 20.73881897 -147.29296875 22.0234375 C-147.29629715 23.30741425 -147.29962555 24.59139099 -147.30305481 25.91427612 C-147.30904409 28.63621866 -147.31089513 31.35812947 -147.31030273 34.08007812 C-147.31020161 37.54645234 -147.32380322 41.01261943 -147.34107494 44.47894478 C-147.3549644 47.80627824 -147.35428658 51.1335755 -147.35546875 54.4609375 C-147.36265427 55.69562775 -147.36983978 56.93031799 -147.37724304 58.2024231 C-147.45877524 69.73994247 -147.45877524 69.73994247 -143.0625 80.140625 C-139.281505 82.71491947 -135.70515628 83.66500783 -131.125 83.140625 C-128.72624812 82.29809356 -128.72624812 82.29809356 -127.125 80.140625 C-126.79430889 77.20991298 -126.70182326 74.68352094 -126.8125 71.765625 C-126.82796875 70.96721191 -126.8434375 70.16879883 -126.859375 69.34619141 C-127.02155353 62.59280696 -127.45987132 55.86317561 -128.125 49.140625 C-127.465 49.140625 -126.805 49.140625 -126.125 49.140625 C-125.9906958 49.86515869 -125.8563916 50.58969238 -125.71801758 51.33618164 C-124.76147829 55.85975795 -123.25868415 60.19106323 -121.8125 64.578125 C-121.51666016 65.50689453 -121.22082031 66.43566406 -120.91601562 67.39257812 C-118.79577282 73.82657628 -116.95855668 79.25158721 -111.125 83.140625 C-106.63563983 83.86363057 -103.07656948 83.61640974 -99 81.578125 C-96.82283694 79.27570373 -96.82283694 79.27570373 -97.19140625 76.28515625 C-98.22599229 70.38016403 -100.88779214 64.88841352 -103.1875 59.390625 C-104.12054031 57.14776413 -105.04914838 54.90305269 -105.97265625 52.65625 C-106.5915271 51.17560059 -106.5915271 51.17560059 -107.22290039 49.66503906 C-108.125 47.140625 -108.125 47.140625 -108.125 44.140625 C-106.734375 42.74609375 -106.734375 42.74609375 -104.875 41.328125 C-100.2592897 37.57202067 -96.6212215 33.2649578 -95.88671875 27.16015625 C-95.660088 20.42087337 -97.06972718 15.41043272 -101.73828125 10.4140625 C-108.40086897 4.41625626 -114.04397877 2.6714766 -122.875 2.890625 C-124.20809204 2.90923584 -124.20809204 2.90923584 -125.56811523 2.92822266 C-136.35536165 2.65161722 -136.35536165 2.65161722 -146.125 6.140625 Z " fill="#0B0F12" transform="translate(434.125,58.859375)"/>
<path d="M0 0 C7.58263619 4.22877788 10.84517105 10.23265471 13.31640625 18.2890625 C17.42811953 33.19167197 18.46352538 48.43485148 19.25 63.8125 C19.3951001 63.15580322 19.5402002 62.49910645 19.68969727 61.82250977 C22.49263058 49.21640726 25.42900856 36.65176119 28.8125 24.1875 C29.21480835 22.65331421 29.21480835 22.65331421 29.62524414 21.08813477 C31.90771131 12.86701985 34.88899611 5.65526572 42.25 0.8125 C48.39499397 -1.23583132 55.42788748 -0.96595717 61.375 1.671875 C70.19007351 7.03437805 72.8787817 16.33144827 75.25 25.8125 C77.1246885 33.77131714 78.73223115 41.77889369 80.25 49.8125 C80.45351074 50.87041748 80.45351074 50.87041748 80.66113281 51.94970703 C84.36079776 71.5370881 84.36079776 71.5370881 80.87109375 78.60546875 C78.83929521 81.37165231 77.56719541 81.98320115 74.25 82.8125 C68.45694745 83.46831727 63.88035277 82.33677318 59.25 78.8125 C57.19922419 74.79639737 57.25 72.41589333 57.25 67.8125 C52.3 67.8125 47.35 67.8125 42.25 67.8125 C42.1675 69.359375 42.085 70.90625 42 72.5 C41.55433349 77.06000809 40.68284526 79.58770597 37.25 82.8125 C34.55893093 84.15803453 32.37834578 84.01844114 29.375 84.0625 C28.32570313 84.08828125 27.27640625 84.1140625 26.1953125 84.140625 C22.926553 83.77646612 21.56241815 83.11374705 19.25 80.8125 C19.25 80.1525 19.25 79.4925 19.25 78.8125 C18.59 78.8125 17.93 78.8125 17.25 78.8125 C17.0025 79.43125 16.755 80.05 16.5 80.6875 C14.96177504 83.30248244 14.12649576 83.87958246 11.25 84.8125 C5.7997622 85.32667338 2.06395665 84.4046305 -2.75 81.8125 C-6.98371329 77.29653915 -6.9385039 72.55251013 -7.06640625 66.64453125 C-7.08718735 65.84971848 -7.10796844 65.0549057 -7.12937927 64.23600769 C-7.19472087 61.69909237 -7.25368808 59.16207427 -7.3125 56.625 C-7.35569986 54.90428628 -7.39931463 53.18358292 -7.44335938 51.46289062 C-7.55038648 47.24619887 -7.65169724 43.0294038 -7.75 38.8125 C-8.41 38.8125 -9.07 38.8125 -9.75 38.8125 C-9.9975 40.070625 -10.245 41.32875 -10.5 42.625 C-13.89772401 57.56082847 -13.89772401 57.56082847 -18.4375 62 C-22.75162682 64.36055996 -25.9402506 64.85704154 -30.75 63.8125 C-34.03746766 62.25731749 -37.16370094 60.39879906 -39.75 57.8125 C-39.72905273 58.42246826 -39.70810547 59.03243652 -39.68652344 59.66088867 C-39.60307139 62.44042294 -39.55124989 65.2196932 -39.5 68 C-39.44972656 69.43956055 -39.44972656 69.43956055 -39.3984375 70.90820312 C-39.29965057 78.04555877 -39.29965057 78.04555877 -41.578125 81.92578125 C-44.34583923 84.33010854 -46.31725368 84.76158867 -49.9375 85.1875 C-54.8811354 84.70124078 -58.06314069 83.12484764 -61.75 79.8125 C-69.910774 65.33370743 -66.9165738 43.06524539 -67.09103394 26.90890503 C-67.11362247 25.1406468 -67.14477001 23.37247658 -67.18460083 21.60452271 C-67.23869962 19.08882545 -67.25992657 16.57479544 -67.2734375 14.05859375 C-67.29606155 13.30105804 -67.31868561 12.54352234 -67.34199524 11.76303101 C-67.3260885 7.73551249 -66.92179641 6.02319535 -64.34228516 2.85961914 C-59.40395126 -1.04016704 -54.88265853 -0.76840135 -48.75 -0.1875 C-41.21708608 1.94276186 -36.88927653 7.17180462 -33.046875 13.7109375 C-31.57204033 16.39182857 -30.13995818 19.08680186 -28.75 21.8125 C-28.36328125 20.94367188 -27.9765625 20.07484375 -27.578125 19.1796875 C-21.66574134 6.09634346 -16.19915972 -5.12973391 0 0 Z M-17.75 5.8125 C-19.74039674 8.95825345 -19.74039674 8.95825345 -21.375 12.5 C-21.67349854 13.11633301 -21.97199707 13.73266602 -22.27954102 14.36767578 C-24.52123116 19.08760704 -26.28219174 23.80468357 -27.75 28.8125 C-30.3639775 25.56483099 -32.21846502 22.13842085 -34.125 18.4375 C-39.35949173 8.47266053 -39.35949173 8.47266053 -48.75 2.8125 C-55.6322771 1.89889596 -55.6322771 1.89889596 -61.88500977 4.25488281 C-64.69141319 8.10353869 -64.26733761 11.58431944 -64.17578125 16.23046875 C-64.17249313 17.16111649 -64.16920502 18.09176422 -64.16581726 19.0506134 C-64.15007616 22.03421298 -64.1061417 25.01669229 -64.0625 28 C-64.05100047 29.95767287 -64.04121773 31.91535663 -64.03320312 33.87304688 C-65.46983253 57.60317943 -65.46983253 57.60317943 -58.25 78.75 C-54.26723312 82.03578268 -51.90277068 82.08369846 -46.75 81.8125 C-45.265 80.8225 -45.265 80.8225 -43.75 79.8125 C-43.31417251 77.92161563 -43.31417251 77.92161563 -43.40942383 75.72998047 C-43.40965042 74.88925995 -43.40987701 74.04853943 -43.41011047 73.18234253 C-43.42559433 72.27396637 -43.44107819 71.36559021 -43.45703125 70.4296875 C-43.46339851 69.03558151 -43.46339851 69.03558151 -43.46989441 67.61331177 C-43.48671988 64.63774944 -43.52437897 61.66285844 -43.5625 58.6875 C-43.57754184 56.67318685 -43.59123112 54.65886311 -43.60351562 52.64453125 C-43.63663606 47.70026121 -43.68844471 42.75649451 -43.75 37.8125 C-43.37488281 38.98167969 -42.99976563 40.15085938 -42.61328125 41.35546875 C-42.09713535 42.90390645 -41.58016447 44.45206932 -41.0625 46 C-40.81822266 46.76892578 -40.57394531 47.53785156 -40.32226562 48.33007812 C-38.45693536 53.83162182 -36.19786429 58.08856785 -30.75 60.8125 C-26.68176108 61.3103527 -26.68176108 61.3103527 -22.75 60.8125 C-18.57465361 57.25044633 -16.78494412 54.15826421 -15.07421875 48.98046875 C-14.85933304 48.34385818 -14.64444733 47.70724762 -14.42304993 47.05134583 C-13.74717341 45.03858635 -13.09210887 43.01976372 -12.4375 41 C-11.97988 39.62519614 -11.52090822 38.25084146 -11.06054688 36.87695312 C-9.94136087 33.52718389 -8.84071934 30.17166153 -7.75 26.8125 C-3.39269917 31.16980083 -4.6468306 45.77794199 -4.50390625 51.59765625 C-4.48645355 52.28442444 -4.46900085 52.97119263 -4.45101929 53.67877197 C-4.3667996 57.17213746 -4.30439488 60.66451213 -4.26757812 64.15869141 C-4.24244141 65.46112793 -4.21730469 66.76356445 -4.19140625 68.10546875 C-4.17795166 69.2761792 -4.16449707 70.44688965 -4.15063477 71.65307617 C-3.70988089 75.12888111 -2.83196173 77.02090034 -0.75 79.8125 C3.16726246 82.09756977 6.78180243 82.21869978 11.25 81.8125 C13.5355118 80.78153884 13.5355118 80.78153884 15.25 78.8125 C15.85300967 75.8870855 15.85300967 75.8870855 15.74609375 72.51171875 C15.75044434 70.59625244 15.75044434 70.59625244 15.75488281 68.64208984 C15.73423261 67.26136496 15.71173282 65.88066665 15.6875 64.5 C15.6810144 63.80465149 15.67452881 63.10930298 15.66784668 62.3928833 C15.75166991 32.97309334 15.75166991 32.97309334 4.25 6.8125 C0.22165875 3.26372318 -2.21425778 1.65234873 -7.5625 1.5 C-8.41457031 1.46261719 -9.26664063 1.42523438 -10.14453125 1.38671875 C-13.71492874 1.97018701 -15.19832932 3.26497838 -17.75 5.8125 Z M39.25 6.8125 C35.60637781 12.38338742 33.73338476 17.99417106 31.9375 24.375 C31.64480225 25.40133545 31.35210449 26.4276709 31.05053711 27.48510742 C28.8067079 35.50594623 26.73252577 43.56860508 24.78457642 51.66598511 C24.32403042 53.57715124 23.85390847 55.48600177 23.38354492 57.39477539 C20.83295465 68.00556706 20.83295465 68.00556706 21.25 78.8125 C24.4350143 80.93584287 25.49456307 81.13196711 29.1875 81.1875 C30.04214844 81.21585937 30.89679688 81.24421875 31.77734375 81.2734375 C35.11854537 80.65059107 36.19572899 79.48887051 38.25 76.8125 C39.35894997 74.02597882 39.35894997 74.02597882 40 71.0625 C40.61875 68.46375 40.61875 68.46375 41.25 65.8125 C47.52 65.4825 53.79 65.1525 60.25 64.8125 C60.25 67.7825 60.25 70.7525 60.25 73.8125 C61.26119812 77.07656862 61.26119812 77.07656862 64.25 78.8125 C71.37382943 79.88636997 71.37382943 79.88636997 77.90332031 77.64575195 C81.84691729 72.27728391 79.24950221 62.01393503 78.33203125 55.83203125 C77.92336423 53.42717666 77.49980829 51.02481162 77.0625 48.625 C76.83618896 47.36139648 76.60987793 46.09779297 76.37670898 44.79589844 C73.25806041 22.98361985 73.25806041 22.98361985 61.44140625 5.39453125 C54.20021283 1.12557819 45.55081647 0.96174185 39.25 6.8125 Z " fill="#0B1013" transform="translate(581.75,57.1875)"/>
<path d="M0 0 C7.17331652 5.30665423 10.84664886 12.82302931 13 21.3125 C13.18304687 22.02664062 13.36609375 22.74078125 13.5546875 23.4765625 C15.3132797 34.67601809 15.37922564 47.1537001 10 57.3125 C9.63777344 58.034375 9.27554688 58.75625 8.90234375 59.5 C3.25776596 69.60283753 -6.05446368 75.14671411 -17 78.3125 C-24.40680282 79.42812373 -31.56926359 79.46872879 -38 75.3125 C-41.63630105 70.74731197 -41.97943614 65.6521062 -42.65625 60.0390625 C-42.78197388 59.02856842 -42.90769775 58.01807434 -43.03723145 56.97695923 C-44.23396059 46.58240038 -44.52435994 36.22719658 -44.50097656 25.77148438 C-44.49998035 22.62543504 -44.54234121 19.481652 -44.5859375 16.3359375 C-44.59113002 14.31510916 -44.59383293 12.29427251 -44.59375 10.2734375 C-44.6183429 8.87827408 -44.6183429 8.87827408 -44.64343262 7.45492554 C-44.59480001 2.92709338 -44.49364416 0.95002138 -41.64453125 -2.72949219 C-30.08841944 -11.28562372 -11.43140656 -6.8741624 0 0 Z M-40 -0.6875 C-40.05124009 6.85234634 -40.08595719 14.39214683 -40.10986328 21.93212891 C-40.11984275 24.4904142 -40.13343109 27.04868833 -40.15087891 29.60693359 C-40.35529422 46.71413557 -40.35529422 46.71413557 -39.3671875 63.78125 C-39.2522998 64.95107422 -39.13741211 66.12089844 -39.01904297 67.32617188 C-37.58030329 71.54243057 -35.66084473 72.80635293 -32 75.3125 C-21.65580276 77.44145101 -12.42971782 74.20670514 -3.65234375 68.890625 C4.75096495 63.04757671 9.02849466 55.31762605 11 45.3125 C12.3002096 32.3788361 11.78310507 19.74503637 4.0625 8.8125 C-2.07854307 1.43715299 -9.08077114 -2.24295379 -18.62890625 -3.265625 C-20.31412258 -3.39851354 -22.00042935 -3.51820081 -23.6875 -3.625 C-24.49525879 -3.68260498 -25.30301758 -3.74020996 -26.13525391 -3.79956055 C-26.9194873 -3.833479 -27.7037207 -3.86739746 -28.51171875 -3.90234375 C-29.20740967 -3.93448975 -29.90310059 -3.96663574 -30.61987305 -3.99975586 C-34.07836296 -3.54602639 -36.83682905 -2.14807086 -40 -0.6875 Z " fill="#0F171C" transform="translate(499,63.6875)"/>
<path d="M0 0 C7.73538435 4.3631709 13.10102899 10.9149395 16.07421875 19.2578125 C17.91406051 26.67193674 17.4964619 34.18346962 13.73046875 40.90234375 C10.04688807 46.5575846 5.10951617 50.61533712 -1.26953125 52.90234375 C-4.26085531 53.36117867 -7.25342537 53.66151245 -10.26953125 53.90234375 C-10.24858398 54.48725586 -10.22763672 55.07216797 -10.20605469 55.67480469 C-10.1227301 58.3338084 -10.07082228 60.9925373 -10.01953125 63.65234375 C-9.98601563 64.57273437 -9.9525 65.493125 -9.91796875 66.44140625 C-9.81904645 73.26704468 -9.81904645 73.26704468 -12.09765625 76.48046875 C-16.13519566 79.12374995 -19.53724849 79.22317648 -24.26953125 78.90234375 C-28.44002484 77.26685607 -31.37774163 75.32964997 -34.26953125 71.90234375 C-35.13855097 69.29528458 -35.44474952 67.5652071 -35.5793457 64.87915039 C-35.64088081 63.66261024 -35.64088081 63.66261024 -35.70365906 62.42149353 C-35.76140251 61.09910423 -35.76140251 61.09910423 -35.8203125 59.75 C-35.86215164 58.82421646 -35.90399078 57.89843292 -35.94709778 56.94459534 C-36.36951906 46.78398435 -36.455638 36.62561267 -36.45483398 26.45727539 C-36.45707115 23.28323896 -36.47546874 20.10952455 -36.49414062 16.93554688 C-36.49706684 14.90234492 -36.49905679 12.86914134 -36.5 10.8359375 C-36.50718552 9.89439316 -36.51437103 8.95284882 -36.52177429 7.98277283 C-36.51869766 7.10988113 -36.51562103 6.23698944 -36.51245117 5.33764648 C-36.51387619 4.57491928 -36.51530121 3.81219208 -36.51676941 3.02635193 C-36.23309465 0.58931915 -35.53461859 -1.00595649 -34.26953125 -3.09765625 C-25.34510272 -9.70678493 -8.6764907 -4.19637502 0 0 Z M-31.9755249 -0.84725952 C-33.59531995 1.34283694 -33.6388758 2.51752656 -33.62597656 5.22412109 C-33.62897766 6.09708832 -33.63197876 6.97005554 -33.6350708 7.86947632 C-33.622724 8.81618195 -33.6103772 9.76288757 -33.59765625 10.73828125 C-33.59578308 11.72744537 -33.59390991 12.7166095 -33.59197998 13.73574829 C-33.58524497 15.84242088 -33.571302 17.94908066 -33.55078125 20.05566406 C-33.52025627 23.202599 -33.5098666 26.34902694 -33.50390625 29.49609375 C-33.48187204 35.63286311 -33.38772778 41.76675707 -33.26953125 47.90234375 C-33.24644897 49.4113324 -33.24644897 49.4113324 -33.22290039 50.95080566 C-33.17178786 53.8445522 -33.09258724 56.73609416 -33.00390625 59.62890625 C-32.99079407 60.49349457 -32.97768188 61.35808289 -32.96417236 62.24887085 C-32.76638274 67.37400954 -32.11660499 70.17611573 -28.26953125 73.90234375 C-24.79552721 76.41800185 -21.4566105 76.27619011 -17.26953125 75.90234375 C-14.99771869 74.79226121 -14.99771869 74.79226121 -13.26953125 72.90234375 C-12.71969526 70.49325652 -12.71969526 70.49325652 -12.87890625 67.796875 C-12.89179687 66.81396484 -12.9046875 65.83105469 -12.91796875 64.81835938 C-12.95148437 63.79419922 -12.985 62.77003906 -13.01953125 61.71484375 C-13.04660156 60.16120117 -13.04660156 60.16120117 -13.07421875 58.57617188 C-13.12138688 56.01730091 -13.18719068 53.46028533 -13.26953125 50.90234375 C-12.04363281 50.93457031 -10.81773437 50.96679688 -9.5546875 51 C-2.61696635 50.98931014 2.60541149 48.27476654 7.60546875 43.52734375 C12.84557167 37.75228832 14.42011929 32.92411808 14.20703125 25.13671875 C13.06334627 17.37466005 9.10954705 9.91016398 2.79296875 5.14453125 C-5.45426213 0.17744901 -12.75492639 -2.2786942 -22.33203125 -2.34765625 C-23.41194336 -2.37859375 -23.41194336 -2.37859375 -24.51367188 -2.41015625 C-28.49143261 -2.51100928 -28.49143261 -2.51100928 -31.9755249 -0.84725952 Z " fill="#0B0E10" transform="translate(700.26953125,63.09765625)"/>
<path d="M0 0 C6.82432717 7.33127718 7.42800963 17.13273462 7.25 26.65625 C6.62931078 34.95796825 4.74187507 43.65628533 -1 50 C-2.31988121 50.69291833 -3.65230796 51.3628592 -5 52 C-6.88573414 40.61224924 -7.2479408 29.58298098 -7.125 18.0625 C-7.11493544 16.39648984 -7.10581582 14.7304737 -7.09765625 13.06445312 C-7.07595177 9.04281671 -7.04162026 5.02147756 -7 1 C-4.25345395 -0.37327303 -3.04670253 -0.63768192 0 0 Z " fill="#040F15" transform="translate(484,72)"/>
<path d="M0 0 C2.49006289 0.97035441 3.74255982 1.51195703 5.01171875 3.91796875 C9.18114409 17.9204897 10.01288042 33.78839647 3.91015625 47.4375 C2.8125 49.375 2.8125 49.375 1 52 C-1.54143476 50.72928262 -1.65272565 49.9345168 -2.6015625 47.30078125 C-4.57820617 40.9957117 -4.43804086 34.74024764 -4.375 28.1875 C-4.38660156 26.99318359 -4.39820313 25.79886719 -4.41015625 24.56835938 C-4.38293864 16.23523404 -3.79312189 7.58624379 0 0 Z " fill="#0A0E10" transform="translate(365,74)"/>
<path d="M0 0 C3.01218292 1.31666552 3.89876377 1.83502244 5.6875 4.75 C9.5491893 14.97711123 8.97607129 28.49758455 4.97265625 38.58984375 C4.06152324 40.43480703 3.0432859 42.22641397 2 44 C1.67 44 1.34 44 1 44 C-0.32456929 34.99918661 -0.11081876 26.01139818 -0.0625 16.9375 C-0.0574758 15.29231907 -0.05291452 13.64713665 -0.04882812 12.00195312 C-0.03789342 8.00126502 -0.0206793 4.00064912 0 0 Z " fill="#EEEEEE" transform="translate(480,75)"/>
<path d="M0 0 C0.66 0.33 1.32 0.66 2 1 C5.92989332 13.66298958 4.25946253 26.40838584 1 39 C0.34 39 -0.32 39 -1 39 C-2.73060619 33.80818142 -2.18463392 28.30907841 -2.1875 22.875 C-2.19974609 21.67617187 -2.21199219 20.47734375 -2.22460938 19.2421875 C-2.23570485 12.49613735 -1.77234248 6.51493481 0 0 Z " fill="#F5F5F5" transform="translate(366,80)"/>
<path d="M0 0 C3.52482355 0.61759729 4.07662514 1.0801081 6.75 3.875 C9.91209069 8.62303091 9.90277922 13.49221852 9 19 C7.96801712 21.68734629 7.03742808 22.84938147 5 25 C2.859375 25.6484375 2.859375 25.6484375 1 26 C-0.01286753 17.30019136 -0.10621544 8.74507107 0 0 Z " fill="#050E14" transform="translate(685,73)"/>
<path d="M0 0 C4.3559995 4.3559995 4.80073574 12.9541034 5.19140625 18.92578125 C5.1881754 20.95152325 5.10464001 22.97695982 5 25 C1.37 25 -2.26 25 -6 25 C-4.92779007 16.25302428 -3.06729318 8.26382387 0 0 Z " fill="#040E13" transform="translate(633,79)"/>
<path d="M0 0 C4.3559995 4.3559995 4.80073574 12.9541034 5.19140625 18.92578125 C5.1881754 20.95152325 5.10464001 22.97695982 5 25 C1.37 25 -2.26 25 -6 25 C-4.92779007 16.25302428 -3.06729318 8.26382387 0 0 Z " fill="#040E13" transform="translate(424,79)"/>
<path d="M0 0 C5.61 0 11.22 0 17 0 C14.64571821 5.88570447 12.56722445 7.43128064 7 10 C4.5962958 10.61783767 2.49235491 10.84422782 0 11 C0 7.37 0 3.74 0 0 Z " fill="#080C0E" transform="translate(305,79)"/>
<path d="M0 0 C0.33 0.99 0.66 1.98 1 3 C-4.16123819 12.87367306 -12.85779137 17.33190121 -23 21 C-23.33 20.34 -23.66 19.68 -24 19 C-22.44770748 15.89541497 -19.34703798 15.19641865 -16.3125 13.8125 C-10.44201407 11.0240007 -6.77642786 8.30741213 -3 3 C-2.01765338 1.9826529 -1.021842 0.97767015 0 0 Z " fill="#090D0F" transform="translate(507,120)"/>
<path d="M0 0 C2.544609 2.94073546 3.3971255 4.732227 3.3125 8.625 C3.30863281 9.40101562 3.30476562 10.17703125 3.30078125 10.9765625 C3 13 3 13 1 15 C-0.32286246 10.03926578 -0.08893197 5.08888488 0 0 Z " fill="#D8D8D8" transform="translate(688,78)"/>
<path d="M0 0 C0.33 0 0.66 0 1 0 C1.33 3.63 1.66 7.26 2 11 C0.35 11 -1.3 11 -3 11 C-2.01 7.37 -1.02 3.74 0 0 Z " fill="#DCDCDC" transform="translate(633,90)"/>
<path d="M0 0 C0.33 0 0.66 0 1 0 C1.33 3.63 1.66 7.26 2 11 C0.35 11 -1.3 11 -3 11 C-2.01 7.37 -1.02 3.74 0 0 Z " fill="#DCDCDC" transform="translate(424,90)"/>
<path d="M0 0 C2.64 0 5.28 0 8 0 C5.47211993 2.79872437 3.79588866 4.45773019 0 5 C0 3.35 0 1.7 0 0 Z " fill="#F3F3F3" transform="translate(308,82)"/>
</svg>
