<?xml version="1.0" encoding="UTF-8"?>
<svg version="1.1" xmlns="http://www.w3.org/2000/svg" width="1000" height="200">
<path d="M0 0 C0.32871094 -0.53109375 0.65742188 -1.0621875 0.99609375 -1.609375 C4.83002086 -7.30312041 8.48923436 -9.90471724 15 -12 C15.60585937 -12.19722656 16.21171875 -12.39445312 16.8359375 -12.59765625 C22.71059214 -13.68987543 27.36857486 -12.74815564 32.9375 -10.8125 C38.32782661 -9.17889521 41.09839493 -8.65408084 46.0859375 -11.1796875 C52.15651226 -13.7813624 59.59371607 -12.06319931 65.609375 -10.0390625 C72.55116316 -7.02188006 76.92229852 -2.86564177 80 4 C81.76266191 9.99434656 82.40559133 15.58312706 82.625 21.8125 C82.66294678 22.7401416 82.70089355 23.6677832 82.73999023 24.62353516 C83.17990474 36.74362873 83.09036607 48.87426324 83 61 C84.27875 60.979375 85.5575 60.95875 86.875 60.9375 C90.75 60.875 90.75 60.875 93 62 C92.99476318 61.3694873 92.98952637 60.73897461 92.98413086 60.08935547 C92.88927843 46.70195598 92.96868446 33.32062347 93.3125 19.9375 C93.33497803 18.68501465 93.35745605 17.4325293 93.38061523 16.14208984 C93.6452772 7.25640928 94.2985247 -1.48999542 101 -8 C109.00419211 -12.66911206 117.1999945 -13.21643663 126.125 -10.875 C132.43876103 -8.7505584 137.81093469 -5.3641934 141.375 0.375 C144.54915746 7.45581281 145.35522043 14.15301434 145.625 21.8125 C145.66294678 22.7401416 145.70089355 23.6677832 145.73999023 24.62353516 C146.17990474 36.74362873 146.09036607 48.87426324 146 61 C147.27875 60.979375 148.5575 60.95875 149.875 60.9375 C153.75 60.875 153.75 60.875 156 62 C155.99000725 61.06278107 155.99000725 61.06278107 155.97981262 60.10662842 C155.91298944 53.5519327 155.86800608 46.99733513 155.83520508 40.44238281 C155.82020022 38.0022386 155.79978985 35.56212098 155.77368164 33.12207031 C155.73693149 29.59693808 155.72018998 26.07216512 155.70703125 22.546875 C155.69154739 21.4713739 155.67606354 20.3958728 155.66011047 19.28778076 C155.65810453 10.07954124 156.27194708 -0.66764677 163.06640625 -7.59765625 C168.75437811 -11.7228722 176.04201614 -13.95972191 183 -13 C190.3126282 -11.27992268 196.80711865 -9.63798546 202 -4 C202 -3.34 202 -2.68 202 -2 C202.8353125 -2.70576172 202.8353125 -2.70576172 203.6875 -3.42578125 C212.87923535 -10.92511938 221.24830356 -13.68222725 233.20703125 -12.75 C244.55170604 -11.2427597 253.80065761 -7.8143277 263 -1 C265.85651897 -2.29004082 267.75897754 -3.64447037 269.9375 -5.875 C276.81490153 -11.88352211 286.56559656 -13.69247565 295.4921875 -13.328125 C300.98927621 -12.60887975 305.78473345 -10.68835823 310 -7 C310.53625 -7.268125 311.0725 -7.53625 311.625 -7.8125 C312.800625 -8.4003125 312.800625 -8.4003125 314 -9 C315.485 -9.7734375 315.485 -9.7734375 317 -10.5625 C324.39254147 -14.10475945 333.13821562 -14.15783276 340.9375 -11.75 C346.06571283 -9.77475708 350.20356015 -6.79389688 353 -2 C357.70055341 10.8646725 354.83290773 27.17823314 354.3605957 40.58081055 C353.91119108 53.76089052 353.56393221 66.93965812 354.33203125 80.11328125 C354.38955566 81.1381665 354.44708008 82.16305176 354.50634766 83.21899414 C354.62286312 85.16850831 354.75535682 87.11716805 354.90771484 89.06420898 C355.35808845 96.37122359 354.62214832 103.27570157 350.30859375 109.40234375 C343.58144774 114.92169319 336.20666815 117.71757098 327.421875 117.34375 C318.41957635 116.06600438 311.70841103 113.15561383 306 106 C305.40574219 106.39832031 304.81148438 106.79664063 304.19921875 107.20703125 C296.08785688 112.39174311 287.84736433 116.15925198 278.0546875 114.50390625 C271.36111427 112.8623265 266.91366269 109.61495979 262 105 C261.0925 105.9075 260.185 106.815 259.25 107.75 C252.6726614 113.38201261 242.65452959 116.34180607 234 116 C223.14531043 114.55526511 213.25253687 111.42728318 205 104 C204.57332031 104.47050781 204.14664062 104.94101563 203.70703125 105.42578125 C197.91181687 111.19709784 192.11661248 113.2986798 184 114 C178.9591411 113.63909344 174.20689536 112.54210075 169.3125 111.33984375 C166.8793151 110.75049707 166.8793151 110.75049707 164.5 112.3125 C154.90219366 116.94001377 143.57658046 116.25887591 133.15209961 115.88842773 C130.93678293 115.81247542 128.7219638 115.76352123 126.50585938 115.71679688 C118.86127265 115.50524428 111.79223437 114.80772327 104.43847656 112.50561523 C100.99385197 111.7913764 98.97938511 112.69963242 95.87451172 114.1640625 C88.36303989 117.51379935 78.41501051 116.04763611 70.34399414 115.81298828 C68.07121191 115.75024052 65.79866015 115.70871627 63.52539062 115.66796875 C54.52768216 115.45290859 46.5129707 114.60598759 38.28125 110.71484375 C34.98165529 109.68089541 32.78473669 110.60194053 29.5 111.5625 C22.01662184 113.32144723 16.13236933 112.91513733 9 110 C6.23327199 108.19203912 4.30198421 106.40905324 2 104 C1.28457031 104.28875 0.56914062 104.5775 -0.16796875 104.875 C-2.87214423 105.9492104 -5.58403439 106.98916469 -8.3125 108 C-9.63701172 108.495 -9.63701172 108.495 -10.98828125 109 C-17.75081134 111.24540558 -23.77599766 112.3898826 -30.875 112.375 C-31.69000977 112.37338867 -32.50501953 112.37177734 -33.34472656 112.37011719 C-39.2898357 112.25345672 -44.9440889 111.51848779 -50.75 110.25 C-51.83837158 110.01482666 -51.83837158 110.01482666 -52.94873047 109.77490234 C-60.94554879 107.83385475 -67.58219529 104.12203668 -72 97 C-75.77094517 88.77763836 -75.34017195 79.93339247 -75.08691406 71.10302734 C-75.00348611 68.12446191 -74.93971062 65.14584733 -74.87960815 62.16673279 C-73.66445304 3.28945304 -73.66445304 3.28945304 -63.921875 -6.453125 C-60.81350836 -8.95498108 -57.81886634 -10.11827398 -54 -11 C-52.78570312 -11.28746094 -51.57140625 -11.57492188 -50.3203125 -11.87109375 C-31.36840368 -16.04670653 -15.39718315 -11.76610141 0 0 Z " fill="#FAFAFA" transform="translate(181,46)"/>
<path d="M0 0 C0.061875 -0.556875 0.12375 -1.11375 0.1875 -1.6875 C1.68096107 -5.93811995 4.92571933 -8.309391 8.625 -10.6875 C24.08218748 -16.69862846 40.03889358 -12.69403069 55 -7 C59.73688158 -4.79634841 63.85848591 -2.17027406 68 1 C68.3403125 -0.0828125 68.3403125 -0.0828125 68.6875 -1.1875 C70.88005956 -5.8858419 73.95278484 -8.77513772 78.6875 -10.8125 C86.84948889 -13.4923275 95.21378829 -12.38420313 103 -9 C110.14133529 -4.93682647 113.73422592 -0.30456259 116.0625 7.61328125 C117.19132888 12.33206738 117.45465187 16.97603635 117.625 21.8125 C117.66294678 22.7401416 117.70089355 23.6677832 117.73999023 24.62353516 C118.17990474 36.74362873 118.09036607 48.87426324 118 61 C119.216875 60.9690625 120.43375 60.938125 121.6875 60.90625 C125.07740063 60.90625 127.7996785 61.29987944 131 62.5 C131.763125 62.7784375 132.52625 63.056875 133.3125 63.34375 C133.869375 63.5603125 134.42625 63.776875 135 64 C134.58427734 62.78763672 134.58427734 62.78763672 134.16015625 61.55078125 C133.79792969 60.48214844 133.43570312 59.41351563 133.0625 58.3125 C132.70285156 57.25675781 132.34320312 56.20101562 131.97265625 55.11328125 C130.03171992 48.900726 129.84216693 43.28339657 129.875 36.8125 C129.87910889 35.84086914 129.88321777 34.86923828 129.88745117 33.86816406 C130.13284847 1.56015878 130.13284847 1.56015878 135.765625 -5.08203125 C141.68620652 -10.62975172 147.21471046 -12.48279737 155.265625 -12.32421875 C161.37158457 -11.6002264 167.87231449 -9.75433084 172 -5 C174.25621163 -6.08632412 176.37353544 -7.23345965 178.5 -8.5625 C184.49755265 -12.01109278 191.8506457 -11.82082242 198.5078125 -10.50390625 C206.17049668 -8.205101 211.04757414 -4.05790332 215 3 C217.06207277 8.78034564 217.29267651 14.00869177 217.265625 20.11328125 C217.26753845 21.08170456 217.2694519 22.05012787 217.27142334 23.04789734 C217.27278041 25.09614319 217.26911743 27.14439778 217.26074219 29.19262695 C217.25016461 32.26469294 217.26058685 35.33615675 217.2734375 38.40820312 C217.28065974 47.62905095 217.123247 56.77262777 216.12109375 65.9453125 C216.04518005 66.64082718 215.96926636 67.33634186 215.89105225 68.05293274 C214.45822667 79.6100335 211.33482541 90.54260362 203 99 C202.42765625 99.63292969 201.8553125 100.26585937 201.265625 100.91796875 C191.8114883 110.3923066 177.87630841 112.22703315 165.09912109 112.33227539 C158.71680292 112.25950022 153.58119517 111.07185396 147.6015625 108.77734375 C144.73209064 107.919949 143.70842877 107.79685335 141 109 C140.25097412 109.64171143 139.50194824 110.28342285 138.73022461 110.94458008 C129.94267583 117.56019066 117.22879384 116.35465555 106.76049805 115.96386719 C104.30591766 115.87476105 101.85208591 115.81843889 99.39648438 115.765625 C88.53104178 115.46812505 77.91110947 115.17082052 69.69140625 107.18359375 C62.88804206 98.40049771 63.25125201 86.60283481 63 76 C62.30132813 76.28875 61.60265625 76.5775 60.8828125 76.875 C59.97273438 77.24625 59.06265625 77.6175 58.125 78 C56.76761719 78.556875 56.76761719 78.556875 55.3828125 79.125 C53 80 53 80 51 80 C51.03480469 80.99 51.06960938 81.98 51.10546875 83 C51.32152887 91.70634092 50.90668594 98.08099303 46.375 105.75 C40.98589806 110.85546499 34.20717175 112.7467971 26.8984375 113.15625 C17.61274177 112.65567341 10.19769569 108.80999816 4 102 C-1.01301307 96.38345465 -1.29523144 89.7187678 -1.125 82.5625 C-1.11597656 81.83095703 -1.10695313 81.09941406 -1.09765625 80.34570312 C-1.07436153 78.56365702 -1.0385019 76.78178241 -1 75 C-1.91523437 75.3609375 -2.83046875 75.721875 -3.7734375 76.09375 C-4.96195313 76.5578125 -6.15046875 77.021875 -7.375 77.5 C-8.55835938 77.9640625 -9.74171875 78.428125 -10.9609375 78.90625 C-14 80 -14 80 -16 80 C-15.96519531 80.99 -15.93039062 81.98 -15.89453125 83 C-15.67847113 91.70634092 -16.09331406 98.08099303 -20.625 105.75 C-26.01410194 110.85546499 -32.79282825 112.7467971 -40.1015625 113.15625 C-48.60732945 112.69771809 -55.36295682 109.51132425 -61.37890625 103.5859375 C-63.11505636 101.7894278 -63.11505636 101.7894278 -66 100 C-66.53367187 100.53109375 -67.06734375 101.0621875 -67.6171875 101.609375 C-73.00046884 106.71324727 -77.9039532 109.83074217 -85 112 C-85.59167969 112.19078125 -86.18335938 112.3815625 -86.79296875 112.578125 C-97.97506121 114.71558692 -110.70172511 113.71321871 -120.37109375 107.46875 C-121.70287771 106.47174476 -123.01146821 105.44204665 -124.28125 104.3671875 C-126.09259591 102.92634416 -127.90287945 101.9657792 -130 101 C-130.9075 101.886875 -131.815 102.77375 -132.75 103.6875 C-141.93006186 111.54816026 -154.75267837 114.5554829 -166.61328125 114.3125 C-176.59427187 113.39153201 -186.75070842 111.35512065 -194 104 C-194.56074219 103.45214844 -195.12148438 102.90429688 -195.69921875 102.33984375 C-202.29634419 95.32740291 -204.29504807 86.62584493 -204.3203125 77.21484375 C-203.9463473 73.46151008 -202.88918127 70.25853396 -201.6875 66.6875 C-200.53704077 63.1927758 -200.53704077 63.1927758 -200 60 C-201.73189087 57.17969635 -201.73189087 57.17969635 -203.4765625 55.80078125 C-207.82572459 50.65984863 -209.45061046 40.59384464 -209.0625 34.0625 C-206.3264364 17.8086568 -199.87872854 3.69513789 -187 -7 C-177.90931815 -13.03758493 -167.65525662 -13.92315898 -157 -13 C-150.95825534 -11.74078628 -145.22830177 -10.13537281 -139.71875 -7.328125 C-137.17433923 -5.71147528 -137.17433923 -5.71147528 -135 -6.5625 C-134.34 -7.036875 -133.68 -7.51125 -133 -8 C-125.89308254 -12.88600575 -120.59066139 -13.80367755 -112 -13 C-106.08560154 -11.56232432 -100.7400343 -9.91080844 -96 -6 C-95.34 -6.61875 -94.68 -7.2375 -94 -7.875 C-88.09723746 -12.05612347 -81.06490328 -12.77541621 -74 -12 C-71.76463682 -11.46265308 -69.53558216 -10.8985853 -67.3125 -10.3125 C-62.54045897 -9.02867191 -62.54045897 -9.02867191 -57.875 -10.1875 C-56.92625 -10.785625 -55.9775 -11.38375 -55 -12 C-36.98532171 -17.85791986 -15.02186222 -10.01457481 0 0 Z " fill="#FBFBFB" transform="translate(764,46)"/>
<path d="M0 0 C4.20894232 3.02299725 6.68357261 6.66370658 9 11.25 C9.23783203 10.03763672 9.23783203 10.03763672 9.48046875 8.80078125 C11.81574478 -1.89504099 11.81574478 -1.89504099 17 -5.75 C21.03510464 -7.76755232 25.38162317 -7.17397597 29.609375 -6.06640625 C35.19048706 -4.07669026 38.29501532 -2.2775774 41 3.25 C41.95920921 6.12762762 42.17737086 8.14400958 42.28125 11.14526367 C42.31798828 12.1402739 42.35472656 13.13528412 42.39257812 14.16044617 C42.42802734 15.23542862 42.46347656 16.31041107 42.5 17.41796875 C42.54060547 18.52674881 42.58121094 19.63552887 42.62304688 20.77790833 C42.75288752 24.33096949 42.87700009 27.88419588 43 31.4375 C43.1232984 34.97293713 43.24795093 38.50829948 43.37695312 42.04353333 C43.45718609 44.24384091 43.53416556 46.44427026 43.60742188 48.64482117 C43.81078187 54.23981308 44.20316269 59.70741549 45 65.25 C49.7767859 58.08482115 49.29096565 48.89049603 49.1875 40.5625 C49.18109497 38.95121216 49.18109497 38.95121216 49.17456055 37.30737305 C49.13121771 31.76799683 48.97338286 26.24973252 48.6640625 20.71875 C48.60710205 19.68322998 48.5501416 18.64770996 48.49145508 17.58081055 C48.37490767 15.61508663 48.24271689 13.6502078 48.0925293 11.68676758 C47.76430583 6.37512187 47.83878077 2.79294419 51 -1.75 C53.48428437 -4.4085215 54.80238197 -4.72524198 58.4609375 -5.18359375 C59.75257813 -5.18488281 61.04421875 -5.18617187 62.375 -5.1875 C63.66148437 -5.20683594 64.94796875 -5.22617187 66.2734375 -5.24609375 C71.66921806 -4.52778753 75.48010874 -1.82817663 79 2.25 C82.06753174 10.39307226 81.31502446 19.74429586 81.25 28.3125 C81.24656586 29.04677216 81.24313171 29.78104431 81.23959351 30.53756714 C81.12680517 51.05804755 80.52171571 73.99068937 66.2265625 90.26953125 C59.89019566 96.41192768 52.22992629 99.38945165 43.4375 99.6875 C35.55106904 99.3392388 28.14622617 97.38859355 21.89453125 92.41015625 C17.80859888 87.75135088 15.4684303 81.88110662 13 76.25 C11.03284195 78.21715805 10.27383787 79.57968098 9.125 82.0625 C4.76507351 90.84577009 -1.16992967 94.54958855 -10.20703125 97.87109375 C-15.01542908 99.42407965 -19.47153605 99.75069983 -24.5 99.6875 C-25.74837646 99.67831543 -25.74837646 99.67831543 -27.02197266 99.66894531 C-33.05890591 99.51479066 -37.92374522 98.71817407 -43 95.25 C-43.928125 94.651875 -44.85625 94.05375 -45.8125 93.4375 C-51.01929811 88.23070189 -52.76840339 82.72394909 -53.25 75.5 C-53.14930342 70.17315098 -52.12599646 64.75712748 -48.60546875 60.60546875 C-45.88783727 58.2180811 -43.49390693 56.97443859 -40 56.25 C-40.66386719 55.97027344 -41.32773437 55.69054687 -42.01171875 55.40234375 C-49.43522786 52.03196224 -52.78688811 48.78161005 -56.3125 41.5625 C-58.74932525 29.8214329 -56.20410851 19.35652652 -50.1328125 9.09375 C-37.76612916 -8.80666324 -18.62258367 -11.32203592 0 0 Z " fill="#0B0E11" transform="translate(623,49.75)"/>
<path d="M0 0 C5.54132155 3.83200261 9.22855366 9.77616469 13 15.25 C14.68086566 13.56913434 14.44536084 11.2375257 14.75 8.9375 C15.42602159 5.0186079 15.67363476 3.60147026 18.4375 0.625 C23.5472254 -2.11680387 28.30485635 -2.51439244 34 -1.75 C37.00466449 -0.48256009 39.60356918 1.02876517 42 3.25 C43.32824829 7.23474488 43.18087181 11.07542273 43.20874023 15.23193359 C43.21852402 16.15092941 43.2283078 17.06992523 43.23838806 18.01676941 C43.26832526 21.06064403 43.28971996 24.10447489 43.30859375 27.1484375 C43.31516558 28.18753895 43.3217374 29.2266404 43.32850838 30.29722977 C43.36109076 35.79481902 43.38554732 41.29238894 43.4050293 46.79003906 C43.42286256 51.34338456 43.45771714 55.89611313 43.50756836 60.44921875 C43.56766747 65.94461217 43.59849042 71.43943228 43.60820198 76.9351387 C43.61677317 79.02997127 43.63563199 81.12478783 43.6649456 83.21943283 C43.70375837 86.15006457 43.70490835 89.07845065 43.69702148 92.00927734 C43.7270224 93.30772331 43.7270224 93.30772331 43.75762939 94.63240051 C43.68835543 100.36321046 43.68835543 100.36321046 41.72294807 102.89519119 C36.49095094 107.43415128 31.63858773 107.59527957 25.01953125 107.53125 C19.71815644 107.03746088 16.57213666 105.136564 13.125 101 C11.04956074 95.92670404 10.96356747 90.47642308 10.82421875 85.05078125 C10.78844727 83.70209961 10.78844727 83.70209961 10.75195312 82.32617188 C10.70871669 80.47224599 10.6776134 78.61800028 10.65820312 76.76367188 C10.48396341 71.13532377 9.96075621 68.46980739 6 64.25 C4.23356046 61.30342718 2.61240615 58.28317387 1 55.25 C0.98541748 56.36971191 0.97083496 57.48942383 0.95581055 58.64306641 C0.89765114 62.81428274 0.82041977 66.98496919 0.73754883 71.15576172 C0.70438227 72.95775729 0.67632475 74.75985467 0.65356445 76.56201172 C0.61986568 79.15896823 0.56754351 81.75499866 0.51171875 84.3515625 C0.50213387 85.55191635 0.50213387 85.55191635 0.49235535 86.77651978 C0.34570441 92.40969148 -0.80378954 96.51680401 -4.421875 101.01953125 C-9.29814768 104.82157555 -16.00833087 105.82612203 -22 105.25 C-25.57689985 104.43706822 -26.63845342 103.82076991 -28.6153717 100.6998291 C-30.30036468 96.50163539 -30.42978115 93.15007625 -30.40405273 88.67773438 C-30.41091599 87.83793533 -30.41777924 86.99813629 -30.42485046 86.13288879 C-30.44308298 83.36966832 -30.43928651 80.60701745 -30.43359375 77.84375 C-30.43815684 75.91613582 -30.44346279 73.98852328 -30.44947815 72.06091309 C-30.45840196 68.0260557 -30.45599392 63.99139633 -30.44604492 59.95654297 C-30.43454866 54.79146759 -30.45478056 49.62707521 -30.48396206 44.46208954 C-30.50232495 40.48317134 -30.50203154 36.50441686 -30.49632454 32.52546692 C-30.49617138 30.62131288 -30.50221158 28.7171477 -30.51461601 26.81303406 C-30.52952818 24.14901076 -30.51884816 21.48624997 -30.50170898 18.82226562 C-30.51137695 18.0397493 -30.52104492 17.25723297 -30.53100586 16.45100403 C-30.46153474 11.2827157 -29.37846741 8.37105733 -26 4.25 C-24.03515625 2.859375 -24.03515625 2.859375 -22.0625 2 C-21.36125 1.690625 -20.66 1.38125 -19.9375 1.0625 C-19.298125 0.794375 -18.65875 0.52625 -18 0.25 C-16.7934375 -0.36875 -16.7934375 -0.36875 -15.5625 -1 C-10.16463204 -2.57986379 -5.04150191 -2.7069142 0 0 Z " fill="#00A1F1" transform="translate(482,44.75)"/>
<path d="M0 0 C6.4266352 5.11621501 10.19262161 11.69747554 11.92578125 19.68359375 C12.22899899 22.51812594 12.29602993 25.33836023 12.33984375 28.1875 C12.3592099 28.98784164 12.37857605 29.78818329 12.39852905 30.61277771 C12.45782511 33.15711053 12.50433554 35.70149754 12.55078125 38.24609375 C12.58904119 39.92645076 12.62809731 41.60678983 12.66796875 43.28710938 C12.99616569 57.71752125 13.01411341 72.12863596 12.61328125 86.55859375 C12.59072266 87.8115625 12.56816406 89.06453125 12.54492188 90.35546875 C12.28491853 99.29958375 11.56515042 107.04422458 4.92578125 113.68359375 C-1.52422161 118.29073865 -8.42168418 120.1654634 -16.35546875 119.34375 C-25.01967221 117.63317712 -31.81793794 114.6078296 -37.51171875 107.74609375 C-41.48430971 99.95981548 -41.35204073 92.85998771 -41.26171875 84.24609375 C-41.25205078 82.34307495 -41.25205078 82.34307495 -41.2421875 80.40161133 C-41.14701412 68.48337576 -40.7010342 56.58475207 -40.07421875 44.68359375 C-41.01007812 44.3896875 -41.9459375 44.09578125 -42.91015625 43.79296875 C-48.84109307 41.71347979 -52.00998934 38.07241099 -55.07421875 32.68359375 C-57.83317503 25.72051363 -57.34875535 19.98580222 -54.69921875 13.12109375 C-51.45967736 8.02531879 -46.0096974 4.95326231 -41.07421875 1.68359375 C-40.36652344 1.18472656 -39.65882812 0.68585937 -38.9296875 0.171875 C-26.64885982 -8.15707738 -12.5852789 -7.9872674 0 0 Z " fill="#00A0F0" transform="translate(74.07421875,39.31640625)"/>
<path d="M0 0 C4.90217442 3.7271687 8.21176828 8.99077359 10.140625 14.77734375 C11.24392387 23.96624724 9.06969983 32.54164451 3.47265625 40 C1.94071881 41.67389843 1.94071881 41.67389843 2.140625 43.77734375 C3.34801546 44.88802575 4.60797331 45.94199924 5.890625 46.96484375 C11.40798726 51.65216036 14.59740408 56.70134495 15.37890625 64.00390625 C15.65206403 72.83121555 13.17740707 80.22612286 7.140625 86.77734375 C-6.79279147 96.08494056 -20.81985779 97.71387444 -37.08813477 94.58642578 C-37.87889404 94.42255371 -38.66965332 94.25868164 -39.484375 94.08984375 C-40.62120728 93.86723877 -40.62120728 93.86723877 -41.78100586 93.64013672 C-46.78145605 92.49432855 -49.58651596 90.93229305 -52.859375 86.77734375 C-55.42495822 82.03928635 -55.13176408 77.35752378 -55.08984375 72.11328125 C-55.08938553 71.16659576 -55.08892731 70.21991028 -55.0884552 69.24453735 C-55.08543618 67.23560334 -55.07756036 65.2266716 -55.06518555 63.21777344 C-55.04722835 60.21149946 -55.04467416 57.20554013 -55.04492188 54.19921875 C-54.98877707 22.77273416 -54.98877707 22.77273416 -52.609375 7.40234375 C-52.51269531 6.62375 -52.41601562 5.84515625 -52.31640625 5.04296875 C-51.52494127 -0.16825014 -50.22074456 -2.91424591 -45.859375 -6.22265625 C-29.75017705 -13.16382536 -13.93747644 -9.16476917 0 0 Z " fill="#00A0F0" transform="translate(171.859375,52.22265625)"/>
<path d="M0 0 C8.61511959 5.79049022 13.59197405 14.01929112 15.83984375 24.0390625 C17.08222853 30.53059781 17.05033312 37.04267587 17.01074219 43.62695312 C17.00001829 45.74638469 17.01069362 47.86496899 17.0234375 49.984375 C17.04206341 65.60351291 14.07140227 80.56117925 3.74609375 92.91015625 C-2.82160527 98.96374967 -10.82871606 101.08891594 -19.53125 100.9609375 C-27.63519877 100.33218285 -34.44614091 97.47595494 -40.25 91.75 C-44.5304262 86.44227152 -47.08490364 80.16201616 -49.25 73.75 C-49.70246094 72.45642578 -49.70246094 72.45642578 -50.1640625 71.13671875 C-56.11380434 50.59064762 -53.44212317 24.08049431 -44.25 4.75 C-41.39593167 -0.31972664 -38.20364863 -3.9772501 -32.5390625 -5.80078125 C-20.82392028 -8.09982793 -10.25431272 -5.78398136 0 0 Z " fill="#00A0F0" transform="translate(433.25,50.25)"/>
<path d="M0 0 C3.59885613 2.42531609 5.44387076 5.15192478 6.796875 9.2109375 C7.01943493 12.01021841 7.19575834 14.7940763 7.33203125 17.59765625 C7.37500839 18.41466507 7.41798553 19.23167389 7.46226501 20.07344055 C7.59855811 22.68158694 7.72903651 25.28998742 7.859375 27.8984375 C7.95078893 29.66733754 8.04258121 31.43621807 8.13476562 33.20507812 C8.35985876 37.54015046 8.57973763 41.87545968 8.796875 46.2109375 C12.85713299 36.81330773 15.22800864 28.76217818 15.859375 18.4609375 C15.9887442 16.44482744 16.12521758 14.42915796 16.26953125 12.4140625 C16.32375244 11.53395508 16.37797363 10.65384766 16.43383789 9.74707031 C17.02153266 5.6415066 18.13039389 2.91550324 20.984375 -0.1015625 C25.10248489 -2.57242843 28.22669204 -2.38142848 32.84765625 -1.31640625 C38.13498488 0.34646358 40.67213489 2.66586098 43.796875 7.2109375 C45.0154654 10.86670871 44.94004671 14.22943536 44.9296875 18.03515625 C44.93064423 18.81421829 44.93160095 19.59328033 44.93258667 20.39595032 C44.93326779 22.05278605 44.93141826 23.70962445 44.92724609 25.36645508 C44.92199052 27.84397797 44.92714382 30.32131161 44.93359375 32.79882812 C44.94864922 60.4032869 44.94864922 60.4032869 42.109375 72.5859375 C41.8477356 73.71370605 41.8477356 73.71370605 41.58081055 74.86425781 C39.54915284 82.99088865 36.5724244 89.51971136 29.671875 94.5859375 C18.72063943 101.01066237 7.40727022 102.87673934 -5.1328125 100.703125 C-11.6593469 98.97726332 -17.05103927 96.15212133 -21.078125 90.6484375 C-23.17366982 86.10809038 -23.72389444 82.2450421 -23.203125 77.2109375 C-20.43243436 72.40840706 -18.17793918 70.9408811 -12.890625 69.3359375 C-11.33321436 68.94033246 -9.77201691 68.55822619 -8.203125 68.2109375 C-9.255 67.4271875 -10.306875 66.6434375 -11.390625 65.8359375 C-16.57401326 61.43058318 -19.08512074 55.56495028 -21.203125 49.2109375 C-21.29923882 46.8374702 -21.33387141 44.46134918 -21.3359375 42.0859375 C-21.33689423 41.38380127 -21.33785095 40.68166504 -21.33883667 39.95825195 C-21.33951717 38.46874909 -21.33767195 36.97924326 -21.33349609 35.48974609 C-21.32821 33.24699932 -21.33341189 31.00445876 -21.33984375 28.76171875 C-21.35311272 5.20536421 -21.35311272 5.20536421 -17.203125 -0.7890625 C-11.90072736 -4.95523208 -5.37195338 -2.93583499 0 0 Z " fill="#009FEF" transform="translate(926.203125,46.7890625)"/>
<path d="M0 0 C9.82195614 5.37102285 16.35823874 13.33890014 20.46875 23.671875 C22.78579285 32.09463889 22.41443392 41.68319298 18.66015625 49.61328125 C14.5453834 56.48337397 9.39081026 61.1158882 2.3359375 64.82421875 C1.5521875 65.23671875 0.7684375 65.64921875 -0.0390625 66.07421875 C-4.17122588 67.25483686 -8.38940795 67.50880735 -12.6640625 67.82421875 C-12.591875 68.57445313 -12.5196875 69.3246875 -12.4453125 70.09765625 C-10.61430903 90.28955567 -10.61430903 90.28955567 -14.6640625 95.82421875 C-19.41227745 99.21580085 -24.02797727 99.54225404 -29.6640625 98.82421875 C-34.88370647 97.17133149 -38.15826127 95.03118023 -41.6640625 90.82421875 C-43.75644871 86.67013466 -44.08789713 82.67104485 -44.2734375 78.09765625 C-44.32911896 76.88751358 -44.32911896 76.88751358 -44.38592529 75.65292358 C-44.89354793 63.07559227 -44.88823003 50.48033458 -44.90429688 37.89453125 C-44.90986174 34.15462965 -44.93412804 30.41507753 -44.96226883 26.67528725 C-44.98087743 23.76704862 -44.98609901 20.85889662 -44.98763275 17.95060349 C-44.99064463 16.57033675 -44.99862331 15.190071 -45.01181793 13.80986404 C-45.02890065 11.89235957 -45.02515013 9.97470385 -45.02050781 8.05712891 C-45.02415344 6.97082184 -45.02779907 5.88451477 -45.03155518 4.76528931 C-44.61083367 1.39822452 -43.65538477 -0.45270803 -41.6640625 -3.17578125 C-30.90387056 -11.38750668 -10.96655113 -4.99910112 0 0 Z " fill="#00A0F0" transform="translate(816.6640625,49.17578125)"/>
<path d="M0 0 C9.82195614 5.37102285 16.35823874 13.33890014 20.46875 23.671875 C22.78579285 32.09463889 22.41443392 41.68319298 18.66015625 49.61328125 C14.5453834 56.48337397 9.39081026 61.1158882 2.3359375 64.82421875 C1.5521875 65.23671875 0.7684375 65.64921875 -0.0390625 66.07421875 C-4.17122588 67.25483686 -8.38940795 67.50880735 -12.6640625 67.82421875 C-12.591875 68.57445313 -12.5196875 69.3246875 -12.4453125 70.09765625 C-10.61430903 90.28955567 -10.61430903 90.28955567 -14.6640625 95.82421875 C-19.41227745 99.21580085 -24.02797727 99.54225404 -29.6640625 98.82421875 C-34.88370647 97.17133149 -38.15826127 95.03118023 -41.6640625 90.82421875 C-43.75644871 86.67013466 -44.08789713 82.67104485 -44.2734375 78.09765625 C-44.32911896 76.88751358 -44.32911896 76.88751358 -44.38592529 75.65292358 C-44.89354793 63.07559227 -44.88823003 50.48033458 -44.90429688 37.89453125 C-44.90986174 34.15462965 -44.93412804 30.41507753 -44.96226883 26.67528725 C-44.98087743 23.76704862 -44.98609901 20.85889662 -44.98763275 17.95060349 C-44.99064463 16.57033675 -44.99862331 15.190071 -45.01181793 13.80986404 C-45.02890065 11.89235957 -45.02515013 9.97470385 -45.02050781 8.05712891 C-45.02415344 6.97082184 -45.02779907 5.88451477 -45.03155518 4.76528931 C-44.61083367 1.39822452 -43.65538477 -0.45270803 -41.6640625 -3.17578125 C-30.90387056 -11.38750668 -10.96655113 -4.99910112 0 0 Z " fill="#00A0F0" transform="translate(749.6640625,49.17578125)"/>
<path d="M0 0 C3.63644512 1.4141731 6.55683037 2.91389099 9 6 C11.84491699 14.53475097 11.10149691 24.82497277 11.46484375 33.7890625 C11.50372711 34.7470575 11.54261047 35.70505249 11.58267212 36.69207764 C11.74269416 40.67379523 11.90143893 44.65551507 12.04956055 48.63769531 C12.594486 64.41880215 12.594486 64.41880215 15 80 C24.51314261 70.81859898 24.92420267 56.31702016 25.15234375 43.76171875 C25.22861007 34.75834828 25.26930232 25.92417172 24 17 C23.85274419 15.27396878 23.74116709 13.54396987 23.6875 11.8125 C23.63142578 10.61560547 23.63142578 10.61560547 23.57421875 9.39453125 C24.18610118 5.9533943 25.46682721 4.37926903 28 2 C33.44947907 0.86645203 39.93370104 0.76202628 44.75 3.875 C49.13485592 8.01625281 48.81907242 13.36718665 49.1060791 19.12994385 C49.16261958 21.23554399 49.19061968 23.33899502 49.203125 25.4453125 C49.20882507 26.21825653 49.21452515 26.99120056 49.22039795 27.78756714 C49.22977123 29.41272649 49.23635103 31.03790419 49.24023438 32.66308594 C49.24989552 35.09866079 49.28097409 37.53337376 49.3125 39.96875 C49.43221196 57.75557628 47.12867883 77.11317235 35 91 C28.07313672 97.39981934 20.67950933 98.52913729 11.546875 98.375 C4.78668372 97.66026612 -0.55562709 94.82912921 -5.3125 90 C-11.52759176 81.96628764 -14.10549377 71.2938832 -14.14526367 61.30517578 C-14.15164352 60.21028839 -14.15802338 59.115401 -14.16459656 57.98733521 C-14.16570938 56.81846771 -14.1668222 55.64960022 -14.16796875 54.4453125 C-14.17129715 53.22979706 -14.17462555 52.01428162 -14.17805481 50.76193237 C-14.1831093 48.19497047 -14.18546359 45.62800203 -14.18530273 43.06103516 C-14.18748825 39.14604813 -14.2056574 35.23134343 -14.22460938 31.31640625 C-14.22754383 28.81770929 -14.22952828 26.319011 -14.23046875 23.8203125 C-14.23765427 22.65549347 -14.24483978 21.49067444 -14.25224304 20.29055786 C-14.21295061 6.22695392 -14.21295061 6.22695392 -10.64453125 1.0234375 C-7.37131905 -1.01357342 -3.70064771 -0.47444201 0 0 Z " fill="#00A0EF" transform="translate(651,47)"/>
<path d="M0 0 C4.27253781 2.36269372 6.78535383 4.26235247 8.75 8.875 C9.95002573 16.62839863 9.88502831 24.4993109 9.84765625 32.32421875 C9.8462413 33.46284866 9.84482635 34.60147858 9.84336853 35.77461243 C9.83782209 39.37060298 9.82527989 42.96652863 9.8125 46.5625 C9.80747807 49.01757722 9.80291638 51.47265542 9.79882812 53.92773438 C9.78787028 59.91017797 9.77118647 65.89258434 9.75 71.875 C10.32443848 71.85928955 10.89887695 71.8435791 11.49072266 71.82739258 C14.11871309 71.76464487 16.74654537 71.72588494 19.375 71.6875 C20.27863281 71.66236328 21.18226563 71.63722656 22.11328125 71.61132812 C27.44428421 71.55295948 31.1412731 71.87311925 35.75 74.875 C40.36567076 79.64983182 40.0455844 85.92102062 39.9609375 92.21875 C39.56943258 97.14881194 37.97112033 99.81281914 34.2890625 103.015625 C29.47382372 105.54548555 25.60072737 105.35494872 20.25 105.1875 C18.7486853 105.15885864 18.7486853 105.15885864 17.21704102 105.12963867 C15.1198835 105.08450145 13.02291895 105.0294057 10.92626953 104.96484375 C7.80312278 104.87650263 4.68279639 104.84036357 1.55859375 104.8125 C-0.39848899 104.77332637 -2.35552547 104.73175069 -4.3125 104.6875 C-5.22128906 104.68210205 -6.13007813 104.6767041 -7.06640625 104.67114258 C-11.27750985 104.52646517 -14.34484246 104.25977853 -17.74609375 101.63671875 C-22.1150705 96.81789416 -22.55067298 92.49988437 -22.515625 86.17578125 C-22.51844482 85.40785248 -22.52126465 84.63992371 -22.52416992 83.84872437 C-22.52848339 81.29480362 -22.51570869 78.74137203 -22.5 76.1875 C-22.49689819 75.3084903 -22.49379639 74.42948059 -22.49060059 73.52383423 C-22.42991062 58.65329278 -22.11254029 43.7863998 -21.61120605 28.92440796 C-21.53716929 26.68617727 -21.4691998 24.44773753 -21.40734863 22.20913696 C-21.31719684 19.05895309 -21.20139533 15.91075879 -21.078125 12.76171875 C-21.05500244 11.81871918 -21.03187988 10.8757196 -21.00805664 9.90414429 C-20.71626647 3.51413189 -20.71626647 3.51413189 -18.38574219 0.31958008 C-12.40021297 -3.72893117 -6.21674208 -2.86502737 0 0 Z " fill="#00A0F0" transform="translate(243.25,46.125)"/>
<path d="M0 0 C3.89727968 2.85005147 6.01005217 6.15642414 6.90405273 10.90429688 C6.94989502 12.09861328 6.9957373 13.29292969 7.04296875 14.5234375 C7.07168564 15.20104126 7.10040253 15.87864502 7.12998962 16.57678223 C7.51281527 27.10278147 7.40179242 37.64896272 7.359375 48.1796875 C7.35434661 50.37109272 7.34978609 52.56249906 7.34570312 54.75390625 C7.33481136 60.06252503 7.31818085 65.37110082 7.296875 70.6796875 C7.87131348 70.66397705 8.44575195 70.6482666 9.03759766 70.63208008 C11.66558809 70.56933237 14.29342037 70.53057244 16.921875 70.4921875 C17.82550781 70.46705078 18.72914063 70.44191406 19.66015625 70.41601562 C24.97536864 70.35781987 28.73043834 70.63301804 33.296875 73.6796875 C37.71341326 79.02602329 37.85586448 83.82480598 37.61328125 90.6484375 C37.0754452 95.80103965 35.72162835 98.44490127 31.8359375 101.8125 C27.45318941 104.62583076 22.8381103 104.1499508 17.796875 103.9921875 C16.2955603 103.96354614 16.2955603 103.96354614 14.76391602 103.93432617 C12.6667585 103.88918895 10.56979395 103.8340932 8.47314453 103.76953125 C5.34999778 103.68119013 2.22967139 103.64505107 -0.89453125 103.6171875 C-2.85161399 103.57801387 -4.80865047 103.53643819 -6.765625 103.4921875 C-7.67441406 103.48678955 -8.58320313 103.4813916 -9.51953125 103.47583008 C-13.73063485 103.33115267 -16.79796746 103.06446603 -20.19921875 100.44140625 C-24.5681955 95.62258166 -25.00379798 91.30457187 -24.96875 84.98046875 C-24.97156982 84.21253998 -24.97438965 83.44461121 -24.97729492 82.65341187 C-24.98160839 80.09949112 -24.96883369 77.54605953 -24.953125 74.9921875 C-24.95002319 74.1131778 -24.94692139 73.23416809 -24.94372559 72.32852173 C-24.88303562 57.45798028 -24.56566529 42.5910873 -24.06433105 27.72909546 C-23.99029429 25.49086477 -23.9223248 23.25242503 -23.86047363 21.01382446 C-23.77032184 17.86364059 -23.65452033 14.71544629 -23.53125 11.56640625 C-23.50812744 10.62340668 -23.48500488 9.6804071 -23.46118164 8.70883179 C-23.16939147 2.31881939 -23.16939147 2.31881939 -20.83886719 -0.87573242 C-13.77071408 -5.65651225 -7.00571216 -3.41361134 0 0 Z " fill="#00A0F0" transform="translate(308.703125,47.3203125)"/>
<path d="M0 0 C3.89727968 2.85005147 6.01005217 6.15642414 6.90405273 10.90429688 C6.94989502 12.09861328 6.9957373 13.29292969 7.04296875 14.5234375 C7.07168564 15.20104126 7.10040253 15.87864502 7.12998962 16.57678223 C7.51281527 27.10278147 7.40179242 37.64896272 7.359375 48.1796875 C7.35434661 50.37109272 7.34978609 52.56249906 7.34570312 54.75390625 C7.33481136 60.06252503 7.31818085 65.37110082 7.296875 70.6796875 C7.87131348 70.66397705 8.44575195 70.6482666 9.03759766 70.63208008 C11.66558809 70.56933237 14.29342037 70.53057244 16.921875 70.4921875 C17.82550781 70.46705078 18.72914063 70.44191406 19.66015625 70.41601562 C24.97536864 70.35781987 28.73043834 70.63301804 33.296875 73.6796875 C37.71341326 79.02602329 37.85586448 83.82480598 37.61328125 90.6484375 C37.0754452 95.80103965 35.72162835 98.44490127 31.8359375 101.8125 C27.45318941 104.62583076 22.8381103 104.1499508 17.796875 103.9921875 C16.2955603 103.96354614 16.2955603 103.96354614 14.76391602 103.93432617 C12.6667585 103.88918895 10.56979395 103.8340932 8.47314453 103.76953125 C5.34999778 103.68119013 2.22967139 103.64505107 -0.89453125 103.6171875 C-2.85161399 103.57801387 -4.80865047 103.53643819 -6.765625 103.4921875 C-7.67441406 103.48678955 -8.58320312 103.4813916 -9.51953125 103.47583008 C-13.73063485 103.33115267 -16.79796746 103.06446603 -20.19921875 100.44140625 C-24.28259216 95.93759189 -24.95680957 92.24153723 -24.96875 86.25 C-24.97156982 85.60694916 -24.97438965 84.96389832 -24.97729492 84.30136108 C-24.98163137 82.13559411 -24.96875045 79.97039804 -24.953125 77.8046875 C-24.95002319 77.0521167 -24.94692139 76.2995459 -24.94372559 75.52416992 C-24.87356597 60.65495654 -24.51663161 45.78670265 -24.06433105 30.92474365 C-23.99022305 28.42902854 -23.92226532 25.93312318 -23.86047363 23.43707275 C-23.77008788 19.90244934 -23.65413764 16.36956155 -23.53125 12.8359375 C-23.50812744 11.76765717 -23.48500488 10.69937683 -23.46118164 9.59872437 C-23.16863273 2.33759208 -23.16863273 2.33759208 -20.83886719 -0.95507812 C-13.64848222 -5.55140103 -7.05969796 -3.43991652 0 0 Z " fill="#00A0F0" transform="translate(863.703125,47.3203125)"/>
<path d="M0 0 C4.85614628 3.86213766 9.06566661 9.32202301 9.83203125 15.64453125 C10.22378373 21.61875653 9.68606568 25.35928231 6.83203125 30.64453125 C3.67192768 32.75126696 2.672906 32.96341182 -0.98046875 33.01953125 C-1.81191406 33.04789063 -2.64335938 33.07625 -3.5 33.10546875 C-7.36122676 32.4383754 -9.29714876 31.3305345 -12.16796875 28.64453125 C-13.03734033 25.56197627 -13.05293184 22.58272052 -13.04296875 19.39453125 C-13.06359375 18.5540625 -13.08421875 17.71359375 -13.10546875 16.84765625 C-13.15245237 14.7803768 -13.163714 12.71234016 -13.16796875 10.64453125 C-16.18373651 10.96655391 -17.7382484 11.1920377 -19.86328125 13.4296875 C-24.69518507 21.12640861 -27.96510368 27.39776601 -27.16796875 36.64453125 C-24.23338435 39.57911565 -20.58663441 39.9239176 -16.66796875 40.89453125 C-6.37235662 43.61600879 2.85675853 47.29807426 8.83203125 56.64453125 C11.73896466 62.67892405 11.93810099 69.50026993 10.21484375 75.95703125 C7.15886555 82.88030931 1.23994263 87.72954937 -5.41796875 91.08203125 C-10.62051642 92.95397597 -15.8199426 93.06516139 -21.29296875 93.14453125 C-22.14020508 93.16314209 -22.98744141 93.18175293 -23.86035156 93.20092773 C-30.32564731 93.13597207 -35.89203415 91.74870969 -40.6953125 87.19726562 C-45.25462413 81.9441457 -46.56696156 78.07089852 -46.42578125 71.25390625 C-46.02945498 67.24260404 -44.92103494 64.28052039 -43.16796875 60.64453125 C-39.74467024 58.36233224 -38.32659207 58.34711962 -34.29296875 58.33203125 C-32.74996094 58.30689453 -32.74996094 58.30689453 -31.17578125 58.28125 C-27.55063345 58.71909253 -25.84009061 59.11203377 -23.16796875 61.64453125 C-22.40597851 64.6990478 -22.37730343 67.69511531 -22.35546875 70.83203125 C-22.33033203 71.67701172 -22.30519531 72.52199219 -22.27929688 73.39257812 C-22.22044141 75.47606175 -22.1913388 77.56034752 -22.16796875 79.64453125 C-21.38421875 79.14953125 -20.60046875 78.65453125 -19.79296875 78.14453125 C-17.16796875 76.64453125 -17.16796875 76.64453125 -15.16796875 76.64453125 C-14.85859375 75.86078125 -14.54921875 75.07703125 -14.23046875 74.26953125 C-13.16796875 71.64453125 -13.16796875 71.64453125 -12.16796875 69.64453125 C-11.61480499 63.8916281 -12.52224807 61.10371078 -16.16796875 56.64453125 C-19.30085847 54.96711591 -19.30085847 54.96711591 -22.85546875 53.95703125 C-24.09683594 53.55226562 -25.33820312 53.1475 -26.6171875 52.73046875 C-27.78894531 52.37210938 -28.96070313 52.01375 -30.16796875 51.64453125 C-38.09345206 49.19712371 -44.2381401 46.76539485 -49.16796875 39.64453125 C-52.1190674 30.79123529 -50.23342989 21.93900526 -46.65234375 13.58984375 C-42.76556556 5.87765754 -37.25922631 -0.7506393 -29.48046875 -4.73046875 C-19.20830311 -6.66861321 -8.99919318 -5.62652258 0 0 Z " fill="#00A0EF" transform="translate(620.16796875,52.35546875)"/>
<path d="M0 0 C6.4266352 5.11621501 10.19262161 11.69747554 11.92578125 19.68359375 C12.22899899 22.51812594 12.29602993 25.33836023 12.33984375 28.1875 C12.3592099 28.98784164 12.37857605 29.78818329 12.39852905 30.61277771 C12.45782511 33.15711053 12.50433554 35.70149754 12.55078125 38.24609375 C12.58904119 39.92645076 12.62809731 41.60678983 12.66796875 43.28710938 C12.99616569 57.71752125 13.01411341 72.12863596 12.61328125 86.55859375 C12.59072266 87.8115625 12.56816406 89.06453125 12.54492188 90.35546875 C12.28491853 99.29958375 11.56515042 107.04422458 4.92578125 113.68359375 C-1.52422161 118.29073865 -8.42168418 120.1654634 -16.35546875 119.34375 C-25.01967221 117.63317712 -31.81793794 114.6078296 -37.51171875 107.74609375 C-41.48430971 99.95981548 -41.35204073 92.85998771 -41.26171875 84.24609375 C-41.25205078 82.34307495 -41.25205078 82.34307495 -41.2421875 80.40161133 C-41.14701412 68.48337576 -40.7010342 56.58475207 -40.07421875 44.68359375 C-41.01007812 44.3896875 -41.9459375 44.09578125 -42.91015625 43.79296875 C-48.84109307 41.71347979 -52.00998934 38.07241099 -55.07421875 32.68359375 C-57.83317503 25.72051363 -57.34875535 19.98580222 -54.69921875 13.12109375 C-51.45967736 8.02531879 -46.0096974 4.95326231 -41.07421875 1.68359375 C-40.36652344 1.18472656 -39.65882812 0.68585937 -38.9296875 0.171875 C-26.64885982 -8.15707738 -12.5852789 -7.9872674 0 0 Z M-44.90625 17.7265625 C-46.75821446 20.82968689 -46.50095202 23.14780377 -46.07421875 26.68359375 C-43.43034323 32.07709981 -40.40360773 34.29455731 -35.07421875 36.68359375 C-33.07520882 36.74651658 -31.07287909 36.75678413 -29.07421875 36.68359375 C-29.16509766 38.07759399 -29.16509766 38.07759399 -29.2578125 39.49975586 C-30.75703376 62.73002108 -30.75703376 62.73002108 -31.38671875 85.99609375 C-31.40412109 87.0008374 -31.42152344 88.00558105 -31.43945312 89.04077148 C-31.43578686 94.33165532 -31.13798596 98.16189594 -28.07421875 102.68359375 C-26.43051139 104.35615661 -26.43051139 104.35615661 -24.57421875 105.49609375 C-23.98640625 105.89441406 -23.39859375 106.29273438 -22.79296875 106.703125 C-18.15296212 109.35003787 -13.25426841 109.13543609 -8.07421875 108.68359375 C-3.84954071 107.14734719 -1.37773826 105.56320555 0.92578125 101.68359375 C2.09929653 98.16304792 2.08882851 94.97378383 2.1027832 91.30981445 C2.1093544 90.56144821 2.1159256 89.81308197 2.12269592 89.04203796 C2.14241063 86.56448258 2.15408898 84.08698784 2.1640625 81.609375 C2.16813803 80.76157156 2.17221355 79.91376812 2.17641258 79.04027367 C2.19726806 74.550696 2.2115706 70.06114882 2.22094727 65.5715332 C2.2319954 60.94581083 2.26637813 56.32057165 2.30611897 51.69501972 C2.33233226 48.1286686 2.34064339 44.56243164 2.34422874 40.99599266 C2.34908452 39.29163547 2.36066965 37.58728304 2.37926674 35.8830204 C2.83208886 22.55876959 2.83208886 22.55876959 -3.45097351 11.22236633 C-9.0747142 6.15029508 -14.17164214 4.12160714 -21.640625 4.41015625 C-29.96197215 5.34513908 -39.42846712 11.6180754 -44.90625 17.7265625 Z " fill="#FDFDFD" transform="translate(74.07421875,39.31640625)"/>
<path d="M0 0 C3.76469474 2.59855759 4.22033636 6.75373974 5 11 C5.36450281 14.54621653 5.49892285 18.08615088 5.609375 21.6484375 C5.64649597 22.6831015 5.68361694 23.7177655 5.72186279 24.78378296 C6.11661606 36.79748536 6.22148324 48.81450856 6.24023438 60.83398438 C6.25015146 64.68379709 6.28141492 68.53311933 6.3125 72.3828125 C6.31901379 74.8515594 6.32427059 77.32031001 6.328125 79.7890625 C6.3404718 80.9296109 6.3528186 82.0701593 6.36553955 83.24526978 C6.34960338 88.89132779 6.29570891 93.17277937 3 98 C-1.62242345 102.18907125 -6.19838674 102.3407931 -12.19921875 102.28515625 C-16.44207728 101.85317763 -18.62002212 100.58891923 -22 98 C-25.88255003 92.88209314 -25.14911468 85.00469498 -25.14526367 78.84912109 C-25.14862228 78.06609116 -25.1519809 77.28306122 -25.15544128 76.4763031 C-25.16487876 73.90866476 -25.1668903 71.34109206 -25.16796875 68.7734375 C-25.17118475 66.97938002 -25.17454908 65.1853228 -25.17805481 63.39126587 C-25.18402688 59.64072053 -25.18589653 55.89019819 -25.18530273 52.13964844 C-25.18520086 47.33678414 -25.19888814 42.53406681 -25.21607494 37.73123741 C-25.22719405 34.03033776 -25.22922202 30.32947376 -25.22869301 26.62855911 C-25.2298719 24.85755529 -25.23428861 23.08655052 -25.24202538 21.3155632 C-25.25182979 18.84096684 -25.24894622 16.36669144 -25.24291992 13.89208984 C-25.24853943 13.16365372 -25.25415894 12.43521759 -25.25994873 11.68470764 C-25.2299486 6.83329387 -24.68908388 3.05627603 -21.5625 -0.75 C-15.41177432 -5.67058055 -6.36825232 -2.96453125 0 0 Z " fill="#009FEE" transform="translate(373,47)"/>
<path d="M0 0 C2.53975739 1.87394361 2.91732106 3.33813719 3.84765625 6.36328125 C4.03984054 9.15565093 4.1313251 11.84726871 4.12231445 14.63842773 C4.12998085 15.86864655 4.12998085 15.86864655 4.13780212 17.12371826 C4.15167069 19.82734531 4.15074347 22.53071667 4.1484375 25.234375 C4.15232583 27.11857701 4.15666078 29.00277815 4.16142273 30.88697815 C4.16887898 34.83361657 4.16859789 38.78016552 4.16333008 42.72680664 C4.15753513 47.77857429 4.17446995 52.82997535 4.19767475 57.8816824 C4.21242246 61.77222324 4.21328239 65.66267598 4.21016502 69.55323982 C4.21067768 71.41552519 4.2159049 73.27781557 4.22597694 75.14007378 C4.23834465 77.74653679 4.23154791 80.3522882 4.2199707 82.95874023 C4.23143631 84.10681908 4.23143631 84.10681908 4.24313354 85.27809143 C4.19642688 90.04726788 3.3518827 93.30253077 0.84765625 97.36328125 C-3.59132492 101.19741279 -9.0474894 102.01921254 -14.75390625 101.73828125 C-18.86210777 101.09595658 -20.88513602 100.0303896 -24.15234375 97.36328125 C-27.408428 90.70886126 -27.56440598 84.82222242 -27.48046875 77.5 C-27.47859558 76.3545723 -27.47672241 75.20914459 -27.47479248 74.02900696 C-27.46808433 71.60076999 -27.45419455 69.17254361 -27.43359375 66.74438477 C-27.40299968 63.12830909 -27.39266603 59.51267557 -27.38671875 55.89648438 C-27.34720854 43.72162219 -27.14108028 31.551868 -26.76171875 19.3828125 C-26.71691376 17.68048714 -26.71691376 17.68048714 -26.67120361 15.94377136 C-26.63372009 14.88958511 -26.59623657 13.83539886 -26.55761719 12.74926758 C-26.52778748 11.82688797 -26.49795776 10.90450836 -26.46722412 9.95417786 C-25.85328078 4.90253324 -24.07736511 1.59565178 -20.15234375 -1.63671875 C-13.02805716 -3.88257945 -6.74780379 -2.89191591 0 0 Z " fill="#00A1F1" transform="translate(215.15234375,46.63671875)"/>
<path d="M0 0 C3.59885613 2.42531609 5.44387076 5.15192478 6.796875 9.2109375 C7.01943493 12.01021841 7.19575834 14.7940763 7.33203125 17.59765625 C7.37500839 18.41466507 7.41798553 19.23167389 7.46226501 20.07344055 C7.59855811 22.68158694 7.72903651 25.28998742 7.859375 27.8984375 C7.95078893 29.66733754 8.04258121 31.43621807 8.13476562 33.20507812 C8.35985876 37.54015046 8.57973763 41.87545968 8.796875 46.2109375 C12.85713299 36.81330773 15.22800864 28.76217818 15.859375 18.4609375 C15.9887442 16.44482744 16.12521758 14.42915796 16.26953125 12.4140625 C16.32375244 11.53395508 16.37797363 10.65384766 16.43383789 9.74707031 C17.02153266 5.6415066 18.13039389 2.91550324 20.984375 -0.1015625 C25.10248489 -2.57242843 28.22669204 -2.38142848 32.84765625 -1.31640625 C38.13498488 0.34646358 40.67213489 2.66586098 43.796875 7.2109375 C45.0154654 10.86670871 44.94004671 14.22943536 44.9296875 18.03515625 C44.93064423 18.81421829 44.93160095 19.59328033 44.93258667 20.39595032 C44.93326779 22.05278605 44.93141826 23.70962445 44.92724609 25.36645508 C44.92199052 27.84397797 44.92714382 30.32131161 44.93359375 32.79882812 C44.94864922 60.4032869 44.94864922 60.4032869 42.109375 72.5859375 C41.8477356 73.71370605 41.8477356 73.71370605 41.58081055 74.86425781 C39.54915284 82.99088865 36.5724244 89.51971136 29.671875 94.5859375 C18.72063943 101.01066237 7.40727022 102.87673934 -5.1328125 100.703125 C-11.6593469 98.97726332 -17.05103927 96.15212133 -21.078125 90.6484375 C-23.17366982 86.10809038 -23.72389444 82.2450421 -23.203125 77.2109375 C-20.43243436 72.40840706 -18.17793918 70.9408811 -12.890625 69.3359375 C-11.33321436 68.94033246 -9.77201691 68.55822619 -8.203125 68.2109375 C-9.255 67.4271875 -10.306875 66.6434375 -11.390625 65.8359375 C-16.57401326 61.43058318 -19.08512074 55.56495028 -21.203125 49.2109375 C-21.29923882 46.8374702 -21.33387141 44.46134918 -21.3359375 42.0859375 C-21.33689423 41.38380127 -21.33785095 40.68166504 -21.33883667 39.95825195 C-21.33951717 38.46874909 -21.33767195 36.97924326 -21.33349609 35.48974609 C-21.32821 33.24699932 -21.33341189 31.00445876 -21.33984375 28.76171875 C-21.35311272 5.20536421 -21.35311272 5.20536421 -17.203125 -0.7890625 C-11.90072736 -4.95523208 -5.37195338 -2.93583499 0 0 Z M-14.87231445 2.41113281 C-19.64009245 8.8591349 -17.45563976 23.20906127 -17.49829102 31.203125 C-17.50990271 32.71558926 -17.53049647 34.22800972 -17.55981445 35.74023438 C-17.82869599 49.08879489 -17.82869599 49.08879489 -11.23828125 60.453125 C-10.58730469 60.99195313 -9.93632813 61.53078125 -9.265625 62.0859375 C-8.29302734 62.91738281 -8.29302734 62.91738281 -7.30078125 63.765625 C-2.83272694 66.84417266 0.84956767 67.46820532 6.234375 67.3984375 C7.87212891 67.38876953 7.87212891 67.38876953 9.54296875 67.37890625 C12.69901615 67.21598904 15.69389825 66.79596328 18.796875 66.2109375 C18.24041179 71.63645378 16.44441821 76.46534118 13.796875 81.2109375 C10.90825791 82.65524605 9.00039799 82.58782256 5.796875 82.2109375 C3.234375 79.9609375 3.234375 79.9609375 0.796875 77.2109375 C-2.30005177 74.02798499 -4.33685988 72.93247365 -8.703125 72.7734375 C-12.58304589 72.94803394 -15.12649996 73.71117965 -18.203125 76.2109375 C-19.8415088 79.4877051 -19.84756906 82.68244673 -19.203125 86.2109375 C-16.45327101 91.61282458 -11.84202189 94.59992819 -6.234375 96.55078125 C5.05569758 99.00957283 17.23786535 97.96844441 27.13671875 91.73828125 C34.7374983 85.75107502 37.93742117 77.68533486 39.4375 68.33984375 C40.38233351 60.11363022 40.96045592 51.96861029 41 43.6875 C41.00570007 42.73829681 41.01140015 41.78909363 41.01727295 40.81112671 C41.02663378 38.82640673 41.03322091 36.84167184 41.03710938 34.85693359 C41.04691901 31.82232289 41.07806674 28.7883617 41.109375 25.75390625 C41.11589708 23.81510814 41.12115066 21.87630526 41.125 19.9375 C41.1373468 19.03536774 41.1496936 18.13323547 41.16241455 17.20376587 C41.14532432 12.3916056 40.98136679 9.08725871 37.796875 5.2109375 C33.03448685 1.99909433 29.36201999 1.66354619 23.796875 2.2109375 C21.69269984 3.75367938 20.90776636 4.63396467 20.41210938 7.21289062 C20.40501953 7.96505859 20.39792969 8.71722656 20.390625 9.4921875 C20.3709668 10.3287085 20.35130859 11.16522949 20.33105469 12.02709961 C20.31977539 12.91276611 20.30849609 13.79843262 20.296875 14.7109375 C20.05154279 22.29803821 19.43460683 29.03284759 16.796875 36.2109375 C16.39984375 37.335 16.0028125 38.4590625 15.59375 39.6171875 C12.0368459 49.30225168 12.0368459 49.30225168 8.796875 53.2109375 C7.476875 52.8809375 6.156875 52.5509375 4.796875 52.2109375 C4.75723633 50.93976074 4.71759766 49.66858398 4.67675781 48.35888672 C4.52423829 43.62812074 4.3468715 38.89855272 4.16210938 34.16894531 C4.08569699 32.12459013 4.0159619 30.07997372 3.953125 28.03515625 C3.86145316 25.09019832 3.74554042 22.14702554 3.625 19.203125 C3.60189758 18.2935202 3.57879517 17.38391541 3.55499268 16.44674683 C3.29436902 10.80370973 2.48746312 7.55164089 -1.203125 3.2109375 C-5.15908981 0.85874221 -10.89418803 -0.44925471 -14.87231445 2.41113281 Z " fill="#0C1012" transform="translate(926.203125,46.7890625)"/>
<path d="M0 0 C5.54132155 3.83200261 9.22855366 9.77616469 13 15.25 C14.68086566 13.56913434 14.44536084 11.2375257 14.75 8.9375 C15.42602159 5.0186079 15.67363476 3.60147026 18.4375 0.625 C23.5472254 -2.11680387 28.30485635 -2.51439244 34 -1.75 C37.00466449 -0.48256009 39.60356918 1.02876517 42 3.25 C43.32824829 7.23474488 43.18087181 11.07542273 43.20874023 15.23193359 C43.21852402 16.15092941 43.2283078 17.06992523 43.23838806 18.01676941 C43.26832526 21.06064403 43.28971996 24.10447489 43.30859375 27.1484375 C43.31516558 28.18753895 43.3217374 29.2266404 43.32850838 30.29722977 C43.36109076 35.79481902 43.38554732 41.29238894 43.4050293 46.79003906 C43.42286256 51.34338456 43.45771714 55.89611313 43.50756836 60.44921875 C43.56766747 65.94461217 43.59849042 71.43943228 43.60820198 76.9351387 C43.61677317 79.02997127 43.63563199 81.12478783 43.6649456 83.21943283 C43.70375837 86.15006457 43.70490835 89.07845065 43.69702148 92.00927734 C43.7270224 93.30772331 43.7270224 93.30772331 43.75762939 94.63240051 C43.68835543 100.36321046 43.68835543 100.36321046 41.72294807 102.89519119 C36.49095094 107.43415128 31.63858773 107.59527957 25.01953125 107.53125 C19.71815644 107.03746088 16.57213666 105.136564 13.125 101 C11.04956074 95.92670404 10.96356747 90.47642308 10.82421875 85.05078125 C10.78844727 83.70209961 10.78844727 83.70209961 10.75195312 82.32617188 C10.70871669 80.47224599 10.6776134 78.61800028 10.65820312 76.76367188 C10.48396341 71.13532377 9.96075621 68.46980739 6 64.25 C4.23356046 61.30342718 2.61240615 58.28317387 1 55.25 C0.98541748 56.36971191 0.97083496 57.48942383 0.95581055 58.64306641 C0.89765114 62.81428274 0.82041977 66.98496919 0.73754883 71.15576172 C0.70438227 72.95775729 0.67632475 74.75985467 0.65356445 76.56201172 C0.61986568 79.15896823 0.56754351 81.75499866 0.51171875 84.3515625 C0.50213387 85.55191635 0.50213387 85.55191635 0.49235535 86.77651978 C0.34570441 92.40969148 -0.80378954 96.51680401 -4.421875 101.01953125 C-9.29814768 104.82157555 -16.00833087 105.82612203 -22 105.25 C-25.57689985 104.43706822 -26.63845342 103.82076991 -28.6153717 100.6998291 C-30.30036468 96.50163539 -30.42978115 93.15007625 -30.40405273 88.67773438 C-30.41091599 87.83793533 -30.41777924 86.99813629 -30.42485046 86.13288879 C-30.44308298 83.36966832 -30.43928651 80.60701745 -30.43359375 77.84375 C-30.43815684 75.91613582 -30.44346279 73.98852328 -30.44947815 72.06091309 C-30.45840196 68.0260557 -30.45599392 63.99139633 -30.44604492 59.95654297 C-30.43454866 54.79146759 -30.45478056 49.62707521 -30.48396206 44.46208954 C-30.50232495 40.48317134 -30.50203154 36.50441686 -30.49632454 32.52546692 C-30.49617138 30.62131288 -30.50221158 28.7171477 -30.51461601 26.81303406 C-30.52952818 24.14901076 -30.51884816 21.48624997 -30.50170898 18.82226562 C-30.51137695 18.0397493 -30.52104492 17.25723297 -30.53100586 16.45100403 C-30.46153474 11.2827157 -29.37846741 8.37105733 -26 4.25 C-24.03515625 2.859375 -24.03515625 2.859375 -22.0625 2 C-21.36125 1.690625 -20.66 1.38125 -19.9375 1.0625 C-19.298125 0.794375 -18.65875 0.52625 -18 0.25 C-16.7934375 -0.36875 -16.7934375 -0.36875 -15.5625 -1 C-10.16463204 -2.57986379 -5.04150191 -2.7069142 0 0 Z M-26 10.25 C-26.38940898 13.20367314 -26.53721652 15.78261171 -26.50170898 18.73461914 C-26.50711197 19.58869858 -26.51251495 20.44277802 -26.51808167 21.32273865 C-26.53058217 24.14389774 -26.51407071 26.96403904 -26.49609375 29.78515625 C-26.49624869 31.74523472 -26.49773689 33.70531349 -26.50050354 35.66539001 C-26.50188808 39.7719376 -26.48931912 43.87813615 -26.46655273 47.98461914 C-26.43814929 53.25310112 -26.4409098 58.52100388 -26.45364285 63.78952885 C-26.46059105 67.83610498 -26.45282088 71.88254677 -26.44038582 75.92910576 C-26.43586428 77.87200849 -26.43554063 79.81492561 -26.43945122 81.75782967 C-26.4423555 84.47044677 -26.42589491 87.18225979 -26.40405273 89.89477539 C-26.40855438 90.70057037 -26.41305603 91.50636536 -26.41769409 92.33657837 C-26.39402687 96.54175514 -26.39402687 96.54175514 -24.61439514 100.24510193 C-21.11996902 102.42024603 -16.9304374 101.79192394 -13 101.25 C-9.60643833 100.042437 -6.79766327 98.54085036 -4.84936523 95.38793945 C-0.9461424 85.56312704 -2.66378475 72.03348047 -2.4375 61.5625 C-2.39421918 59.68553903 -2.35060216 57.80858578 -2.30664062 55.93164062 C-2.20054977 51.37117354 -2.09901254 46.81062602 -2 42.25 C-1.65743164 42.86520508 -1.31486328 43.48041016 -0.96191406 44.11425781 C0.60185159 46.91340889 2.17579766 49.70670608 3.75 52.5 C4.28882813 53.46808594 4.82765625 54.43617187 5.3828125 55.43359375 C5.91132813 56.36816406 6.43984375 57.30273438 6.984375 58.265625 C7.46616211 59.12446289 7.94794922 59.98330078 8.44433594 60.86816406 C9.91286583 63.33776899 9.91286583 63.33776899 12.15698242 65.19702148 C14.59034326 67.90759656 14.49738617 69.47982681 14.50390625 73.08203125 C14.53194336 74.77489258 14.53194336 74.77489258 14.56054688 76.50195312 C14.56119141 77.67693359 14.56183594 78.85191406 14.5625 80.0625 C14.23456456 92.02980219 14.23456456 92.02980219 19.78125 102.1640625 C22.78482327 103.63412125 25.16701565 103.64793338 28.5 103.625 C30.18609375 103.63660156 30.18609375 103.63660156 31.90625 103.6484375 C35.46512703 103.19009728 36.60139066 102.90271796 39 100.25 C39.39638082 97.15840579 39.53634645 94.42168409 39.50170898 91.328125 C39.50711197 90.41567017 39.51251495 89.50321533 39.51808167 88.56311035 C39.53060674 85.54174536 39.51405274 82.52132625 39.49609375 79.5 C39.49624865 77.40397084 39.49773613 75.3079414 39.50050354 73.21191406 C39.50188923 68.81692865 39.48930091 64.42226891 39.46655273 60.02734375 C39.43816778 54.3877927 39.44090325 48.748783 39.45364285 43.10919189 C39.46059081 38.78038899 39.45282081 34.45171168 39.44038582 30.1229248 C39.43586274 28.04325848 39.43554196 25.96357871 39.43945122 23.88391113 C39.44235477 20.97961695 39.42589738 18.07607433 39.40405273 15.171875 C39.40855438 14.30840454 39.41305603 13.44493408 39.41769409 12.55529785 C39.50344016 8.2698015 39.50344016 8.2698015 37.66327 4.56817627 C33.71755458 1.44111426 28.7776594 1.70422169 24 2.25 C20.85456789 3.29867539 20.85456789 3.29867539 19 6.25 C17.16525588 12.81645266 16.73907539 19.46596022 17 26.25 C14.13796352 23.53137711 11.87601207 20.78015651 9.6875 17.5 C3.71978659 8.3449933 3.71978659 8.3449933 -5 2.25 C-13.02933656 1.4334573 -20.88899797 3.66141535 -26 10.25 Z " fill="#05090C" transform="translate(482,44.75)"/>
<path d="M0 0 C4.90217442 3.7271687 8.21176828 8.99077359 10.140625 14.77734375 C11.24392387 23.96624724 9.06969983 32.54164451 3.47265625 40 C1.94071881 41.67389843 1.94071881 41.67389843 2.140625 43.77734375 C3.34801546 44.88802575 4.60797331 45.94199924 5.890625 46.96484375 C11.40798726 51.65216036 14.59740408 56.70134495 15.37890625 64.00390625 C15.65206403 72.83121555 13.17740707 80.22612286 7.140625 86.77734375 C-6.79279147 96.08494056 -20.81985779 97.71387444 -37.08813477 94.58642578 C-37.87889404 94.42255371 -38.66965332 94.25868164 -39.484375 94.08984375 C-40.62120728 93.86723877 -40.62120728 93.86723877 -41.78100586 93.64013672 C-46.78145605 92.49432855 -49.58651596 90.93229305 -52.859375 86.77734375 C-55.42495822 82.03928635 -55.13176408 77.35752378 -55.08984375 72.11328125 C-55.08938553 71.16659576 -55.08892731 70.21991028 -55.0884552 69.24453735 C-55.08543618 67.23560334 -55.07756036 65.2266716 -55.06518555 63.21777344 C-55.04722835 60.21149946 -55.04467416 57.20554013 -55.04492188 54.19921875 C-54.98877707 22.77273416 -54.98877707 22.77273416 -52.609375 7.40234375 C-52.51269531 6.62375 -52.41601562 5.84515625 -52.31640625 5.04296875 C-51.52494127 -0.16825014 -50.22074456 -2.91424591 -45.859375 -6.22265625 C-29.75017705 -13.16382536 -13.93747644 -9.16476917 0 0 Z M-46.09375 -1.1875 C-48.42132852 2.72097809 -48.71601982 6.05150508 -49.046875 10.52734375 C-49.18619792 12.06380208 -49.32552083 13.60026042 -49.46484375 15.13671875 C-49.51793701 15.81186523 -49.57103027 16.48701172 -49.62573242 17.18261719 C-49.75947303 18.66787856 -49.90768567 20.15236026 -50.09822083 21.63140869 C-50.92304978 28.18860143 -51.05406257 34.68895732 -51.09765625 41.29296875 C-51.10976387 43.05395905 -51.10976387 43.05395905 -51.12211609 44.8505249 C-51.13587707 47.31797846 -51.1466345 49.78545042 -51.15454102 52.25292969 C-51.16613015 54.77642391 -51.18668921 57.29989233 -51.21606445 59.82324219 C-51.25857921 63.47998612 -51.27488035 67.13600895 -51.28515625 70.79296875 C-51.30266434 71.92011292 -51.32017242 73.04725708 -51.33821106 74.20855713 C-51.36004609 80.38098826 -51.36004609 80.38098826 -48.97631836 85.95703125 C-43.70073043 90.49339194 -35.62632931 91.3880435 -28.859375 91.77734375 C-27.81910156 91.84179688 -26.77882812 91.90625 -25.70703125 91.97265625 C-14.64166889 92.33946384 -4.16244457 90.62365173 4.5546875 83.359375 C9.26903003 78.65664415 11.29171896 73.87161433 11.578125 67.21484375 C11.50416398 60.4186477 9.49878539 55.94121446 5.140625 50.77734375 C0.74434507 46.46307376 0.74434507 46.46307376 -4.859375 44.77734375 C-2.64739659 40.84493768 -0.05616195 37.36667282 2.73828125 33.83984375 C6.78266373 27.89155976 7.00511406 21.7660553 6.140625 14.77734375 C3.56358922 7.6815057 -2.71672668 2.02582063 -9.234375 -1.51171875 C-19.13845502 -6.04022902 -37.33675637 -9.16371273 -46.09375 -1.1875 Z " fill="#0B0D0F" transform="translate(171.859375,52.22265625)"/>
<path d="M0 0 C4.27253781 2.36269372 6.78535383 4.26235247 8.75 8.875 C9.95002573 16.62839863 9.88502831 24.4993109 9.84765625 32.32421875 C9.8462413 33.46284866 9.84482635 34.60147858 9.84336853 35.77461243 C9.83782209 39.37060298 9.82527989 42.96652863 9.8125 46.5625 C9.80747807 49.01757722 9.80291638 51.47265542 9.79882812 53.92773438 C9.78787028 59.91017797 9.77118647 65.89258434 9.75 71.875 C10.32443848 71.85928955 10.89887695 71.8435791 11.49072266 71.82739258 C14.11871309 71.76464487 16.74654537 71.72588494 19.375 71.6875 C20.27863281 71.66236328 21.18226563 71.63722656 22.11328125 71.61132812 C27.44428421 71.55295948 31.1412731 71.87311925 35.75 74.875 C40.36567076 79.64983182 40.0455844 85.92102062 39.9609375 92.21875 C39.56943258 97.14881194 37.97112033 99.81281914 34.2890625 103.015625 C29.47382372 105.54548555 25.60072737 105.35494872 20.25 105.1875 C18.7486853 105.15885864 18.7486853 105.15885864 17.21704102 105.12963867 C15.1198835 105.08450145 13.02291895 105.0294057 10.92626953 104.96484375 C7.80312278 104.87650263 4.68279639 104.84036357 1.55859375 104.8125 C-0.39848899 104.77332637 -2.35552547 104.73175069 -4.3125 104.6875 C-5.22128906 104.68210205 -6.13007813 104.6767041 -7.06640625 104.67114258 C-11.27750985 104.52646517 -14.34484246 104.25977853 -17.74609375 101.63671875 C-22.1150705 96.81789416 -22.55067298 92.49988437 -22.515625 86.17578125 C-22.51844482 85.40785248 -22.52126465 84.63992371 -22.52416992 83.84872437 C-22.52848339 81.29480362 -22.51570869 78.74137203 -22.5 76.1875 C-22.49689819 75.3084903 -22.49379639 74.42948059 -22.49060059 73.52383423 C-22.42991062 58.65329278 -22.11254029 43.7863998 -21.61120605 28.92440796 C-21.53716929 26.68617727 -21.4691998 24.44773753 -21.40734863 22.20913696 C-21.31719684 19.05895309 -21.20139533 15.91075879 -21.078125 12.76171875 C-21.05500244 11.81871918 -21.03187988 10.8757196 -21.00805664 9.90414429 C-20.71626647 3.51413189 -20.71626647 3.51413189 -18.38574219 0.31958008 C-12.40021297 -3.72893117 -6.21674208 -2.86502737 0 0 Z M-16.25 3.875 C-17.56506371 7.82019113 -17.48601157 11.63653827 -17.56640625 15.75390625 C-17.58745926 16.6577002 -17.60851227 17.56149414 -17.63020325 18.49267578 C-17.697224 21.47418944 -17.75602456 24.45576867 -17.8125 27.4375 C-17.83201721 28.45311005 -17.85153442 29.46872009 -17.87164307 30.5151062 C-17.99177832 36.90150388 -18.09653172 43.28806704 -18.19671631 49.67480469 C-18.24892964 52.81071482 -18.30990816 55.94633387 -18.37353516 59.08203125 C-18.47060028 63.94907693 -18.54105638 68.81581277 -18.59103394 73.68356323 C-18.61359423 75.51273054 -18.64471978 77.34181317 -18.68460083 79.17068481 C-18.73811379 81.71963761 -18.75976928 84.26697126 -18.7734375 86.81640625 C-18.79606155 87.5633374 -18.81868561 88.31026855 -18.84199524 89.07983398 C-18.82591321 93.05732136 -18.39695917 94.69548092 -15.84228516 97.81616211 C-12.67858177 100.32883028 -11.18160136 100.99822809 -7.24682617 101.06787109 C-6.42224411 101.08393402 -5.59766205 101.09999695 -4.74809265 101.11654663 C-0.97521801 101.16102528 2.79748109 101.20206263 6.57055664 101.22509766 C8.55993347 101.24165551 10.54925085 101.26894328 12.53833008 101.30712891 C15.40737755 101.36192264 18.27503087 101.38377517 21.14453125 101.3984375 C22.03114944 101.42110687 22.91776764 101.44377625 23.83125305 101.46713257 C28.28888594 101.45190016 30.1541067 101.33502982 33.7878418 98.52978516 C36.974794 94.21786301 37.31421125 90.10137785 36.75 84.875 C35.30890597 81.23795315 33.84608244 78.30072046 30.75 75.875 C28.1431977 75.37020343 28.1431977 75.37020343 25.20703125 75.36328125 C23.59731445 75.31010742 23.59731445 75.31010742 21.95507812 75.25585938 C20.27575195 75.22202148 20.27575195 75.22202148 18.5625 75.1875 C17.43134766 75.15333984 16.30019531 75.11917969 15.13476562 75.08398438 C12.3399426 75.00143686 9.54543602 74.93230818 6.75 74.875 C6.74120064 73.70775139 6.74120064 73.70775139 6.73222351 72.516922 C6.67426262 65.17490826 6.60216692 57.83323257 6.51428509 50.49152088 C6.46960263 46.71726947 6.43034212 42.94312546 6.40356445 39.16870117 C6.37750982 35.52452822 6.33709291 31.88076905 6.28681374 28.23685265 C6.27015947 26.84828536 6.2586362 25.45964652 6.25238609 24.07099342 C6.24273028 22.1224898 6.21295739 20.17411758 6.18237305 18.22583008 C6.17126999 17.1177449 6.16016693 16.00965973 6.14872742 14.86799622 C5.69622815 11.47136851 4.77816255 9.61552899 2.75 6.875 C-3.15006943 2.44994792 -9.51132452 -0.61745032 -16.25 3.875 Z " fill="#06090B" transform="translate(243.25,46.125)"/>
<path d="M0 0 C3.89727968 2.85005147 6.01005217 6.15642414 6.90405273 10.90429688 C6.94989502 12.09861328 6.9957373 13.29292969 7.04296875 14.5234375 C7.07168564 15.20104126 7.10040253 15.87864502 7.12998962 16.57678223 C7.51281527 27.10278147 7.40179242 37.64896272 7.359375 48.1796875 C7.35434661 50.37109272 7.34978609 52.56249906 7.34570312 54.75390625 C7.33481136 60.06252503 7.31818085 65.37110082 7.296875 70.6796875 C7.87131348 70.66397705 8.44575195 70.6482666 9.03759766 70.63208008 C11.66558809 70.56933237 14.29342037 70.53057244 16.921875 70.4921875 C17.82550781 70.46705078 18.72914063 70.44191406 19.66015625 70.41601562 C24.97536864 70.35781987 28.73043834 70.63301804 33.296875 73.6796875 C37.71341326 79.02602329 37.85586448 83.82480598 37.61328125 90.6484375 C37.0754452 95.80103965 35.72162835 98.44490127 31.8359375 101.8125 C27.45318941 104.62583076 22.8381103 104.1499508 17.796875 103.9921875 C16.2955603 103.96354614 16.2955603 103.96354614 14.76391602 103.93432617 C12.6667585 103.88918895 10.56979395 103.8340932 8.47314453 103.76953125 C5.34999778 103.68119013 2.22967139 103.64505107 -0.89453125 103.6171875 C-2.85161399 103.57801387 -4.80865047 103.53643819 -6.765625 103.4921875 C-7.67441406 103.48678955 -8.58320313 103.4813916 -9.51953125 103.47583008 C-13.73063485 103.33115267 -16.79796746 103.06446603 -20.19921875 100.44140625 C-24.5681955 95.62258166 -25.00379798 91.30457187 -24.96875 84.98046875 C-24.97156982 84.21253998 -24.97438965 83.44461121 -24.97729492 82.65341187 C-24.98160839 80.09949112 -24.96883369 77.54605953 -24.953125 74.9921875 C-24.95002319 74.1131778 -24.94692139 73.23416809 -24.94372559 72.32852173 C-24.88303562 57.45798028 -24.56566529 42.5910873 -24.06433105 27.72909546 C-23.99029429 25.49086477 -23.9223248 23.25242503 -23.86047363 21.01382446 C-23.77032184 17.86364059 -23.65452033 14.71544629 -23.53125 11.56640625 C-23.50812744 10.62340668 -23.48500488 9.6804071 -23.46118164 8.70883179 C-23.16939147 2.31881939 -23.16939147 2.31881939 -20.83886719 -0.87573242 C-13.77071408 -5.65651225 -7.00571216 -3.41361134 0 0 Z M-18.703125 2.6796875 C-20.01818871 6.62487863 -19.93913657 10.44122577 -20.01953125 14.55859375 C-20.04058426 15.4623877 -20.06163727 16.36618164 -20.08332825 17.29736328 C-20.150349 20.27887694 -20.20914956 23.26045617 -20.265625 26.2421875 C-20.28514221 27.25779755 -20.30465942 28.27340759 -20.32476807 29.3197937 C-20.44490332 35.70619138 -20.54965672 42.09275454 -20.64984131 48.47949219 C-20.70205464 51.61540232 -20.76303316 54.75102137 -20.82666016 57.88671875 C-20.92372528 62.75376443 -20.99418138 67.62050027 -21.04415894 72.48825073 C-21.06671923 74.31741804 -21.09784478 76.14650067 -21.13772583 77.97537231 C-21.19123879 80.52432511 -21.21289428 83.07165876 -21.2265625 85.62109375 C-21.24918655 86.3680249 -21.27181061 87.11495605 -21.29512024 87.88452148 C-21.27903821 91.86200886 -20.85008417 93.50016842 -18.29541016 96.62084961 C-15.13170677 99.13351778 -13.63472636 99.80291559 -9.69995117 99.87255859 C-8.87536911 99.88862152 -8.05078705 99.90468445 -7.20121765 99.92123413 C-3.42834301 99.96571278 0.34435609 100.00675013 4.11743164 100.02978516 C6.10680847 100.04634301 8.09612585 100.07363078 10.08520508 100.11181641 C12.95425255 100.16661014 15.82190587 100.18846267 18.69140625 100.203125 C19.57802444 100.22579437 20.46464264 100.24846375 21.37812805 100.27182007 C25.83576094 100.25658766 27.7009817 100.13971732 31.3347168 97.33447266 C34.521669 93.02255051 34.86108625 88.90606535 34.296875 83.6796875 C32.85578097 80.04264065 31.39295744 77.10540796 28.296875 74.6796875 C25.6900727 74.17489093 25.6900727 74.17489093 22.75390625 74.16796875 C21.14418945 74.11479492 21.14418945 74.11479492 19.50195312 74.06054688 C17.82262695 74.02670898 17.82262695 74.02670898 16.109375 73.9921875 C14.97822266 73.95802734 13.84707031 73.92386719 12.68164062 73.88867188 C9.8868176 73.80612436 7.09231102 73.73699568 4.296875 73.6796875 C4.28807564 72.51243889 4.28807564 72.51243889 4.27909851 71.3216095 C4.22113762 63.97959576 4.14904192 56.63792007 4.06116009 49.29620838 C4.01647763 45.52195697 3.97721712 41.74781296 3.95043945 37.97338867 C3.92438482 34.32921572 3.88396791 30.68545655 3.83368874 27.04154015 C3.81703447 25.65297286 3.8055112 24.26433402 3.79926109 22.87568092 C3.78960528 20.9271773 3.75983239 18.97880508 3.72924805 17.03051758 C3.71814499 15.9224324 3.70704193 14.81434723 3.69560242 13.67268372 C3.24310315 10.27605601 2.32503755 8.42021649 0.296875 5.6796875 C-5.60319443 1.25463542 -11.96444952 -1.81276282 -18.703125 2.6796875 Z " fill="#05080A" transform="translate(308.703125,47.3203125)"/>
<path d="M0 0 C3.89727968 2.85005147 6.01005217 6.15642414 6.90405273 10.90429688 C6.94989502 12.09861328 6.9957373 13.29292969 7.04296875 14.5234375 C7.07168564 15.20104126 7.10040253 15.87864502 7.12998962 16.57678223 C7.51281527 27.10278147 7.40179242 37.64896272 7.359375 48.1796875 C7.35434661 50.37109272 7.34978609 52.56249906 7.34570312 54.75390625 C7.33481136 60.06252503 7.31818085 65.37110082 7.296875 70.6796875 C7.87131348 70.66397705 8.44575195 70.6482666 9.03759766 70.63208008 C11.66558809 70.56933237 14.29342037 70.53057244 16.921875 70.4921875 C17.82550781 70.46705078 18.72914063 70.44191406 19.66015625 70.41601562 C24.97536864 70.35781987 28.73043834 70.63301804 33.296875 73.6796875 C37.71341326 79.02602329 37.85586448 83.82480598 37.61328125 90.6484375 C37.0754452 95.80103965 35.72162835 98.44490127 31.8359375 101.8125 C27.45318941 104.62583076 22.8381103 104.1499508 17.796875 103.9921875 C16.2955603 103.96354614 16.2955603 103.96354614 14.76391602 103.93432617 C12.6667585 103.88918895 10.56979395 103.8340932 8.47314453 103.76953125 C5.34999778 103.68119013 2.22967139 103.64505107 -0.89453125 103.6171875 C-2.85161399 103.57801387 -4.80865047 103.53643819 -6.765625 103.4921875 C-7.67441406 103.48678955 -8.58320312 103.4813916 -9.51953125 103.47583008 C-13.73063485 103.33115267 -16.79796746 103.06446603 -20.19921875 100.44140625 C-24.28259216 95.93759189 -24.95680957 92.24153723 -24.96875 86.25 C-24.97156982 85.60694916 -24.97438965 84.96389832 -24.97729492 84.30136108 C-24.98163137 82.13559411 -24.96875045 79.97039804 -24.953125 77.8046875 C-24.95002319 77.0521167 -24.94692139 76.2995459 -24.94372559 75.52416992 C-24.87356597 60.65495654 -24.51663161 45.78670265 -24.06433105 30.92474365 C-23.99022305 28.42902854 -23.92226532 25.93312318 -23.86047363 23.43707275 C-23.77008788 19.90244934 -23.65413764 16.36956155 -23.53125 12.8359375 C-23.50812744 11.76765717 -23.48500488 10.69937683 -23.46118164 9.59872437 C-23.16863273 2.33759208 -23.16863273 2.33759208 -20.83886719 -0.95507812 C-13.64848222 -5.55140103 -7.05969796 -3.43991652 0 0 Z M-18.703125 2.6796875 C-19.84811791 6.11466623 -19.91392708 8.90314799 -20.01953125 12.52734375 C-20.04058426 13.23133301 -20.06163727 13.93532227 -20.08332825 14.66064453 C-20.15083398 17.02103379 -20.20953797 19.38150014 -20.265625 21.7421875 C-20.28514221 22.5554953 -20.30465942 23.3688031 -20.32476807 24.20675659 C-20.45154492 29.67237225 -20.55592647 35.13821927 -20.64984131 40.60449219 C-20.68640206 42.71454594 -20.72461519 44.82457152 -20.76422119 46.93457031 C-20.89089584 53.74800687 -20.98632941 60.56083539 -21.04415894 67.37521362 C-21.06676707 69.61630376 -21.09792933 71.85732424 -21.13772583 74.09817505 C-21.19151862 77.26237238 -21.21298295 80.42525177 -21.2265625 83.58984375 C-21.26049858 85.01091431 -21.26049858 85.01091431 -21.29512024 86.46069336 C-21.28042605 91.06744007 -21.22228094 93.0181348 -18.29541016 96.74780273 C-15.12036768 99.11398385 -13.56953949 99.80406936 -9.69995117 99.87255859 C-8.87536911 99.88862152 -8.05078705 99.90468445 -7.20121765 99.92123413 C-3.42834301 99.96571278 0.34435609 100.00675013 4.11743164 100.02978516 C6.10680847 100.04634301 8.09612585 100.07363078 10.08520508 100.11181641 C12.95425255 100.16661014 15.82190587 100.18846267 18.69140625 100.203125 C19.57802444 100.22579437 20.46464264 100.24846375 21.37812805 100.27182007 C25.83576094 100.25658766 27.7009817 100.13971732 31.3347168 97.33447266 C34.521669 93.02255051 34.86108625 88.90606535 34.296875 83.6796875 C32.85578097 80.04264065 31.39295744 77.10540796 28.296875 74.6796875 C25.6900727 74.17489093 25.6900727 74.17489093 22.75390625 74.16796875 C21.14418945 74.11479492 21.14418945 74.11479492 19.50195312 74.06054688 C17.82262695 74.02670898 17.82262695 74.02670898 16.109375 73.9921875 C14.97822266 73.95802734 13.84707031 73.92386719 12.68164062 73.88867188 C9.8868176 73.80612436 7.09231102 73.73699568 4.296875 73.6796875 C4.28807564 72.51243889 4.28807564 72.51243889 4.27909851 71.3216095 C4.22113762 63.97959576 4.14904192 56.63792007 4.06116009 49.29620838 C4.01647763 45.52195697 3.97721712 41.74781296 3.95043945 37.97338867 C3.92438482 34.32921572 3.88396791 30.68545655 3.83368874 27.04154015 C3.81703447 25.65297286 3.8055112 24.26433402 3.79926109 22.87568092 C3.78960528 20.9271773 3.75983239 18.97880508 3.72924805 17.03051758 C3.71814499 15.9224324 3.70704193 14.81434723 3.69560242 13.67268372 C3.24310315 10.27605601 2.32503755 8.42021649 0.296875 5.6796875 C-5.60319443 1.25463542 -11.96444952 -1.81276282 -18.703125 2.6796875 Z " fill="#050708" transform="translate(863.703125,47.3203125)"/>
<path d="M0 0 C9.82195614 5.37102285 16.35823874 13.33890014 20.46875 23.671875 C22.78579285 32.09463889 22.41443392 41.68319298 18.66015625 49.61328125 C14.5453834 56.48337397 9.39081026 61.1158882 2.3359375 64.82421875 C1.5521875 65.23671875 0.7684375 65.64921875 -0.0390625 66.07421875 C-4.17122588 67.25483686 -8.38940795 67.50880735 -12.6640625 67.82421875 C-12.591875 68.57445313 -12.5196875 69.3246875 -12.4453125 70.09765625 C-10.61430903 90.28955567 -10.61430903 90.28955567 -14.6640625 95.82421875 C-19.41227745 99.21580085 -24.02797727 99.54225404 -29.6640625 98.82421875 C-34.88370647 97.17133149 -38.15826127 95.03118023 -41.6640625 90.82421875 C-43.75644871 86.67013466 -44.08789713 82.67104485 -44.2734375 78.09765625 C-44.32911896 76.88751358 -44.32911896 76.88751358 -44.38592529 75.65292358 C-44.89354793 63.07559227 -44.88823003 50.48033458 -44.90429688 37.89453125 C-44.90986174 34.15462965 -44.93412804 30.41507753 -44.96226883 26.67528725 C-44.98087743 23.76704862 -44.98609901 20.85889662 -44.98763275 17.95060349 C-44.99064463 16.57033675 -44.99862331 15.190071 -45.01181793 13.80986404 C-45.02890065 11.89235957 -45.02515013 9.97470385 -45.02050781 8.05712891 C-45.02415344 6.97082184 -45.02779907 5.88451477 -45.03155518 4.76528931 C-44.61083367 1.39822452 -43.65538477 -0.45270803 -41.6640625 -3.17578125 C-30.90387056 -11.38750668 -10.96655113 -4.99910112 0 0 Z M-40.6640625 1.82421875 C-41.39269439 4.83848626 -41.39269439 4.83848626 -41.24755859 8.25073242 C-41.25040863 9.55697067 -41.25325867 10.86320892 -41.25619507 12.20903015 C-41.23394102 13.63675946 -41.21102499 15.06447857 -41.1875 16.4921875 C-41.18069918 17.97031364 -41.17598386 19.44845071 -41.17324829 20.92658997 C-41.15982684 24.82819877 -41.11558668 28.72889951 -41.06567383 32.63018799 C-41.03063692 35.76574998 -41.01724896 38.90121433 -41.00525475 42.03693676 C-40.99023685 45.83457477 -40.96520852 49.63212309 -40.9375 53.4296875 C-40.93258923 54.13128683 -40.92767845 54.83288616 -40.92261887 55.55574608 C-40.88937165 59.61614555 -40.82250065 63.6740341 -40.71465302 67.73315048 C-40.67950874 69.18577629 -40.65325696 70.63863355 -40.6339798 72.09155655 C-40.59984638 74.38694002 -40.53295592 76.67945202 -40.45947266 78.97387695 C-40.45246621 80.01976754 -40.45246621 80.01976754 -40.44531822 81.08678722 C-40.21166819 86.68606636 -38.46302909 88.99499937 -34.6640625 92.82421875 C-31.56467263 94.9519745 -28.88746723 95.14807308 -25.1640625 95.19921875 C-24.225625 95.22757812 -23.2871875 95.2559375 -22.3203125 95.28515625 C-18.83642166 94.68059872 -17.8411629 93.57848528 -15.6640625 90.82421875 C-15.11537947 87.92989781 -15.11537947 87.92989781 -15.2734375 84.74609375 C-15.28632812 83.5859375 -15.29921875 82.42578125 -15.3125 81.23046875 C-15.34601562 80.02390625 -15.37953125 78.81734375 -15.4140625 77.57421875 C-15.44113281 75.74117187 -15.44113281 75.74117187 -15.46875 73.87109375 C-15.5158815 70.85467797 -15.58166837 67.83984384 -15.6640625 64.82421875 C-14.74826416 64.71198975 -13.83246582 64.59976074 -12.88891602 64.48413086 C-3.50789688 63.29170667 4.8023531 61.13267569 11.3359375 53.82421875 C16.58684086 46.26144224 19.3269573 40.08317513 18.3359375 30.82421875 C16.03625131 21.32069629 11.26021765 12.30129273 3.2109375 6.51171875 C-6.37840119 0.71198126 -16.52326353 -2.3341189 -27.6640625 -2.48828125 C-28.36273437 -2.51728516 -29.06140625 -2.54628906 -29.78125 -2.57617188 C-34.80192278 -2.63774616 -37.18978018 -1.76625436 -40.6640625 1.82421875 Z " fill="#090C0E" transform="translate(816.6640625,49.17578125)"/>
<path d="M0 0 C9.82195614 5.37102285 16.35823874 13.33890014 20.46875 23.671875 C22.78579285 32.09463889 22.41443392 41.68319298 18.66015625 49.61328125 C14.5453834 56.48337397 9.39081026 61.1158882 2.3359375 64.82421875 C1.5521875 65.23671875 0.7684375 65.64921875 -0.0390625 66.07421875 C-4.17122588 67.25483686 -8.38940795 67.50880735 -12.6640625 67.82421875 C-12.591875 68.57445313 -12.5196875 69.3246875 -12.4453125 70.09765625 C-10.61430903 90.28955567 -10.61430903 90.28955567 -14.6640625 95.82421875 C-19.41227745 99.21580085 -24.02797727 99.54225404 -29.6640625 98.82421875 C-34.88370647 97.17133149 -38.15826127 95.03118023 -41.6640625 90.82421875 C-43.75644871 86.67013466 -44.08789713 82.67104485 -44.2734375 78.09765625 C-44.32911896 76.88751358 -44.32911896 76.88751358 -44.38592529 75.65292358 C-44.89354793 63.07559227 -44.88823003 50.48033458 -44.90429688 37.89453125 C-44.90986174 34.15462965 -44.93412804 30.41507753 -44.96226883 26.67528725 C-44.98087743 23.76704862 -44.98609901 20.85889662 -44.98763275 17.95060349 C-44.99064463 16.57033675 -44.99862331 15.190071 -45.01181793 13.80986404 C-45.02890065 11.89235957 -45.02515013 9.97470385 -45.02050781 8.05712891 C-45.02415344 6.97082184 -45.02779907 5.88451477 -45.03155518 4.76528931 C-44.61083367 1.39822452 -43.65538477 -0.45270803 -41.6640625 -3.17578125 C-30.90387056 -11.38750668 -10.96655113 -4.99910112 0 0 Z M-40.6640625 1.82421875 C-41.39269439 4.83848626 -41.39269439 4.83848626 -41.24755859 8.25073242 C-41.25040863 9.55697067 -41.25325867 10.86320892 -41.25619507 12.20903015 C-41.23394102 13.63675946 -41.21102499 15.06447857 -41.1875 16.4921875 C-41.18069918 17.97031364 -41.17598386 19.44845071 -41.17324829 20.92658997 C-41.15982684 24.82819877 -41.11558668 28.72889951 -41.06567383 32.63018799 C-41.03063692 35.76574998 -41.01724896 38.90121433 -41.00525475 42.03693676 C-40.99023685 45.83457477 -40.96520852 49.63212309 -40.9375 53.4296875 C-40.93258923 54.13128683 -40.92767845 54.83288616 -40.92261887 55.55574608 C-40.88937165 59.61614555 -40.82250065 63.6740341 -40.71465302 67.73315048 C-40.67950874 69.18577629 -40.65325696 70.63863355 -40.6339798 72.09155655 C-40.59984638 74.38694002 -40.53295592 76.67945202 -40.45947266 78.97387695 C-40.45246621 80.01976754 -40.45246621 80.01976754 -40.44531822 81.08678722 C-40.21166819 86.68606636 -38.46302909 88.99499937 -34.6640625 92.82421875 C-31.56467263 94.9519745 -28.88746723 95.14807308 -25.1640625 95.19921875 C-24.225625 95.22757812 -23.2871875 95.2559375 -22.3203125 95.28515625 C-18.83642166 94.68059872 -17.8411629 93.57848528 -15.6640625 90.82421875 C-15.11537947 87.92989781 -15.11537947 87.92989781 -15.2734375 84.74609375 C-15.28632812 83.5859375 -15.29921875 82.42578125 -15.3125 81.23046875 C-15.34601562 80.02390625 -15.37953125 78.81734375 -15.4140625 77.57421875 C-15.44113281 75.74117187 -15.44113281 75.74117187 -15.46875 73.87109375 C-15.5158815 70.85467797 -15.58166837 67.83984384 -15.6640625 64.82421875 C-14.74826416 64.71198975 -13.83246582 64.59976074 -12.88891602 64.48413086 C-3.50789688 63.29170667 4.8023531 61.13267569 11.3359375 53.82421875 C16.58684086 46.26144224 19.3269573 40.08317513 18.3359375 30.82421875 C16.03625131 21.32069629 11.26021765 12.30129273 3.2109375 6.51171875 C-6.37840119 0.71198126 -16.52326353 -2.3341189 -27.6640625 -2.48828125 C-28.36273437 -2.51728516 -29.06140625 -2.54628906 -29.78125 -2.57617188 C-34.80192278 -2.63774616 -37.18978018 -1.76625436 -40.6640625 1.82421875 Z " fill="#090C0E" transform="translate(749.6640625,49.17578125)"/>
<path d="M0 0 C8.61511959 5.79049022 13.59197405 14.01929112 15.83984375 24.0390625 C17.08222853 30.53059781 17.05033312 37.04267587 17.01074219 43.62695312 C17.00001829 45.74638469 17.01069362 47.86496899 17.0234375 49.984375 C17.04206341 65.60351291 14.07140227 80.56117925 3.74609375 92.91015625 C-2.82160527 98.96374967 -10.82871606 101.08891594 -19.53125 100.9609375 C-27.63519877 100.33218285 -34.44614091 97.47595494 -40.25 91.75 C-44.5304262 86.44227152 -47.08490364 80.16201616 -49.25 73.75 C-49.70246094 72.45642578 -49.70246094 72.45642578 -50.1640625 71.13671875 C-56.11380434 50.59064762 -53.44212317 24.08049431 -44.25 4.75 C-41.39593167 -0.31972664 -38.20364863 -3.9772501 -32.5390625 -5.80078125 C-20.82392028 -8.09982793 -10.25431272 -5.78398136 0 0 Z M-38.7890625 3.43359375 C-49.68332673 21.02900612 -51.32349777 47.30382205 -47.3046875 67.22265625 C-44.63283599 78.18945722 -40.69500423 87.15902965 -31.25 93.75 C-24.38443493 97.86933904 -16.37487975 97.97719259 -8.65625 96.12890625 C0.19978949 92.71690473 4.89847783 85.36222422 8.7578125 77.05078125 C9.94830289 74.29015589 10.97765085 71.66116219 11.75 68.75 C11.93433594 68.07839844 12.11867188 67.40679687 12.30859375 66.71484375 C16.27447861 49.45640686 15.79166465 26.42559193 6.4140625 11.01953125 C1.36308016 4.13075017 -5.91050441 -0.41636478 -14.25 -2.25 C-17.05676288 -2.42155565 -19.81720733 -2.5263171 -22.625 -2.5625 C-23.3675 -2.59150391 -24.11 -2.62050781 -24.875 -2.65039062 C-30.8921953 -2.71949269 -34.61748276 -1.12973333 -38.7890625 3.43359375 Z " fill="#090C0E" transform="translate(433.25,50.25)"/>
<path d="M0 0 C4.23784453 3.38057063 7.33401651 7.49423704 9.046875 12.6328125 C9.1529097 15.11042312 9.20410162 17.56032352 9.20800781 20.03833008 C9.21545517 21.16569832 9.21545517 21.16569832 9.22305298 22.31584167 C9.23766125 24.80301835 9.24447465 27.29013122 9.25 29.77734375 C9.25575291 31.50746156 9.26151062 33.23757936 9.26727295 34.96769714 C9.27777938 38.59671322 9.28362427 42.22570718 9.28710938 45.85473633 C9.2925909 50.49850256 9.31661305 55.1419751 9.34508133 59.7856493 C9.36373189 63.3604975 9.36891461 66.93527533 9.37044525 70.51016808 C9.37346726 72.22174369 9.38148053 73.9333182 9.39463043 75.64484596 C9.41174044 78.0431597 9.40979876 80.44076083 9.40332031 82.83911133 C9.41714249 83.89372055 9.41714249 83.89372055 9.4312439 84.96963501 C9.39233097 89.58271669 8.44511305 92.70312789 6.046875 96.6328125 C1.65676526 100.61134945 -2.59887644 100.9719945 -8.3125 100.921875 C-13.68091433 100.33420834 -18.48047288 97.78258342 -21.953125 93.6328125 C-24.76113114 88.78432189 -24.25150358 83.43960399 -24.203125 78.0078125 C-24.19925781 76.9463501 -24.19539063 75.8848877 -24.19140625 74.79125977 C-24.0341294 59.38577418 -22.95508339 44.00194815 -21.953125 28.6328125 C-22.89188477 28.65698242 -23.83064453 28.68115234 -24.79785156 28.70605469 C-28.38436162 28.62280236 -29.79623957 27.90760856 -32.703125 25.8828125 C-33.46109375 25.37234375 -34.2190625 24.861875 -35 24.3359375 C-38.18947186 21.55471803 -38.8728694 19.36848884 -39.328125 15.1953125 C-38.87375857 10.87883143 -37.89395471 9.7687458 -34.953125 6.6328125 C-32.71314701 4.89056886 -30.36209628 3.3796001 -27.953125 1.8828125 C-27.33695313 1.48449219 -26.72078125 1.08617187 -26.0859375 0.67578125 C-17.64707464 -4.66641734 -8.66760071 -5.37883023 0 0 Z M-33.953125 10.6328125 C-35.416083 13.5587285 -35.39835609 15.38898597 -34.953125 18.6328125 C-31.49807216 22.63339999 -28.89836838 23.84234315 -23.7265625 24.7734375 C-22.38343994 25.0214209 -22.38343994 25.0214209 -21.01318359 25.27441406 C-19.99345459 25.45182129 -19.99345459 25.45182129 -18.953125 25.6328125 C-18.99856445 27.21642578 -18.99856445 27.21642578 -19.04492188 28.83203125 C-19.31207177 38.24210028 -19.55703332 47.65242191 -19.77236938 57.06382751 C-19.86207483 60.95599173 -19.9554586 64.847581 -20.08105469 68.73876953 C-20.18590148 72.05757379 -20.26177272 75.3755579 -20.328125 78.6953125 C-20.36615234 79.63697266 -20.40417969 80.57863281 -20.44335938 81.54882812 C-20.49742314 85.81350513 -20.36798351 88.70004133 -17.6796875 92.12890625 C-13.59606915 95.8790486 -11.05615941 96.93967577 -5.515625 97.0703125 C-4.58878906 97.11027344 -3.66195312 97.15023437 -2.70703125 97.19140625 C1.22267835 96.39431622 2.55494213 94.73479469 5.046875 91.6328125 C5.53782005 88.85581104 5.72359271 86.69316874 5.67797852 83.92431641 C5.68513382 83.16429825 5.69228912 82.40428009 5.69966125 81.62123108 C5.71652609 79.11666155 5.69715686 76.61388816 5.67578125 74.109375 C5.67661033 72.36208956 5.67907121 70.61480421 5.68309021 68.86752319 C5.68594691 65.20734142 5.67126304 61.54777198 5.64379883 57.88769531 C5.60976648 53.20799285 5.6157185 48.52938872 5.6344614 43.84963417 C5.64505901 40.2412103 5.63606776 36.63303951 5.62107658 33.02463913 C5.61591113 31.29995858 5.61635662 29.5752514 5.62262154 27.85057449 C5.62810532 25.43317664 5.60759813 23.01731966 5.58032227 20.60009766 C5.58684814 19.89441147 5.59337402 19.18872528 5.60009766 18.46165466 C5.49662352 13.03673516 4.04184603 10.00506236 1.046875 5.6328125 C-3.97070022 1.74163172 -8.45846413 -0.04922435 -14.7734375 -0.05859375 C-21.71610256 1.45105209 -28.44959963 6.20620746 -33.953125 10.6328125 Z " fill="#0C1012" transform="translate(66.953125,47.3671875)"/>
<path d="M0 0 C2.53975739 1.87394361 2.91732106 3.33813719 3.84765625 6.36328125 C4.03984054 9.15565093 4.1313251 11.84726871 4.12231445 14.63842773 C4.12998085 15.86864655 4.12998085 15.86864655 4.13780212 17.12371826 C4.15167069 19.82734531 4.15074347 22.53071667 4.1484375 25.234375 C4.15232583 27.11857701 4.15666078 29.00277815 4.16142273 30.88697815 C4.16887898 34.83361657 4.16859789 38.78016552 4.16333008 42.72680664 C4.15753513 47.77857429 4.17446995 52.82997535 4.19767475 57.8816824 C4.21242246 61.77222324 4.21328239 65.66267598 4.21016502 69.55323982 C4.21067768 71.41552519 4.2159049 73.27781557 4.22597694 75.14007378 C4.23834465 77.74653679 4.23154791 80.3522882 4.2199707 82.95874023 C4.23143631 84.10681908 4.23143631 84.10681908 4.24313354 85.27809143 C4.19642688 90.04726788 3.3518827 93.30253077 0.84765625 97.36328125 C-3.59132492 101.19741279 -9.0474894 102.01921254 -14.75390625 101.73828125 C-18.86210777 101.09595658 -20.88513602 100.0303896 -24.15234375 97.36328125 C-27.408428 90.70886126 -27.56440598 84.82222242 -27.48046875 77.5 C-27.47859558 76.3545723 -27.47672241 75.20914459 -27.47479248 74.02900696 C-27.46808433 71.60076999 -27.45419455 69.17254361 -27.43359375 66.74438477 C-27.40299968 63.12830909 -27.39266603 59.51267557 -27.38671875 55.89648438 C-27.34720854 43.72162219 -27.14108028 31.551868 -26.76171875 19.3828125 C-26.71691376 17.68048714 -26.71691376 17.68048714 -26.67120361 15.94377136 C-26.63372009 14.88958511 -26.59623657 13.83539886 -26.55761719 12.74926758 C-26.52778748 11.82688797 -26.49795776 10.90450836 -26.46722412 9.95417786 C-25.85328078 4.90253324 -24.07736511 1.59565178 -20.15234375 -1.63671875 C-13.02805716 -3.88257945 -6.74780379 -2.89191591 0 0 Z M-22.15234375 6.36328125 C-22.93373736 9.62167197 -22.92922345 12.82783869 -22.9453125 16.16796875 C-22.96869186 17.16456512 -22.99207123 18.1611615 -23.01615906 19.18795776 C-23.08723487 22.57978613 -23.12024351 25.97087269 -23.15234375 29.36328125 C-23.19379691 31.9000821 -23.23631258 34.43686577 -23.27978516 36.97363281 C-23.38309841 43.75358484 -23.42792983 50.53233601 -23.44750977 57.31298828 C-23.45652099 60.12895332 -23.47780001 62.94444885 -23.5090332 65.76025391 C-23.55472237 69.88062184 -23.56781787 74.00048293 -23.578125 78.12109375 C-23.59563309 79.37930939 -23.61314117 80.63752502 -23.63117981 81.93386841 C-23.62825424 83.10054047 -23.62532867 84.26721252 -23.62231445 85.46923828 C-23.62818069 86.49018585 -23.63404694 87.51113342 -23.64009094 88.5630188 C-23.02197915 92.11173267 -21.61481455 93.78507312 -19.15234375 96.36328125 C-15.47093977 98.20398324 -11.17964778 97.73112949 -7.15234375 97.36328125 C-4.12947491 95.9777997 -2.4836295 94.694567 -0.15234375 92.36328125 C0.05149532 89.6085009 0.13083301 86.95383475 0.12231445 84.19750977 C0.12742538 83.35347595 0.13253632 82.50944214 0.13780212 81.63983154 C0.1517399 78.84054539 0.15073821 76.04150429 0.1484375 73.2421875 C0.15232219 71.30167041 0.15665638 69.36115417 0.16142273 67.42063904 C0.16889399 63.34932705 0.16858716 59.27810176 0.16333008 55.20678711 C0.15753482 49.9831288 0.17446343 44.75982499 0.19767475 39.53622532 C0.21238943 35.52741919 0.21328688 31.51869888 0.21016502 27.50987053 C0.2106794 25.58370194 0.21593879 23.65752869 0.22597694 21.73138618 C0.23827999 19.04017065 0.23158674 16.34965122 0.2199707 13.65844727 C0.22761444 12.85886093 0.23525818 12.0592746 0.24313354 11.23545837 C0.24088409 7.05128551 0.24088409 7.05128551 -1.55818176 3.38633728 C-4.81168275 1.29839777 -8.29692559 1.14023175 -12.08984375 0.98828125 C-13.34087891 0.91480469 -13.34087891 0.91480469 -14.6171875 0.83984375 C-18.47178193 1.63570762 -19.75092343 3.26992626 -22.15234375 6.36328125 Z " fill="#070B0D" transform="translate(215.15234375,46.63671875)"/>
<path d="M0 0 C3.76469474 2.59855759 4.22033636 6.75373974 5 11 C5.36450281 14.54621653 5.49892285 18.08615088 5.609375 21.6484375 C5.64649597 22.6831015 5.68361694 23.7177655 5.72186279 24.78378296 C6.11661606 36.79748536 6.22148324 48.81450856 6.24023438 60.83398438 C6.25015146 64.68379709 6.28141492 68.53311933 6.3125 72.3828125 C6.31901379 74.8515594 6.32427059 77.32031001 6.328125 79.7890625 C6.3404718 80.9296109 6.3528186 82.0701593 6.36553955 83.24526978 C6.34960338 88.89132779 6.29570891 93.17277937 3 98 C-1.62242345 102.18907125 -6.19838674 102.3407931 -12.19921875 102.28515625 C-16.44207728 101.85317763 -18.62002212 100.58891923 -22 98 C-25.88255003 92.88209314 -25.14911468 85.00469498 -25.14526367 78.84912109 C-25.14862228 78.06609116 -25.1519809 77.28306122 -25.15544128 76.4763031 C-25.16487876 73.90866476 -25.1668903 71.34109206 -25.16796875 68.7734375 C-25.17118475 66.97938002 -25.17454908 65.1853228 -25.17805481 63.39126587 C-25.18402688 59.64072053 -25.18589653 55.89019819 -25.18530273 52.13964844 C-25.18520086 47.33678414 -25.19888814 42.53406681 -25.21607494 37.73123741 C-25.22719405 34.03033776 -25.22922202 30.32947376 -25.22869301 26.62855911 C-25.2298719 24.85755529 -25.23428861 23.08655052 -25.24202538 21.3155632 C-25.25182979 18.84096684 -25.24894622 16.36669144 -25.24291992 13.89208984 C-25.24853943 13.16365372 -25.25415894 12.43521759 -25.25994873 11.68470764 C-25.2299486 6.83329387 -24.68908388 3.05627603 -21.5625 -0.75 C-15.41177432 -5.67058055 -6.36825232 -2.96453125 0 0 Z M-19.64160156 2.46655273 C-21.66724203 6.24442317 -21.47987982 9.76842947 -21.51171875 13.99609375 C-21.52976059 14.88912704 -21.54780243 15.78216034 -21.56639099 16.70225525 C-21.62127068 19.61396163 -21.65493437 22.52546547 -21.6875 25.4375 C-21.7195983 27.44158432 -21.75264308 29.4456537 -21.78662109 31.44970703 C-21.88006924 37.29963191 -21.94359772 43.14961701 -22 49 C-22.01675713 50.56233732 -22.0335209 52.12467456 -22.05029297 53.68701172 C-22.08941453 57.58298058 -22.11152948 61.47884905 -22.125 65.375 C-22.12975342 66.46868896 -22.13450684 67.56237793 -22.1394043 68.68920898 C-22.13289769 71.79527245 -22.081938 74.89503192 -22 78 C-21.9700293 79.2262207 -21.94005859 80.45244141 -21.90917969 81.71582031 C-21.85407227 82.95686523 -21.79896484 84.19791016 -21.7421875 85.4765625 C-21.69690918 86.60400879 -21.65163086 87.73145508 -21.60498047 88.89306641 C-20.88550837 92.58798246 -19.59079626 94.31426265 -17 97 C-14.30893093 98.34553453 -12.12834578 98.20594114 -9.125 98.25 C-8.07570313 98.27578125 -7.02640625 98.3015625 -5.9453125 98.328125 C-2.64472815 97.96042064 -1.33336396 97.3225111 1 95 C2.07244229 91.78267312 2.12688628 89.4687171 2.12939453 86.0859375 C2.13254669 84.86616211 2.13569885 83.64638672 2.13894653 82.38964844 C2.13715343 81.05143193 2.13510166 79.71321575 2.1328125 78.375 C2.13348725 76.98990868 2.1344587 75.60481748 2.13571167 74.21972656 C2.13718842 71.30435061 2.13504003 68.38900522 2.13037109 65.47363281 C2.12475774 61.79467779 2.1280168 58.11579621 2.13377762 54.43684387 C2.17300449 35.62028341 2.17300449 35.62028341 1.6796875 16.8125 C1.65770294 16.08321289 1.63571838 15.35392578 1.61306763 14.60253906 C1.37718053 10.09529147 0.33364471 6.85760576 -2 3 C-5.13261299 0.65899764 -8.22777684 0.67251825 -12.0625 0.625 C-13.10535156 0.59664062 -14.14820313 0.56828125 -15.22265625 0.5390625 C-18.01200749 0.74745837 -18.01200749 0.74745837 -19.64160156 2.46655273 Z " fill="#090B0B" transform="translate(373,47)"/>
<path d="M0 0 C7.56742641 6.78458919 8.53237889 15.38797212 9.12988281 25.11425781 C9.74320371 39.10912555 9.50071134 54.75263978 0 66 C-0.66 66 -1.32 66 -2 66 C-2.6483289 63.77155786 -3.29356369 61.5422154 -3.9375 59.3125 C-4.29714844 58.07113281 -4.65679687 56.82976562 -5.02734375 55.55078125 C-9.77856621 38.20595707 -8.45089704 16.02756335 0 0 Z " fill="#050B0E" transform="translate(415,63)"/>
<path d="M0 0 C0.33 0 0.66 0 1 0 C1.06058594 0.89203125 1.12117187 1.7840625 1.18359375 2.703125 C1.26738281 3.87359375 1.35117187 5.0440625 1.4375 6.25 C1.51871094 7.41015625 1.59992187 8.5703125 1.68359375 9.765625 C2.02082408 13.45996781 2.02082408 13.45996781 3 17 C5.36186139 18.26145768 5.36186139 18.26145768 8 19 C8.99 19.33 9.98 19.66 11 20 C16.69734689 20.56430864 21.12785716 20.28586378 26 17 C27.32 15.35 28.64 13.7 30 12 C30 21.24 30 30.48 30 40 C27.87144359 37.87144359 25.75327267 35.7299965 23.72265625 33.5078125 C20.52155106 30.55930528 17.3264838 28.76552992 13.4375 26.875 C12.73947266 26.52953125 12.04144531 26.1840625 11.32226562 25.828125 C5.40700381 22.99744263 -0.53971686 21.17459693 -7 20 C-7.61325621 12.79423956 -5.2504684 7.41737794 -1.3125 1.4375 C-0.879375 0.963125 -0.44625 0.48875 0 0 Z " fill="#F4F4F4" transform="translate(603,68)"/>
<path d="M0 0 C1.89510699 -0.08160748 3.79124504 -0.13946459 5.6875 -0.1875 C6.74324219 -0.22230469 7.79898438 -0.25710937 8.88671875 -0.29296875 C12.66283227 0.06237443 15.30050942 1.30050942 18 4 C18.55910632 9.7028845 17.61852911 12.57735331 14 17 C10.55724854 20.57026078 5.79610801 21.41629517 1 22 C0 21 0 21 -0.11352539 18.95874023 C-0.10828857 18.08419189 -0.10305176 17.20964355 -0.09765625 16.30859375 C-0.09443359 15.36435547 -0.09121094 14.42011719 -0.08789062 13.44726562 C-0.07951172 12.45404297 -0.07113281 11.46082031 -0.0625 10.4375 C-0.05798828 9.44041016 -0.05347656 8.44332031 -0.04882812 7.41601562 C-0.03700007 4.94395151 -0.02051849 2.47200482 0 0 Z " fill="#05090C" transform="translate(143,105)"/>
<path d="M0 0 C5.3206839 5.3206839 4.18100904 15.01721558 4.1875 22.0625 C4.18830566 22.90087402 4.18911133 23.73924805 4.18994141 24.60302734 C4.11285764 33.35460397 3.39028715 40.89279161 0 49 C-0.66 49 -1.32 49 -2 49 C-3.6879631 42.38264664 -4.35189887 36.31964182 -4.3125 29.5 C-4.31048584 28.55036377 -4.30847168 27.60072754 -4.30639648 26.62231445 C-3.98987208 3.98987208 -3.98987208 3.98987208 0 0 Z " fill="#F2F2F2" transform="translate(416,71)"/>
<path d="M0 0 C5.64365126 2.2574605 5.64365126 2.2574605 7.75 5.4375 C8.15734375 6.03433594 8.5646875 6.63117188 8.984375 7.24609375 C11.53254635 11.64658966 11.45185236 16.07070153 11 21 C9.35557852 26.19290993 7.21241542 29.52475728 3 33 C2.01 33 1.02 33 0 33 C0 22.11 0 11.22 0 0 Z " fill="#050C10" transform="translate(799,62)"/>
<path d="M0 0 C5.64365126 2.2574605 5.64365126 2.2574605 7.75 5.4375 C8.15734375 6.03433594 8.5646875 6.63117188 8.984375 7.24609375 C11.53254635 11.64658966 11.45185236 16.07070153 11 21 C9.35557852 26.19290993 7.21241542 29.52475728 3 33 C2.01 33 1.02 33 0 33 C0 22.11 0 11.22 0 0 Z " fill="#050C10" transform="translate(732,62)"/>
<path d="M0 0 C0.9075 0.00257812 1.815 0.00515625 2.75 0.0078125 C4.11125 0.00394531 4.11125 0.00394531 5.5 0 C7.75 0.1328125 7.75 0.1328125 8.75 1.1328125 C9.30465943 7.45593002 8.45892013 11.90807284 4.75 17.1328125 C2.59301544 19.39068053 0.37185568 21.42796053 -2.25 23.1328125 C-2.91 23.1328125 -3.57 23.1328125 -4.25 23.1328125 C-4.39643105 15.7787196 -4.22413108 8.43278244 -3.25 1.1328125 C-2.25 0.1328125 -2.25 0.1328125 0 0 Z " fill="#030608" transform="translate(148.25,61.8671875)"/>
<path d="M0 0 C7.75 -0.125 7.75 -0.125 10 1 C9.74806895 5.28282783 9.37629014 7.52200982 6.6875 10.9375 C4 13 4 13 0 13 C0 8.71 0 4.42 0 0 Z " fill="#F7F7F7" transform="translate(147,109)"/>
<path d="M0 0 C-0.99 2.97 -1.98 5.94 -3 9 C-5.6875 9.5 -5.6875 9.5 -9 9 C-11.08132026 6.54759163 -12.55490096 3.8646211 -14 1 C-12.22932584 0.83165067 -10.45845388 0.66538091 -8.6875 0.5 C-7.70136719 0.4071875 -6.71523438 0.314375 -5.69921875 0.21875 C-3 0 -3 0 0 0 Z " fill="#F5F5F5" transform="translate(941,117)"/>
<path d="M0 0 C1.98 0 3.96 0 6 0 C5.48474397 5.28137429 3.74522883 8.57221156 1 13 C0.67 13 0.34 13 0 13 C0 8.71 0 4.42 0 0 Z " fill="#CDCDCD" transform="translate(148,65)"/>
<path d="M0 0 C3.65316671 1.24976756 4.78065836 1.67098753 7 5 C7.08203125 7.19140625 7.08203125 7.19140625 6.8125 9.5625 C6.73644531 10.34753906 6.66039062 11.13257812 6.58203125 11.94140625 C6 14 6 14 3 16 C2.92652344 14.64455078 2.92652344 14.64455078 2.8515625 13.26171875 C2.77679687 12.08222656 2.70203125 10.90273437 2.625 9.6875 C2.55539062 8.51574219 2.48578125 7.34398438 2.4140625 6.13671875 C2.21386253 2.84300113 2.21386253 2.84300113 0 0 Z " fill="#E6E6E6" transform="translate(598,110)"/>
<path d="M0 0 C3 3 3 3 3.36328125 5.0859375 C3.26586411 9.47720263 3.06047811 13.00782367 1 17 C0.67 17 0.34 17 0 17 C0 11.39 0 5.78 0 0 Z " fill="#EBEBEB" transform="translate(803,71)"/>
<path d="M0 0 C3 3 3 3 3.36328125 5.0859375 C3.26586411 9.47720263 3.06047811 13.00782367 1 17 C0.67 17 0.34 17 0 17 C0 11.39 0 5.78 0 0 Z " fill="#EBEBEB" transform="translate(736,71)"/>
<path d="M0 0 C2.16926659 3.25389988 2.24080049 4.13395957 2.1953125 7.88671875 C2.18886719 8.82451172 2.18242188 9.76230469 2.17578125 10.72851562 C2.15902344 11.70498047 2.14226563 12.68144531 2.125 13.6875 C2.11597656 14.67556641 2.10695313 15.66363281 2.09765625 16.68164062 C2.0740843 19.12133765 2.04118022 21.56054697 2 24 C1.67 24 1.34 24 1 24 C0.93941406 23.39671875 0.87882813 22.7934375 0.81640625 22.171875 C0.73261719 21.37265625 0.64882813 20.5734375 0.5625 19.75 C0.48128906 18.96109375 0.40007813 18.1721875 0.31640625 17.359375 C0.06592471 15.04774999 0.06592471 15.04774999 -0.5625 13.0625 C-1.13792022 10.34980466 -0.8572384 8.00089172 -0.5625 5.25 C-0.46066406 4.26515625 -0.35882812 3.2803125 -0.25390625 2.265625 C-0.17011719 1.51796875 -0.08632813 0.7703125 0 0 Z " fill="#A3A3A3" transform="translate(838,80)"/>
</svg>
