<?xml version="1.0" encoding="UTF-8"?>
<svg version="1.1" xmlns="http://www.w3.org/2000/svg" width="1000" height="200">
<path d="M0 0 C1.60875 1.11375 1.60875 1.11375 3.25 2.25 C3.848125 1.6725 4.44625 1.095 5.0625 0.5 C11.17397517 -3.81398248 19.62967951 -7.14746276 27.25 -6.75 C30.35417537 -6.14460454 33.37310794 -5.39306016 36.41796875 -4.5390625 C37.81982422 -4.14847656 37.81982422 -4.14847656 39.25 -3.75 C40.08273437 -3.51152344 40.91546875 -3.27304687 41.7734375 -3.02734375 C44.93706803 -2.67305705 46.75587796 -3.47988315 49.6875 -4.6875 C62.92384113 -9.29284497 76.4080318 -6.51237481 89.25 -1.75 C92.48657877 -0.13404581 94.77243195 1.63577951 97.25 4.25 C97.94222656 4.9203125 98.63445312 5.590625 99.34765625 6.28125 C109.18612683 16.42326686 112.23360653 30.33592344 112.6875 44.1875 C112.3689531 57.08864952 108.52042805 70.92925594 99.5625 80.5 C90.37322393 88.97322858 78.21190632 94.77832072 65.61328125 95.44140625 C59.29005281 95.08154772 54.04287712 93.73266162 48.25 91.25 C44.10936417 89.83612435 42.27009512 90.60611512 38.3671875 92.3984375 C30.68089613 95.48997167 23.79244168 95.58358752 15.875 93.625 C15.20927979 93.46056396 14.54355957 93.29612793 13.85766602 93.12670898 C9.3760218 91.87977494 6.03801086 89.89435515 2.25 87.25 C-0.70577256 87.25 -1.65733118 88.1682334 -3.875 90.125 C-11.72328063 95.92590307 -21.32746784 96.06042421 -30.75 95.25 C-36.49256149 94.115381 -41.62281726 92.08344309 -46.75 89.25 C-47.17410156 89.65992188 -47.59820313 90.06984375 -48.03515625 90.4921875 C-54.18625056 96.14308293 -59.88950598 97.68509071 -68.18359375 97.5078125 C-73.84791302 96.93879413 -78.88958673 95.57027442 -82.75 91.25 C-83.46542969 91.54519531 -84.18085937 91.84039062 -84.91796875 92.14453125 C-93.78652536 95.60632645 -100.97559128 97.64692438 -110.0625 93.875 C-112.35616728 92.48813141 -114.01786808 91.27082057 -115.75 89.25 C-116.389375 89.518125 -117.02875 89.78625 -117.6875 90.0625 C-129.96272657 94.82228173 -139.9064141 96.77171189 -152.75 92.25 C-155.31456276 90.80030455 -157.61931475 89.26077667 -159.9453125 87.45703125 C-161.80375388 85.97202742 -161.80375388 85.97202742 -164.75 86.25 C-166.0803125 87.61125 -166.0803125 87.61125 -167.4375 89 C-172.93609491 93.86057229 -180.54296271 95.6904422 -187.75 96.25 C-193.81017865 95.70344276 -199.31954553 94.16836667 -204.99609375 92.0234375 C-205.90488281 91.76820313 -206.81367187 91.51296875 -207.75 91.25 C-210.27338502 93.00149517 -210.27338502 93.00149517 -212.75 95.25 C-220.87939101 98.43799647 -228.70551627 97.98939641 -236.83984375 95.19921875 C-238.9219969 94.16452915 -240.20888285 92.9746985 -241.75 91.25 C-242.82314453 91.69279297 -242.82314453 91.69279297 -243.91796875 92.14453125 C-251.33793379 95.04087622 -257.86965418 97.11991257 -265.75 95.25 C-269.125 93.75 -269.125 93.75 -271.75 92.25 C-274.493718 90.878141 -276.00301534 91.85587038 -278.80395508 92.73754883 C-289.53588923 96.04075289 -298.19266004 94.76911332 -308.75 91.25 C-310.75698975 92.5727887 -312.75591923 93.90783025 -314.75 95.25 C-322.14312627 98.0935101 -329.32246943 97.9072412 -336.9375 96.125 C-341.47352 95.1043955 -344.31321306 95.7431667 -348.75 97.25 C-355.94483332 98.08017308 -362.90929858 95.8529063 -368.87109375 91.8125 C-376.35558142 85.11670028 -377.87252988 76.27771603 -378.45808411 66.65933228 C-378.88956718 58.83471043 -378.93605781 51.00462563 -378.93530273 43.16992188 C-378.93750352 40.62092719 -378.95578824 38.07235709 -378.97460938 35.5234375 C-379.06573406 9.27268921 -379.06573406 9.27268921 -372.75 1.25 C-366.96729065 -3.20750512 -360.88914798 -3.96030654 -353.75 -4.75 C-353.1017627 -4.82911621 -352.45352539 -4.90823242 -351.78564453 -4.98974609 C-338.3939549 -6.55237402 -327.21866539 -5.4552561 -315.75 2.25 C-312.68336561 2.5792523 -312.68336561 2.5792523 -310.75 0.5 C-304.82155195 -3.94633604 -296.27620769 -7.11548131 -288.75 -6.75 C-283.53441854 -5.85570527 -278.58297378 -4.85818759 -274.0234375 -2.1015625 C-273.27320313 -1.65554687 -272.52296875 -1.20953125 -271.75 -0.75 C-269.4014482 -1.35180488 -269.4014482 -1.35180488 -266.75 -2.75 C-258.26624278 -5.85126802 -251.32361134 -7.10821255 -242.6875 -4.0625 C-238.13866456 -2.54855785 -236.05324037 -2.99627049 -231.80078125 -4.96484375 C-225.93478908 -7.21068075 -219.9665404 -5.92696694 -214.1875 -4.0625 C-209.26820454 -2.58053651 -206.95133879 -3.05570014 -202.3125 -4.9609375 C-191.47706088 -8.29745991 -179.33762096 -5.38704145 -169.38671875 -0.6171875 C-168.84660156 -0.33101562 -168.30648437 -0.04484375 -167.75 0.25 C-167.234375 -0.36875 -166.71875 -0.9875 -166.1875 -1.625 C-161.54846433 -5.6692875 -156.01028005 -6.11785959 -150.06640625 -6.02734375 C-147.58612932 -5.73037973 -145.62939481 -5.0444027 -143.3125 -4.125 C-138.83233176 -2.45271498 -135.85453048 -3.05199238 -131.296875 -4.19140625 C-125.76181898 -5.40538326 -120.48868753 -5.25097776 -115.0625 -3.6875 C-110.0770322 -2.27651855 -106.23994599 -3.28094293 -101.375 -4.8125 C-94.99220379 -6.46322316 -89.89760038 -6.27222897 -83.6875 -4.0625 C-79.14300627 -2.55000286 -77.05541554 -2.99096883 -72.80859375 -4.96484375 C-66.54331284 -7.35444804 -59.74993794 -5.87774242 -53.66796875 -3.6171875 C-51.42646768 -2.60371858 -49.56813859 -1.41003958 -47.75 0.25 C-47.04875 -0.36230469 -46.3475 -0.97460938 -45.625 -1.60546875 C-32.1697935 -11.64202903 -13.45073232 -8.32101542 0 0 Z " fill="#080C0E" transform="translate(872.75,48.75)"/>
<path d="M0 0 C1.0725 0.7425 2.145 1.485 3.25 2.25 C3.67410156 1.84007812 4.09820312 1.43015625 4.53515625 1.0078125 C5.12167969 0.46898437 5.70820312 -0.06984375 6.3125 -0.625 C6.88097656 -1.15867187 7.44945313 -1.69234375 8.03515625 -2.2421875 C15.06911225 -7.03073603 24.12955022 -6.41798546 32.25 -5.75 C38.51720646 -4.41501269 44.2640816 -2.90294874 49.25 1.25 C50.10078125 0.81880859 50.10078125 0.81880859 50.96875 0.37890625 C53.2112284 -0.73081337 55.46869335 -1.78513074 57.75 -2.8125 C58.5028125 -3.15410156 59.255625 -3.49570312 60.03125 -3.84765625 C66.88273331 -6.63408696 73.38607148 -6.54918389 80.3125 -4.0625 C84.85649615 -2.55016846 86.94701433 -2.98746443 91.19140625 -4.96875 C96.48131178 -6.97630428 102.26362686 -6.11528334 107.5625 -4.5625 C111.48125266 -3.58450973 114.11223928 -4.02176097 118 -5.0625 C131.84485087 -8.69393629 151.45003096 -10.36175014 164.703125 -4.125 C168.90698322 -2.49531047 171.21140132 -2.75378332 175.625 -3.5 C177.03718153 -3.70966598 178.44997197 -3.91526332 179.86328125 -4.1171875 C180.58596191 -4.22385742 181.30864258 -4.33052734 182.05322266 -4.44042969 C196.42850814 -6.46619786 209.97254111 -6.723954 222.25 2.25 C223.56356789 3.30667085 224.85942661 4.38629542 226.125 5.5 C226.72054688 6.02078125 227.31609375 6.5415625 227.9296875 7.078125 C228.36539062 7.46484375 228.80109375 7.8515625 229.25 8.25 C229.415 7.569375 229.58 6.88875 229.75 6.1875 C232.47785373 0.8454531 236.52814968 -2.65079122 242.09375 -4.8984375 C248.71163215 -6.7575848 254.52770384 -7.15879804 261.25 -5.75 C262.39082031 -5.51990234 262.39082031 -5.51990234 263.5546875 -5.28515625 C271.10816281 -3.2857069 276.95774419 1.81161629 281.25 8.25 C281.806875 7.57453125 282.36375 6.8990625 282.9375 6.203125 C287.57274666 0.78489748 291.45271744 -3.38869502 298.25 -5.75 C299.466875 -6.183125 300.68375 -6.61625 301.9375 -7.0625 C311.05056517 -9.04205036 320.13195207 -6.84648445 328.69140625 -3.6875 C329.53574219 -3.378125 330.38007813 -3.06875 331.25 -2.75 C331.90613281 -2.50636719 332.56226563 -2.26273438 333.23828125 -2.01171875 C336.13862769 -1.63439213 338.13925126 -2.56221978 340.875 -3.5625 C356.78855504 -8.67757126 378.33961051 -10.858441 394.01953125 -4.02734375 C400.96874676 -0.04767042 404.19405826 4.97543382 406.59375 12.546875 C408.21904675 19.24154972 407.55150892 25.17421933 404.25 31.25 C401.96334883 34.66110999 399.75153043 36.83709729 395.72680664 37.94384766 C394.83856201 38.09901855 393.95031738 38.25418945 393.03515625 38.4140625 C392.13804932 38.57600098 391.24094238 38.73793945 390.31665039 38.90478516 C389.63465576 39.01870605 388.95266113 39.13262695 388.25 39.25 C388.29600342 40.39476807 388.34200684 41.53953613 388.3894043 42.71899414 C388.55665408 46.98818729 388.70248768 51.25789538 388.84204102 55.52807617 C388.9052578 57.37203391 388.97419101 59.21580528 389.04907227 61.05932617 C389.15603677 63.71764542 389.24205455 66.37596864 389.32421875 69.03515625 C389.36157639 69.85210464 389.39893402 70.66905304 389.43742371 71.51075745 C389.59911206 77.74181095 388.56061067 82.36840702 384.55859375 87.359375 C378.4813098 92.68809996 372.68293212 94.78337557 364.6875 95.625 C357.96028339 94.89112182 353.00638659 93.52929401 348.25 88.5 C345.23676633 84.74215663 344.34952633 82.02726379 344.25 77.25 C343.59 77.25 342.93 77.25 342.25 77.25 C341.99992187 77.98089844 341.74984375 78.71179688 341.4921875 79.46484375 C338.88633714 85.30752082 334.09492171 89.7412686 328.48046875 92.71875 C317.77844402 96.73021844 305.78755051 96.86259079 295.25 92.25 C293.08753848 91.03850048 291.22699415 89.7587587 289.25 88.25 C288.42628906 88.68892578 288.42628906 88.68892578 287.5859375 89.13671875 C277.89373841 93.75591062 269.34372766 93.78093316 259.25 90.25 C256.53724594 88.7786022 254.57963298 87.30229572 252.25 85.25 C252.064375 85.8275 251.87875 86.405 251.6875 87 C249.32801811 90.69310209 245.52766223 92.46782226 241.44140625 93.87109375 C238.44926669 94.38845121 235.5952318 94.22509016 232.5625 94.125 C227.22144569 94.06976676 223.31239867 94.65311253 218.38671875 96.57421875 C212.66317495 98.38440719 206.79015549 97.45277468 201.0625 96.125 C196.52648 95.1043955 193.68678694 95.7431667 189.25 97.25 C182.08816721 98.07636532 174.90601359 95.92577806 169.09375 91.671875 C165.15231764 87.96425642 163.01563737 84.33919008 161.25 79.25 C160.92 80.095625 160.59 80.94125 160.25 81.8125 C156.67198816 87.96220785 151.99542836 91.98737681 145.1875 94.1875 C137.67762225 96.03062548 131.2464141 95.59781684 124.25 92.25 C122.27305265 90.70880671 120.87180714 89.18570529 119.25 87.25 C118.84910156 87.72050781 118.44820312 88.19101563 118.03515625 88.67578125 C112.92067528 94.27735565 108.30768572 96.68449498 100.76953125 97.52734375 C94.47644241 97.77126192 87.32146418 97.06151843 82.49609375 92.64453125 C82.08488281 92.18433594 81.67367187 91.72414063 81.25 91.25 C80.17685547 91.69279297 80.17685547 91.69279297 79.08203125 92.14453125 C70.24314034 95.5947466 62.96379175 97.72957 53.9375 93.8125 C52.00356433 92.6881188 50.11132836 91.49088557 48.25 90.25 C46.28223879 90.82821258 46.28223879 90.82821258 44.25 92 C33.81039701 96.89304024 24.87482989 96.70807984 14.06933594 93.00634766 C9.84554474 91.25040225 6.47363926 88.43782104 3.25 85.25 C0.51191199 86.51418106 -1.11010507 87.58438327 -3.375 89.6875 C-10.99950619 96.09815446 -21.27912633 96.05372093 -30.75 95.25 C-36.89185709 94.11078457 -41.77523128 92.09413947 -46.75 88.25 C-48.235 87.1671875 -48.235 87.1671875 -49.75 86.0625 C-57.50212143 79.4062282 -63.10848176 68.08545503 -63.94287109 57.89428711 C-64.55713293 37.94194586 -63.09270723 16.41229256 -49.0625 0.75 C-44.59600702 -3.38946652 -39.54658099 -5.15684032 -33.75 -6.75 C-33.10546875 -6.95109375 -32.4609375 -7.1521875 -31.796875 -7.359375 C-21.12951096 -9.3951315 -9.02246624 -5.58156083 0 0 Z " fill="#FBFBFB" transform="translate(80.75,48.75)"/>
<path d="M0 0 C1.60875 1.11375 1.60875 1.11375 3.25 2.25 C3.848125 1.6725 4.44625 1.095 5.0625 0.5 C11.17397517 -3.81398248 19.62967951 -7.14746276 27.25 -6.75 C30.35417537 -6.14460454 33.37310794 -5.39306016 36.41796875 -4.5390625 C37.81982422 -4.14847656 37.81982422 -4.14847656 39.25 -3.75 C40.08273437 -3.51152344 40.91546875 -3.27304687 41.7734375 -3.02734375 C44.93706803 -2.67305705 46.75587796 -3.47988315 49.6875 -4.6875 C62.92384113 -9.29284497 76.4080318 -6.51237481 89.25 -1.75 C92.48657877 -0.13404581 94.77243195 1.63577951 97.25 4.25 C97.94222656 4.9203125 98.63445312 5.590625 99.34765625 6.28125 C109.18612683 16.42326686 112.23360653 30.33592344 112.6875 44.1875 C112.3689531 57.08864952 108.52042805 70.92925594 99.5625 80.5 C90.37322393 88.97322858 78.21190632 94.77832072 65.61328125 95.44140625 C59.29005281 95.08154772 54.04287712 93.73266162 48.25 91.25 C44.10936417 89.83612435 42.27009512 90.60611512 38.3671875 92.3984375 C30.68089613 95.48997167 23.79244168 95.58358752 15.875 93.625 C15.20927979 93.46056396 14.54355957 93.29612793 13.85766602 93.12670898 C9.3760218 91.87977494 6.03801086 89.89435515 2.25 87.25 C-0.70577256 87.25 -1.65733118 88.1682334 -3.875 90.125 C-11.72328063 95.92590307 -21.32746784 96.06042421 -30.75 95.25 C-36.49256149 94.115381 -41.62281726 92.08344309 -46.75 89.25 C-47.17410156 89.65992188 -47.59820313 90.06984375 -48.03515625 90.4921875 C-54.18625056 96.14308293 -59.88950598 97.68509071 -68.18359375 97.5078125 C-73.84791302 96.93879413 -78.88958673 95.57027442 -82.75 91.25 C-83.46542969 91.54519531 -84.18085937 91.84039062 -84.91796875 92.14453125 C-93.78652536 95.60632645 -100.97559128 97.64692438 -110.0625 93.875 C-112.35616728 92.48813141 -114.01786808 91.27082057 -115.75 89.25 C-116.389375 89.518125 -117.02875 89.78625 -117.6875 90.0625 C-129.96272657 94.82228173 -139.9064141 96.77171189 -152.75 92.25 C-155.31456276 90.80030455 -157.61931475 89.26077667 -159.9453125 87.45703125 C-161.80375388 85.97202742 -161.80375388 85.97202742 -164.75 86.25 C-166.0803125 87.61125 -166.0803125 87.61125 -167.4375 89 C-172.93609491 93.86057229 -180.54296271 95.6904422 -187.75 96.25 C-193.81017865 95.70344276 -199.31954553 94.16836667 -204.99609375 92.0234375 C-205.90488281 91.76820313 -206.81367187 91.51296875 -207.75 91.25 C-210.27338502 93.00149517 -210.27338502 93.00149517 -212.75 95.25 C-220.87939101 98.43799647 -228.70551627 97.98939641 -236.83984375 95.19921875 C-238.9219969 94.16452915 -240.20888285 92.9746985 -241.75 91.25 C-242.82314453 91.69279297 -242.82314453 91.69279297 -243.91796875 92.14453125 C-251.33793379 95.04087622 -257.86965418 97.11991257 -265.75 95.25 C-269.125 93.75 -269.125 93.75 -271.75 92.25 C-274.493718 90.878141 -276.00301534 91.85587038 -278.80395508 92.73754883 C-289.53588923 96.04075289 -298.19266004 94.76911332 -308.75 91.25 C-310.75698975 92.5727887 -312.75591923 93.90783025 -314.75 95.25 C-322.14312627 98.0935101 -329.32246943 97.9072412 -336.9375 96.125 C-341.47352 95.1043955 -344.31321306 95.7431667 -348.75 97.25 C-355.94483332 98.08017308 -362.90929858 95.8529063 -368.87109375 91.8125 C-376.35558142 85.11670028 -377.87252988 76.27771603 -378.45808411 66.65933228 C-378.88956718 58.83471043 -378.93605781 51.00462563 -378.93530273 43.16992188 C-378.93750352 40.62092719 -378.95578824 38.07235709 -378.97460938 35.5234375 C-379.06573406 9.27268921 -379.06573406 9.27268921 -372.75 1.25 C-366.96729065 -3.20750512 -360.88914798 -3.96030654 -353.75 -4.75 C-353.1017627 -4.82911621 -352.45352539 -4.90823242 -351.78564453 -4.98974609 C-338.3939549 -6.55237402 -327.21866539 -5.4552561 -315.75 2.25 C-312.68336561 2.5792523 -312.68336561 2.5792523 -310.75 0.5 C-304.82155195 -3.94633604 -296.27620769 -7.11548131 -288.75 -6.75 C-283.53441854 -5.85570527 -278.58297378 -4.85818759 -274.0234375 -2.1015625 C-273.27320313 -1.65554687 -272.52296875 -1.20953125 -271.75 -0.75 C-269.4014482 -1.35180488 -269.4014482 -1.35180488 -266.75 -2.75 C-258.26624278 -5.85126802 -251.32361134 -7.10821255 -242.6875 -4.0625 C-238.13866456 -2.54855785 -236.05324037 -2.99627049 -231.80078125 -4.96484375 C-225.93478908 -7.21068075 -219.9665404 -5.92696694 -214.1875 -4.0625 C-209.26820454 -2.58053651 -206.95133879 -3.05570014 -202.3125 -4.9609375 C-191.47706088 -8.29745991 -179.33762096 -5.38704145 -169.38671875 -0.6171875 C-168.84660156 -0.33101562 -168.30648437 -0.04484375 -167.75 0.25 C-167.234375 -0.36875 -166.71875 -0.9875 -166.1875 -1.625 C-161.54846433 -5.6692875 -156.01028005 -6.11785959 -150.06640625 -6.02734375 C-147.58612932 -5.73037973 -145.62939481 -5.0444027 -143.3125 -4.125 C-138.83233176 -2.45271498 -135.85453048 -3.05199238 -131.296875 -4.19140625 C-125.76181898 -5.40538326 -120.48868753 -5.25097776 -115.0625 -3.6875 C-110.0770322 -2.27651855 -106.23994599 -3.28094293 -101.375 -4.8125 C-94.99220379 -6.46322316 -89.89760038 -6.27222897 -83.6875 -4.0625 C-79.14300627 -2.55000286 -77.05541554 -2.99096883 -72.80859375 -4.96484375 C-66.54331284 -7.35444804 -59.74993794 -5.87774242 -53.66796875 -3.6171875 C-51.42646768 -2.60371858 -49.56813859 -1.41003958 -47.75 0.25 C-47.04875 -0.36230469 -46.3475 -0.97460938 -45.625 -1.60546875 C-32.1697935 -11.64202903 -13.45073232 -8.32101542 0 0 Z M-42.61328125 9.1796875 C-48.2390334 16.33535511 -50.42305197 24.60705017 -52.75 33.25 C-52.7593457 32.57420898 -52.76869141 31.89841797 -52.77832031 31.20214844 C-52.83207301 28.1340289 -52.91570992 25.06742613 -53 22 C-53.01417969 20.93652344 -53.02835938 19.87304688 -53.04296875 18.77734375 C-53.07519531 17.75253906 -53.10742188 16.72773437 -53.140625 15.671875 C-53.16157227 14.72924805 -53.18251953 13.78662109 -53.20410156 12.81542969 C-53.90124304 9.5392389 -55.2000506 8.35545196 -57.75 6.25 C-61.77462087 4.07452926 -65.2166282 3.77280297 -69.75 4.25 C-74.11426478 6.30861546 -75.44806222 7.42653333 -77.125 12 C-77.434375 13.60875 -77.434375 13.60875 -77.75 15.25 C-78.26949219 14.62351562 -78.78898437 13.99703125 -79.32421875 13.3515625 C-80.37029297 12.12566406 -80.37029297 12.12566406 -81.4375 10.875 C-82.12199219 10.06289063 -82.80648438 9.25078125 -83.51171875 8.4140625 C-86.42952136 5.59301076 -88.89422332 4.34836272 -92.9609375 4.1328125 C-100.45248332 4.97121654 -105.62510682 7.51011963 -110.75 13.25 C-110.976875 12.651875 -111.20375 12.05375 -111.4375 11.4375 C-113.62192553 7.79679079 -116.82594205 6.55801932 -120.75 5.25 C-125.72725826 4.8813142 -128.79429615 5.08543692 -132.75 8.25 C-134.49552203 11.1112268 -134.99711586 13.22876689 -134.97705078 16.55957031 C-134.97689972 17.40013977 -134.97674866 18.24070923 -134.97659302 19.10675049 C-134.96627045 20.00480408 -134.95594788 20.90285767 -134.9453125 21.828125 C-134.9424826 22.7546991 -134.93965271 23.68127319 -134.93673706 24.63592529 C-134.92555611 27.59074909 -134.90045527 30.54526805 -134.875 33.5 C-134.86496751 35.50520395 -134.85584213 37.51041266 -134.84765625 39.515625 C-134.82562358 44.42720051 -134.79110795 49.33854859 -134.75 54.25 C-135.41 54.25 -136.07 54.25 -136.75 54.25 C-136.74476318 53.60675781 -136.73952637 52.96351562 -136.73413086 52.30078125 C-136.59981497 36.70810795 -136.59981497 36.70810795 -137.0625 21.125 C-137.14951172 19.32675781 -137.14951172 19.32675781 -137.23828125 17.4921875 C-137.93540507 13.07529615 -139.06558306 9.54544516 -142.6953125 6.75390625 C-148.14446335 4.40041995 -152.96515823 3.31010326 -158.75 5.25 C-161.41683762 7.3085037 -162.23736176 8.9552913 -162.75 12.25 C-162.9698223 14.49707241 -163.15483987 16.74771238 -163.3125 19 C-163.39628906 20.17046875 -163.48007812 21.3409375 -163.56640625 22.546875 C-163.62699219 23.43890625 -163.68757812 24.3309375 -163.75 25.25 C-164.09611328 24.37988281 -164.09611328 24.37988281 -164.44921875 23.4921875 C-168.07855326 14.79899892 -171.92150893 9.91532164 -180.75 6.25 C-182.11125 5.63125 -182.11125 5.63125 -183.5 5 C-189.73430361 3.56131455 -196.89843686 2.84179232 -202.75 5.875 C-207.77760981 9.8551911 -210.00722055 14.15027192 -211.75 20.25 C-211.78867187 19.23679687 -211.78867187 19.23679687 -211.828125 18.203125 C-212.10560304 12.63871113 -212.10560304 12.63871113 -214.5 7.75 C-219.23655399 4.59229734 -223.02342673 3.64720281 -228.75 4.25 C-233.11426478 6.30861546 -234.44806222 7.42653333 -236.125 12 C-236.33125 13.0725 -236.5375 14.145 -236.75 15.25 C-237.26949219 14.62351562 -237.78898438 13.99703125 -238.32421875 13.3515625 C-239.37029297 12.12566406 -239.37029297 12.12566406 -240.4375 10.875 C-241.12199219 10.06289063 -241.80648437 9.25078125 -242.51171875 8.4140625 C-245.42952136 5.59301076 -247.89422332 4.34836272 -251.9609375 4.1328125 C-258.20295479 4.83137761 -262.73070825 6.40841792 -267.41333008 10.81542969 C-269.46824746 14.55819427 -269.23025851 18.18452168 -269.26171875 22.390625 C-269.28864555 23.71389801 -269.28864555 23.71389801 -269.31611633 25.06390381 C-269.37020971 27.87588755 -269.40411176 30.68770165 -269.4375 33.5 C-269.47067395 35.40887777 -269.50516368 37.31773315 -269.54101562 39.2265625 C-269.62593561 43.90091925 -269.69275141 48.57522576 -269.75 53.25 C-270.183125 52.755 -270.61625 52.26 -271.0625 51.75 C-272.74740483 49.91781808 -272.74740483 49.91781808 -275.75 50.25 C-275.75 49.59 -275.75 48.93 -275.75 48.25 C-275.09 48.25 -274.43 48.25 -273.75 48.25 C-272.96462478 44.6087149 -272.43318011 42.10145344 -273.75 38.5625 C-276.32718323 35.5826319 -279.07904462 33.61819722 -282.75 32.25 C-286.54319409 31.9140488 -286.54319409 31.9140488 -289.75 32.25 C-289.27418802 30.93628013 -288.79424851 29.62405454 -288.3125 28.3125 C-288.04566406 27.58160156 -287.77882813 26.85070312 -287.50390625 26.09765625 C-286.75 24.25 -286.75 24.25 -285.75 23.25 C-283.8628125 23.12625 -283.8628125 23.12625 -281.9375 23 C-278.59141284 22.61553038 -277.88282862 22.36954576 -275.25 20 C-273.58071531 16.93964473 -272.98460042 15.65177589 -273.75 12.25 C-277.65498166 7.12471158 -282.49434021 4.85322945 -288.76171875 3.96484375 C-295.68946305 3.65180226 -302.14860314 5.94920525 -307.36328125 10.578125 C-310.22449462 14.02770056 -311.9601863 18.17144223 -313.75 22.25 C-313.96914063 21.73050781 -314.18828125 21.21101563 -314.4140625 20.67578125 C-317.530476 13.82220523 -321.44674829 10.14578481 -328.1875 6.9375 C-334.92414091 4.4251888 -341.66993571 4.88277675 -348.75 5.25 C-349.88953125 5.29382813 -351.0290625 5.33765625 -352.203125 5.3828125 C-357.57627021 5.6872025 -361.31885397 5.94554468 -365.75 9.25 C-367.88770815 12.54949724 -368.01235166 15.29372463 -368.04052734 19.17675781 C-368.05328705 20.37190002 -368.06604675 21.56704224 -368.07919312 22.79840088 C-368.08141876 24.08695984 -368.08364441 25.3755188 -368.0859375 26.703125 C-368.0923698 28.04587952 -368.09909849 29.38863265 -368.10610962 30.73138428 C-368.1180753 33.54572799 -368.12179139 36.35994906 -368.12060547 39.17431641 C-368.12040277 42.76319259 -368.14765566 46.35127251 -368.18214989 49.93996048 C-368.20450352 52.7145542 -368.20844039 55.48895922 -368.20738602 58.26363373 C-368.2108644 60.22441992 -368.23248091 62.18514719 -368.25448608 64.14581299 C-368.21788882 71.32905998 -367.69964679 76.17876156 -363.75 82.25 C-360.19959676 85.63133642 -357.46587919 86.50999706 -352.6875 86.6875 C-348.62264531 86.49189797 -345.77553173 86.18098387 -342.75 83.25 C-341.38099646 79.67003741 -341.38099646 79.67003741 -340.75 76.25 C-340.54246094 76.79269531 -340.33492187 77.33539063 -340.12109375 77.89453125 C-338.40391471 81.88212276 -337.29115734 83.89983937 -333.5625 86.3125 C-327.83692082 87.72042931 -323.1992738 87.34435638 -317.8125 84.9375 C-315.56010839 83.09463413 -314.78624175 81.94229165 -313.75 79.25 C-314.02492346 70.46862115 -318.3409986 61.46178187 -321.96875 53.61328125 C-322.86256813 50.90948141 -322.85250146 49.84913387 -321.75 47.25 C-320.41015625 45.46875 -320.41015625 45.46875 -318.8125 43.75 C-316.61536102 41.37471462 -315.09039585 39.20275608 -313.75 36.25 C-312.125 37.9375 -312.125 37.9375 -310.75 40.25 C-311.375 42.5 -311.375 42.5 -312.75 45.25 C-316.31423167 52.92680668 -317.44328441 60.90964146 -314.8359375 69.1328125 C-311.71670663 75.87437599 -307.90959593 80.01624099 -301.0625 83.0625 C-294.33665708 85.29589059 -287.44228006 85.25060465 -280.875 82.5625 C-275.96018155 80.08311037 -272.7925407 76.81381105 -269.75 72.25 C-269.688125 73.466875 -269.62625 74.68375 -269.5625 75.9375 C-269.12902111 79.19148157 -268.64967833 80.4004825 -266.75 83.25 C-262.65227873 85.98181418 -259.53947975 86.02712899 -254.75 85.25 C-250.54859335 83.69392346 -248.04751878 82.11950532 -245.75 78.25 C-244.75544091 75.26632274 -244.55440368 73.0495808 -244.43359375 69.92578125 C-244.39169922 68.89775391 -244.34980469 67.86972656 -244.30664062 66.81054688 C-244.26732422 65.73869141 -244.22800781 64.66683594 -244.1875 63.5625 C-244.12272461 61.93731445 -244.12272461 61.93731445 -244.05664062 60.27929688 C-243.95053162 57.60299209 -243.84847639 54.92659474 -243.75 52.25 C-239.38362222 57.53375817 -239.03702865 62.09688963 -238.6875 68.8125 C-238.46043048 77.08180355 -238.46043048 77.08180355 -234.75 84.25 C-230.3463287 87.15241972 -226.97466049 87.79996426 -221.75 87.25 C-217.68719001 86.04102618 -215.17420265 84.88630397 -212.75 81.25 C-212.47643157 79.31862318 -212.47643157 79.31862318 -212.5546875 77.23828125 C-212.56113281 76.48095703 -212.56757812 75.72363281 -212.57421875 74.94335938 C-212.59097656 74.15767578 -212.60773438 73.37199219 -212.625 72.5625 C-212.63402344 71.76521484 -212.64304687 70.96792969 -212.65234375 70.14648438 C-212.67588415 68.180861 -212.71175453 66.21539225 -212.75 64.25 C-212.3478125 65.42755859 -212.3478125 65.42755859 -211.9375 66.62890625 C-208.73635929 75.21091176 -205.15598457 80.54700771 -196.875 84.6875 C-188.77379128 86.14571757 -181.78168723 85.87231954 -174.75 81.25 C-168.69221448 76.06980112 -165.65909203 69.54283901 -162.75 62.25 C-162.42128906 63.31927734 -162.42128906 63.31927734 -162.0859375 64.41015625 C-159.46158177 72.336564 -156.48026966 78.26577861 -149.1875 82.6875 C-142.78902524 85.50136079 -135.46330331 85.43242043 -128.8671875 83.33203125 C-120.64126947 79.53828696 -115.98599991 73.64381636 -112.75 65.25 C-112.02474722 62.59434172 -111.38493702 59.92960205 -110.75 57.25 C-110.74589111 57.9205542 -110.74178223 58.5911084 -110.73754883 59.28198242 C-110.70455357 62.33470391 -110.6339038 65.3854453 -110.5625 68.4375 C-110.55669922 69.49259766 -110.55089844 70.54769531 -110.54492188 71.63476562 C-110.38470402 77.95931087 -110.38470402 77.95931087 -107.4765625 83.45703125 C-103.41027364 86.13099484 -100.44921407 86.01248271 -95.75 85.25 C-91.54859335 83.69392346 -89.04751878 82.11950532 -86.75 78.25 C-85.75544091 75.26632274 -85.55440368 73.0495808 -85.43359375 69.92578125 C-85.39169922 68.89775391 -85.34980469 67.86972656 -85.30664062 66.81054688 C-85.24766602 65.20276367 -85.24766602 65.20276367 -85.1875 63.5625 C-85.14431641 62.47904297 -85.10113281 61.39558594 -85.05664062 60.27929688 C-84.95053162 57.60299209 -84.84847639 54.92659474 -84.75 52.25 C-80.38362222 57.53375817 -80.03702865 62.09688963 -79.6875 68.8125 C-79.46043048 77.08180355 -79.46043048 77.08180355 -75.75 84.25 C-71.3463287 87.15241972 -67.97466049 87.79996426 -62.75 87.25 C-58.68719001 86.04102618 -56.17420265 84.88630397 -53.75 81.25 C-53.47400049 78.63398445 -53.47400049 78.63398445 -53.5546875 75.70703125 C-53.56113281 74.63388672 -53.56757812 73.56074219 -53.57421875 72.45507812 C-53.59097656 71.33552734 -53.60773438 70.21597656 -53.625 69.0625 C-53.63853516 67.36577148 -53.63853516 67.36577148 -53.65234375 65.63476562 C-53.67593138 62.83963172 -53.708847 60.04492155 -53.75 57.25 C-53.50491699 58.08901855 -53.25983398 58.92803711 -53.00732422 59.79248047 C-49.84734598 70.38461561 -45.23193901 77.40312483 -35.75 83.25 C-28.83496079 86.63068584 -20.60389695 86.19284421 -13.4375 83.75 C-6.2364687 80.52668123 -2.88727753 74.22172784 0.25 67.25 C0.68699219 68.13751953 0.68699219 68.13751953 1.1328125 69.04296875 C4.92736659 76.35762804 8.94880238 81.07388667 16.984375 83.7421875 C25.04817308 85.54959052 32.21771801 84.60264228 39.25 80.25 C43.14564996 77.03185438 45.21482441 73.85592371 47.25 69.25 C47.52263672 70.28060547 47.52263672 70.28060547 47.80078125 71.33203125 C48.05214844 72.23308594 48.30351563 73.13414063 48.5625 74.0625 C48.80613281 74.95582031 49.04976562 75.84914063 49.30078125 76.76953125 C50.32141635 79.43662297 50.96352243 80.56921185 53.25 82.25 C60.90944667 85.36894366 68.77377212 85.86460476 76.4765625 82.63671875 C84.38115488 78.9345225 91.08937916 75.11792706 95.875 67.5 C96.45121094 66.61054687 96.45121094 66.61054687 97.0390625 65.703125 C100.67459424 58.33824135 101.77780529 51.6140393 101.6875 43.4375 C101.67505249 41.98500854 101.67505249 41.98500854 101.66235352 40.50317383 C101.41723903 30.10805171 99.30092591 21.28383265 92.41015625 13.22265625 C83.49181972 5.07842488 72.26083817 3.59604053 60.6328125 3.09375 C57.34832151 3.24545859 55.36890958 3.71833411 52.4375 5.125 C51.68855469 5.47304688 50.93960937 5.82109375 50.16796875 6.1796875 C48.09720228 7.22086866 48.09720228 7.22086866 46.25 9.25 C45.9206462 11.1868613 45.9206462 11.1868613 45.93115234 13.42431641 C45.91128265 14.28505768 45.89141296 15.14579895 45.87094116 16.03262329 C45.85938995 16.96287323 45.84783875 17.89312317 45.8359375 18.8515625 C45.81657135 19.80316254 45.7972052 20.75476257 45.7772522 21.73519897 C45.71735868 24.78170747 45.67103205 27.82825354 45.625 30.875 C45.58682921 32.9375167 45.54777802 35.0000173 45.5078125 37.0625 C45.41164914 42.12486966 45.32765437 47.18731395 45.25 52.25 C44.59 51.59 43.93 50.93 43.25 50.25 C42.26 50.25 41.27 50.25 40.25 50.25 C40.25 49.59 40.25 48.93 40.25 48.25 C40.91 48.25 41.57 48.25 42.25 48.25 C43.03537522 44.6087149 43.56681989 42.10145344 42.25 38.5625 C39.67281677 35.5826319 36.92095538 33.61819722 33.25 32.25 C29.45680591 31.9140488 29.45680591 31.9140488 26.25 32.25 C26.72581198 30.93628013 27.20575149 29.62405454 27.6875 28.3125 C28.08775391 27.21615234 28.08775391 27.21615234 28.49609375 26.09765625 C29.25 24.25 29.25 24.25 30.25 23.25 C32.1371875 23.12625 32.1371875 23.12625 34.0625 23 C37.40858716 22.61553038 38.11717138 22.36954576 40.75 20 C42.41928469 16.93964473 43.01539958 15.65177589 42.25 12.25 C38.34501834 7.12471158 33.50565979 4.85322945 27.23828125 3.96484375 C20.62060196 3.66581306 15.42643455 5.78509213 10 9.4375 C6.76692648 12.74405247 5.03123998 16.02741347 3.25 20.25 C2.93289063 19.66992188 2.61578125 19.08984375 2.2890625 18.4921875 C-2.31550838 10.78398321 -7.8835334 7.27004274 -16.0625 3.875 C-25.89191981 2.20899664 -35.31932954 1.62578363 -42.61328125 9.1796875 Z " fill="#FAFAFA" transform="translate(872.75,48.75)"/>
<path d="M0 0 C6.40100883 3.80201765 6.40100883 3.80201765 8 7 C8.53625 6.071875 9.0725 5.14375 9.625 4.1875 C13.36173382 -0.82759012 17.28723146 -2.01753865 23.25 -3.1875 C30.24985864 -4.1364959 37.25476982 -4.28301536 44.3125 -4.375 C45.43366211 -4.40102295 46.55482422 -4.4270459 47.70996094 -4.45385742 C54.62950768 -4.46880133 59.13262698 -3.74556719 65 0 C68.60922335 3.97940011 69.72072612 7.64097927 70.109375 12.87890625 C69.95279223 15.91549351 68.93916395 17.70173162 67 20 C63.93466836 21.53266582 60.73245728 21.10276471 57.375 21.0625 C56.66859375 21.05798828 55.9621875 21.05347656 55.234375 21.04882812 C53.48954725 21.03703875 51.744763 21.01910324 50 21 C50.12039308 25.25517929 50.24421014 29.51024228 50.37121582 33.76522827 C50.41528639 35.25106801 50.45866581 36.73692842 50.50134277 38.22280884 C50.77103348 47.55603373 51.14130851 56.84538499 52.109375 66.13671875 C51.97754901 69.58773491 51.03469441 71.24831803 49 74 C45.00256183 77.62267835 40.74397618 77.44748375 35.59765625 77.28125 C32.28230615 76.9222948 30.41446315 76.33657724 28 74 C25.48652455 68.47389567 25.74316406 63.07561701 25.8046875 57.1328125 C25.8075174 56.09808807 25.81034729 55.06336365 25.81326294 53.99728394 C25.82441952 50.70640286 25.84951603 47.41579822 25.875 44.125 C25.88503563 41.88802478 25.89416047 39.65104527 25.90234375 37.4140625 C25.92434405 31.9426147 25.95777662 26.47132711 26 21 C25.07876343 20.92761108 25.07876343 20.92761108 24.13891602 20.85375977 C23.33123779 20.77955811 22.52355957 20.70535645 21.69140625 20.62890625 C20.89162354 20.56002197 20.09184082 20.4911377 19.26782227 20.42016602 C16.07709877 19.82901141 14.2579212 18.2579212 12 16 C12.061875 17.03125 12.12375 18.0625 12.1875 19.125 C11.98490162 23.31203327 11.27311598 25.50914332 9 29 C4.80490882 31.63870341 0.80175899 31.40372571 -4 31 C-7.5278696 30.15637901 -8.60750163 29.5143082 -10.8125 26.625 C-12 24 -12 24 -12 20 C-14.15376037 20.81357439 -14.15376037 20.81357439 -14.8449707 22.87646484 C-16.9410823 29.5864198 -17.36972578 35.62566114 -17.1875 42.625 C-17.17396484 43.62917969 -17.16042969 44.63335937 -17.14648438 45.66796875 C-17.11156152 48.11256864 -17.06252748 50.55597734 -17 53 C-16.34 53 -15.68 53 -15 53 C-15.03480469 52.40832031 -15.06960938 51.81664062 -15.10546875 51.20703125 C-15.27348484 46.30256149 -15.32986734 42.9039824 -12 39 C-8.52914828 36.12415143 -5.56573737 35.52792522 -1.0625 35.70703125 C2.39312356 36.19788687 4.92157084 37.33764825 8 39 C11.39648617 44.09472926 10.40717376 50.27633026 9.7578125 56.21484375 C8.34232854 63.27781984 4.50527427 69.91227144 -1 74.5 C-8.67728623 78.33864311 -16.75384219 79.59505892 -25.125 77 C-33.66858082 73.24573656 -39.1847209 66.28241493 -43 58 C-42.94779297 58.87011719 -42.94779297 58.87011719 -42.89453125 59.7578125 C-42.71469722 64.94730887 -42.97085591 68.56446758 -46 73 C-50.39835882 75.78594528 -54.96131145 75.5316798 -60 75 C-63.73389649 73.41110788 -65.94280942 71.49722398 -68 68 C-68.33 66.35 -68.66 64.7 -69 63 C-74.445 62.505 -74.445 62.505 -80 62 C-80.103125 63.051875 -80.20625 64.10375 -80.3125 65.1875 C-80.9999434 68.99968613 -81.59076223 71.00922207 -84 74 C-88.3828363 76.88868756 -91.79364695 77.56796579 -97 77 C-99.31279611 75.84360194 -101.17409828 74.82590172 -103 73 C-103.721875 73.78375 -104.44375 74.5675 -105.1875 75.375 C-108.62504378 78.58337419 -110.64654368 79.96933607 -115.3984375 80.03125 C-119.3350486 79.80036372 -122.15612785 79.58421918 -125.4375 77.3125 C-127.23962808 74.64535044 -128.66867853 71.92890723 -130 69 C-130.226875 70.093125 -130.45375 71.18625 -130.6875 72.3125 C-132 76 -132 76 -134 77.9375 C-139.66263852 79.94301781 -144.87530281 79.94430986 -150.375 77.5 C-155.64106303 72.48470188 -157.22117718 67.67720878 -157.50170898 60.5715332 C-157.52123253 58.06469121 -157.51814105 55.55760232 -157.49609375 53.05078125 C-157.49624901 51.70655743 -157.49774236 50.36233317 -157.50050354 49.01811218 C-157.50188104 46.21491461 -157.4894352 43.41223278 -157.46655273 40.60913086 C-157.43808645 37.02462398 -157.44093602 33.44096733 -157.45364285 29.85639668 C-157.46060958 27.08618456 -157.45280094 24.31616763 -157.44038582 21.54598045 C-157.43370875 19.584564 -157.43800307 17.62312007 -157.44248962 15.66169739 C-157.42346336 13.86909737 -157.42346336 13.86909737 -157.40405273 12.0402832 C-157.39864975 10.99185745 -157.39324677 9.9434317 -157.38768005 8.86323547 C-156.94158407 5.56856549 -155.9354537 3.67930628 -154 1 C-149.35287325 -2.18939647 -143.43761142 -1.73147598 -138 -2 C-136.77925781 -2.07734375 -135.55851562 -2.1546875 -134.30078125 -2.234375 C-124.8653626 -2.58347579 -116.55726365 -1.54284251 -109.03125 4.609375 C-103.85659655 10.13915173 -101.26254909 17.06201708 -101.51171875 24.62890625 C-102.65187178 30.16548938 -106.04562296 35.29160489 -110.265625 38.98046875 C-112.2827013 40.85820139 -112.2827013 40.85820139 -111.87109375 43.37890625 C-111.58363281 44.24386719 -111.29617188 45.10882813 -111 46 C-110.70222656 46.95777344 -110.40445313 47.91554687 -110.09765625 48.90234375 C-109.75605469 49.90394531 -109.41445313 50.90554687 -109.0625 51.9375 C-108.72347656 52.93652344 -108.38445312 53.93554688 -108.03515625 54.96484375 C-107.69355469 55.96644531 -107.35195313 56.96804687 -107 58 C-106.33250687 59.99972432 -105.66572821 61.99968743 -105 64 C-104.84966309 63.2565332 -104.69932617 62.51306641 -104.54443359 61.74707031 C-101.54450468 47.03086572 -98.34838075 32.52187101 -93.69970703 18.23120117 C-93.19631511 16.62600271 -92.72736114 15.00985637 -92.28076172 13.38793945 C-90.98466634 8.71950855 -89.91753484 5.0274105 -86.5 1.4375 C-85.9121875 0.79683594 -85.324375 0.15617187 -84.71875 -0.50390625 C-80.68757786 -4.01285836 -75.35221826 -3.39210798 -70.296875 -3.3359375 C-65.42812709 -2.83983286 -62.55861438 -1.28110775 -59 2 C-58.45859375 2.47695313 -57.9171875 2.95390625 -57.359375 3.4453125 C-51.15568548 10.18164203 -49.94188782 20.34094568 -48 29 C-47.80728516 29.85867676 -47.61457031 30.71735352 -47.41601562 31.60205078 C-46.94050537 33.73392175 -46.46976167 35.86685495 -46 38 C-45.89042969 37.26136719 -45.78085937 36.52273437 -45.66796875 35.76171875 C-41.15754286 6.90232708 -41.15754286 6.90232708 -30.4296875 -1.18359375 C-20.98461514 -6.89410821 -9.40697406 -4.65854925 0 0 Z " fill="#090D10" transform="translate(408,56)"/>
<path d="M0 0 C1.13244141 -0.02900391 2.26488281 -0.05800781 3.43164062 -0.08789062 C10.44177447 -0.14096677 15.00074681 0.49799736 20.9375 4.3125 C24.54672335 8.29190011 25.65822612 11.95347927 26.046875 17.19140625 C25.89029223 20.22799351 24.87666395 22.01423162 22.9375 24.3125 C19.87216836 25.84516582 16.66995728 25.41526471 13.3125 25.375 C12.60609375 25.37048828 11.8996875 25.36597656 11.171875 25.36132812 C9.42704725 25.34953875 7.682263 25.33160324 5.9375 25.3125 C6.05789308 29.56767929 6.18171014 33.82274228 6.30871582 38.07772827 C6.35278639 39.56356801 6.39616581 41.04942842 6.43884277 42.53530884 C6.70853348 51.86853373 7.07880851 61.15788499 8.046875 70.44921875 C7.91504901 73.90023491 6.97219441 75.56081803 4.9375 78.3125 C0.94006183 81.93517835 -3.31852382 81.75998375 -8.46484375 81.59375 C-11.78019385 81.2347948 -13.64803685 80.64907724 -16.0625 78.3125 C-18.57597545 72.78639567 -18.31933594 67.38811701 -18.2578125 61.4453125 C-18.2549826 60.41058807 -18.25215271 59.37586365 -18.24923706 58.30978394 C-18.23808048 55.01890286 -18.21298397 51.72829822 -18.1875 48.4375 C-18.17746437 46.20052478 -18.16833953 43.96354527 -18.16015625 41.7265625 C-18.13815595 36.2551147 -18.10472338 30.78382711 -18.0625 25.3125 C-18.98373657 25.24881226 -18.98373657 25.24881226 -19.92358398 25.18383789 C-20.73126221 25.11414795 -21.53894043 25.04445801 -22.37109375 24.97265625 C-23.17087646 24.90957275 -23.97065918 24.84648926 -24.79467773 24.78149414 C-28.26928214 24.06293293 -29.91677651 22.01195859 -32.0625 19.3125 C-33.40323284 25.30705391 -33.11636327 31.25062231 -33.01953125 37.3515625 C-32.99715609 39.72915845 -32.97569928 42.10676319 -32.95507812 44.484375 C-32.91788984 48.22192095 -32.87466035 51.95901941 -32.81567383 55.69628906 C-32.76132129 59.31061395 -32.73213351 62.92443199 -32.70703125 66.5390625 C-32.67135796 68.21882675 -32.67135796 68.21882675 -32.63496399 69.93252563 C-32.63143417 70.97395721 -32.62790436 72.01538879 -32.62426758 73.08837891 C-32.61236893 74.00293854 -32.60047028 74.91749817 -32.58821106 75.85977173 C-33.21278257 79.08966824 -34.5642812 80.24559841 -37.0625 82.3125 C-41.0962349 84.49289724 -44.51944967 84.78247072 -49.0625 84.3125 C-52.35551092 83.02190582 -55.28564766 81.53734908 -57.23095703 78.47021484 C-58.15534606 76.07158002 -58.40519982 74.10249934 -58.5546875 71.5390625 C-58.62042969 70.6315625 -58.68617188 69.7240625 -58.75390625 68.7890625 C-58.87576981 66.896288 -58.99041863 65.00303445 -59.09765625 63.109375 C-59.53281933 57.31267429 -60.33308329 53.82705707 -64.0625 49.3125 C-64.07708252 49.97781738 -64.09166504 50.64313477 -64.10668945 51.32861328 C-64.18151365 54.36547114 -64.27806016 57.40127091 -64.375 60.4375 C-64.39755859 61.48421875 -64.42011719 62.5309375 -64.44335938 63.609375 C-64.63699776 69.17207783 -64.82643636 73.56783665 -68.0625 78.3125 C-70.625 80.125 -70.625 80.125 -73.0625 81.3125 C-74.0525 81.8075 -74.0525 81.8075 -75.0625 82.3125 C-77.05078125 82.5859375 -77.05078125 82.5859375 -79.375 82.6875 C-80.51388672 82.76097656 -80.51388672 82.76097656 -81.67578125 82.8359375 C-85.42777025 82.01307903 -86.78873732 80.36123024 -89.0625 77.3125 C-89.77858521 74.37078327 -89.85222819 71.51853054 -89.875 68.5 C-89.90013672 67.71173828 -89.92527344 66.92347656 -89.95117188 66.11132812 C-90.00972981 64.17891627 -90.03905488 62.24565673 -90.0625 60.3125 C-90.2584375 60.92996094 -90.454375 61.54742187 -90.65625 62.18359375 C-93.3048584 69.68417873 -97.12334464 76.19825345 -104.0078125 80.5390625 C-110.69046117 83.43397508 -118.07401409 83.37744325 -124.8125 80.75 C-133.08349618 76.52713223 -135.91370698 70.04261471 -139.08203125 61.59375 C-143.73027373 46.03787876 -142.46776309 24.68552619 -135.1640625 10.078125 C-132.60593913 5.97787053 -129.51255305 3.12901007 -125.0625 1.3125 C-116.01579887 0.15645795 -107.69784123 1.77208116 -99.9609375 6.6328125 C-94.62719204 10.78632492 -92.16229792 16.01310623 -90.0625 22.3125 C-90.02382812 21.10013672 -90.02382812 21.10013672 -89.984375 19.86328125 C-89.52673752 11.24097503 -89.52673752 11.24097503 -87.5625 7.3125 C-82.76079148 3.47113318 -77.77316508 0.89708224 -71.5 1.125 C-66.11976257 2.02170624 -62.63960467 5.38368959 -59.0625 9.3125 C-58.0725 10.7975 -58.0725 10.7975 -57.0625 12.3125 C-56.85625 11.24 -56.65 10.1675 -56.4375 9.0625 C-54.76056222 4.48903333 -53.42676478 3.37111546 -49.0625 1.3125 C-43.50347375 0.60498757 -39.9213876 1.83542004 -35.0625 4.3125 C-34.0725 5.3025 -34.0725 5.3025 -33.0625 6.3125 C-32.546875 5.85875 -32.03125 5.405 -31.5 4.9375 C-22.76517056 -0.88571963 -10.10050072 0.08652628 0 0 Z " fill="#070B0E" transform="translate(224.0625,51.6875)"/>
<path d="M0 0 C5.93864506 3.30661987 9.80385893 7.41157678 12 14 C12.2919173 19.05989993 11.90672747 23.2785796 10 28 C7.01959142 30.79977776 4.45329313 31.19409854 0.5 31.3125 C-3.05390565 31.17081605 -5.91488493 30.90551225 -9 29 C-11.46045098 25.74868977 -12.28402808 22.95773365 -13 19 C-18.19515221 29.99331317 -17.41237902 41.11714 -17 53 C-16.34 53 -15.68 53 -15 53 C-15.05220703 52.11248047 -15.05220703 52.11248047 -15.10546875 51.20703125 C-15.27547012 46.2446104 -15.19679302 43.05746807 -12 39 C-9.00028961 36.00028961 -5.95027041 36.27260881 -1.8359375 35.96484375 C2.24274486 36.01540593 4.50479643 36.91775107 8 39 C11.39648617 44.09472926 10.40717376 50.27633026 9.7578125 56.21484375 C8.34232854 63.27781984 4.50527427 69.91227144 -1 74.5 C-8.67728623 78.33864311 -16.75384219 79.59505892 -25.125 77 C-33.08677976 73.4850459 -38.42360078 67.35274528 -42.02734375 59.58984375 C-47.83606115 44.12325886 -46.04399075 27.09284849 -39.76171875 12.03125 C-36.59865152 5.3721611 -33.36467926 -0.12563398 -26.4609375 -3.26953125 C-17.39257319 -5.96125208 -8.30572501 -4.07977212 0 0 Z " fill="#009FEF" transform="translate(72,56)"/>
<path d="M0 0 C7.69304041 4.5057167 12.05545897 10.42224691 14.6184082 19.04589844 C15.53607389 23.41255189 15.34451357 27.89423142 15.38671875 32.33984375 C15.41572266 33.335 15.44472656 34.33015625 15.47460938 35.35546875 C15.55710551 45.07732142 12.99141601 53.19489103 6.27734375 60.390625 C-0.62970941 66.10976299 -8.91855006 69.34572323 -17.80078125 69.58984375 C-19.01507812 69.63882813 -20.229375 69.6878125 -21.48046875 69.73828125 C-25.92373284 69.06322752 -27.09168562 67.63810832 -29.92578125 64.21484375 C-33.53398458 52.82072066 -32.2981262 39.11189991 -32.29638672 27.31298828 C-32.30082761 23.92952545 -32.33745721 20.54730142 -32.375 17.1640625 C-32.38085724 15.009119 -32.38483393 12.85416938 -32.38671875 10.69921875 C-32.40108978 9.68994324 -32.41546082 8.68066772 -32.43026733 7.64080811 C-32.42411407 6.70843323 -32.41796082 5.77605835 -32.41162109 4.81542969 C-32.41447113 3.99685486 -32.41732117 3.17828003 -32.42025757 2.3348999 C-31.92578125 0.21484375 -31.92578125 0.21484375 -30.08291626 -1.51019287 C-22.10929622 -6.22295934 -8.06560086 -3.84793522 0 0 Z " fill="#009FEF" transform="translate(954.92578125,59.78515625)"/>
<path d="M0 0 C1.19786133 -0.04350586 1.19786133 -0.04350586 2.41992188 -0.08789062 C9.20547521 -0.1597832 14.33153064 1.57828759 19.4609375 6.09375 C19.90695312 6.6609375 20.35296875 7.228125 20.8125 7.8125 C21.27398438 8.3796875 21.73546875 8.946875 22.2109375 9.53125 C25.59921724 14.45180912 26.09519649 18.42406116 25.4375 24.3125 C23.62403988 29.18020875 20.23151721 34.91549139 15.4375 37.3125 C16.00692736 45.14671832 18.7274506 51.60263245 21.73046875 58.79882812 C22.26994141 60.14170898 22.26994141 60.14170898 22.8203125 61.51171875 C23.15434082 62.31440186 23.48836914 63.11708496 23.83251953 63.9440918 C24.55628681 66.77753264 24.27772433 68.53083489 23.4375 71.3125 C20.94882917 74.19935816 19.33043806 74.32609517 15.5 74.8125 C12.32181867 74.96414285 11.42706581 74.30415265 8.87890625 72.265625 C6.03773734 68.82894708 4.7281678 65.73734558 3.3125 61.5625 C3.05952148 60.85601318 2.80654297 60.14952637 2.54589844 59.42163086 C1.18569836 55.59595846 -0.07910186 51.74338506 -1.3125 47.875 C-2.12308055 44.24224533 -2.12308055 44.24224533 -4.5625 43.3125 C-4.31693359 44.9521875 -4.31693359 44.9521875 -4.06640625 46.625 C-3.41240093 51.85704258 -3.45279598 57.04743662 -3.5 62.3125 C-3.50451172 63.27800781 -3.50902344 64.24351563 -3.51367188 65.23828125 C-3.52534583 67.59642089 -3.54171979 69.95442602 -3.5625 72.3125 C-7.02500243 74.04375121 -10.77658229 73.79065224 -14.5625 73.3125 C-18.16248518 71.16782798 -20.03317792 69.17167844 -21.5625 65.3125 C-21.82319641 62.49118042 -21.82319641 62.49118042 -21.8371582 59.19873047 C-21.84669022 57.96420135 -21.85622223 56.72967224 -21.86604309 55.45773315 C-21.86578174 54.11505098 -21.86484505 52.77236879 -21.86328125 51.4296875 C-21.86716904 50.05013907 -21.87150389 48.67059183 -21.87626648 47.29104614 C-21.88371817 44.40444042 -21.88344397 41.51795705 -21.87817383 38.63134766 C-21.8723639 34.92767266 -21.88935127 31.22449528 -21.9125185 27.52090263 C-21.92722551 24.67450014 -21.92813202 21.82821857 -21.92500877 18.98178482 C-21.92552298 17.61579524 -21.93077926 16.24979906 -21.94082069 14.88384628 C-21.95311496 12.97842962 -21.94447762 11.07291229 -21.93481445 9.16748047 C-21.93544388 8.08256317 -21.9360733 6.99764587 -21.9367218 5.87985229 C-21.81322861 5.03262604 -21.68973541 4.18539978 -21.5625 3.3125 C-15.52198774 -0.71450817 -7.09318746 0.08629182 0 0 Z " fill="#00A0F0" transform="translate(530.5625,57.6875)"/>
<path d="M0 0 C1.19786133 -0.04350586 1.19786133 -0.04350586 2.41992188 -0.08789062 C9.20547521 -0.1597832 14.33153064 1.57828759 19.4609375 6.09375 C19.90695312 6.6609375 20.35296875 7.228125 20.8125 7.8125 C21.27398437 8.3796875 21.73546875 8.946875 22.2109375 9.53125 C25.59921724 14.45180912 26.09519649 18.42406116 25.4375 24.3125 C23.62403988 29.18020875 20.23151721 34.91549139 15.4375 37.3125 C16.00692736 45.14671832 18.7274506 51.60263245 21.73046875 58.79882812 C22.26994141 60.14170898 22.26994141 60.14170898 22.8203125 61.51171875 C23.15434082 62.31440186 23.48836914 63.11708496 23.83251953 63.9440918 C24.55628681 66.77753264 24.27772433 68.53083489 23.4375 71.3125 C20.94882917 74.19935816 19.33043806 74.32609517 15.5 74.8125 C12.32181867 74.96414285 11.42706581 74.30415265 8.87890625 72.265625 C6.03773734 68.82894708 4.7281678 65.73734558 3.3125 61.5625 C3.05952148 60.85601318 2.80654297 60.14952637 2.54589844 59.42163086 C1.18569836 55.59595846 -0.07910186 51.74338506 -1.3125 47.875 C-2.12308055 44.24224533 -2.12308055 44.24224533 -4.5625 43.3125 C-4.31693359 44.9521875 -4.31693359 44.9521875 -4.06640625 46.625 C-3.41240093 51.85704258 -3.45279598 57.04743662 -3.5 62.3125 C-3.50451172 63.27800781 -3.50902344 64.24351563 -3.51367188 65.23828125 C-3.52534583 67.59642089 -3.54171979 69.95442602 -3.5625 72.3125 C-7.02500243 74.04375121 -10.77658229 73.79065224 -14.5625 73.3125 C-18.16248518 71.16782798 -20.03317792 69.17167844 -21.5625 65.3125 C-21.82319641 62.49118042 -21.82319641 62.49118042 -21.8371582 59.19873047 C-21.84669022 57.96420135 -21.85622223 56.72967224 -21.86604309 55.45773315 C-21.86578174 54.11505098 -21.86484505 52.77236879 -21.86328125 51.4296875 C-21.86716904 50.05013907 -21.87150389 48.67059183 -21.87626648 47.29104614 C-21.88371817 44.40444042 -21.88344397 41.51795705 -21.87817383 38.63134766 C-21.8723639 34.92767266 -21.88935127 31.22449528 -21.9125185 27.52090263 C-21.92722551 24.67450014 -21.92813202 21.82821857 -21.92500877 18.98178482 C-21.92552298 17.61579524 -21.93077926 16.24979906 -21.94082069 14.88384628 C-21.95311496 12.97842962 -21.94447762 11.07291229 -21.93481445 9.16748047 C-21.93544388 8.08256317 -21.9360733 6.99764587 -21.9367218 5.87985229 C-21.81322861 5.03262604 -21.68973541 4.18539978 -21.5625 3.3125 C-15.52198774 -0.71450817 -7.09318746 0.08629182 0 0 Z " fill="#00A0F0" transform="translate(276.5625,57.6875)"/>
<path d="M0 0 C4.37673836 2.88258613 6.97783187 6.45790682 9.8125 10.75 C10.42254883 11.65298828 10.42254883 11.65298828 11.04492188 12.57421875 C12.0369617 14.04477191 13.01947888 15.52174159 14 17 C16.33867072 14.66132928 15.91784747 9.27365074 16.3046875 6.1015625 C17.01159698 2.94826963 17.33740468 1.76265051 20 0 C26.78183327 -0.64588888 26.78183327 -0.64588888 30.09484863 1.11071777 C32 3 32 3 32.50793457 5.96008301 C32.51111694 7.17015015 32.51429932 8.38021729 32.51757812 9.62695312 C32.5245874 10.2955687 32.53159668 10.96418427 32.53881836 11.65306091 C32.55642181 13.86287995 32.54476892 16.07141799 32.53125 18.28125 C32.53394428 19.81677496 32.53782617 21.35229826 32.54284668 22.88781738 C32.54874485 26.10587814 32.54016908 29.32349477 32.52148438 32.54150391 C32.49869395 36.66789346 32.51181542 40.79324245 32.53577423 44.91959381 C32.550224 48.09035085 32.54563015 51.26086091 32.53526306 54.43162537 C32.53259347 55.95308047 32.53587375 57.47455796 32.54518127 58.99598694 C32.55533423 61.12227825 32.53986729 63.24688144 32.51757812 65.37304688 C32.51280457 67.18814758 32.51280457 67.18814758 32.50793457 69.03991699 C32 72 32 72 30.21374512 73.88684082 C26.85826915 75.57410772 23.62751867 75.66936356 20 75 C17.1899654 73.20636089 15.49059532 71.98119065 14 69 C13.91850916 67.49919539 13.89171994 65.99520025 13.89453125 64.4921875 C13.87970703 63.58726563 13.86488281 62.68234375 13.84960938 61.75 C13.82517426 59.85692136 13.81948229 57.96349329 13.83398438 56.0703125 C13.66625238 48.87308501 11.66096876 45.33838631 7 40 C5.99804291 38.40152893 5.02713341 36.7818594 4.125 35.125 C3.71507812 34.38507813 3.30515625 33.64515625 2.8828125 32.8828125 C2 31 2 31 2 29 C1.34 29 0.68 29 0 29 C0.02094727 30.16047852 0.04189453 31.32095703 0.06347656 32.51660156 C0.13591807 36.82523238 0.18181471 41.13380945 0.21972656 45.44287109 C0.23983261 47.30722101 0.2671218 49.17150794 0.30175781 51.03564453 C0.35032121 53.71662948 0.37297838 56.39678023 0.390625 59.078125 C0.41127014 59.91055725 0.43191528 60.7429895 0.45318604 61.60064697 C0.45542368 67.38138888 0.45542368 67.38138888 -1.83691406 70.49511719 C-5.81142962 73.26023162 -9.26941835 73.25803173 -14 73 C-16.73510564 70.26489436 -16.27618408 68.71616264 -16.32226562 64.88549805 C-16.34148071 63.60043869 -16.3606958 62.31537933 -16.38049316 60.99137878 C-16.39018963 59.58149931 -16.39874717 58.17161161 -16.40625 56.76171875 C-16.41775407 55.31923921 -16.42926953 53.87675976 -16.4407959 52.4342804 C-16.46181904 49.40710016 -16.47350158 46.38002618 -16.48046875 43.3527832 C-16.49142845 39.47853022 -16.53945457 35.60568677 -16.59641266 31.73187542 C-16.63371669 28.75065556 -16.64407919 25.76977313 -16.6471405 22.78833961 C-16.65318539 21.36056641 -16.66921598 19.93279859 -16.69551086 18.50525475 C-16.8858456 7.3757457 -16.8858456 7.3757457 -14.7253418 4.02041626 C-10.30435834 0.17666612 -5.65920639 -0.48786262 0 0 Z " fill="#00A1F1" transform="translate(783,57)"/>
<path d="M0 0 C4.37673836 2.88258613 6.97783187 6.45790682 9.8125 10.75 C10.42254883 11.65298828 10.42254883 11.65298828 11.04492188 12.57421875 C12.0369617 14.04477191 13.01947888 15.52174159 14 17 C16.33867072 14.66132928 15.91784747 9.27365074 16.3046875 6.1015625 C17.01159698 2.94826963 17.33740468 1.76265051 20 0 C26.78183327 -0.64588888 26.78183327 -0.64588888 30.09484863 1.11071777 C32 3 32 3 32.50793457 5.96008301 C32.51111694 7.17015015 32.51429932 8.38021729 32.51757812 9.62695312 C32.5245874 10.2955687 32.53159668 10.96418427 32.53881836 11.65306091 C32.55642181 13.86287995 32.54476892 16.07141799 32.53125 18.28125 C32.53394428 19.81677496 32.53782617 21.35229826 32.54284668 22.88781738 C32.54874485 26.10587814 32.54016908 29.32349477 32.52148438 32.54150391 C32.49869395 36.66789346 32.51181542 40.79324245 32.53577423 44.91959381 C32.550224 48.09035085 32.54563015 51.26086091 32.53526306 54.43162537 C32.53259347 55.95308047 32.53587375 57.47455796 32.54518127 58.99598694 C32.55533423 61.12227825 32.53986729 63.24688144 32.51757812 65.37304688 C32.51280457 67.18814758 32.51280457 67.18814758 32.50793457 69.03991699 C32 72 32 72 30.21374512 73.88684082 C26.85826915 75.57410772 23.62751867 75.66936356 20 75 C17.1899654 73.20636089 15.49059532 71.98119065 14 69 C13.91850916 67.49919539 13.89171994 65.99520025 13.89453125 64.4921875 C13.87970703 63.58726563 13.86488281 62.68234375 13.84960938 61.75 C13.82517426 59.85692136 13.81948229 57.96349329 13.83398438 56.0703125 C13.66625238 48.87308501 11.66096876 45.33838631 7 40 C5.99804291 38.40152893 5.02713341 36.7818594 4.125 35.125 C3.71507812 34.38507813 3.30515625 33.64515625 2.8828125 32.8828125 C2 31 2 31 2 29 C1.34 29 0.68 29 0 29 C0.02094727 30.16047852 0.04189453 31.32095703 0.06347656 32.51660156 C0.13591807 36.82523238 0.18181471 41.13380945 0.21972656 45.44287109 C0.23983261 47.30722101 0.2671218 49.17150794 0.30175781 51.03564453 C0.35032121 53.71662948 0.37297838 56.39678023 0.390625 59.078125 C0.41127014 59.91055725 0.43191528 60.7429895 0.45318604 61.60064697 C0.45542368 67.38138888 0.45542368 67.38138888 -1.83691406 70.49511719 C-5.81142962 73.26023162 -9.26941835 73.25803173 -14 73 C-16.73510564 70.26489436 -16.27618408 68.71616264 -16.32226562 64.88549805 C-16.34148071 63.60043869 -16.3606958 62.31537933 -16.38049316 60.99137878 C-16.39018963 59.58149931 -16.39874717 58.17161161 -16.40625 56.76171875 C-16.41775407 55.31923921 -16.42926953 53.87675976 -16.4407959 52.4342804 C-16.46181904 49.40710016 -16.47350158 46.38002618 -16.48046875 43.3527832 C-16.49142845 39.47853022 -16.53945457 35.60568677 -16.59641266 31.73187542 C-16.63371669 28.75065556 -16.64407919 25.76977313 -16.6471405 22.78833961 C-16.65318539 21.36056641 -16.66921598 19.93279859 -16.69551086 18.50525475 C-16.8858456 7.3757457 -16.8858456 7.3757457 -14.7253418 4.02041626 C-10.30435834 0.17666612 -5.65920639 -0.48786262 0 0 Z " fill="#00A1F1" transform="translate(624,57)"/>
<path d="M0 0 C4.37673836 2.88258613 6.97783187 6.45790682 9.8125 10.75 C10.42254883 11.65298828 10.42254883 11.65298828 11.04492188 12.57421875 C12.0369617 14.04477191 13.01947888 15.52174159 14 17 C16.33867072 14.66132928 15.91784747 9.27365074 16.3046875 6.1015625 C17.01159698 2.94826963 17.33740468 1.76265051 20 0 C26.78183327 -0.64588888 26.78183327 -0.64588888 30.09484863 1.11071777 C32 3 32 3 32.50793457 5.96008301 C32.51111694 7.17015015 32.51429932 8.38021729 32.51757812 9.62695312 C32.5245874 10.2955687 32.53159668 10.96418427 32.53881836 11.65306091 C32.55642181 13.86287995 32.54476892 16.07141799 32.53125 18.28125 C32.53394428 19.81677496 32.53782617 21.35229826 32.54284668 22.88781738 C32.54874485 26.10587814 32.54016908 29.32349477 32.52148438 32.54150391 C32.49869395 36.66789346 32.51181542 40.79324245 32.53577423 44.91959381 C32.550224 48.09035085 32.54563015 51.26086091 32.53526306 54.43162537 C32.53259347 55.95308047 32.53587375 57.47455796 32.54518127 58.99598694 C32.55533423 61.12227825 32.53986729 63.24688144 32.51757812 65.37304688 C32.51280457 67.18814758 32.51280457 67.18814758 32.50793457 69.03991699 C32 72 32 72 30.21374512 73.88684082 C26.85826915 75.57410772 23.62751867 75.66936356 20 75 C17.1899654 73.20636089 15.49059532 71.98119065 14 69 C13.91850916 67.49919539 13.89171994 65.99520025 13.89453125 64.4921875 C13.87970703 63.58726563 13.86488281 62.68234375 13.84960938 61.75 C13.82517426 59.85692136 13.81948229 57.96349329 13.83398438 56.0703125 C13.66625238 48.87308501 11.66096876 45.33838631 7 40 C5.99804291 38.40152893 5.02713341 36.7818594 4.125 35.125 C3.71507812 34.38507813 3.30515625 33.64515625 2.8828125 32.8828125 C2 31 2 31 2 29 C1.34 29 0.68 29 0 29 C0.02094727 30.16047852 0.04189453 31.32095703 0.06347656 32.51660156 C0.13591807 36.82523238 0.18181471 41.13380945 0.21972656 45.44287109 C0.23983261 47.30722101 0.2671218 49.17150794 0.30175781 51.03564453 C0.35032121 53.71662948 0.37297838 56.39678023 0.390625 59.078125 C0.41127014 59.91055725 0.43191528 60.7429895 0.45318604 61.60064697 C0.45542368 67.38138888 0.45542368 67.38138888 -1.83691406 70.49511719 C-5.81142962 73.26023162 -9.26941835 73.25803173 -14 73 C-16.73510564 70.26489436 -16.27618408 68.71616264 -16.32226562 64.88549805 C-16.34148071 63.60043869 -16.3606958 62.31537933 -16.38049316 60.99137878 C-16.39018963 59.58149931 -16.39874717 58.17161161 -16.40625 56.76171875 C-16.41775407 55.31923921 -16.42926953 53.87675976 -16.4407959 52.4342804 C-16.46181904 49.40710016 -16.47350158 46.38002618 -16.48046875 43.3527832 C-16.49142845 39.47853022 -16.53945457 35.60568677 -16.59641266 31.73187542 C-16.63371669 28.75065556 -16.64407919 25.76977313 -16.6471405 22.78833961 C-16.65318539 21.36056641 -16.66921598 19.93279859 -16.69551086 18.50525475 C-16.8858456 7.3757457 -16.8858456 7.3757457 -14.7253418 4.02041626 C-10.30435834 0.17666612 -5.65920639 -0.48786262 0 0 Z " fill="#00A1F1" transform="translate(155,57)"/>
<path d="M0 0 C7.14618088 2.13200977 13.24367846 6.4936924 17 13 C20.09899302 20.54271318 20.48944284 27.80024917 20.4375 35.875 C20.4674707 37.51662109 20.4674707 37.51662109 20.49804688 39.19140625 C20.49102934 51.05104569 17.51040894 61.45210027 9 70 C3.87473741 73.84394694 -1.82874902 73.67239003 -8 73 C-13.36933499 71.11078954 -17.37881811 67.984321 -20.12890625 62.921875 C-24.08845651 54.33067371 -25.38984074 46.98191856 -25.375 37.5625 C-25.37338867 36.50369629 -25.37177734 35.44489258 -25.37011719 34.35400391 C-25.18721228 22.53870526 -23.98013275 9.89251602 -15.1328125 1.15625 C-10.50396243 -1.35316323 -5.07571364 -0.60815002 0 0 Z " fill="#009FEE" transform="translate(687,57)"/>
<path d="M0 0 C7.14618088 2.13200977 13.24367846 6.4936924 17 13 C20.09899302 20.54271318 20.48944284 27.80024917 20.4375 35.875 C20.4674707 37.51662109 20.4674707 37.51662109 20.49804688 39.19140625 C20.49102934 51.05104569 17.51040894 61.45210027 9 70 C3.87473741 73.84394694 -1.82874902 73.67239003 -8 73 C-13.36933499 71.11078954 -17.37881811 67.984321 -20.12890625 62.921875 C-24.08845651 54.33067371 -25.38984074 46.98191856 -25.375 37.5625 C-25.37338867 36.50369629 -25.37177734 35.44489258 -25.37011719 34.35400391 C-25.18721228 22.53870526 -23.98013275 9.89251602 -15.1328125 1.15625 C-10.50396243 -1.35316323 -5.07571364 -0.60815002 0 0 Z " fill="#009FEE" transform="translate(112,57)"/>
<path d="M0 0 C4.79267073 1.62608471 7.22881134 3.79543789 10 8 C12.60651985 13.47159529 14.14005601 18.9177768 15.5 24.8125 C15.71358154 25.7303125 15.92716309 26.648125 16.1472168 27.59375 C22.69857662 56.32561162 22.69857662 56.32561162 21 67 C19.78515625 68.8203125 19.78515625 68.8203125 18 70 C13.57394157 70.82018779 9.38985499 70.77967475 5.4375 68.5625 C3.29848051 64.74946526 3.25597457 61.35156771 3 57 C-2.94 57 -8.88 57 -15 57 C-15.103125 58.381875 -15.20625 59.76375 -15.3125 61.1875 C-15.74662433 65.12562786 -16.51096091 67.81402996 -19 71 C-22.1960927 72.59804635 -25.52371017 72.36411731 -29 72 C-31.5 70.9375 -31.5 70.9375 -33 69 C-33.59367582 62.34169731 -31.91731125 56.08599859 -30.4375 49.625 C-30.1701001 48.44703857 -29.9027002 47.26907715 -29.62719727 46.05541992 C-27.71224806 37.76835978 -25.66087882 29.52218306 -23.4375 21.3125 C-23.16929443 20.2930127 -22.90108887 19.27352539 -22.62475586 18.22314453 C-18.87644396 4.80187817 -14.58413806 -1.23627131 0 0 Z " fill="#009FEE" transform="translate(340,57)"/>
<path d="M0 0 C1.16789063 0.08894531 1.16789063 0.08894531 2.359375 0.1796875 C3.51179687 0.24542969 3.51179687 0.24542969 4.6875 0.3125 C8.27812224 1.41285198 9.75805579 3.14248342 12.109375 6.0546875 C12.66166876 9.00974962 12.91965897 11.43718625 12.96484375 14.3984375 C12.99741776 15.20398071 13.02999176 16.00952393 13.06355286 16.83947754 C13.16381744 19.41099468 13.23193154 21.98205739 13.296875 24.5546875 C13.40443999 27.91970555 13.52545376 31.28409665 13.65234375 34.6484375 C13.68109589 35.45812988 13.70984802 36.26782227 13.73947144 37.10205078 C14.01548191 43.8604799 14.84899704 50.40290172 16.109375 57.0546875 C16.769375 57.0546875 17.429375 57.0546875 18.109375 57.0546875 C23.99511089 44.74814882 23.27974856 32.42736771 22.99291992 19.11254883 C22.9447907 16.69873806 22.91485858 14.28520768 22.88671875 11.87109375 C22.86496078 11.1304921 22.84320282 10.38989044 22.82078552 9.62684631 C22.77172676 4.5737934 22.77172676 4.5737934 24.38500977 2.09350586 C27.46087382 0.240497 30.69337772 0.49394832 34.109375 1.0546875 C37.546875 2.5546875 37.546875 2.5546875 40.109375 5.0546875 C43.70360988 23.65757592 43.11430793 46.63471229 33.8828125 63.4765625 C30.9383808 67.75701387 28.04331429 70.33354589 23.109375 72.0546875 C16.24192011 73.19926331 10.04040945 73.19975974 3.984375 69.4921875 C-2.97185089 63.95559955 -4.605998 57.59322912 -5.890625 49.0546875 C-6.15246257 45.64864912 -6.19497051 42.26279028 -6.19140625 38.84765625 C-6.19569138 37.91923416 -6.1999765 36.99081207 -6.20439148 36.03425598 C-6.21008873 34.09063528 -6.21066943 32.14699328 -6.20629883 30.20336914 C-6.20311432 27.23221957 -6.22673965 24.26204432 -6.25195312 21.29101562 C-6.25422417 19.39323041 -6.25493052 17.49544254 -6.25390625 15.59765625 C-6.263116 14.71426071 -6.27232574 13.83086517 -6.28181458 12.92070007 C-6.24776408 8.3930303 -6.0079423 0.17378345 0 0 Z " fill="#009EED" transform="translate(718.890625,56.9453125)"/>
<path d="M0 0 C5.6219628 2.34410559 11.21062565 5.94793957 14.4921875 11.1875 C15.46835446 13.69698582 15.62064672 15.69026989 15.6328125 18.37890625 C15.64957031 19.23613281 15.66632812 20.09335938 15.68359375 20.9765625 C15.3203125 23.31640625 15.3203125 23.31640625 14.11328125 25.1015625 C11.74496752 26.70623694 10.16407824 26.71679702 7.3203125 26.69140625 C6.4540625 26.69914062 5.5878125 26.706875 4.6953125 26.71484375 C2.3203125 26.31640625 2.3203125 26.31640625 0.61328125 25.1796875 C-1.16472104 22.61743042 -1.68244725 20.16132738 -2.3671875 17.12890625 C-2.61855469 16.04222656 -2.86992188 14.95554687 -3.12890625 13.8359375 C-3.31066406 13.00449219 -3.49242187 12.17304687 -3.6796875 11.31640625 C-6.7955828 12.00022004 -6.7955828 12.00022004 -7.99609375 14.43359375 C-13.8826362 27.46149021 -15.94322692 41.30374582 -11.7265625 55.1953125 C-10.45501733 57.77161484 -8.79103329 59.3926387 -6.6796875 61.31640625 C-6.55851563 60.53136719 -6.43734375 59.74632812 -6.3125 58.9375 C-3.68279269 42.45125803 -3.68279269 42.45125803 0.3203125 39.31640625 C2.44140625 38.91796875 2.44140625 38.91796875 4.7578125 38.94140625 C5.51964844 38.93367188 6.28148437 38.9259375 7.06640625 38.91796875 C9.96203385 39.42984746 11.28902581 40.18492157 13.3203125 42.31640625 C14.64831036 49.28055249 13.63958518 57.03890459 10.3203125 63.31640625 C6.98179172 68.08925448 4.01147091 71.58798036 -1.6796875 73.31640625 C-10.40700065 74.35164615 -16.62836242 73.2052925 -23.546875 67.87890625 C-30.21367295 61.92742997 -33.54506675 55.11662034 -34.125 46.20703125 C-34.61475337 31.7567954 -32.84989221 17.6770598 -24.6796875 5.31640625 C-17.97673112 -1.83341389 -9.30419018 -2.3735179 0 0 Z " fill="#009FEF" transform="translate(856.6796875,56.68359375)"/>
<path d="M0 0 C5.6219628 2.34410559 11.21062565 5.94793957 14.4921875 11.1875 C15.46835446 13.69698582 15.62064672 15.69026989 15.6328125 18.37890625 C15.64957031 19.23613281 15.66632813 20.09335938 15.68359375 20.9765625 C15.3203125 23.31640625 15.3203125 23.31640625 14.11328125 25.1015625 C11.74496752 26.70623694 10.16407824 26.71679702 7.3203125 26.69140625 C6.4540625 26.69914062 5.5878125 26.706875 4.6953125 26.71484375 C2.3203125 26.31640625 2.3203125 26.31640625 0.61328125 25.1796875 C-1.16472104 22.61743042 -1.68244725 20.16132738 -2.3671875 17.12890625 C-2.61855469 16.04222656 -2.86992187 14.95554687 -3.12890625 13.8359375 C-3.31066406 13.00449219 -3.49242187 12.17304687 -3.6796875 11.31640625 C-6.7955828 12.00022004 -6.7955828 12.00022004 -7.99609375 14.43359375 C-13.8826362 27.46149021 -15.94322692 41.30374582 -11.7265625 55.1953125 C-10.45501733 57.77161484 -8.79103329 59.3926387 -6.6796875 61.31640625 C-6.55851562 60.53136719 -6.43734375 59.74632812 -6.3125 58.9375 C-3.68279269 42.45125803 -3.68279269 42.45125803 0.3203125 39.31640625 C2.44140625 38.91796875 2.44140625 38.91796875 4.7578125 38.94140625 C5.51964844 38.93367188 6.28148437 38.9259375 7.06640625 38.91796875 C9.96203385 39.42984746 11.28902581 40.18492157 13.3203125 42.31640625 C14.64831036 49.28055249 13.63958518 57.03890459 10.3203125 63.31640625 C6.98179172 68.08925448 4.01147091 71.58798036 -1.6796875 73.31640625 C-10.40700065 74.35164615 -16.62836242 73.2052925 -23.546875 67.87890625 C-30.21367295 61.92742997 -33.54506675 55.11662034 -34.125 46.20703125 C-34.61475337 31.7567954 -32.84989221 17.6770598 -24.6796875 5.31640625 C-17.97673112 -1.83341389 -9.30419018 -2.3735179 0 0 Z " fill="#009FEF" transform="translate(400.6796875,56.68359375)"/>
<path d="M0 0 C2.10485235 1.21559302 3.7922478 2.51745095 5.578125 4.1640625 C6.11953125 4.64101563 6.6609375 5.11796875 7.21875 5.609375 C13.42636389 12.34996584 14.62696986 22.50323128 16.578125 31.1640625 C16.7519873 31.90672363 16.92584961 32.64938477 17.10498047 33.41455078 C18.38431606 38.96484273 19.35412976 44.53297165 20.203125 50.1640625 C20.40421875 51.42089844 20.40421875 51.42089844 20.609375 52.703125 C23.02823187 68.64783458 23.02823187 68.64783458 18.578125 75.1640625 C14.17976618 77.95000778 9.61681355 77.6957423 4.578125 77.1640625 C0.84422851 75.57517038 -1.36468442 73.66128648 -3.421875 70.1640625 C-3.751875 68.5140625 -4.081875 66.8640625 -4.421875 65.1640625 C-9.866875 64.6690625 -9.866875 64.6690625 -15.421875 64.1640625 C-15.525 65.2159375 -15.628125 66.2678125 -15.734375 67.3515625 C-16.4218184 71.16374863 -17.01263723 73.17328457 -19.421875 76.1640625 C-23.8047113 79.05275006 -27.21552195 79.73202829 -32.421875 79.1640625 C-34.73467111 78.00766444 -36.59597328 76.98996422 -38.421875 75.1640625 C-39.14375 75.9478125 -39.865625 76.7315625 -40.609375 77.5390625 C-44.04691878 80.74743669 -46.06841868 82.13339857 -50.8203125 82.1953125 C-54.7569236 81.96442622 -57.57800285 81.74828168 -60.859375 79.4765625 C-62.66150308 76.80941294 -64.09055353 74.09296973 -65.421875 71.1640625 C-65.64875 72.2571875 -65.875625 73.3503125 -66.109375 74.4765625 C-67.421875 78.1640625 -67.421875 78.1640625 -69.421875 80.1015625 C-75.08451352 82.10708031 -80.29717781 82.10837236 -85.796875 79.6640625 C-91.06293803 74.64876438 -92.64305218 69.84127128 -92.92358398 62.7355957 C-92.94310753 60.22875371 -92.94001605 57.72166482 -92.91796875 55.21484375 C-92.91812401 53.87061993 -92.91961736 52.52639567 -92.92237854 51.18217468 C-92.92375604 48.37897711 -92.9113102 45.57629528 -92.88842773 42.77319336 C-92.85996145 39.18868648 -92.86281102 35.60502983 -92.87551785 32.02045918 C-92.88248458 29.25024706 -92.87467594 26.48023013 -92.86226082 23.71004295 C-92.85558375 21.7486265 -92.85987807 19.78718257 -92.86436462 17.82575989 C-92.84533836 16.03315987 -92.84533836 16.03315987 -92.82592773 14.2043457 C-92.82052475 13.15591995 -92.81512177 12.1074942 -92.80955505 11.02729797 C-92.36345907 7.73262799 -91.3573287 5.84336878 -89.421875 3.1640625 C-84.77474825 -0.02533397 -78.85948642 0.43258652 -73.421875 0.1640625 C-72.20113281 0.08671875 -70.98039062 0.009375 -69.72265625 -0.0703125 C-60.2872376 -0.41941329 -51.97913865 0.62121999 -44.453125 6.7734375 C-39.27847155 12.30321423 -36.68442409 19.22607958 -36.93359375 26.79296875 C-38.07374678 32.32955188 -41.46749796 37.45566739 -45.6875 41.14453125 C-47.7045763 43.02226389 -47.7045763 43.02226389 -47.29296875 45.54296875 C-47.00550781 46.40792969 -46.71804688 47.27289063 -46.421875 48.1640625 C-46.12410156 49.12183594 -45.82632813 50.07960937 -45.51953125 51.06640625 C-45.17792969 52.06800781 -44.83632813 53.06960937 -44.484375 54.1015625 C-44.14535156 55.10058594 -43.80632812 56.09960938 -43.45703125 57.12890625 C-43.11542969 58.13050781 -42.77382813 59.13210937 -42.421875 60.1640625 C-41.75438187 62.16378682 -41.08760321 64.16374993 -40.421875 66.1640625 C-40.27153809 65.4205957 -40.12120117 64.67712891 -39.96630859 63.91113281 C-36.96637968 49.19492822 -33.77025575 34.68593351 -29.12158203 20.39526367 C-28.61819011 18.79006521 -28.14923614 17.17391887 -27.70263672 15.55200195 C-26.40654134 10.88357105 -25.33940984 7.191473 -21.921875 3.6015625 C-21.3340625 2.96089844 -20.74625 2.32023437 -20.140625 1.66015625 C-15.2440829 -2.60206108 -5.81550186 -2.00728613 0 0 Z M-18.421875 4.6015625 C-24.22040338 12.03092699 -26.0892333 21.58538665 -28.40405273 30.54541016 C-28.97836971 32.76584474 -29.5653238 34.98263225 -30.15429688 37.19921875 C-35.08042336 54.45523963 -35.08042336 54.45523963 -36.421875 72.1640625 C-34.65249296 74.44951431 -33.34273598 75.01310168 -30.515625 75.4765625 C-27.09305477 75.68089505 -25.01396639 75.5224336 -22.046875 73.7265625 C-19.48538993 69.68729758 -18.421875 64.95129016 -18.421875 60.1640625 C-12.481875 60.1640625 -6.541875 60.1640625 -0.421875 60.1640625 C-0.339375 61.5665625 -0.256875 62.9690625 -0.171875 64.4140625 C0.18877574 67.38826014 0.53206035 69.08194725 2.015625 71.7265625 C5.96797999 73.94373725 10.15206657 73.98425029 14.578125 73.1640625 C16.31548672 72.04535036 16.31548672 72.04535036 17.578125 70.1640625 C18.82001156 61.26264588 17.03709698 52.09197316 15.390625 43.3515625 C15.16576416 42.13194824 14.94090332 40.91233398 14.70922852 39.65576172 C11.63809958 20.82982559 11.63809958 20.82982559 1.515625 5.3515625 C-4.14935207 1.87947978 -12.51450002 1.77094532 -18.421875 4.6015625 Z M-88.421875 7.1640625 C-88.88917751 9.8261633 -88.88917751 9.8261633 -88.82592773 12.98730469 C-88.83861191 14.2090741 -88.85129608 15.43084351 -88.86436462 16.68963623 C-88.86231247 18.0300717 -88.85932385 19.37050601 -88.85546875 20.7109375 C-88.86002936 22.08376321 -88.86533458 23.45658664 -88.87135315 24.82940674 C-88.88029956 27.71123505 -88.87784656 30.59278654 -88.86791992 33.47460938 C-88.8564659 37.15793973 -88.87657732 40.84030629 -88.90583706 44.52350998 C-88.92424252 47.36153185 -88.92389743 50.19932505 -88.91819954 53.03739166 C-88.91797251 55.05252683 -88.93484786 57.06764055 -88.95201111 59.08270264 C-88.9955744 67.96862635 -88.9955744 67.96862635 -84.421875 75.1640625 C-81.264099 77.2692465 -80.46790366 77.41695594 -76.859375 77.3515625 C-76.07433594 77.34511719 -75.28929687 77.33867187 -74.48046875 77.33203125 C-72.35832828 77.28770339 -72.35832828 77.28770339 -70.421875 76.1640625 C-70.39250062 72.83074811 -70.37495166 69.49746767 -70.359375 66.1640625 C-70.35099609 65.22949219 -70.34261719 64.29492188 -70.33398438 63.33203125 C-70.31478608 57.84131849 -70.6084557 52.59539769 -71.421875 47.1640625 C-69.421875 48.1640625 -69.421875 48.1640625 -68.52392578 50.29370117 C-68.22470215 51.2138501 -67.92547852 52.13399902 -67.6171875 53.08203125 C-67.28074219 54.08943359 -66.94429688 55.09683594 -66.59765625 56.13476562 C-65.90365338 58.25934319 -65.21092023 60.384336 -64.51953125 62.50976562 C-61.86361727 71.69105263 -61.86361727 71.69105263 -55.421875 78.1640625 C-50.87319493 78.53690513 -48.43996148 78.68349438 -44.359375 76.6015625 C-42.09000829 74.29234039 -42.09000829 74.29234039 -42.546875 71.17578125 C-43.61814881 65.08989934 -46.31380915 59.42045535 -48.62695312 53.7265625 C-48.98337891 52.82679687 -49.33980469 51.92703125 -49.70703125 51 C-50.03582275 50.19095215 -50.36461426 49.3819043 -50.70336914 48.54833984 C-51.49636783 45.91686679 -51.71384762 43.89623587 -51.421875 41.1640625 C-49.80451241 39.7713336 -48.1293748 38.44468735 -46.421875 37.1640625 C-42.0800758 31.25439137 -40.38479459 26.43541038 -41.421875 19.1640625 C-44.02222349 12.87615084 -48.54476262 8.22467593 -54.53125 5.04296875 C-58.60647406 3.80388035 -62.43810464 3.91361912 -66.671875 3.9765625 C-67.88423828 3.9775293 -67.88423828 3.9775293 -69.12109375 3.97851562 C-79.26004899 3.73714266 -79.26004899 3.73714266 -88.421875 7.1640625 Z " fill="#090C0E" transform="translate(343.421875,53.8359375)"/>
<path d="M0 0 C3.625 1.6875 3.625 1.6875 6 4 C6.9375 6.6875 6.9375 6.6875 7 9 C5.47974965 10.52025035 3.78575463 10.4065868 1.6875 10.75 C-1.86131286 11.49474292 -2.8363379 11.8363379 -5.5 14.5 C-7.44227425 17.73712375 -8.12278329 19.38743582 -8.0625 23.125 C-8.041875 24.40375 -8.02125 25.6825 -8 27 C-6.77023437 27.14695312 -6.77023437 27.14695312 -5.515625 27.296875 C-4.43796875 27.44640625 -3.3603125 27.5959375 -2.25 27.75 C-1.18265625 27.88921875 -0.1153125 28.0284375 0.984375 28.171875 C4.4370168 29.1200098 5.82943515 30.18669507 8 33 C8 35.625 8 35.625 7 38 C3.98085887 39.93116234 1.28630983 40.34581764 -2.25 40.625 C-3.14203125 40.69976562 -4.0340625 40.77453125 -4.953125 40.8515625 C-5.62859375 40.90054688 -6.3040625 40.94953125 -7 41 C-9.1103435 45.27884606 -9.24128739 49.13864142 -9.125 53.8125 C-9.11597656 54.50537109 -9.10695313 55.19824219 -9.09765625 55.91210938 C-9.07426157 57.60822395 -9.03839641 59.30415871 -9 61 C-5.72226496 60.24849977 -5.72226496 60.24849977 -4 57 C-3.62910732 54.1635139 -3.49545768 51.35199089 -3.34375 48.49609375 C-3 46 -3 46 -1 44 C7.51170047 43.45085803 7.51170047 43.45085803 11 46 C13.72133844 50.08200766 13.49536778 53.21410801 13 58 C11.25612992 64.05225499 8.1144223 67.53614126 3 71 C-2.89691985 72.96563995 -9.8044979 73.06669998 -15.71484375 71.09375 C-21.69508378 67.98919943 -24.85348114 64.43955659 -27 58 C-27.66713099 48.50621286 -27.2865161 41.48394774 -21 34 C-21.28875 33.4225 -21.5775 32.845 -21.875 32.25 C-22.24625 31.5075 -22.6175 30.765 -23 30 C-23.34546875 29.41347656 -23.6909375 28.82695313 -24.046875 28.22265625 C-26.15164147 23.31440985 -25.91668134 16.88546285 -24.3125 11.8359375 C-19.13690061 2.04542865 -10.51433119 -1.23072374 0 0 Z " fill="#009FEE" transform="translate(588,57)"/>
<path d="M0 0 C3.625 1.6875 3.625 1.6875 6 4 C6.9375 6.6875 6.9375 6.6875 7 9 C5.47974965 10.52025035 3.78575463 10.4065868 1.6875 10.75 C-1.86131286 11.49474292 -2.8363379 11.8363379 -5.5 14.5 C-7.44227425 17.73712375 -8.12278329 19.38743582 -8.0625 23.125 C-8.041875 24.40375 -8.02125 25.6825 -8 27 C-6.77023437 27.14695312 -6.77023437 27.14695312 -5.515625 27.296875 C-4.43796875 27.44640625 -3.3603125 27.5959375 -2.25 27.75 C-1.18265625 27.88921875 -0.1153125 28.0284375 0.984375 28.171875 C4.4370168 29.1200098 5.82943515 30.18669507 8 33 C8 35.625 8 35.625 7 38 C3.98085887 39.93116234 1.28630983 40.34581764 -2.25 40.625 C-3.14203125 40.69976562 -4.0340625 40.77453125 -4.953125 40.8515625 C-5.62859375 40.90054688 -6.3040625 40.94953125 -7 41 C-9.1103435 45.27884606 -9.24128739 49.13864142 -9.125 53.8125 C-9.11597656 54.50537109 -9.10695313 55.19824219 -9.09765625 55.91210938 C-9.07426157 57.60822395 -9.03839641 59.30415871 -9 61 C-5.72226496 60.24849977 -5.72226496 60.24849977 -4 57 C-3.62910732 54.1635139 -3.49545768 51.35199089 -3.34375 48.49609375 C-3 46 -3 46 -1 44 C7.51170047 43.45085803 7.51170047 43.45085803 11 46 C13.72133844 50.08200766 13.49536778 53.21410801 13 58 C11.25612992 64.05225499 8.1144223 67.53614126 3 71 C-3.09278281 73.0309276 -10.46251391 73.11355753 -16.375 70.4375 C-21.29110421 67.56378564 -25.19495604 63.41513188 -27 58 C-27.66713099 48.50621286 -27.2865161 41.48394774 -21 34 C-21.28875 33.4225 -21.5775 32.845 -21.875 32.25 C-22.24625 31.5075 -22.6175 30.765 -23 30 C-23.34546875 29.41347656 -23.6909375 28.82695313 -24.046875 28.22265625 C-26.15164147 23.31440985 -25.91668134 16.88546285 -24.3125 11.8359375 C-19.13690061 2.04542865 -10.51433119 -1.23072374 0 0 Z " fill="#009FEE" transform="translate(904,57)"/>
<path d="M0 0 C2.02793201 -0.00441015 4.05374464 -0.04094368 6.08129883 -0.07861328 C7.37487305 -0.08248047 8.66844727 -0.08634766 10.0012207 -0.09033203 C11.16935303 -0.0985498 12.33748535 -0.10676758 13.54101562 -0.11523438 C18.47676241 0.61314057 21.64460837 2.86499026 24.70825195 6.74560547 C26.05710553 9.89293049 26.27559642 11.97929791 25.83325195 15.37060547 C24.8215332 17.03857422 24.8215332 17.03857422 22.83325195 18.37060547 C20.02198153 18.58774788 17.44491745 18.65344822 14.64575195 18.55810547 C13.89616211 18.54457031 13.14657227 18.53103516 12.37426758 18.51708984 C10.52695428 18.48179086 8.68001129 18.42798464 6.83325195 18.37060547 C6.80269115 21.99558706 6.78495115 25.62052422 6.77075195 29.24560547 C6.76144653 30.91079224 6.76144653 30.91079224 6.75195312 32.60961914 C6.74390977 38.65017589 6.86739458 44.64890467 7.23168945 50.67919922 C7.29880127 51.8517627 7.36591309 53.02432617 7.43505859 54.23242188 C7.57370132 56.50307806 7.73377858 58.77254395 7.91699219 61.04003906 C8.37313991 68.72801631 8.37313991 68.72801631 5.5949707 72.03466797 C1.39480426 74.06643165 1.39480426 74.06643165 -1.16674805 74.43310547 C-1.80612305 74.54783203 -2.44549805 74.66255859 -3.10424805 74.78076172 C-5.71804885 74.26097179 -7.26264946 73.11081681 -9.09286499 71.20082092 C-11.48400763 67.12560417 -10.76127067 62.08374643 -10.6550293 57.50732422 C-10.64795456 56.36020462 -10.64087982 55.21308502 -10.6335907 54.03120422 C-10.60563618 50.37283709 -10.54289091 46.71600884 -10.47924805 43.05810547 C-10.45416676 40.57570572 -10.43135331 38.09328195 -10.41088867 35.61083984 C-10.35580583 29.53023801 -10.27216703 23.45053169 -10.16674805 17.37060547 C-11.19735352 17.40214722 -11.19735352 17.40214722 -12.2487793 17.43432617 C-13.14983398 17.45068115 -14.05088867 17.46703613 -14.97924805 17.48388672 C-15.87256836 17.50491455 -16.76588867 17.52594238 -17.6862793 17.54760742 C-21.21257619 17.29597698 -22.82189632 15.93528704 -25.16674805 13.37060547 C-27.30876331 10.15758257 -27.82000681 9.10351266 -27.16674805 5.37060547 C-20.12116525 -0.76586987 -8.74176385 -0.00212928 0 0 Z " fill="#009FEF" transform="translate(448.166748046875,55.62939453125)"/>
<path d="M0 0 C2.02793201 -0.00441015 4.05374464 -0.04094368 6.08129883 -0.07861328 C7.37487305 -0.08248047 8.66844727 -0.08634766 10.0012207 -0.09033203 C11.16935303 -0.0985498 12.33748535 -0.10676758 13.54101562 -0.11523438 C18.47676241 0.61314057 21.64460837 2.86499026 24.70825195 6.74560547 C26.05710553 9.89293049 26.27559642 11.97929791 25.83325195 15.37060547 C24.8215332 17.03857422 24.8215332 17.03857422 22.83325195 18.37060547 C20.02198153 18.58774788 17.44491745 18.65344822 14.64575195 18.55810547 C13.89616211 18.54457031 13.14657227 18.53103516 12.37426758 18.51708984 C10.52695428 18.48179086 8.68001129 18.42798464 6.83325195 18.37060547 C6.80269115 21.99558706 6.78495115 25.62052422 6.77075195 29.24560547 C6.76144653 30.91079224 6.76144653 30.91079224 6.75195312 32.60961914 C6.74390977 38.65017589 6.86739458 44.64890467 7.23168945 50.67919922 C7.29880127 51.8517627 7.36591309 53.02432617 7.43505859 54.23242188 C7.57370132 56.50307806 7.73377858 58.77254395 7.91699219 61.04003906 C8.37313991 68.72801631 8.37313991 68.72801631 5.5949707 72.03466797 C1.39480426 74.06643165 1.39480426 74.06643165 -1.16674805 74.43310547 C-1.80612305 74.54783203 -2.44549805 74.66255859 -3.10424805 74.78076172 C-5.71804885 74.26097179 -7.26264946 73.11081681 -9.09286499 71.20082092 C-11.48400763 67.12560417 -10.76127067 62.08374643 -10.6550293 57.50732422 C-10.64795456 56.36020462 -10.64087982 55.21308502 -10.6335907 54.03120422 C-10.60563618 50.37283709 -10.54289091 46.71600884 -10.47924805 43.05810547 C-10.45416676 40.57570572 -10.43135331 38.09328195 -10.41088867 35.61083984 C-10.35580583 29.53023801 -10.27216703 23.45053169 -10.16674805 17.37060547 C-11.19735352 17.40214722 -11.19735352 17.40214722 -12.2487793 17.43432617 C-13.14983398 17.45068115 -14.05088867 17.46703613 -14.97924805 17.48388672 C-15.87256836 17.50491455 -16.76588867 17.52594238 -17.6862793 17.54760742 C-21.21257619 17.29597698 -22.82189632 15.93528704 -25.16674805 13.37060547 C-27.30876331 10.15758257 -27.82000681 9.10351266 -27.16674805 5.37060547 C-20.12116525 -0.76586987 -8.74176385 -0.00212928 0 0 Z " fill="#009FEF" transform="translate(220.166748046875,55.62939453125)"/>
<path d="M0 0 C5.93864506 3.30661987 9.80385893 7.41157678 12 14 C12.2919173 19.05989993 11.90672747 23.2785796 10 28 C7.01959142 30.79977776 4.45329313 31.19409854 0.5 31.3125 C-3.05390565 31.17081605 -5.91488493 30.90551225 -9 29 C-11.46045098 25.74868977 -12.28402808 22.95773365 -13 19 C-18.19515221 29.99331317 -17.41237902 41.11714 -17 53 C-16.34 53 -15.68 53 -15 53 C-15.05220703 52.11248047 -15.05220703 52.11248047 -15.10546875 51.20703125 C-15.27547012 46.2446104 -15.19679302 43.05746807 -12 39 C-9.00028961 36.00028961 -5.95027041 36.27260881 -1.8359375 35.96484375 C2.24274486 36.01540593 4.50479643 36.91775107 8 39 C11.39648617 44.09472926 10.40717376 50.27633026 9.7578125 56.21484375 C8.34232854 63.27781984 4.50527427 69.91227144 -1 74.5 C-8.67728623 78.33864311 -16.75384219 79.59505892 -25.125 77 C-33.08677976 73.4850459 -38.42360078 67.35274528 -42.02734375 59.58984375 C-47.83606115 44.12325886 -46.04399075 27.09284849 -39.76171875 12.03125 C-36.59865152 5.3721611 -33.36467926 -0.12563398 -26.4609375 -3.26953125 C-17.39257319 -5.96125208 -8.30572501 -4.07977212 0 0 Z M-31.5390625 5.84765625 C-41.25609105 19.03505214 -42.63121082 36.1666167 -41 52 C-39.24177984 59.62967489 -34.18445171 66.32061397 -28 71 C-21.97002256 74.6652804 -15.86344722 74.67964401 -9 74 C-3.5113609 72.2720951 -0.1178943 68.71822942 3 64 C6.25002118 57.65819837 7.33591803 50.00568038 6 43 C3.98562714 40.8954986 2.63519677 40.12413176 -0.21875 39.56640625 C-1.34796875 39.56447266 -1.34796875 39.56447266 -2.5 39.5625 C-3.2528125 39.54316406 -4.005625 39.52382812 -4.78125 39.50390625 C-7.9759286 40.21820939 -9.04461294 41.3844609 -11 44 C-11.75973074 46.58818718 -12.31781012 48.92614173 -12.75 51.5625 C-12.87503906 52.23474609 -13.00007813 52.90699219 -13.12890625 53.59960938 C-13.64245568 56.44106143 -14 59.1076163 -14 62 C-18.76535823 58.38490066 -19.94762702 53.65078537 -21 48 C-22.19899209 35.34577269 -20.13139485 22.65481128 -13 12 C-12.34 12 -11.68 12 -11 12 C-10.73445313 12.99902344 -10.46890625 13.99804688 -10.1953125 15.02734375 C-9.83896002 16.33084361 -9.48216632 17.6342229 -9.125 18.9375 C-8.95097656 19.59685547 -8.77695312 20.25621094 -8.59765625 20.93554688 C-8.12523763 22.641503 -7.56784972 24.32339261 -7 26 C-4.54617866 27.22691067 -2.80015897 27.20175931 -0.0625 27.25 C0.81277344 27.27578125 1.68804687 27.3015625 2.58984375 27.328125 C5.02174496 27.17911862 5.02174496 27.17911862 6.7890625 25.78515625 C9.18857387 22.24781207 8.55564064 18.08108467 8 14 C5.11835283 7.75643113 -0.51915902 3.41740616 -6.8203125 0.8515625 C-15.89851047 -1.57969936 -25.25246209 -1.69945541 -31.5390625 5.84765625 Z " fill="#090D10" transform="translate(72,56)"/>
<path d="M0 0 C3.22082791 1.30366844 4.24676248 2.99352497 5.77734375 6.0546875 C10.75984257 17.85655106 9.3549063 30.36912054 4.625 42.0625 C1.36477475 46.81590842 1.36477475 46.81590842 -2.375 48.0625 C-4.27224562 37.45825218 -4.59697959 26.92982571 -4.625 16.1875 C-4.62999512 15.50685486 -4.63499023 14.82620972 -4.64013672 14.12493896 C-4.65190973 12.16926557 -4.64659432 10.21351222 -4.640625 8.2578125 C-4.63836914 7.11328613 -4.63611328 5.96875977 -4.63378906 4.78955078 C-4.30085743 1.28120519 -3.63142894 0.09556392 0 0 Z " fill="#050B0F" transform="translate(944.375,66.9375)"/>
<path d="M0 0 C3 1 3 1 4.625 3.75 C9.59170909 15.48949421 8.60429443 32.19091284 4.16796875 43.953125 C3 46 3 46 0 48 C-5.53691198 34.0373524 -6.20326983 16.38257743 -0.9296875 2.1015625 C-0.62289062 1.40804687 -0.31609375 0.71453125 0 0 Z " fill="#070B0D" transform="translate(683,69)"/>
<path d="M0 0 C3 1 3 1 4.625 3.75 C9.59170909 15.48949421 8.60429443 32.19091284 4.16796875 43.953125 C3 46 3 46 0 48 C-5.53691198 34.0373524 -6.20326983 16.38257743 -0.9296875 2.1015625 C-0.62289062 1.40804687 -0.31609375 0.71453125 0 0 Z " fill="#070B0D" transform="translate(108,69)"/>
<path d="M0 0 C0.33 0 0.66 0 1 0 C1.12117187 0.62648438 1.24234375 1.25296875 1.3671875 1.8984375 C1.53476562 2.71570313 1.70234375 3.53296875 1.875 4.375 C2.03742187 5.18710938 2.19984375 5.99921875 2.3671875 6.8359375 C2.86658932 9.18673923 2.86658932 9.18673923 5 11 C10.5615994 12.8303998 16.20245674 12.75686032 21.5625 10.5 C22.366875 10.005 23.17125 9.51 24 9 C26.125 11.6875 26.125 11.6875 28 15 C27.375 17.625 27.375 17.625 26 20 C25.62875 20.763125 25.2575 21.52625 24.875 22.3125 C24.58625 22.869375 24.2975 23.42625 24 24 C23.01 23.67 22.02 23.34 21 23 C21 22.34 21 21.68 21 21 C14.98691169 18.72838886 9.29170555 18.50722273 3 20 C0.39855829 21.72656933 0.03557987 22.85787077 -0.73046875 25.91796875 C-0.88128906 26.99691406 -1.03210938 28.07585937 -1.1875 29.1875 C-1.42533203 30.81751953 -1.42533203 30.81751953 -1.66796875 32.48046875 C-1.77753906 33.31191406 -1.88710938 34.14335938 -2 35 C-2.66 35 -3.32 35 -4 35 C-7.02905323 24.03626029 -5.7570552 11.22098205 -1 1 C-0.67 0.67 -0.34 0.34 0 0 Z " fill="#EFEFEF" transform="translate(851,74)"/>
<path d="M0 0 C0.33 0 0.66 0 1 0 C1.12117188 0.62648438 1.24234375 1.25296875 1.3671875 1.8984375 C1.53476562 2.71570313 1.70234375 3.53296875 1.875 4.375 C2.03742187 5.18710938 2.19984375 5.99921875 2.3671875 6.8359375 C2.86658932 9.18673923 2.86658932 9.18673923 5 11 C7.84529857 11.94642346 10.51275356 12.16192426 13.5 12.1875 C14.62921875 12.20876953 14.62921875 12.20876953 15.78125 12.23046875 C18.3341899 11.96528661 19.8732336 11.43787902 22 10 C23.29920746 6.45411499 23.29920746 6.45411499 24 3 C24.66 3 25.32 3 26 3 C25.34 9.93 24.68 16.86 24 24 C23.01 23.67 22.02 23.34 21 23 C21 22.34 21 21.68 21 21 C14.98691169 18.72838886 9.29170555 18.50722273 3 20 C0.39855829 21.72656933 0.03557987 22.85787077 -0.73046875 25.91796875 C-0.88128906 26.99691406 -1.03210937 28.07585937 -1.1875 29.1875 C-1.42533203 30.81751953 -1.42533203 30.81751953 -1.66796875 32.48046875 C-1.77753906 33.31191406 -1.88710938 34.14335938 -2 35 C-2.66 35 -3.32 35 -4 35 C-7.02905323 24.03626029 -5.7570552 11.22098205 -1 1 C-0.67 0.67 -0.34 0.34 0 0 Z " fill="#EDEDED" transform="translate(59,74)"/>
<path d="M0 0 C3.31034483 4.96551724 3.31034483 4.96551724 4 8 C2.1875 11.5625 2.1875 11.5625 1.04296875 13.25390625 C-1.25356108 17.09865844 -1.16186644 20.97628034 -1.1875 25.375 C-1.20876953 27.02628906 -1.20876953 27.02628906 -1.23046875 28.7109375 C-0.99195913 32.11475276 -0.21372666 34.82416186 1 38 C0.01 38 -0.98 38 -2 38 C-2.40992188 36.90300781 -2.81984375 35.80601563 -3.2421875 34.67578125 C-3.78642886 33.22134314 -4.33070133 31.76691667 -4.875 30.3125 C-5.14441406 29.59126953 -5.41382813 28.87003906 -5.69140625 28.12695312 C-5.95566406 27.42119141 -6.21992187 26.71542969 -6.4921875 25.98828125 C-6.74838867 25.29814941 -7.00458984 24.60801758 -7.26855469 23.89697266 C-7.87689885 22.31925765 -8.55858873 20.77006395 -9.2578125 19.23046875 C-10.12900063 16.61231916 -10.069803 15.52390416 -9 13 C-7.6953125 11.2890625 -7.6953125 11.2890625 -6.125 9.625 C-3.4380152 6.63443759 -1.6267706 3.70542193 0 0 Z " fill="#F0F0F0" transform="translate(559,83)"/>
<path d="M0 0 C2.69815642 2.69815642 2.84280611 4.97010378 3.625 8.6875 C3.88539063 9.88761719 4.14578125 11.08773437 4.4140625 12.32421875 C4.99239089 15.95226551 5.10355018 19.33338229 5 23 C1.7 23 -1.6 23 -5 23 C-4.44636539 14.97229811 -2.34312056 7.66145933 0 0 Z " fill="#071116" transform="translate(335,74)"/>
<path d="M0 0 C5.28 0 10.56 0 16 0 C14.83515492 4.65938032 12.98327003 6.58280195 9 9 C6.29126817 10.00836002 3.87652681 10.51245308 1 11 C0 10 0 10 -0.09765625 7.71484375 C-0.06510417 5.14322917 -0.03255208 2.57161458 0 0 Z " fill="#0C161C" transform="translate(525,73)"/>
<path d="M0 0 C5.28 0 10.56 0 16 0 C14.83515492 4.65938032 12.98327003 6.58280195 9 9 C6.29126817 10.00836002 3.87652681 10.51245308 1 11 C0 10 0 10 -0.09765625 7.71484375 C-0.06510417 5.14322917 -0.03255208 2.57161458 0 0 Z " fill="#0C161C" transform="translate(271,73)"/>
<path d="M0 0 C4.13776103 3.71831676 4.75184021 8.21034173 5.2265625 13.546875 C5.45478139 20.72539659 4.01204325 27.13749533 2 34 C-0.29822325 30.35783305 -0.23128602 27.29174993 -0.1953125 23.046875 C-0.1924826 22.38665344 -0.18965271 21.72643188 -0.18673706 21.04620361 C-0.17558415 18.94728103 -0.15048946 16.84879258 -0.125 14.75 C-0.11496384 13.32292285 -0.1058391 11.89583898 -0.09765625 10.46875 C-0.07566111 6.97902672 -0.04116536 3.48955577 0 0 Z " fill="#ECECEC" transform="translate(944,72)"/>
<path d="M0 0 C0.66 0.33 1.32 0.66 2 1 C2.0580772 5.08327357 2.09362249 9.16644083 2.125 13.25 C2.14175781 14.40886719 2.15851562 15.56773438 2.17578125 16.76171875 C2.18222656 17.87675781 2.18867187 18.99179688 2.1953125 20.140625 C2.20578613 21.16704102 2.21625977 22.19345703 2.22705078 23.25097656 C1.99836111 26.01984288 1.4243299 27.64418792 0 30 C-1.66032228 28.33967772 -1.13001814 26.36162723 -1.1328125 24.08203125 C-1.13410156 23.07462891 -1.13539063 22.06722656 -1.13671875 21.02929688 C-1.13285156 19.96775391 -1.12898437 18.90621094 -1.125 17.8125 C-1.12886719 16.77029297 -1.13273438 15.72808594 -1.13671875 14.65429688 C-1.13037309 9.66343278 -1.06676947 4.90205971 0 0 Z " fill="#E5E5E5" transform="translate(684,78)"/>
<path d="M0 0 C0.66 0.33 1.32 0.66 2 1 C2.0580772 5.08327357 2.09362249 9.16644083 2.125 13.25 C2.14175781 14.40886719 2.15851563 15.56773438 2.17578125 16.76171875 C2.18222656 17.87675781 2.18867187 18.99179688 2.1953125 20.140625 C2.20578613 21.16704102 2.21625977 22.19345703 2.22705078 23.25097656 C1.99836111 26.01984288 1.4243299 27.64418792 0 30 C-1.66032228 28.33967772 -1.13001814 26.36162723 -1.1328125 24.08203125 C-1.13410156 23.07462891 -1.13539062 22.06722656 -1.13671875 21.02929688 C-1.13285156 19.96775391 -1.12898438 18.90621094 -1.125 17.8125 C-1.12886719 16.77029297 -1.13273437 15.72808594 -1.13671875 14.65429688 C-1.13037309 9.66343278 -1.06676947 4.90205971 0 0 Z " fill="#E5E5E5" transform="translate(109,78)"/>
</svg>
