<?xml version="1.0" encoding="UTF-8"?>
<svg version="1.1" xmlns="http://www.w3.org/2000/svg" width="1000" height="200">
<path d="M0 0 C1.59374721 1.12518553 3.12756879 2.33484887 4.640625 3.56640625 C5.20716797 2.76976562 5.20716797 2.76976562 5.78515625 1.95703125 C11.27447478 -5.08780845 17.2762038 -7.63886468 26.015625 -8.93359375 C29.59741681 -8.4395535 32.54103513 -7.47913567 35.953125 -6.30859375 C41.17844155 -4.62626772 44.55151984 -4.15438754 49.81030273 -5.64770508 C61.37815077 -8.85972119 72.32973327 -9.94253069 84.29345703 -9.87963867 C86.77068991 -9.87107624 89.24564593 -9.90010971 91.72265625 -9.93164062 C102.03603037 -9.97545351 111.22984228 -9.13898511 120.640625 -4.43359375 C121.795625 -4.90796875 122.950625 -5.38234375 124.140625 -5.87109375 C132.31395979 -9.05206729 139.27415783 -7.61294329 147.29296875 -4.6015625 C149.58667853 -3.46043234 150.97323464 -2.35411928 152.640625 -0.43359375 C154.89683663 -1.51991787 157.01416044 -2.6670534 159.140625 -3.99609375 C165.13817765 -7.44468653 172.4912707 -7.25441617 179.1484375 -5.9375 C186.81112168 -3.63869475 191.68819914 0.50850293 195.640625 7.56640625 C197.70269777 13.34675189 197.93330151 18.57509802 197.90625 24.6796875 C197.90912018 26.13232246 197.90912018 26.13232246 197.91204834 27.61430359 C197.91340541 29.66254944 197.90974243 31.71080403 197.90136719 33.7590332 C197.89078961 36.83109919 197.90121185 39.902563 197.9140625 42.97460938 C197.92128474 52.1954572 197.763872 61.33903402 196.76171875 70.51171875 C196.68580505 71.20723343 196.60989136 71.90274811 196.53167725 72.61933899 C195.09885167 84.17643975 191.97545041 95.10900987 183.640625 103.56640625 C183.06828125 104.19933594 182.4959375 104.83226562 181.90625 105.484375 C172.47994859 114.93081808 158.491651 116.860029 145.73095703 116.88330078 C134.99173814 116.70824006 125.57017136 114.02524895 117.640625 106.56640625 C117.07601563 106.0765625 116.51140625 105.58671875 115.9296875 105.08203125 C110.78473389 100.01236964 109.21538333 93.62772283 108.640625 86.56640625 C109.24321421 81.23683942 110.3344873 76.97566009 114.015625 73.00390625 C115.92181245 70.74012096 115.92181245 70.74012096 115.296875 68.3671875 C114.49036896 65.73394529 113.57390784 63.15713746 112.640625 60.56640625 C110.90816254 54.44640571 110.43885828 48.92205806 110.640625 42.56640625 C109.320625 42.56640625 108.000625 42.56640625 106.640625 42.56640625 C106.76095326 47.66700914 106.8852746 52.76749538 107.01293945 57.86791992 C107.0556432 59.59478261 107.09734713 61.32167038 107.13793945 63.04858398 C107.1972483 65.56371835 107.25964295 68.07874548 107.32421875 70.59375 C107.34550842 71.42508453 107.3667981 72.25641907 107.38873291 73.11294556 C107.56858479 79.44729192 107.90933116 85.76389117 108.41246033 92.08103943 C108.9127144 99.12955509 107.81396447 103.99271477 103.265625 109.37890625 C102.399375 110.10078125 101.533125 110.82265625 100.640625 111.56640625 C99.5578125 112.61828125 99.5578125 112.61828125 98.453125 113.69140625 C90.591478 118.93250425 81.34355676 119.65683534 72.19140625 118.16796875 C65.89707805 116.52225306 62.09340827 113.01225953 58.640625 107.56640625 C57.35863923 104.61920764 56.39921489 101.68746178 55.640625 98.56640625 C55.40988281 99.14648438 55.17914063 99.7265625 54.94140625 100.32421875 C52.32835716 106.58314266 49.81893516 111.39585297 44.078125 115.31640625 C34.31674717 118.86599819 25.43162094 119.45982706 15.640625 115.56640625 C11.42653692 112.79826493 8.42893152 109.74886603 5.640625 105.56640625 C5.640625 104.57640625 5.640625 103.58640625 5.640625 102.56640625 C5.0321875 102.99050781 4.42375 103.41460937 3.796875 103.8515625 C-1.79630994 107.59406125 -7.39252946 110.67627679 -13.546875 113.37890625 C-14.19914062 113.66838135 -14.85140625 113.95785645 -15.5234375 114.25610352 C-30.52156357 120.66689709 -43.30648707 118.58403556 -58.359375 113.56640625 C-59.16375 113.99953125 -59.968125 114.43265625 -60.796875 114.87890625 C-69.26536254 118.89029508 -77.36768438 119.15910471 -86.36328125 116.76171875 C-90.94087327 114.93545648 -94.06076071 112.15938507 -97.359375 108.56640625 C-98.019375 107.90640625 -98.679375 107.24640625 -99.359375 106.56640625 C-100.308125 107.47390625 -101.256875 108.38140625 -102.234375 109.31640625 C-111.64423847 117.4230707 -123.34177874 118.26035645 -135.21777344 117.75 C-143.35593972 117.05233686 -150.132171 113.66139134 -156.359375 108.56640625 C-156.20082031 109.28570312 -156.04226562 110.005 -155.87890625 110.74609375 C-154.26986158 119.4809077 -155.03808867 127.71505503 -159.359375 135.56640625 C-163.25172651 140.46040126 -167.77468785 143.58588708 -174.0078125 144.5390625 C-181.90436053 144.63088283 -187.50599422 141.20149535 -193.25390625 136.08984375 C-195.70739962 134.31458881 -197.34609548 133.776524 -200.359375 133.56640625 C-202.30701155 134.24334469 -202.30701155 134.24334469 -203.984375 135.44140625 C-209.21756274 138.73637631 -213.33443805 139.09119138 -219.359375 138.56640625 C-225.83662514 136.74823077 -230.37691566 132.88787036 -234.359375 127.56640625 C-236.04251663 123.98324759 -237.29488988 120.37614248 -238.359375 116.56640625 C-239.27976562 116.74558594 -240.20015625 116.92476563 -241.1484375 117.109375 C-249.62353943 118.53339925 -255.83983652 118.54228539 -264.23828125 116 C-268.29248561 115.43677511 -269.70896683 116.73074853 -273.359375 118.56640625 C-282.61341511 120.84810816 -291.86981024 120.78870962 -301.31713867 120.45483398 C-303.554427 120.37864909 -305.7912194 120.32986537 -308.02929688 120.28320312 C-318.54894462 119.99891389 -328.80769708 119.48360023 -336.6640625 111.72265625 C-342.49240415 104.30965029 -342.59340581 96.18129212 -342.50390625 87.15234375 C-342.49837234 86.11838974 -342.49283844 85.08443573 -342.48713684 84.01914978 C-342.38732467 71.12051494 -342.05745132 58.22640808 -341.66967773 45.33374023 C-341.56388758 41.79095694 -341.47440457 38.24793972 -341.38807201 34.70463657 C-341.31736339 31.9272072 -341.2344817 29.15023387 -341.14837074 26.37324333 C-341.09155491 24.44100685 -341.04767434 22.50840353 -341.00419617 20.57582092 C-340.70696226 11.74304566 -340.01857388 3.0353423 -333.359375 -3.43359375 C-325.35518289 -8.10270581 -317.1593805 -8.65003038 -308.234375 -6.30859375 C-301.92061397 -4.18415215 -296.54844031 -0.79778715 -292.984375 4.94140625 C-289.81021754 12.02221906 -289.00415457 18.71942059 -288.734375 26.37890625 C-288.67745483 27.77036865 -288.67745483 27.77036865 -288.61938477 29.18994141 C-288.17947026 41.31003498 -288.26900893 53.44066949 -288.359375 65.56640625 C-285.719375 65.56640625 -283.079375 65.56640625 -280.359375 65.56640625 C-280.35350876 64.9541217 -280.34764252 64.34183716 -280.34159851 63.71099854 C-280.27721182 57.28571983 -280.1926806 50.86092122 -280.09692383 44.43603516 C-280.0638559 42.04449836 -280.03576875 39.65288692 -280.01293945 37.26123047 C-279.97905821 33.80534318 -279.92672701 30.35012893 -279.87109375 26.89453125 C-279.86470383 25.84090393 -279.8583139 24.78727661 -279.85173035 23.70172119 C-279.67449024 14.56711532 -279.02509412 3.83518211 -272.29296875 -3.03125 C-266.60499689 -7.15646595 -259.31735886 -9.39331566 -252.359375 -8.43359375 C-245.0467468 -6.71351643 -238.55225635 -5.07157921 -233.359375 0.56640625 C-233.359375 1.22640625 -233.359375 1.88640625 -233.359375 2.56640625 C-232.75351563 2.09589844 -232.14765625 1.62539063 -231.5234375 1.140625 C-221.5264331 -6.28791827 -212.90305936 -8.59741137 -200.66015625 -6.9296875 C-189.85007891 -5.21543442 -179.93276595 -2.5464411 -171.359375 4.56640625 C-170.369375 5.06140625 -170.369375 5.06140625 -169.359375 5.56640625 C-169.27042969 4.81746094 -169.18148437 4.06851563 -169.08984375 3.296875 C-167.83608535 -1.38963366 -164.17432473 -3.68229172 -160.359375 -6.43359375 C-153.02876132 -10.18035185 -144.50302588 -9.03706491 -136.921875 -6.62109375 C-133.22350754 -5.33577563 -130.38357223 -3.9287352 -127.359375 -1.43359375 C-126.699375 -2.05234375 -126.039375 -2.67109375 -125.359375 -3.30859375 C-119.4836849 -7.4705409 -112.40253314 -8.24455675 -105.359375 -7.43359375 C-103.39493398 -6.87117159 -101.43678102 -6.28646848 -99.484375 -5.68359375 C-93.72129098 -4.09048645 -90.35330731 -4.90161688 -85.02734375 -7.453125 C-79.12655146 -9.62164457 -74.31891986 -8.26218382 -68.609375 -6.18359375 C-61.20966791 -3.91950427 -57.12542873 -5.16524576 -50.359375 -8.43359375 C-35.52133525 -13.38986844 -12.74786403 -7.7458048 0 0 Z M54.640625 40.56640625 C55.640625 42.56640625 55.640625 42.56640625 55.640625 42.56640625 Z " fill="#FBFBFB" transform="translate(349.359375,40.43359375)"/>
<path d="M0 0 C0.928125 -0.928125 1.85625 -1.85625 2.8125 -2.8125 C8.17921867 -7.34942482 14.07864187 -9.16338992 21.09375 -8.87109375 C27.47543066 -7.97669154 32.3611795 -6.02079669 38 -3 C41.67757771 -3 43.76491219 -3.46114779 47.1875 -4.5625 C55.43418587 -6.87332433 63.26607005 -5.67747667 71 -2 C73.57341126 -0.22752153 75.94941885 1.63293044 78 4 C78 4.66 78 5.32 78 6 C78.43828125 5.56429687 78.8765625 5.12859375 79.328125 4.6796875 C89.39208302 -4.77061454 101.11280158 -9.55004251 114.8359375 -9.32421875 C122.3210757 -8.55722311 129.45394872 -5.63669516 136 -2 C137.1446875 -2.8971875 137.1446875 -2.8971875 138.3125 -3.8125 C149.9493178 -11.41702512 165.11972733 -10.01302269 178.14575195 -7.40844727 C193.21759 -4.08640831 204.40399786 2.07626962 213.24609375 14.9375 C223.92423672 33.58263161 225.37335281 56.54592201 220 77 C215.01491728 92.27344493 206.32317273 103.63435215 192 111 C177.96538357 117.61474048 166.95191289 120.84066089 151.6875 117.3125 C151.00558594 117.16409668 150.32367187 117.01569336 149.62109375 116.86279297 C144.80272203 115.64990068 142.20980666 113.74373968 139 110 C136.48074698 111.2376243 134.06377471 112.53746267 131.625 113.9375 C119.62142602 119.81725435 107.42825742 119.82962282 94.78515625 116.03515625 C92.14983497 115.09776009 89.5760237 114.08822123 87 113 C85.3339742 112.33173339 83.66748391 111.66461992 82 111 C81.57589844 111.40992188 81.15179687 111.81984375 80.71484375 112.2421875 C73.86850067 118.53179499 67.51712182 119.45482176 58.36328125 119.328125 C52.47165752 118.75333244 47.02282514 116.7604843 41.9140625 113.78515625 C38.99384463 112.58727096 37.09639455 114.04040096 34.328125 115.18359375 C26.28317331 118.00472614 17.71565773 117.58024646 10 114 C6.72026845 111.5818525 3.82273572 108.9342512 1 106 C0.5875 106.45890625 0.175 106.9178125 -0.25 107.390625 C-7.93763685 115.55873916 -16.42242535 118.89988633 -27.60986328 119.3359375 C-44.43959349 119.65236016 -54.95770609 113.21925943 -67 102 C-67.66 101.34 -68.32 100.68 -69 100 C-69.61875 100.85271484 -69.61875 100.85271484 -70.25 101.72265625 C-77.59425991 111.5423252 -83.90607743 117.02080469 -96 120 C-97.12728516 120.28037109 -97.12728516 120.28037109 -98.27734375 120.56640625 C-109.20914917 122.50033831 -120.4575638 117.92701298 -130 113 C-130.721875 113.763125 -131.44375 114.52625 -132.1875 115.3125 C-141.06773642 122.56175091 -154.43717024 121.36712533 -165.23950195 120.96386719 C-167.69408234 120.87476105 -170.14791409 120.81843889 -172.60351562 120.765625 C-194.18770915 120.17464156 -194.18770915 120.17464156 -202.3046875 112.15625 C-208.13302915 104.74324404 -208.23403081 96.61488587 -208.14453125 87.5859375 C-208.13899734 86.55198349 -208.13346344 85.51802948 -208.12776184 84.45274353 C-208.02794967 71.55410869 -207.69807632 58.66000183 -207.31030273 45.76733398 C-207.20451258 42.22455069 -207.11502957 38.68153347 -207.02869701 35.13823032 C-206.95798839 32.36080095 -206.8751067 29.58382762 -206.78899574 26.80683708 C-206.73217991 24.8746006 -206.68829934 22.94199728 -206.64482117 21.00941467 C-206.34758726 12.17663941 -205.65919888 3.46893605 -199 -3 C-190.99580789 -7.66911206 -182.8000055 -8.21643663 -173.875 -5.875 C-167.56123897 -3.7505584 -162.18906531 -0.3641934 -158.625 5.375 C-155.45084254 12.45581281 -154.64477957 19.15301434 -154.375 26.8125 C-154.31807983 28.2039624 -154.31807983 28.2039624 -154.26000977 29.62353516 C-153.82009526 41.74362873 -153.90963393 53.87426324 -154 66 C-152.35 66 -150.7 66 -149 66 C-149.17660156 64.71351562 -149.35320313 63.42703125 -149.53515625 62.1015625 C-150.93469637 49.31360772 -148.36591113 36.17729074 -145.25 23.8125 C-145.0223999 22.88163574 -144.7947998 21.95077148 -144.56030273 20.99169922 C-141.81360669 10.77974158 -136.86144799 2.03654616 -128 -4 C-117.30797783 -9.94977004 -104.35289626 -8.30920016 -93.046875 -5.18359375 C-82.82270083 -1.77077584 -75.64965607 3.57567688 -69 12 C-68.443125 11.20335938 -67.88625 10.40671875 -67.3125 9.5859375 C-59.83757175 -0.79310139 -53.79249403 -6.5658072 -40.92578125 -9.3671875 C-26.74532814 -11.65299188 -12.12549523 -7.33788034 0 0 Z M71 44 C69.66695302 46.89186786 69.66695302 46.89186786 70.9375 49.1875 C71.288125 49.785625 71.63875 50.38375 72 51 C72.66 50.67 73.32 50.34 74 50 C73.34 48.02 72.68 46.04 72 44 C71.67 44 71.34 44 71 44 Z " fill="#FAFAFA" transform="translate(770,40)"/>
<path d="M0 0 C1.52613591 -0.01152965 3.05223118 -0.03199738 4.578125 -0.06152344 C14.5728155 -0.25418439 23.92537672 -0.39446509 31.92724609 6.43579102 C32.46091797 7.13188477 32.99458984 7.82797852 33.54443359 8.54516602 C34.10388672 9.25157227 34.66333984 9.95797852 35.23974609 10.68579102 C35.82369141 11.48243164 35.82369141 11.48243164 36.41943359 12.29516602 C36.78294922 11.4637207 36.78294922 11.4637207 37.15380859 10.61547852 C37.48896484 9.89102539 37.82412109 9.16657227 38.16943359 8.42016602 C38.49427734 7.70086914 38.81912109 6.98157227 39.15380859 6.24047852 C40.67174858 3.90734854 41.83277855 3.25536372 44.41943359 2.29516602 C50.36853249 1.60873153 54.54929329 3.01311494 59.41943359 6.29516602 C64.27007738 11.39456076 64.62510208 15.90324264 64.95458984 22.68188477 C64.99756699 23.49889359 65.04054413 24.3159024 65.08482361 25.15766907 C65.2211167 27.76581545 65.3515951 30.37421594 65.48193359 32.98266602 C65.57334753 34.75156606 65.66513981 36.52044659 65.75732422 38.28930664 C65.98241736 42.62437898 66.20229623 46.9596882 66.41943359 51.29516602 C70.47969159 41.89753624 72.85056723 33.84640669 73.48193359 23.54516602 C73.61130279 21.52905596 73.74777617 19.51338648 73.89208984 17.49829102 C73.94631104 16.61818359 74.00053223 15.73807617 74.05639648 14.83129883 C74.64409125 10.72573512 75.75295249 7.99973176 78.60693359 4.98266602 C82.72504348 2.51180008 85.84925064 2.70280004 90.47021484 3.76782227 C95.75754348 5.4306921 98.29469349 7.75008949 101.41943359 12.29516602 C102.638024 15.95093723 102.5626053 19.31366387 102.55224609 23.11938477 C102.55320282 23.89844681 102.55415955 24.67750885 102.55514526 25.48017883 C102.55582638 27.13701457 102.55397685 28.79385297 102.54980469 30.45068359 C102.54454912 32.92820648 102.54970242 35.40554012 102.55615234 37.88305664 C102.57120781 65.48751541 102.57120781 65.48751541 99.73193359 77.67016602 C99.55750732 78.42201172 99.38308105 79.17385742 99.20336914 79.94848633 C97.17171143 88.07511716 94.194983 94.60393987 87.29443359 99.67016602 C76.34319803 106.09489088 65.02982881 107.96096785 52.48974609 105.78735352 C45.96321169 104.06149183 40.57151932 101.23634984 36.54443359 95.73266602 C34.44888877 91.19231889 33.89866415 87.32927062 34.41943359 82.29516602 C37.19012423 77.49263557 39.44461941 76.02510961 44.73193359 74.42016602 C46.28934423 74.02456098 47.85054169 73.64245471 49.41943359 73.29516602 C48.36755859 72.51141602 47.31568359 71.72766602 46.23193359 70.92016602 C41.04854534 66.5148117 38.53743785 60.6491788 36.41943359 54.29516602 C36.26956949 52.30452162 36.17115322 50.30981211 36.10302734 48.31469727 C36.06113281 47.15131836 36.01923828 45.98793945 35.97607422 44.78930664 C35.93675781 43.57436523 35.89744141 42.35942383 35.85693359 41.10766602 C35.7921582 39.26785156 35.7921582 39.26785156 35.72607422 37.39086914 C35.61990269 34.3590822 35.51785407 31.32721287 35.41943359 28.29516602 C34.96334717 28.77614746 34.50726074 29.25712891 34.03735352 29.75268555 C31.03852036 32.61169081 27.58420609 32.43269286 23.60693359 32.42016602 C22.79611328 32.42274414 21.98529297 32.42532227 21.14990234 32.42797852 C17.8661436 32.26825348 14.67027922 31.77527184 11.41943359 31.29516602 C11.39431865 36.41397767 11.37638196 41.53275182 11.36450195 46.65161133 C11.35953837 48.38534166 11.35276532 50.11906796 11.34399414 51.8527832 C11.29465597 61.87133318 11.44745312 71.80795619 12.17236328 81.80249023 C13.2018768 96.35606765 13.2018768 96.35606765 10.98193359 101.85766602 C6.3011061 106.31016046 1.14061259 108.48419003 -5.33056641 108.73266602 C-9.160514 108.52618188 -11.60249326 107.84780014 -14.58056641 105.29516602 C-18.75069351 99.85083341 -19.70483454 96.12983587 -19.70996094 89.39672852 C-19.7131131 88.20869629 -19.71626526 87.02066406 -19.71951294 85.79663086 C-19.71748871 84.51739746 -19.71546448 83.23816406 -19.71337891 81.92016602 C-19.71433563 80.6035498 -19.71529236 79.28693359 -19.71627808 77.93041992 C-19.71775062 75.14639104 -19.71561473 72.36239429 -19.7109375 69.57836914 C-19.70524047 66.01406293 -19.70852184 62.44983202 -19.71450996 58.88552856 C-19.71899711 55.48040171 -19.71585326 52.075295 -19.71337891 48.67016602 C-19.71540314 47.39093262 -19.71742737 46.11169922 -19.71951294 44.79370117 C-19.7147847 43.01165283 -19.7147847 43.01165283 -19.70996094 41.19360352 C-19.70916534 40.14865723 -19.70836975 39.10371094 -19.70755005 38.02709961 C-19.59546083 35.61560551 -19.27462949 33.59691155 -18.58056641 31.29516602 C-20.28212891 31.41891602 -20.28212891 31.41891602 -22.01806641 31.54516602 C-27.13331891 31.53608031 -31.24267178 29.9508456 -35.58056641 27.29516602 C-37.76511744 25.00138743 -39.17827412 23.09975059 -40.58056641 20.29516602 C-40.57390457 21.24650421 -40.56724274 22.19784241 -40.56037903 23.17800903 C-40.4995068 32.15295109 -40.45456444 41.12785114 -40.42512989 50.10295296 C-40.40948845 54.71691634 -40.38827799 59.33071277 -40.35424805 63.94458008 C-40.32160029 68.39903271 -40.30370195 72.85332497 -40.29593468 77.30788803 C-40.29040089 79.00551756 -40.27959468 80.70313854 -40.26337624 82.40069962 C-40.24152967 84.78254261 -40.23860245 87.16372688 -40.23999023 89.5456543 C-40.22920441 90.24408951 -40.21841858 90.94252472 -40.20730591 91.66212463 C-40.23624747 96.26680095 -41.18798374 99.37305236 -43.58056641 103.29516602 C-48.20298986 107.48423727 -52.77895315 107.63595912 -58.77978516 107.58032227 C-63.02264368 107.14834364 -65.20058852 105.88408525 -68.58056641 103.29516602 C-72.46311644 98.17725916 -71.72968108 90.29986099 -71.72583008 84.14428711 C-71.72918869 83.36125717 -71.7325473 82.57822723 -71.73600769 81.77146912 C-71.74544517 79.20383078 -71.7474567 76.63625807 -71.74853516 74.06860352 C-71.75175116 72.27454604 -71.75511549 70.48048882 -71.75862122 68.68643188 C-71.76459329 64.93588655 -71.76646294 61.1853642 -71.76586914 57.43481445 C-71.76576726 52.63195015 -71.77945455 47.82923283 -71.79664135 43.02640343 C-71.80776046 39.32550377 -71.80978843 35.62463978 -71.80925941 31.92372513 C-71.81043831 30.15272131 -71.81485502 28.38171653 -71.82259178 26.61072922 C-71.8323962 24.13613285 -71.82951262 21.66185746 -71.82348633 19.18725586 C-71.82910583 18.45881973 -71.83472534 17.73038361 -71.84051514 16.97987366 C-71.81051501 12.12845989 -71.26965029 8.35144205 -68.14306641 4.54516602 C-64.25629091 1.43574562 -59.2868629 1.86179138 -54.58056641 2.29516602 C-50.30387091 3.36618648 -46.35069176 4.71779554 -43.58056641 8.29516602 C-43.58056641 9.61516602 -43.58056641 10.93516602 -43.58056641 12.29516602 C-42.92056641 12.29516602 -42.26056641 12.29516602 -41.58056641 12.29516602 C-41.53931641 11.71766602 -41.49806641 11.14016602 -41.45556641 10.54516602 C-40.12027448 7.1115582 -37.80375089 5.76966629 -34.58056641 4.29516602 C-23.1626275 0.67601567 -11.88726348 0.06237694 0 0 Z " fill="#0A0D0E" transform="translate(434.58056640625,40.704833984375)"/>
<path d="M0 0 C2.92420007 1.91329497 5.40644937 3.81289874 7 7 C7.37996173 10.49564794 7.55717827 12.28702307 5.3515625 15.109375 C2.55371236 17.35880933 0.57636966 17.76350692 -2.9375 18.375 C-8.09849571 19.50031368 -8.09849571 19.50031368 -12.125 22.6875 C-14.3006694 26.5311826 -15.17988403 29.67575216 -16 34 C-15.030625 33.938125 -14.06125 33.87625 -13.0625 33.8125 C-5.94053074 33.82691694 0.44114273 36.66137969 6 41 C8.4457626 44.66864391 8.72100244 47.73406887 8 52 C6.125 54.5 6.125 54.5 4 56 C3.34 56 2.68 56 2 56 C2 56.66 2 57.32 2 58 C2.886875 58.061875 3.77375 58.12375 4.6875 58.1875 C8.75378857 59.18489154 10.18606704 60.99431693 13 64 C12.99547569 62.87033562 12.99547569 62.87033562 12.99085999 61.71784973 C12.96858998 54.61110515 12.97983053 47.50538118 13.02846622 40.39882374 C13.05229453 36.74533165 13.06328279 33.09275096 13.04467773 29.43920898 C13.02718932 25.91135751 13.04375504 22.38514117 13.08367729 18.85748863 C13.09745874 16.86064875 13.07621216 14.86366653 13.05445862 12.86689758 C13.1955512 4.02953011 13.1955512 4.02953011 15.49972534 1.08065796 C24.05111263 -5.23479344 33.82926415 -4.48141235 43.8125 -3.25 C59.66241869 -0.80497479 70.25148152 4.48415349 79.75 17.375 C81.68970494 21.44838036 82.87947581 25.63750976 84 30 C84.31324219 31.20076172 84.31324219 31.20076172 84.6328125 32.42578125 C88.52460595 50.04847974 86.68711389 68.59450169 77 84 C70.90568812 92.05051075 63.04687525 96.02267215 54 100 C52.33130859 100.82564453 52.33130859 100.82564453 50.62890625 101.66796875 C46.26899008 103.26832549 42.66121023 103.48018845 38.0625 103.4375 C37.30259766 103.45748047 36.54269531 103.47746094 35.75976562 103.49804688 C28.85148399 103.4921474 23.47751878 101.47751878 18.5625 96.5625 C16.21085269 91.20074414 16.1721214 85.80049112 16 80 C15.34 80 14.68 80 14 80 C13.9175 80.66 13.835 81.32 13.75 82 C11.88799492 89.44802031 8.46336439 94.78259235 2 99 C-6.66542765 104.07321401 -16.42619071 104.38871721 -26.125 102.33984375 C-33.5286053 99.96452038 -39.47469551 96.14376647 -43.56640625 89.4296875 C-48.941109 78.92528269 -49.87092093 67.69215286 -46.25 56.375 C-44.63712276 52.14695751 -42.77523072 48.56815379 -40 45 C-40.61875 44.13375 -41.2375 43.2675 -41.875 42.375 C-45.85604302 36.05216697 -46.84727971 30.36074249 -46 23 C-43.90460428 14.43983224 -40.09201656 7.42587433 -33.3125 1.75 C-21.2397514 -4.62805586 -12.47943813 -5.91631899 0 0 Z " fill="#00A0F1" transform="translate(896,45)"/>
<path d="M0 0 C3.14963173 2.17401409 3.81486719 4.99168206 4.62011719 8.6328125 C5.33178814 13.06749217 5.47658942 17.51676376 5.625 22 C5.66367188 22.96550781 5.70234375 23.93101563 5.7421875 24.92578125 C5.83556941 27.2836744 5.92134329 29.64157756 6 32 C7.57240123 28.96742603 8.52164163 26.20339782 9.3125 22.875 C12.07006174 12.67337996 16.0955567 5.10089764 25 -1 C35.43458884 -4.8274414 49.44334815 -1.57709981 59.3125 2.625 C66.70213911 6.7182039 72.03697138 14.22741767 75 22 C75.29777344 22.75152344 75.59554687 23.50304687 75.90234375 24.27734375 C81.87541334 42.14150118 77.90618254 64.87263197 70.23828125 81.6328125 C68.6817409 84.60840698 67.0145118 87.31398427 65 90 C66.12536375 93.03848212 67.17024047 94.12862613 69.8125 96.125 C74.47687564 99.84962428 77.30561109 105.34463198 78.4140625 111.1796875 C78.66603237 117.06661991 76.62260282 121.73994607 73.25 126.4375 C70.00358497 128.69195488 67.89674068 128.38967407 64 128 C60.796875 126.06640625 60.796875 126.06640625 57.75 123.5625 C52.14946594 119.02095017 48.69974365 117.61208347 41.55859375 117.6328125 C38.07022056 118.133434 36.30999125 119.68046494 33.6484375 121.8671875 C30.69475913 123.89696648 28.41621161 123.62112938 25 123 C19.86036701 119.77513224 16.79182927 115.83103763 15 110 C14.34870822 105.19946733 14.41270599 101.33475911 16.375 96.875 C16.91125 96.25625 17.4475 95.6375 18 95 C18.66 95 19.32 95 20 95 C19.48050781 94.35675781 18.96101563 93.71351563 18.42578125 93.05078125 C13.06187787 86.10051088 9.75120765 79.31975774 7 71 C6.98541748 71.60473145 6.97083496 72.20946289 6.95581055 72.83251953 C6.88090812 75.59729265 6.78438927 78.36091357 6.6875 81.125 C6.66494141 82.07632813 6.64238281 83.02765625 6.61914062 84.0078125 C6.41422545 89.37286433 6.0085235 93.37207373 3 98 C-1.62242345 102.18907125 -6.19838674 102.3407931 -12.19921875 102.28515625 C-16.44207728 101.85317763 -18.62002212 100.58891923 -22 98 C-29.31508063 87.09154643 -26.247913 65.70117797 -26.03643799 53.24969482 C-25.99491757 50.68620894 -25.95998464 48.12266929 -25.92529297 45.55908203 C-25.85504758 40.48476406 -25.77142959 35.41079416 -25.67959595 30.33682251 C-25.64331318 28.2854164 -25.60974682 26.23396038 -25.57894897 24.1824646 C-25.53353983 21.27241406 -25.47543537 18.3628773 -25.4140625 15.453125 C-25.40249619 14.57390884 -25.39092987 13.69469269 -25.37901306 12.78883362 C-25.25414581 7.62715767 -24.9667228 3.39427124 -21.5625 -0.75 C-15.41177432 -5.67058055 -6.36825232 -2.96453125 0 0 Z " fill="#00A0F0" transform="translate(106,46)"/>
<path d="M0 0 C5.58111206 1.98971599 8.68564032 3.78882885 11.390625 9.31640625 C12.42216644 12.41103058 12.62017875 14.82339361 12.77954102 18.07299805 C12.83952774 19.25399582 12.89951447 20.43499359 12.96131897 21.65177917 C13.02177902 22.9268483 13.08223907 24.20191742 13.14453125 25.515625 C13.24229103 27.47360771 13.24229103 27.47360771 13.34202576 29.47114563 C13.5150793 32.93810726 13.68305404 36.40529704 13.84997559 39.87255859 C14.02126846 43.41193552 14.19735892 46.95107337 14.37304688 50.49023438 C14.71693783 57.43206512 15.05546442 64.37414866 15.390625 71.31640625 C20.1674109 64.1512274 19.68159065 54.95690228 19.578125 46.62890625 C19.57385498 45.55471436 19.56958496 44.48052246 19.56518555 43.3737793 C19.52184271 37.83440308 19.36400786 32.31613877 19.0546875 26.78515625 C18.99772705 25.74963623 18.9407666 24.71411621 18.88208008 23.6472168 C18.76553267 21.68149288 18.63334189 19.71661405 18.4831543 17.75317383 C18.15493083 12.44152812 18.22940577 8.85935044 21.390625 4.31640625 C23.87490937 1.65788475 25.19300697 1.34116427 28.8515625 0.8828125 C30.14320313 0.88152344 31.43484375 0.88023438 32.765625 0.87890625 C34.05210937 0.85957031 35.33859375 0.84023438 36.6640625 0.8203125 C41.94744216 1.5236555 45.9988292 4.21054817 49.390625 8.31640625 C49.885625 9.80140625 49.885625 9.80140625 50.390625 11.31640625 C50.82375 10.22328125 51.256875 9.13015625 51.703125 8.00390625 C52.89741599 5.22844127 53.92168149 3.16811388 56.390625 1.31640625 C63.47429326 -1.0448165 69.76196985 0.23065299 76.390625 3.31640625 C80.15531974 5.91496384 80.61096136 10.07014599 81.390625 14.31640625 C81.75512781 17.86262278 81.88954785 21.40255713 82 24.96484375 C82.05568146 26.51683975 82.05568146 26.51683975 82.11248779 28.10018921 C82.50724106 40.11389161 82.61210824 52.13091481 82.63085938 64.15039062 C82.64077646 68.00020334 82.67203992 71.84952558 82.703125 75.69921875 C82.70963879 78.16796565 82.71489559 80.63671626 82.71875 83.10546875 C82.7310968 84.24601715 82.7434436 85.38656555 82.75616455 86.56167603 C82.74022838 92.20773404 82.68633391 96.48918562 79.390625 101.31640625 C74.76885023 105.50488964 70.18927835 105.66519974 64.1875 105.59375 C59.86749425 105.16536954 57.8048959 104.01937071 54.390625 101.31640625 C51.3078865 96.43839651 50.92611378 92.44426013 50.87890625 86.85546875 C50.86095505 86.06490082 50.84300385 85.27433289 50.82450867 84.45980835 C50.77065794 81.95372734 50.73659219 79.44783398 50.703125 76.94140625 C50.66992952 75.23434903 50.63543781 73.52731649 50.59960938 71.8203125 C50.51494648 67.65247972 50.44801593 63.48470015 50.390625 59.31640625 C50.21321777 60.59789551 50.21321777 60.59789551 50.03222656 61.90527344 C47.97576981 76.1000363 44.22657886 90.72029101 32.42578125 100.03125 C24.09444612 105.29230424 15.35376947 106.56646631 5.7578125 104.84375 C-0.92262095 103.13789008 -6.81832809 100.58565574 -10.69726562 94.65234375 C-11.85966567 92.67361723 -12.93664866 90.670611 -13.984375 88.62890625 C-14.31840332 87.98219971 -14.65243164 87.33549316 -14.99658203 86.66918945 C-19.58742174 77.04213006 -19.91854914 66.80583312 -19.91015625 56.30859375 C-19.91444138 55.10252472 -19.9187265 53.89645569 -19.92314148 52.65383911 C-19.92885009 50.12095769 -19.92941086 47.58805988 -19.92504883 45.05517578 C-19.92187824 41.19535349 -19.94542963 37.33629093 -19.97070312 33.4765625 C-19.97297551 31.00390721 -19.9736799 28.53124987 -19.97265625 26.05859375 C-19.981866 24.91462128 -19.99107574 23.7706488 -20.00056458 22.5920105 C-19.95712218 15.02488695 -19.52106426 7.84572657 -14.546875 1.81640625 C-10.04098839 -1.67202209 -5.31829909 -1.39326698 0 0 Z " fill="#0C0F10" transform="translate(206.609375,42.68359375)"/>
<path d="M0 0 C8.14644708 6.67165925 12.23879079 14.46425991 14.8125 24.484375 C15.12574219 25.68513672 15.12574219 25.68513672 15.4453125 26.91015625 C19.33710595 44.53285474 17.49961389 63.07887669 7.8125 78.484375 C1.71818812 86.53488575 -6.14062475 90.50704715 -15.1875 94.484375 C-16.29996094 95.03480469 -17.41242188 95.58523437 -18.55859375 96.15234375 C-22.91850992 97.75270049 -26.52628977 97.96456345 -31.125 97.921875 C-31.88490234 97.94185547 -32.64480469 97.96183594 -33.42773438 97.98242188 C-39.1201291 97.97756074 -43.42356576 96.62816604 -48.1875 93.484375 C-60.19734298 81.15848352 -55.53631186 49.63585006 -55.64746094 33.43457031 C-55.66992897 30.45288163 -55.71203393 27.47240702 -55.77050781 24.49121094 C-55.84155147 20.8580427 -55.87827344 17.22603571 -55.89057922 13.59220886 C-55.90095412 12.21739905 -55.92331844 10.84262295 -55.95817566 9.46821594 C-56.21496916 -1.18296531 -56.21496916 -1.18296531 -53.69897461 -4.44628906 C-39.37589281 -15.03464481 -13.65993269 -9.22045457 0 0 Z " fill="#00A0F1" transform="translate(345.1875,50.515625)"/>
<path d="M0 0 C8.61511959 5.79049022 13.59197405 14.01929112 15.83984375 24.0390625 C17.08222853 30.53059781 17.05033312 37.04267587 17.01074219 43.62695312 C17.00001829 45.74638469 17.01069362 47.86496899 17.0234375 49.984375 C17.04206341 65.60351291 14.07140227 80.56117925 3.74609375 92.91015625 C-2.82160527 98.96374967 -10.82871606 101.08891594 -19.53125 100.9609375 C-27.63519877 100.33218285 -34.44614091 97.47595494 -40.25 91.75 C-44.5304262 86.44227152 -47.08490364 80.16201616 -49.25 73.75 C-49.70246094 72.45642578 -49.70246094 72.45642578 -50.1640625 71.13671875 C-56.11380434 50.59064762 -53.44212317 24.08049431 -44.25 4.75 C-41.39593167 -0.31972664 -38.20364863 -3.9772501 -32.5390625 -5.80078125 C-20.82392028 -8.09982793 -10.25431272 -5.78398136 0 0 Z " fill="#00A0F0" transform="translate(683.25,49.25)"/>
<path d="M0 0 C4.2897378 1.45146907 8.10065864 3.46182072 11 7 C11.94921875 9.48046875 11.94921875 9.48046875 12.6875 12.1875 C12.93886719 13.08855469 13.19023438 13.98960938 13.44921875 14.91796875 C13.63097656 15.60503906 13.81273437 16.29210937 14 17 C14.65355469 15.86111328 14.65355469 15.86111328 15.3203125 14.69921875 C21.48896893 4.40477262 21.48896893 4.40477262 27 3 C33.48122285 2.07098829 38.0282776 2.78434016 43.37109375 6.6484375 C46.55206978 9.2878085 47.81194471 10.75850222 48.44140625 14.9140625 C48.34461183 21.70199117 43.46006863 27.86043041 40.17773438 33.55078125 C36.93741935 39.30771927 36.93741935 39.30771927 35.87890625 45.71875 C36.97743053 48.93394302 38.29668857 51.7775635 39.89013672 54.76806641 C42.03164125 59.07462919 43.50344491 63.64499399 45.0625 68.1875 C45.41248047 69.20328125 45.76246094 70.2190625 46.12304688 71.265625 C53.16275752 92.02680556 53.16275752 92.02680556 52 100 C50.14037449 103.21858262 48.69479645 104.65260178 45.375 106.3125 C38.38830107 107.73571645 31.99464938 107.99598686 25.68359375 104.30078125 C18.94241634 99.09240056 18.43266399 89.82538439 17 82 C16.94392578 83.19496094 16.94392578 83.19496094 16.88671875 84.4140625 C16.195891 95.5485804 16.195891 95.5485804 13 100 C7.0023394 104.34830393 1.18962114 104.58065956 -6 104 C-10.17554556 102.3120135 -12.58920744 99.7883883 -15 96 C-18.05945181 78.76560711 -17.27889776 60.73018055 -17.35009766 43.27612305 C-17.36357349 40.28037926 -17.39172998 37.28529472 -17.43212891 34.28979492 C-17.48146635 30.62614634 -17.50621151 26.96310546 -17.51332474 23.29913902 C-17.52000636 21.91685948 -17.53514753 20.53459202 -17.55921555 19.15250587 C-17.75767669 7.10328797 -17.75767669 7.10328797 -14.59228516 3.17456055 C-9.95473153 -0.71569092 -5.89584999 -0.63692394 0 0 Z " fill="#00A0F0" transform="translate(794,42)"/>
<path d="M0 0 C6.17210719 4.01186968 11.24011966 8.97776923 14.25 15.75 C15.11023755 21.98672223 15.5327352 27.79657816 13.6875 33.875 C11.05048625 37.27759839 8.8631959 38.16127006 4.75 39.375 C-0.50658667 40.02561878 -5.32046164 39.36577511 -10.25 37.375 C-14.6865812 33.6578644 -15.0740005 29.16609932 -15.85546875 23.703125 C-16.01109741 21.42089492 -16.01109741 21.42089492 -17.25 20.375 C-25.2634983 37.62543144 -26.31767832 55.85253622 -22.25 74.375 C-21.59 74.375 -20.93 74.375 -20.25 74.375 C-20.311875 73.488125 -20.37375 72.60125 -20.4375 71.6875 C-20.42424843 65.22073331 -19.53259867 57.09303416 -15.3046875 52.05859375 C-10.63491707 48.23222292 -5.470318 47.99470383 0.34765625 48.1171875 C4.36871113 48.54871534 7.09066356 50.27539188 10.3828125 52.45703125 C12.61113745 55.58305282 12.23549201 59.05118723 12.1875 62.75 C12.17992676 63.55493896 12.17235352 64.35987793 12.16455078 65.18920898 C11.85227038 76.65126739 8.60685166 87.81483904 0.125 95.9296875 C-8.00471573 102.2904373 -17.19830226 103.27403383 -27.25 102.375 C-37.9476008 100.40913155 -45.97965279 92.92791472 -52.25 84.375 C-57.78603325 74.66241508 -59.61762666 65.12853264 -59.5 54.0625 C-59.49323242 53.13751709 -59.48646484 52.21253418 -59.47949219 51.25952148 C-59.37690484 44.46072415 -58.85335435 38.00035503 -57.25 31.375 C-57.00507812 30.27285156 -56.76015625 29.17070313 -56.5078125 28.03515625 C-53.57132102 16.27619701 -48.12798988 2.91006616 -37.25 -3.625 C-25.43300702 -8.43993499 -10.96326793 -6.01642752 0 0 Z " fill="#00A0F0" transform="translate(760.25,46.625)"/>
<path d="M0 0 C3.14963173 2.17401409 3.81486719 4.99168206 4.62011719 8.6328125 C5.33178814 13.06749217 5.47658942 17.51676376 5.625 22 C5.66367188 22.96550781 5.70234375 23.93101563 5.7421875 24.92578125 C5.83556941 27.2836744 5.92134329 29.64157756 6 32 C7.57240123 28.96742603 8.52164163 26.20339782 9.3125 22.875 C12.07006174 12.67337996 16.0955567 5.10089764 25 -1 C35.43458884 -4.8274414 49.44334815 -1.57709981 59.3125 2.625 C66.70213911 6.7182039 72.03697138 14.22741767 75 22 C75.29777344 22.75152344 75.59554687 23.50304687 75.90234375 24.27734375 C81.87541334 42.14150118 77.90618254 64.87263197 70.23828125 81.6328125 C68.6817409 84.60840698 67.0145118 87.31398427 65 90 C66.12536375 93.03848212 67.17024047 94.12862613 69.8125 96.125 C74.47687564 99.84962428 77.30561109 105.34463198 78.4140625 111.1796875 C78.66603237 117.06661991 76.62260282 121.73994607 73.25 126.4375 C70.00358497 128.69195488 67.89674068 128.38967407 64 128 C60.796875 126.06640625 60.796875 126.06640625 57.75 123.5625 C52.14946594 119.02095017 48.69974365 117.61208347 41.55859375 117.6328125 C38.07022056 118.133434 36.30999125 119.68046494 33.6484375 121.8671875 C30.69475913 123.89696648 28.41621161 123.62112938 25 123 C19.86036701 119.77513224 16.79182927 115.83103763 15 110 C14.34870822 105.19946733 14.41270599 101.33475911 16.375 96.875 C16.91125 96.25625 17.4475 95.6375 18 95 C18.66 95 19.32 95 20 95 C19.48050781 94.35675781 18.96101563 93.71351563 18.42578125 93.05078125 C13.06187787 86.10051088 9.75120765 79.31975774 7 71 C6.98541748 71.60473145 6.97083496 72.20946289 6.95581055 72.83251953 C6.88090812 75.59729265 6.78438927 78.36091357 6.6875 81.125 C6.66494141 82.07632813 6.64238281 83.02765625 6.61914062 84.0078125 C6.41422545 89.37286433 6.0085235 93.37207373 3 98 C-1.62242345 102.18907125 -6.19838674 102.3407931 -12.19921875 102.28515625 C-16.44207728 101.85317763 -18.62002212 100.58891923 -22 98 C-29.31508063 87.09154643 -26.247913 65.70117797 -26.03643799 53.24969482 C-25.99491757 50.68620894 -25.95998464 48.12266929 -25.92529297 45.55908203 C-25.85504758 40.48476406 -25.77142959 35.41079416 -25.67959595 30.33682251 C-25.64331318 28.2854164 -25.60974682 26.23396038 -25.57894897 24.1824646 C-25.53353983 21.27241406 -25.47543537 18.3628773 -25.4140625 15.453125 C-25.40249619 14.57390884 -25.39092987 13.69469269 -25.37901306 12.78883362 C-25.25414581 7.62715767 -24.9667228 3.39427124 -21.5625 -0.75 C-15.41177432 -5.67058055 -6.36825232 -2.96453125 0 0 Z M19.8125 8.375 C8.17873538 25.36600227 7.75623298 49.98631205 10.35449219 69.68798828 C12.04338015 78.14158692 16.00052026 84.09984422 22.109375 90.046875 C24 92 24 92 25 95 C24.01 95.639375 23.02 96.27875 22 96.9375 C19.97068401 98.62619794 19.11075511 99.53293969 18.49609375 102.125 C18.339474 108.30625938 20.03713762 112.51370766 23.875 117.375 C25.87451124 119.12666928 25.87451124 119.12666928 28.25 119.5625 C31.12921984 118.97356867 32.42446398 118.14031437 34.8125 116.5 C39.68208973 113.29008318 43.64953366 113.32392376 49.1875 114.44140625 C54.77175039 115.98289203 58.56663244 118.73459901 62.859375 122.57421875 C65.47051091 124.31338774 66.92043078 124.42087446 70 124 C73.18748532 120.69867591 73.95107168 117.74615683 74.25 113.1875 C74.12613659 107.95665272 72.71469308 104.69845546 68.9375 100.95703125 C65.42266905 97.78327765 61.81447822 94.80655231 58 92 C58.43570313 91.58492188 58.87140625 91.16984375 59.3203125 90.7421875 C72.11111239 77.50841619 74.51284326 59.01642009 74.421875 41.4140625 C74.10921676 28.97355554 71.20955676 19.27600429 62.3046875 10.2890625 C54.18219623 2.82219833 44.90138346 1.69013835 34.25 0.625 C28.21012199 1.321909 23.7295837 3.69458717 19.8125 8.375 Z " fill="#0E1113" transform="translate(106,46)"/>
<path d="M0 0 C5.09173811 0.11460504 8.61787632 1.54798385 12.5625 4.8125 C14.83585402 7.68410508 14.90317449 10.58321371 15.01538086 14.09667969 C15.04889145 15.06909607 15.08240204 16.04151245 15.1169281 17.043396 C15.14924026 18.09641907 15.18155243 19.14944214 15.21484375 20.234375 C15.29347274 22.4804739 15.37225389 24.72656748 15.45117188 26.97265625 C15.56993421 30.50040985 15.68640028 34.02821452 15.79956055 37.55615234 C16.26980948 51.99412071 16.81396964 66.13178448 19.75 80.3125 C27.931725 72.86678792 29.16120365 60.87495776 29.75 50.3125 C30.09436485 39.28381 30.30599052 28.25231028 28.75 17.3125 C28.60274419 15.58646878 28.49116709 13.85646987 28.4375 12.125 C28.38142578 10.92810547 28.38142578 10.92810547 28.32421875 9.70703125 C28.93610118 6.2658943 30.21682721 4.69176903 32.75 2.3125 C38.05800821 1.20837943 44.59723484 1.11256579 49.4375 3.875 C54.30665719 9.00735488 54.05829281 15.73171101 54.05078125 22.4375 C54.05506638 23.30205811 54.0593515 24.16661621 54.06376648 25.05737305 C54.06948687 26.88280365 54.07002701 28.70825703 54.06567383 30.53369141 C54.0625408 33.27678188 54.08590754 36.01876339 54.11132812 38.76171875 C54.17702971 57.06147616 52.28696202 76.95820526 39.75 91.3125 C32.82313672 97.71231934 25.42950933 98.84163729 16.296875 98.6875 C9.53668372 97.97276612 4.19437291 95.14162921 -0.5625 90.3125 C-6.83744835 82.20141619 -9.34209191 71.48845939 -9.41113281 61.41821289 C-9.42074036 60.2800563 -9.4303479 59.14189972 -9.44024658 57.96925354 C-9.44449646 56.75350143 -9.44874634 55.53774933 -9.453125 54.28515625 C-9.45882507 53.02287704 -9.46452515 51.76059784 -9.47039795 50.46006775 C-9.47982857 47.79471233 -9.48673593 45.12946897 -9.49023438 42.46411133 C-9.49572239 39.06367571 -9.51977499 35.66363978 -9.54820633 32.26332951 C-9.5713983 28.99980249 -9.57328563 25.73625411 -9.578125 22.47265625 C-9.5904718 21.25892838 -9.6028186 20.0452005 -9.61553955 18.79469299 C-9.5662468 0.04880738 -9.5662468 0.04880738 0 0 Z " fill="#00A0EF" transform="translate(200.25,45.6875)"/>
<path d="M0 0 C4.27253781 2.36269372 6.78535383 4.26235247 8.75 8.875 C9.95002573 16.62839863 9.88502831 24.4993109 9.84765625 32.32421875 C9.8462413 33.46284866 9.84482635 34.60147858 9.84336853 35.77461243 C9.83782209 39.37060298 9.82527989 42.96652863 9.8125 46.5625 C9.80747807 49.01757722 9.80291638 51.47265542 9.79882812 53.92773438 C9.78787028 59.91017797 9.77118647 65.89258434 9.75 71.875 C10.32443848 71.85928955 10.89887695 71.8435791 11.49072266 71.82739258 C14.11871309 71.76464487 16.74654537 71.72588494 19.375 71.6875 C20.27863281 71.66236328 21.18226562 71.63722656 22.11328125 71.61132812 C27.42849364 71.55313237 31.18356334 71.82833054 35.75 74.875 C40.16653826 80.22133579 40.30898948 85.02011848 40.06640625 91.84375 C39.5285702 96.99635215 38.17475335 99.64021377 34.2890625 103.0078125 C29.90631441 105.82114326 25.2912353 105.3452633 20.25 105.1875 C18.7486853 105.15885864 18.7486853 105.15885864 17.21704102 105.12963867 C15.1198835 105.08450145 13.02291895 105.0294057 10.92626953 104.96484375 C7.80312278 104.87650263 4.68279639 104.84036357 1.55859375 104.8125 C-0.39848899 104.77332637 -2.35552547 104.73175069 -4.3125 104.6875 C-5.22128906 104.68210205 -6.13007812 104.6767041 -7.06640625 104.67114258 C-11.27750985 104.52646517 -14.34484246 104.25977853 -17.74609375 101.63671875 C-22.1150705 96.81789416 -22.55067298 92.49988437 -22.515625 86.17578125 C-22.51844482 85.40785248 -22.52126465 84.63992371 -22.52416992 83.84872437 C-22.52848339 81.29480362 -22.51570869 78.74137203 -22.5 76.1875 C-22.49689819 75.3084903 -22.49379639 74.42948059 -22.49060059 73.52383423 C-22.42991062 58.65329278 -22.11254029 43.7863998 -21.61120605 28.92440796 C-21.53716929 26.68617727 -21.4691998 24.44773753 -21.40734863 22.20913696 C-21.31719684 19.05895309 -21.20139533 15.91075879 -21.078125 12.76171875 C-21.05500244 11.81871918 -21.03187988 10.8757196 -21.00805664 9.90414429 C-20.71626647 3.51413189 -20.71626647 3.51413189 -18.38574219 0.31958008 C-12.40021297 -3.72893117 -6.21674208 -2.86502737 0 0 Z " fill="#00A0F0" transform="translate(40.25,45.125)"/>
<path d="M0 0 C3.89727968 2.85005147 6.01005217 6.15642414 6.90405273 10.90429688 C6.94989502 12.09861328 6.9957373 13.29292969 7.04296875 14.5234375 C7.07168564 15.20104126 7.10040253 15.87864502 7.12998962 16.57678223 C7.51281527 27.10278147 7.40179242 37.64896272 7.359375 48.1796875 C7.35434661 50.37109272 7.34978609 52.56249906 7.34570312 54.75390625 C7.33481136 60.06252503 7.31818085 65.37110082 7.296875 70.6796875 C7.87131348 70.66397705 8.44575195 70.6482666 9.03759766 70.63208008 C11.66558809 70.56933237 14.29342037 70.53057244 16.921875 70.4921875 C17.82550781 70.46705078 18.72914063 70.44191406 19.66015625 70.41601562 C24.99001622 70.35765949 28.68667806 70.67978821 33.296875 73.6796875 C37.65991195 78.52102529 37.85646248 84.67767272 37.61328125 90.90625 C37.0436016 95.8997383 35.60123962 98.54716774 31.8359375 101.81640625 C27.02069021 104.35158612 23.14971261 104.15970226 17.796875 103.9921875 C16.2955603 103.96354614 16.2955603 103.96354614 14.76391602 103.93432617 C12.6667585 103.88918895 10.56979395 103.8340932 8.47314453 103.76953125 C5.34999778 103.68119013 2.22967139 103.64505107 -0.89453125 103.6171875 C-2.85161399 103.57801387 -4.80865047 103.53643819 -6.765625 103.4921875 C-7.67441406 103.48678955 -8.58320312 103.4813916 -9.51953125 103.47583008 C-13.73063485 103.33115267 -16.79796746 103.06446603 -20.19921875 100.44140625 C-24.5681955 95.62258166 -25.00379798 91.30457187 -24.96875 84.98046875 C-24.97156982 84.21253998 -24.97438965 83.44461121 -24.97729492 82.65341187 C-24.98160839 80.09949112 -24.96883369 77.54605953 -24.953125 74.9921875 C-24.95002319 74.1131778 -24.94692139 73.23416809 -24.94372559 72.32852173 C-24.88303562 57.45798028 -24.56566529 42.5910873 -24.06433105 27.72909546 C-23.99029429 25.49086477 -23.9223248 23.25242503 -23.86047363 21.01382446 C-23.77032184 17.86364059 -23.65452033 14.71544629 -23.53125 11.56640625 C-23.50812744 10.62340668 -23.48500488 9.6804071 -23.46118164 8.70883179 C-23.16939147 2.31881939 -23.16939147 2.31881939 -20.83886719 -0.87573242 C-13.77071408 -5.65651225 -7.00571216 -3.41361134 0 0 Z " fill="#00A0F0" transform="translate(597.703125,46.3203125)"/>
<path d="M0 0 C3.34194021 1.22109354 5.37296881 2.23082542 7.6262207 4.99487305 C9.58056749 9.26998494 9.58666499 13.24026486 9.73046875 17.89453125 C9.770616 18.84188644 9.81076324 19.78924164 9.85212708 20.76530457 C9.97693009 23.78068036 10.08246807 26.7963772 10.1875 29.8125 C10.26891134 31.86137902 10.35157931 33.91020852 10.43554688 35.95898438 C10.63826499 40.97219907 10.82371297 45.98578911 11 51 C12.32 51.33 13.64 51.66 15 52 C23.77299861 39.45173559 26.24986655 25.93732806 26.47851562 10.93359375 C26.50494141 10.08152344 26.53136719 9.22945312 26.55859375 8.3515625 C26.57204834 7.58666504 26.58550293 6.82176758 26.59936523 6.03369141 C27.11019528 3.4406297 27.87987496 2.55098629 30 1 C35.56514499 0.45260869 39.23761185 0.78815683 44 4 C47.69966228 8.54401316 47.42172332 12.89517733 47.36328125 18.48046875 C47.36402901 19.87076042 47.36402901 19.87076042 47.36479187 21.28913879 C47.36245332 23.25519955 47.3527377 25.22126342 47.33618164 27.18725586 C47.31293582 30.13228628 47.31557954 33.07638763 47.32226562 36.02148438 C47.26272388 76.49792313 47.26272388 76.49792313 35.921875 88.34765625 C27.74449462 95.37820889 17.39005176 96.57972214 6.95703125 96.30859375 C-0.13472174 95.75553503 -5.5776985 93.85571934 -10.625 88.75 C-12.6132641 86.12345794 -13.42879744 84.10502429 -13.625 80.8125 C-12.94610789 76.67125814 -12.32249916 75.44301409 -9 73 C-5.53594291 71.26797146 -1.78782753 71.52569812 2 72 C5.10715878 73.90666562 7.02145727 76.0242082 9.4375 78.75 C11.83232824 81.26819691 11.83232824 81.26819691 15.125 81.4375 C18.19080542 81.17844932 18.19080542 81.17844932 21 79 C22.2332004 76.73341103 22.2332004 76.73341103 23.1875 74.125 C23.53167969 73.26132813 23.87585938 72.39765625 24.23046875 71.5078125 C25.19556886 68.79986786 25.19556886 68.79986786 25 65 C23.71222656 65.23783203 23.71222656 65.23783203 22.3984375 65.48046875 C14.81034572 66.64048738 6.60593523 67.46534492 -0.21875 63.40234375 C-5.18323308 59.49390202 -9.03229814 55.04295018 -11 49 C-11.17645275 46.45890308 -11.25727193 44.03356812 -11.23046875 41.49609375 C-11.23001053 40.77696304 -11.22955231 40.05783234 -11.2290802 39.31690979 C-11.22606754 37.79646147 -11.21821081 36.27601597 -11.20581055 34.75561523 C-11.18774978 32.46912231 -11.18529992 30.18304069 -11.18554688 27.89648438 C-11.13500062 4.5259937 -11.13500062 4.5259937 -8.66479492 1.20483398 C-5.83846947 -0.84061492 -3.37166099 -0.34288078 0 0 Z " fill="#009FEF" transform="translate(486,47)"/>
<path d="M0 0 C1.8046875 1.97265625 1.8046875 1.97265625 3 4 C2.58974359 8.41025641 2.58974359 8.41025641 1 10 C-0.37343068 10.10610194 -1.74902569 10.18469952 -3.125 10.25 C-8.1717989 10.80362341 -11.60330189 12.14571561 -15 16 C-18.42473529 21.8970294 -19.49926469 27.25992671 -19 34 C-18.31035156 33.95359375 -17.62070312 33.9071875 -16.91015625 33.859375 C-9.42684965 33.57195033 -3.15735821 34.49459114 2.71875 39.44921875 C4 41 4 41 4.5 44 C4 47 4 47 2.1875 48.8125 C-0.9406942 49.97790568 -3.13879423 50.19972817 -6.4375 50.375 C-12.05759752 50.76833119 -14.29381216 51.73788398 -18 56 C-21.2774408 61.57164936 -21.63091097 66.7012331 -21 73 C-20.12899451 76.4614054 -20.12899451 76.4614054 -19 79 C-16.45392389 78.64881709 -15.23248408 78.23248408 -13.39453125 76.39453125 C-11.00982325 72.29978053 -11.52309237 67.85445958 -11.40625 63.21484375 C-11 60 -11 60 -9.8359375 58.09375 C-5.75510673 55.66261678 -0.55444503 56.43992635 4 57 C7.73620367 59.09227406 9.39821885 61.10210338 11 65 C11.96367943 72.00949982 11.4721081 77.9498311 7.625 83.9609375 C3.6454052 88.95456367 -0.8122343 93.11445766 -7 95 C-17.06376665 95.92962828 -26.67487474 95.83254251 -35.01953125 89.45703125 C-36.88130991 87.74419488 -38.44242862 85.99137774 -40 84 C-40.43441406 83.46117187 -40.86882813 82.92234375 -41.31640625 82.3671875 C-45.60515272 75.7024456 -44.88201337 66.60827651 -44 59 C-42.53405284 52.5453449 -40.17274492 48.10002156 -36 43 C-36 39.09477997 -39.0671965 35.26160591 -41 32 C-43.37082059 27.25835882 -42.64465189 20.49705521 -41.3515625 15.48828125 C-38.0849489 7.4892659 -32.78937637 1.27704874 -24.89453125 -2.30859375 C-16.30171495 -5.44452877 -7.93682758 -4.64175476 0 0 Z " fill="#00A0F0" transform="translate(896,49)"/>
<path d="M0 0 C1.15171188 -0.01210762 1.15171188 -0.01210762 2.32669067 -0.02445984 C3.94189252 -0.03820916 5.5571223 -0.04897167 7.17236328 -0.05688477 C8.80916989 -0.06841615 10.44593855 -0.08888646 12.08251953 -0.1184082 C30.40896596 -0.44810005 30.40896596 -0.44810005 36.7578125 4.23828125 C40.95481468 9.37960892 42.33878536 13.61519061 41.7578125 20.23828125 C40.125 22.44140625 40.125 22.44140625 37.7578125 24.23828125 C34.83984375 24.6640625 34.83984375 24.6640625 31.5703125 24.55078125 C29.97123047 24.51404297 29.97123047 24.51404297 28.33984375 24.4765625 C24.12721745 24.19633327 19.94882063 23.74181759 15.7578125 23.23828125 C15.65084321 39.53217296 15.66849326 55.7835851 16.40209961 72.06567383 C16.53775183 75.1228058 16.64952299 78.18006947 16.7578125 81.23828125 C16.84289062 82.97996582 16.84289062 82.97996582 16.9296875 84.75683594 C16.98382813 86.49175293 16.98382813 86.49175293 17.0390625 88.26171875 C17.08095703 89.31020996 17.12285156 90.35870117 17.16601562 91.43896484 C16.65047745 94.97434804 15.52010309 96.05261569 12.7578125 98.23828125 C7.96628393 100.41624878 3.92489931 100.81240201 -1.2421875 100.23828125 C-4.46173395 97.70374468 -5.94651185 96.1253082 -7.2421875 92.23828125 C-7.33180703 90.04553106 -7.35976941 87.85009467 -7.35571289 85.65551758 C-7.35585892 84.9918367 -7.35600494 84.32815582 -7.3561554 83.6443634 C-7.35545932 81.45297973 -7.3476812 79.2616813 -7.33984375 77.0703125 C-7.33797849 75.55002387 -7.33655509 74.02973464 -7.33555603 72.50944519 C-7.33173938 68.50963682 -7.32191635 64.50986481 -7.31085205 60.5100708 C-7.30061963 56.42794283 -7.29605448 52.34580898 -7.29101562 48.26367188 C-7.28029333 40.25519166 -7.26322711 32.24674098 -7.2421875 24.23828125 C-8.56827026 24.18764526 -8.56827026 24.18764526 -9.92114258 24.13598633 C-11.08540771 24.07306396 -12.24967285 24.0101416 -13.44921875 23.9453125 C-14.60139893 23.89093018 -15.7535791 23.83654785 -16.94067383 23.78051758 C-22.04178981 22.9427169 -25.10023569 20.22138552 -28.2421875 16.23828125 C-29.7523615 13.67292158 -30.2746935 12.68252997 -30.0546875 9.67578125 C-29.14413652 6.94412831 -28.45215484 6.04025462 -26.2421875 4.23828125 C-23.7890625 3.32421875 -23.7890625 3.32421875 -20.9921875 2.61328125 C-20.07953125 2.37351563 -19.166875 2.13375 -18.2265625 1.88671875 C-12.15870744 0.56831045 -6.19799247 0.06331705 0 0 Z " fill="#009FEF" transform="translate(426.2421875,44.76171875)"/>
<path d="M0 0 C2.92420007 1.91329497 5.40644937 3.81289874 7 7 C7.37996173 10.49564794 7.55717827 12.28702307 5.3515625 15.109375 C2.55371236 17.35880933 0.57636966 17.76350692 -2.9375 18.375 C-8.09849571 19.50031368 -8.09849571 19.50031368 -12.125 22.6875 C-14.3006694 26.5311826 -15.17988403 29.67575216 -16 34 C-15.030625 33.938125 -14.06125 33.87625 -13.0625 33.8125 C-5.94053074 33.82691694 0.44114273 36.66137969 6 41 C8.4457626 44.66864391 8.72100244 47.73406887 8 52 C6.125 54.5 6.125 54.5 4 56 C3.34 56 2.68 56 2 56 C2 56.66 2 57.32 2 58 C2.886875 58.061875 3.77375 58.12375 4.6875 58.1875 C8.75378857 59.18489154 10.18606704 60.99431693 13 64 C12.99547569 62.87033562 12.99547569 62.87033562 12.99085999 61.71784973 C12.96858998 54.61110515 12.97983053 47.50538118 13.02846622 40.39882374 C13.05229453 36.74533165 13.06328279 33.09275096 13.04467773 29.43920898 C13.02718932 25.91135751 13.04375504 22.38514117 13.08367729 18.85748863 C13.09745874 16.86064875 13.07621216 14.86366653 13.05445862 12.86689758 C13.1955512 4.02953011 13.1955512 4.02953011 15.49972534 1.08065796 C24.05111263 -5.23479344 33.82926415 -4.48141235 43.8125 -3.25 C59.66241869 -0.80497479 70.25148152 4.48415349 79.75 17.375 C81.68970494 21.44838036 82.87947581 25.63750976 84 30 C84.31324219 31.20076172 84.31324219 31.20076172 84.6328125 32.42578125 C88.52460595 50.04847974 86.68711389 68.59450169 77 84 C70.90568812 92.05051075 63.04687525 96.02267215 54 100 C52.33130859 100.82564453 52.33130859 100.82564453 50.62890625 101.66796875 C46.26899008 103.26832549 42.66121023 103.48018845 38.0625 103.4375 C37.30259766 103.45748047 36.54269531 103.47746094 35.75976562 103.49804688 C28.85148399 103.4921474 23.47751878 101.47751878 18.5625 96.5625 C16.21085269 91.20074414 16.1721214 85.80049112 16 80 C15.34 80 14.68 80 14 80 C13.9175 80.66 13.835 81.32 13.75 82 C11.88799492 89.44802031 8.46336439 94.78259235 2 99 C-6.66542765 104.07321401 -16.42619071 104.38871721 -26.125 102.33984375 C-33.5286053 99.96452038 -39.47469551 96.14376647 -43.56640625 89.4296875 C-48.941109 78.92528269 -49.87092093 67.69215286 -46.25 56.375 C-44.63712276 52.14695751 -42.77523072 48.56815379 -40 45 C-40.61875 44.13375 -41.2375 43.2675 -41.875 42.375 C-45.85604302 36.05216697 -46.84727971 30.36074249 -46 23 C-43.90460428 14.43983224 -40.09201656 7.42587433 -33.3125 1.75 C-21.2397514 -4.62805586 -12.47943813 -5.91631899 0 0 Z M-37 11 C-41.66850304 18.36134971 -42.82043701 25.34712429 -42 34 C-40.71048986 37.90519895 -38.93412858 41.06587142 -36 44 C-36.45815918 47.88229617 -38.57730897 50.56714881 -40.74609375 53.70703125 C-45.24561308 61.93512424 -45.58574237 73.59056226 -43.34765625 82.63671875 C-42.41436409 84.67554153 -41.40597586 86.25608929 -40 88 C-39.51402344 88.62132812 -39.02804687 89.24265625 -38.52734375 89.8828125 C-33.12861516 95.98350344 -27.13549483 98.60005683 -19.08203125 99.37890625 C-11.88632994 99.69604202 -4.77886794 99.83372599 1 95 C7.17293104 89.10309434 11.09412205 83.71321542 11.4375 75 C11.30500895 69.66061064 10.61015039 66.91959186 7 63 C3.55324591 60.70216394 2.06671888 60.70245117 -2 60.6875 C-3.051875 60.67074219 -4.10375 60.65398437 -5.1875 60.63671875 C-7.94747619 60.80567056 -7.94747619 60.80567056 -9.84765625 62.08984375 C-12.08839147 65.80414722 -11.42881344 70.329484 -11.49609375 74.5546875 C-12.08003696 78.54722941 -13.10217868 80.23365878 -16 83 C-16.99 83 -17.98 83 -19 83 C-21.47830784 77.11401887 -22.22549707 70.86859614 -20.27734375 64.71875 C-18.31403301 60.45828621 -16.22168151 57.24557527 -12 55 C-9.20202669 54.62018462 -6.42321112 54.43273308 -3.60546875 54.2578125 C-0.31972782 53.93268671 1.64285484 53.35714516 4 51 C4.91738597 48.08750447 4.91738597 48.08750447 4 45 C-0.33418899 40.45942106 -4.41048902 38.14397762 -10.82421875 37.88671875 C-13.5531142 37.87623644 -16.27264302 37.91264693 -19 38 C-19.49926469 31.25992671 -18.42473529 25.8970294 -15 20 C-11.61177426 16.15532934 -8.22781889 14.81491121 -3.1875 14.3125 C-2.06408203 14.27576172 -2.06408203 14.27576172 -0.91796875 14.23828125 C1.24003563 14.16965376 1.24003563 14.16965376 3 12 C3.14603837 9.03451971 3.14603837 9.03451971 2 6 C-3.54579679 1.35700734 -9.42437543 -0.51287499 -16.57421875 -0.30859375 C-24.7502786 0.73151692 -31.62207452 4.83960499 -37 11 Z M18 5 C17.69267525 7.66399744 17.69267525 7.66399744 17.74121094 10.81640625 C17.73490662 12.03948486 17.72860229 13.26256348 17.72210693 14.52270508 C17.72569298 15.86930482 17.72979648 17.21590327 17.734375 18.5625 C17.73302607 19.95141671 17.73108364 21.34033295 17.72857666 22.72924805 C17.72562048 25.65483044 17.72992831 28.58029112 17.73925781 31.50585938 C17.75048557 35.20179705 17.74401036 38.89744169 17.73238373 42.59336853 C15.78977876 70.95581425 15.78977876 70.95581425 23.9375 96.375 C29.21853035 100.53581179 37.22569558 99.74298532 43.65722656 99.32128906 C54.82507723 97.78972472 66.2727933 90.88323052 73.25 82.1875 C76.15109282 78.0644795 78.22114457 73.7058812 80 69 C80.35835937 68.17757812 80.71671875 67.35515625 81.0859375 66.5078125 C85.24263971 50.55602366 82.9948493 31.16906596 74.75 17 C68.2040819 7.6014397 59.91462274 3.99759296 49 1 C45.31484901 0.34657036 41.73768526 0.08456302 38 0 C37.13503906 -0.05027344 36.27007813 -0.10054687 35.37890625 -0.15234375 C28.96236588 -0.39650434 22.76484796 0.23515204 18 5 Z " fill="#080D0F" transform="translate(896,45)"/>
<path d="M0 0 C1.02867187 0.00128906 2.05734375 0.00257812 3.1171875 0.00390625 C6.55739629 0.49983245 8.40896733 1.27508374 11.125 3.4375 C13.26617167 7.56947749 13.54951866 11.62706738 13.734375 16.1953125 C13.77149597 17.00300079 13.80861694 17.81068909 13.84686279 18.64285278 C14.34881776 31.06673369 14.3490995 43.50767392 14.36523438 55.93994141 C14.37080043 59.61931129 14.39507037 63.29832616 14.42320633 66.97758293 C14.44181579 69.83949859 14.44703654 72.70132622 14.44857025 75.56329727 C14.45303313 77.57576033 14.47163789 79.58817618 14.49053955 81.60055542 C14.48753845 82.82017975 14.48453735 84.03980408 14.48144531 85.29638672 C14.48509094 86.36492889 14.48873657 87.43347107 14.49249268 88.53439331 C14.07067011 91.86669348 13.10424777 93.7469848 11.125 96.4375 C6.95419693 98.52290153 1.66771136 97.89177114 -2.875 97.4375 C-5.94865786 95.62946596 -7.30519732 94.57710536 -8.875 91.4375 C-9.8558614 82.59132748 -10.03864671 73.70451795 -10 64.8125 C-9.99589111 63.62406494 -9.99178223 62.43562988 -9.98754883 61.21118164 C-9.96748783 57.76306253 -9.93807673 54.3153339 -9.90106201 50.86737061 C-9.88270985 49.15632124 -9.86543403 47.44526016 -9.84893799 45.73419189 C-9.79041688 39.78039899 -9.71146954 33.82731228 -9.61053467 27.87408447 C-9.57858569 25.87932334 -9.55142289 23.88447964 -9.52911377 21.8895874 C-9.49587993 19.07047537 -9.443665 16.25231371 -9.38671875 13.43359375 C-9.37711876 12.15887962 -9.37711876 12.15887962 -9.36732483 10.8584137 C-9.27939369 7.35600614 -9.19217554 5.02757285 -7.5144043 1.90625 C-5.07982236 -0.27490338 -3.21433078 -0.06011841 0 0 Z " fill="#009FEE" transform="translate(375.875,46.5625)"/>
<path d="M0 0 C1.02867187 0.00128906 2.05734375 0.00257812 3.1171875 0.00390625 C6.55739629 0.49983245 8.40896733 1.27508374 11.125 3.4375 C13.26617167 7.56947749 13.54951866 11.62706738 13.734375 16.1953125 C13.77149597 17.00300079 13.80861694 17.81068909 13.84686279 18.64285278 C14.34881776 31.06673369 14.3490995 43.50767392 14.36523438 55.93994141 C14.37080043 59.61931129 14.39507037 63.29832616 14.42320633 66.97758293 C14.44181579 69.83949859 14.44703654 72.70132622 14.44857025 75.56329727 C14.45303313 77.57576033 14.47163789 79.58817618 14.49053955 81.60055542 C14.48753845 82.82017975 14.48453735 84.03980408 14.48144531 85.29638672 C14.48509094 86.36492889 14.48873657 87.43347107 14.49249268 88.53439331 C14.07067011 91.86669348 13.10424777 93.7469848 11.125 96.4375 C6.95419693 98.52290153 1.66771136 97.89177114 -2.875 97.4375 C-5.94865786 95.62946596 -7.30519732 94.57710536 -8.875 91.4375 C-9.8558614 82.59132748 -10.03864671 73.70451795 -10 64.8125 C-9.99589111 63.62406494 -9.99178223 62.43562988 -9.98754883 61.21118164 C-9.96748783 57.76306253 -9.93807673 54.3153339 -9.90106201 50.86737061 C-9.88270985 49.15632124 -9.86543403 47.44526016 -9.84893799 45.73419189 C-9.79041688 39.78039899 -9.71146954 33.82731228 -9.61053467 27.87408447 C-9.57858569 25.87932334 -9.55142289 23.88447964 -9.52911377 21.8895874 C-9.49587993 19.07047537 -9.443665 16.25231371 -9.38671875 13.43359375 C-9.37711876 12.15887962 -9.37711876 12.15887962 -9.36732483 10.8584137 C-9.27939369 7.35600614 -9.19217554 5.02757285 -7.5144043 1.90625 C-5.07982236 -0.27490338 -3.21433078 -0.06011841 0 0 Z " fill="#009FEE" transform="translate(270.875,46.5625)"/>
<path d="M0 0 C1.02867188 0.00128906 2.05734375 0.00257812 3.1171875 0.00390625 C6.55739629 0.49983245 8.40896733 1.27508374 11.125 3.4375 C13.26617167 7.56947749 13.54951866 11.62706738 13.734375 16.1953125 C13.77149597 17.00300079 13.80861694 17.81068909 13.84686279 18.64285278 C14.34881776 31.06673369 14.3490995 43.50767392 14.36523438 55.93994141 C14.37080043 59.61931129 14.39507037 63.29832616 14.42320633 66.97758293 C14.44181579 69.83949859 14.44703654 72.70132622 14.44857025 75.56329727 C14.45303313 77.57576033 14.47163789 79.58817618 14.49053955 81.60055542 C14.48753845 82.82017975 14.48453735 84.03980408 14.48144531 85.29638672 C14.48509094 86.36492889 14.48873657 87.43347107 14.49249268 88.53439331 C14.07067011 91.86669348 13.10424777 93.7469848 11.125 96.4375 C6.95419693 98.52290153 1.66771136 97.89177114 -2.875 97.4375 C-5.94865786 95.62946596 -7.30519732 94.57710536 -8.875 91.4375 C-9.8558614 82.59132748 -10.03864671 73.70451795 -10 64.8125 C-9.99589111 63.62406494 -9.99178223 62.43562988 -9.98754883 61.21118164 C-9.96748783 57.76306253 -9.93807673 54.3153339 -9.90106201 50.86737061 C-9.88270985 49.15632124 -9.86543403 47.44526016 -9.84893799 45.73419189 C-9.79041688 39.78039899 -9.71146954 33.82731228 -9.61053467 27.87408447 C-9.57858569 25.87932334 -9.55142289 23.88447964 -9.52911377 21.8895874 C-9.49587993 19.07047537 -9.443665 16.25231371 -9.38671875 13.43359375 C-9.37711876 12.15887962 -9.37711876 12.15887962 -9.36732483 10.8584137 C-9.27939369 7.35600614 -9.19217554 5.02757285 -7.5144043 1.90625 C-5.07982236 -0.27490338 -3.21433078 -0.06011841 0 0 Z " fill="#009FEE" transform="translate(93.875,46.5625)"/>
<path d="M0 0 C4.38245165 2.01576454 7.25519516 4.13560446 9.91015625 8.27734375 C11.16982268 12.05634304 11.25356981 15.71928764 11.4453125 19.6640625 C11.48828964 20.48107132 11.53126678 21.29808014 11.57554626 22.1398468 C11.71183936 24.74799319 11.84231776 27.35639367 11.97265625 29.96484375 C12.06407018 31.73374379 12.15586246 33.50262432 12.24804688 35.27148438 C12.47314001 39.60655671 12.69301888 43.94186593 12.91015625 48.27734375 C16.97041424 38.87971398 19.34128989 30.82858443 19.97265625 20.52734375 C20.10202545 18.51123369 20.23849883 16.49556421 20.3828125 14.48046875 C20.43703369 13.60036133 20.49125488 12.72025391 20.54711914 11.81347656 C21.13481391 7.70791285 22.24367514 4.98190949 25.09765625 1.96484375 C29.21576614 -0.50602218 32.33997329 -0.31502223 36.9609375 0.75 C42.24826613 2.41286983 44.78541614 4.73226723 47.91015625 9.27734375 C49.12874665 12.93311496 49.05332796 16.29584161 49.04296875 20.1015625 C49.04392548 20.88062454 49.0448822 21.65968658 49.04586792 22.46235657 C49.04654904 24.1191923 49.04469951 25.7760307 49.04052734 27.43286133 C49.03527177 29.91038422 49.04042507 32.38771786 49.046875 34.86523438 C49.06193047 62.46969315 49.06193047 62.46969315 46.22265625 74.65234375 C45.96101685 75.7801123 45.96101685 75.7801123 45.6940918 76.93066406 C43.66243409 85.0572949 40.68570565 91.58611761 33.78515625 96.65234375 C22.83392068 103.07706862 11.52055147 104.94314559 -1.01953125 102.76953125 C-7.54606565 101.04366957 -12.93775802 98.21852758 -16.96484375 92.71484375 C-19.06038857 88.17449663 -19.61061319 84.31144835 -19.08984375 79.27734375 C-16.31915311 74.47481331 -14.06465793 73.00728735 -8.77734375 71.40234375 C-7.21993311 71.00673871 -5.65873566 70.62463244 -4.08984375 70.27734375 C-5.14171875 69.49359375 -6.19359375 68.70984375 -7.27734375 67.90234375 C-12.46073201 63.49698943 -14.97183949 57.63135653 -17.08984375 51.27734375 C-17.2408858 49.20855257 -17.33856665 47.13569309 -17.40625 45.0625 C-17.44814453 43.81791016 -17.49003906 42.57332031 -17.53320312 41.29101562 C-17.57251953 39.98712891 -17.61183594 38.68324219 -17.65234375 37.33984375 C-17.69552734 36.07076172 -17.73871094 34.80167969 -17.78320312 33.49414062 C-17.90405348 29.75545267 -18.00106897 26.01691876 -18.08984375 22.27734375 C-18.12480957 21.14296875 -18.15977539 20.00859375 -18.19580078 18.83984375 C-18.21626465 17.78925781 -18.23672852 16.73867188 -18.2578125 15.65625 C-18.27996826 14.73787354 -18.30212402 13.81949707 -18.32495117 12.87329102 C-17.92302265 8.43538243 -15.962356 4.64876602 -13.08984375 1.27734375 C-8.86616191 -1.33731643 -4.74505573 -1.64081366 0 0 Z M-10.7590332 4.47753906 C-15.5268112 10.92554115 -13.34235851 25.27546752 -13.38500977 33.26953125 C-13.39662146 34.78199551 -13.41721522 36.29441597 -13.4465332 37.80664062 C-13.71541474 51.15520114 -13.71541474 51.15520114 -7.125 62.51953125 C-6.47402344 63.05835938 -5.82304687 63.5971875 -5.15234375 64.15234375 C-4.17974609 64.98378906 -4.17974609 64.98378906 -3.1875 65.83203125 C1.28055431 68.91057891 4.96284892 69.53461157 10.34765625 69.46484375 C11.98541016 69.45517578 11.98541016 69.45517578 13.65625 69.4453125 C16.8122974 69.28239529 19.8071795 68.86236953 22.91015625 68.27734375 C22.35369304 73.70286003 20.55769946 78.53174743 17.91015625 83.27734375 C15.02153916 84.7216523 13.11367924 84.65422881 9.91015625 84.27734375 C7.34765625 82.02734375 7.34765625 82.02734375 4.91015625 79.27734375 C1.81322948 76.09439124 -0.22357863 74.9988799 -4.58984375 74.83984375 C-8.46976464 75.01444019 -11.01321871 75.7775859 -14.08984375 78.27734375 C-15.72822755 81.55411135 -15.73428781 84.74885298 -15.08984375 88.27734375 C-12.33998976 93.67923083 -7.72874064 96.66633444 -2.12109375 98.6171875 C9.16897883 101.07597908 21.3511466 100.03485066 31.25 93.8046875 C38.85077955 87.81748127 42.05070242 79.75174111 43.55078125 70.40625 C44.49561476 62.18003647 45.07373717 54.03501654 45.11328125 45.75390625 C45.11898132 44.80470306 45.1246814 43.85549988 45.1305542 42.87753296 C45.13991503 40.89281298 45.14650216 38.90807809 45.15039062 36.92333984 C45.16020026 33.88872914 45.19134799 30.85476795 45.22265625 27.8203125 C45.22917833 25.88151439 45.23443191 23.94271151 45.23828125 22.00390625 C45.25062805 21.10177399 45.26297485 20.19964172 45.2756958 19.27017212 C45.25860557 14.45801185 45.09464804 11.15366496 41.91015625 7.27734375 C37.1477681 4.06550058 33.47530124 3.72995244 27.91015625 4.27734375 C25.80598109 5.82008563 25.02104761 6.70037092 24.52539062 9.27929688 C24.51830078 10.03146484 24.51121094 10.78363281 24.50390625 11.55859375 C24.48424805 12.39511475 24.46458984 13.23163574 24.44433594 14.09350586 C24.43305664 14.97917236 24.42177734 15.86483887 24.41015625 16.77734375 C24.16482404 24.36444446 23.54788808 31.09925384 20.91015625 38.27734375 C20.513125 39.40140625 20.11609375 40.52546875 19.70703125 41.68359375 C16.15012715 51.36865793 16.15012715 51.36865793 12.91015625 55.27734375 C11.59015625 54.94734375 10.27015625 54.61734375 8.91015625 54.27734375 C8.87051758 53.00616699 8.83087891 51.73499023 8.79003906 50.42529297 C8.63751954 45.69452699 8.46015275 40.96495897 8.27539062 36.23535156 C8.19897824 34.19099638 8.12924315 32.14637997 8.06640625 30.1015625 C7.97473441 27.15660457 7.85882167 24.21343179 7.73828125 21.26953125 C7.71517883 20.35992645 7.69207642 19.45032166 7.66827393 18.51315308 C7.40765027 12.87011598 6.60074437 9.61804714 2.91015625 5.27734375 C-1.04580856 2.92514846 -6.78090678 1.61715154 -10.7590332 4.47753906 Z " fill="#0D1113" transform="translate(488.08984375,43.72265625)"/>
<path d="M0 0 C6.17210719 4.01186968 11.24011966 8.97776923 14.25 15.75 C15.11023755 21.98672223 15.5327352 27.79657816 13.6875 33.875 C11.05048625 37.27759839 8.8631959 38.16127006 4.75 39.375 C-0.50658667 40.02561878 -5.32046164 39.36577511 -10.25 37.375 C-14.6865812 33.6578644 -15.0740005 29.16609932 -15.85546875 23.703125 C-16.01109741 21.42089492 -16.01109741 21.42089492 -17.25 20.375 C-25.2634983 37.62543144 -26.31767832 55.85253622 -22.25 74.375 C-21.59 74.375 -20.93 74.375 -20.25 74.375 C-20.311875 73.488125 -20.37375 72.60125 -20.4375 71.6875 C-20.42424843 65.22073331 -19.53259867 57.09303416 -15.3046875 52.05859375 C-10.63491707 48.23222292 -5.470318 47.99470383 0.34765625 48.1171875 C4.36871113 48.54871534 7.09066356 50.27539188 10.3828125 52.45703125 C12.61113745 55.58305282 12.23549201 59.05118723 12.1875 62.75 C12.17992676 63.55493896 12.17235352 64.35987793 12.16455078 65.18920898 C11.85227038 76.65126739 8.60685166 87.81483904 0.125 95.9296875 C-8.00471573 102.2904373 -17.19830226 103.27403383 -27.25 102.375 C-37.9476008 100.40913155 -45.97965279 92.92791472 -52.25 84.375 C-57.78603325 74.66241508 -59.61762666 65.12853264 -59.5 54.0625 C-59.49323242 53.13751709 -59.48646484 52.21253418 -59.47949219 51.25952148 C-59.37690484 44.46072415 -58.85335435 38.00035503 -57.25 31.375 C-57.00507812 30.27285156 -56.76015625 29.17070313 -56.5078125 28.03515625 C-53.57132102 16.27619701 -48.12798988 2.91006616 -37.25 -3.625 C-25.43300702 -8.43993499 -10.96326793 -6.01642752 0 0 Z M-40.875 4.0703125 C-51.94403971 17.74057654 -55.42837908 34.56753688 -55.4375 51.6875 C-55.44974609 52.88568359 -55.46199219 54.08386719 -55.47460938 55.31835938 C-55.49645547 68.53524963 -52.447654 79.64061201 -43.28125 89.55078125 C-35.03555782 96.95604711 -27.61594018 98.77521117 -16.79296875 98.640625 C-9.45795514 98.09070116 -5.00338529 95.50178933 0.0625 90.25 C7.45175577 81.30046313 9.12084813 71.19465751 9.04296875 59.83984375 C8.92700034 57.17775336 8.92700034 57.17775336 6.875 54.75 C3.35199129 52.47040613 1.14240153 52.16101187 -3.0625 52.0625 C-4.10019531 52.02511719 -5.13789062 51.98773438 -6.20703125 51.94921875 C-10.29812207 52.52165636 -11.58330439 53.16398745 -14.25 56.375 C-15.5114226 60.37172594 -16.19192323 64.43277177 -16.875 68.5625 C-17.25099811 70.76640784 -17.63841401 72.96840854 -18.0390625 75.16796875 C-18.20100098 76.1427417 -18.36293945 77.11751465 -18.52978516 78.12182617 C-18.76745605 78.86537354 -19.00512695 79.6089209 -19.25 80.375 C-20.24 80.705 -21.23 81.035 -22.25 81.375 C-23.47191609 78.36720655 -24.65584077 75.34589553 -25.8125 72.3125 C-26.06128906 71.66152344 -26.31007813 71.01054688 -26.56640625 70.33984375 C-31.51185261 56.12521792 -28.88528675 36.74530862 -22.68188477 23.40576172 C-21.32314928 20.62706401 -19.94218446 17.96711892 -18.25 15.375 C-17.26 15.045 -16.27 14.715 -15.25 14.375 C-13.7028012 18.66628724 -12.33494224 22.63478905 -11.8125 27.1875 C-11.15639925 30.90540425 -10.17227303 32.07260307 -7.25 34.375 C-3.26781621 36.36609189 1.4189239 35.88050024 5.75 35.375 C9.20515248 33.92037379 9.20515248 33.92037379 10.75 30.375 C11.84356161 24.0101297 11.77010331 18.12948754 8.375 12.5 C2.86102585 5.44211309 -5.32323125 -0.20483224 -14.25 -1.625 C-23.80786616 -2.49919508 -33.77749358 -3.33429756 -40.875 4.0703125 Z " fill="#080B0D" transform="translate(760.25,46.625)"/>
<path d="M0 0 C4.2897378 1.45146907 8.10065864 3.46182072 11 7 C11.94921875 9.48046875 11.94921875 9.48046875 12.6875 12.1875 C12.93886719 13.08855469 13.19023438 13.98960938 13.44921875 14.91796875 C13.63097656 15.60503906 13.81273437 16.29210937 14 17 C14.65355469 15.86111328 14.65355469 15.86111328 15.3203125 14.69921875 C21.48896893 4.40477262 21.48896893 4.40477262 27 3 C33.48122285 2.07098829 38.0282776 2.78434016 43.37109375 6.6484375 C46.55206978 9.2878085 47.81194471 10.75850222 48.44140625 14.9140625 C48.34461183 21.70199117 43.46006863 27.86043041 40.17773438 33.55078125 C36.93741935 39.30771927 36.93741935 39.30771927 35.87890625 45.71875 C36.97743053 48.93394302 38.29668857 51.7775635 39.89013672 54.76806641 C42.03164125 59.07462919 43.50344491 63.64499399 45.0625 68.1875 C45.41248047 69.20328125 45.76246094 70.2190625 46.12304688 71.265625 C53.16275752 92.02680556 53.16275752 92.02680556 52 100 C50.14037449 103.21858262 48.69479645 104.65260178 45.375 106.3125 C38.38830107 107.73571645 31.99464938 107.99598686 25.68359375 104.30078125 C18.94241634 99.09240056 18.43266399 89.82538439 17 82 C16.94392578 83.19496094 16.94392578 83.19496094 16.88671875 84.4140625 C16.195891 95.5485804 16.195891 95.5485804 13 100 C7.0023394 104.34830393 1.18962114 104.58065956 -6 104 C-10.17554556 102.3120135 -12.58920744 99.7883883 -15 96 C-18.05945181 78.76560711 -17.27889776 60.73018055 -17.35009766 43.27612305 C-17.36357349 40.28037926 -17.39172998 37.28529472 -17.43212891 34.28979492 C-17.48146635 30.62614634 -17.50621151 26.96310546 -17.51332474 23.29913902 C-17.52000636 21.91685948 -17.53514753 20.53459202 -17.55921555 19.15250587 C-17.75767669 7.10328797 -17.75767669 7.10328797 -14.59228516 3.17456055 C-9.95473153 -0.71569092 -5.89584999 -0.63692394 0 0 Z M-13 7 C-14.20298095 13.96899306 -14.15490089 20.94286542 -14.125 28 C-14.12234131 29.15411377 -14.11968262 30.30822754 -14.11694336 31.49731445 C-14.06677904 41.06473039 -13.84694341 50.62470477 -13.5625 60.1875 C-13.5429425 60.86143799 -13.52338501 61.53537598 -13.50323486 62.22973633 C-13.36681103 66.82131681 -13.19092676 71.41039274 -13 76 C-12.9754071 76.70852112 -12.95081421 77.41704224 -12.92547607 78.14703369 C-12.84828485 80.30327386 -12.75235158 82.45799162 -12.65234375 84.61328125 C-12.59941162 85.88598877 -12.54647949 87.15869629 -12.49194336 88.4699707 C-11.96364294 92.26088675 -11.00668839 94.7544902 -9 98 C-4.53648425 100.97567717 -0.23577358 100.50042344 5 100 C9.36936489 98.48130027 9.36936489 98.48130027 12 95 C12.15520557 92.67726841 12.25019167 90.35040687 12.31640625 88.0234375 C12.33718735 87.33819 12.35796844 86.6529425 12.37937927 85.94692993 C12.44480185 83.75638931 12.50372554 81.56572811 12.5625 79.375 C12.60569218 77.8906125 12.6493067 76.40623722 12.69335938 74.921875 C12.80047553 71.28137916 12.90176362 67.64074749 13 64 C13.66 64 14.32 64 15 64 C18.19742673 71.78814555 20.26823227 79.7136512 22.07299805 87.91699219 C23.40160112 93.63182062 24.87854209 98.820632 29.94140625 102.35546875 C34.98534769 103.9346914 40.30218298 103.79693452 45.0625 101.5625 C46.89013772 100.14537332 46.89013772 100.14537332 48 99 C48.62232163 91.71365087 46.69933836 85.58936105 44.5 78.6875 C44.14558838 77.54627686 43.79117676 76.40505371 43.42602539 75.22924805 C40.8942196 67.27286035 37.9676595 59.58044225 34.3515625 52.05151367 C32.15353095 47.28601052 31.53146128 44.24478113 33 39 C34.22032642 36.54840253 35.43687705 34.30924401 36.875 32 C42.09137322 23.71079984 42.09137322 23.71079984 44.125 14.3125 C43.24411041 10.76993086 43.24411041 10.76993086 40.0625 8.5625 C35.68581386 6.49598221 30.67756776 5.60124179 26 7 C21.8033295 11.26959842 18.79534929 16.28273138 15.6875 21.375 C15.23310547 22.11105469 14.77871094 22.84710938 14.31054688 23.60546875 C13.20286364 25.40108157 12.10083839 27.20018268 11 29 C10.90203125 27.75863281 10.8040625 26.51726562 10.703125 25.23828125 C10.55299828 23.59627026 10.40190569 21.95434737 10.25 20.3125 C10.188125 19.49587891 10.12625 18.67925781 10.0625 17.83789062 C9.56953949 12.76450541 8.86770366 9.63814571 5 6 C1.86559129 3.86963186 -0.81480243 3.70279672 -4.5625 3.6875 C-5.98755859 3.66236328 -5.98755859 3.66236328 -7.44140625 3.63671875 C-10.47274543 4.06712263 -11.11951858 4.65595651 -13 7 Z " fill="#080A0C" transform="translate(794,42)"/>
<path d="M0 0 C8.14644708 6.67165925 12.23879079 14.46425991 14.8125 24.484375 C15.12574219 25.68513672 15.12574219 25.68513672 15.4453125 26.91015625 C19.33710595 44.53285474 17.49961389 63.07887669 7.8125 78.484375 C1.71818812 86.53488575 -6.14062475 90.50704715 -15.1875 94.484375 C-16.29996094 95.03480469 -17.41242188 95.58523437 -18.55859375 96.15234375 C-22.91850992 97.75270049 -26.52628977 97.96456345 -31.125 97.921875 C-31.88490234 97.94185547 -32.64480469 97.96183594 -33.42773438 97.98242188 C-39.1201291 97.97756074 -43.42356576 96.62816604 -48.1875 93.484375 C-60.19734298 81.15848352 -55.53631186 49.63585006 -55.64746094 33.43457031 C-55.66992897 30.45288163 -55.71203393 27.47240702 -55.77050781 24.49121094 C-55.84155147 20.8580427 -55.87827344 17.22603571 -55.89057922 13.59220886 C-55.90095412 12.21739905 -55.92331844 10.84262295 -55.95817566 9.46821594 C-56.21496916 -1.18296531 -56.21496916 -1.18296531 -53.69897461 -4.44628906 C-39.37589281 -15.03464481 -13.65993269 -9.22045457 0 0 Z M-51.1875 -0.515625 C-51.49482475 2.14837244 -51.49482475 2.14837244 -51.44628906 5.30078125 C-51.45259338 6.52385986 -51.45889771 7.74693848 -51.46539307 9.00708008 C-51.46180702 10.35367982 -51.45770352 11.70027827 -51.453125 13.046875 C-51.45447393 14.43579171 -51.45641636 15.82470795 -51.45892334 17.21362305 C-51.46187952 20.13920544 -51.45757169 23.06466612 -51.44824219 25.99023438 C-51.43701443 29.68617205 -51.44348964 33.38181669 -51.45511627 37.07774353 C-53.39772124 65.44018925 -53.39772124 65.44018925 -45.25 90.859375 C-39.96896965 95.02018679 -31.96180442 94.22736032 -25.53027344 93.80566406 C-14.36242277 92.27409972 -2.9147067 85.36760552 4.0625 76.671875 C6.96359282 72.5488545 9.03364457 68.1902562 10.8125 63.484375 C11.17085937 62.66195312 11.52921875 61.83953125 11.8984375 60.9921875 C16.05513971 45.04039866 13.8073493 25.65344096 5.5625 11.484375 C-0.9834181 2.0858147 -9.27287726 -1.51803204 -20.1875 -4.515625 C-23.87265099 -5.16905464 -27.44981474 -5.43106198 -31.1875 -5.515625 C-32.05246094 -5.56589844 -32.91742188 -5.61617187 -33.80859375 -5.66796875 C-40.22513412 -5.91212934 -46.42265204 -5.28047296 -51.1875 -0.515625 Z " fill="#070C0F" transform="translate(345.1875,50.515625)"/>
<path d="M0 0 C4.27253781 2.36269372 6.78535383 4.26235247 8.75 8.875 C9.95002573 16.62839863 9.88502831 24.4993109 9.84765625 32.32421875 C9.8462413 33.46284866 9.84482635 34.60147858 9.84336853 35.77461243 C9.83782209 39.37060298 9.82527989 42.96652863 9.8125 46.5625 C9.80747807 49.01757722 9.80291638 51.47265542 9.79882812 53.92773438 C9.78787028 59.91017797 9.77118647 65.89258434 9.75 71.875 C10.32443848 71.85928955 10.89887695 71.8435791 11.49072266 71.82739258 C14.11871309 71.76464487 16.74654537 71.72588494 19.375 71.6875 C20.27863281 71.66236328 21.18226562 71.63722656 22.11328125 71.61132812 C27.42849364 71.55313237 31.18356334 71.82833054 35.75 74.875 C40.16653826 80.22133579 40.30898948 85.02011848 40.06640625 91.84375 C39.5285702 96.99635215 38.17475335 99.64021377 34.2890625 103.0078125 C29.90631441 105.82114326 25.2912353 105.3452633 20.25 105.1875 C18.7486853 105.15885864 18.7486853 105.15885864 17.21704102 105.12963867 C15.1198835 105.08450145 13.02291895 105.0294057 10.92626953 104.96484375 C7.80312278 104.87650263 4.68279639 104.84036357 1.55859375 104.8125 C-0.39848899 104.77332637 -2.35552547 104.73175069 -4.3125 104.6875 C-5.22128906 104.68210205 -6.13007812 104.6767041 -7.06640625 104.67114258 C-11.27750985 104.52646517 -14.34484246 104.25977853 -17.74609375 101.63671875 C-22.1150705 96.81789416 -22.55067298 92.49988437 -22.515625 86.17578125 C-22.51844482 85.40785248 -22.52126465 84.63992371 -22.52416992 83.84872437 C-22.52848339 81.29480362 -22.51570869 78.74137203 -22.5 76.1875 C-22.49689819 75.3084903 -22.49379639 74.42948059 -22.49060059 73.52383423 C-22.42991062 58.65329278 -22.11254029 43.7863998 -21.61120605 28.92440796 C-21.53716929 26.68617727 -21.4691998 24.44773753 -21.40734863 22.20913696 C-21.31719684 19.05895309 -21.20139533 15.91075879 -21.078125 12.76171875 C-21.05500244 11.81871918 -21.03187988 10.8757196 -21.00805664 9.90414429 C-20.71626647 3.51413189 -20.71626647 3.51413189 -18.38574219 0.31958008 C-12.40021297 -3.72893117 -6.21674208 -2.86502737 0 0 Z M-16.25 3.875 C-17.39499291 7.30997873 -17.46080208 10.09846049 -17.56640625 13.72265625 C-17.58745926 14.42664551 -17.60851227 15.13063477 -17.63020325 15.85595703 C-17.69770898 18.21634629 -17.75641297 20.57681264 -17.8125 22.9375 C-17.83201721 23.7508078 -17.85153442 24.5641156 -17.87164307 25.40206909 C-17.99841992 30.86768475 -18.10280147 36.33353177 -18.19671631 41.79980469 C-18.23327706 43.90985844 -18.27149019 46.01988402 -18.31109619 48.12988281 C-18.43777084 54.94331937 -18.53320441 61.75614789 -18.59103394 68.57052612 C-18.61364207 70.81161626 -18.64480433 73.05263674 -18.68460083 75.29348755 C-18.73839362 78.45768488 -18.75985795 81.62056427 -18.7734375 84.78515625 C-18.80737358 86.20622681 -18.80737358 86.20622681 -18.84199524 87.65600586 C-18.82730105 92.26275257 -18.76915594 94.2134473 -15.84228516 97.94311523 C-12.66724268 100.30929635 -11.11641449 100.99938186 -7.24682617 101.06787109 C-6.42224411 101.08393402 -5.59766205 101.09999695 -4.74809265 101.11654663 C-0.97521801 101.16102528 2.79748109 101.20206263 6.57055664 101.22509766 C8.55993347 101.24165551 10.54925085 101.26894328 12.53833008 101.30712891 C15.40737755 101.36192264 18.27503087 101.38377517 21.14453125 101.3984375 C22.03114944 101.42110687 22.91776764 101.44377625 23.83125305 101.46713257 C28.28888594 101.45190016 30.1541067 101.33502982 33.7878418 98.52978516 C36.974794 94.21786301 37.31421125 90.10137785 36.75 84.875 C35.30890597 81.23795315 33.84608244 78.30072046 30.75 75.875 C28.1431977 75.37020343 28.1431977 75.37020343 25.20703125 75.36328125 C23.59731445 75.31010742 23.59731445 75.31010742 21.95507812 75.25585938 C20.27575195 75.22202148 20.27575195 75.22202148 18.5625 75.1875 C17.43134766 75.15333984 16.30019531 75.11917969 15.13476562 75.08398438 C12.3399426 75.00143686 9.54543602 74.93230818 6.75 74.875 C6.74120064 73.70775139 6.74120064 73.70775139 6.73222351 72.516922 C6.67426262 65.17490826 6.60216692 57.83323257 6.51428509 50.49152088 C6.46960263 46.71726947 6.43034212 42.94312546 6.40356445 39.16870117 C6.37750982 35.52452822 6.33709291 31.88076905 6.28681374 28.23685265 C6.27015947 26.84828536 6.2586362 25.45964652 6.25238609 24.07099342 C6.24273028 22.1224898 6.21295739 20.17411758 6.18237305 18.22583008 C6.17126999 17.1177449 6.16016693 16.00965973 6.14872742 14.86799622 C5.69622815 11.47136851 4.77816255 9.61552899 2.75 6.875 C-3.15006943 2.44994792 -9.51132452 -0.61745032 -16.25 3.875 Z " fill="#06080A" transform="translate(40.25,45.125)"/>
<path d="M0 0 C3.89727968 2.85005147 6.01005217 6.15642414 6.90405273 10.90429688 C6.94989502 12.09861328 6.9957373 13.29292969 7.04296875 14.5234375 C7.07168564 15.20104126 7.10040253 15.87864502 7.12998962 16.57678223 C7.51281527 27.10278147 7.40179242 37.64896272 7.359375 48.1796875 C7.35434661 50.37109272 7.34978609 52.56249906 7.34570312 54.75390625 C7.33481136 60.06252503 7.31818085 65.37110082 7.296875 70.6796875 C7.87131348 70.66397705 8.44575195 70.6482666 9.03759766 70.63208008 C11.66558809 70.56933237 14.29342037 70.53057244 16.921875 70.4921875 C17.82550781 70.46705078 18.72914063 70.44191406 19.66015625 70.41601562 C24.99001622 70.35765949 28.68667806 70.67978821 33.296875 73.6796875 C37.65991195 78.52102529 37.85646248 84.67767272 37.61328125 90.90625 C37.0436016 95.8997383 35.60123962 98.54716774 31.8359375 101.81640625 C27.02069021 104.35158612 23.14971261 104.15970226 17.796875 103.9921875 C16.2955603 103.96354614 16.2955603 103.96354614 14.76391602 103.93432617 C12.6667585 103.88918895 10.56979395 103.8340932 8.47314453 103.76953125 C5.34999778 103.68119013 2.22967139 103.64505107 -0.89453125 103.6171875 C-2.85161399 103.57801387 -4.80865047 103.53643819 -6.765625 103.4921875 C-7.67441406 103.48678955 -8.58320312 103.4813916 -9.51953125 103.47583008 C-13.73063485 103.33115267 -16.79796746 103.06446603 -20.19921875 100.44140625 C-24.5681955 95.62258166 -25.00379798 91.30457187 -24.96875 84.98046875 C-24.97156982 84.21253998 -24.97438965 83.44461121 -24.97729492 82.65341187 C-24.98160839 80.09949112 -24.96883369 77.54605953 -24.953125 74.9921875 C-24.95002319 74.1131778 -24.94692139 73.23416809 -24.94372559 72.32852173 C-24.88303562 57.45798028 -24.56566529 42.5910873 -24.06433105 27.72909546 C-23.99029429 25.49086477 -23.9223248 23.25242503 -23.86047363 21.01382446 C-23.77032184 17.86364059 -23.65452033 14.71544629 -23.53125 11.56640625 C-23.50812744 10.62340668 -23.48500488 9.6804071 -23.46118164 8.70883179 C-23.16939147 2.31881939 -23.16939147 2.31881939 -20.83886719 -0.87573242 C-13.77071408 -5.65651225 -7.00571216 -3.41361134 0 0 Z M-18.703125 2.6796875 C-19.84811791 6.11466623 -19.91392708 8.90314799 -20.01953125 12.52734375 C-20.04058426 13.23133301 -20.06163727 13.93532227 -20.08332825 14.66064453 C-20.15083398 17.02103379 -20.20953797 19.38150014 -20.265625 21.7421875 C-20.28514221 22.5554953 -20.30465942 23.3688031 -20.32476807 24.20675659 C-20.45154492 29.67237225 -20.55592647 35.13821927 -20.64984131 40.60449219 C-20.68640206 42.71454594 -20.72461519 44.82457152 -20.76422119 46.93457031 C-20.89089584 53.74800687 -20.98632941 60.56083539 -21.04415894 67.37521362 C-21.06676707 69.61630376 -21.09792933 71.85732424 -21.13772583 74.09817505 C-21.19151862 77.26237238 -21.21298295 80.42525177 -21.2265625 83.58984375 C-21.26049858 85.01091431 -21.26049858 85.01091431 -21.29512024 86.46069336 C-21.28042605 91.06744007 -21.22228094 93.0181348 -18.29541016 96.74780273 C-15.12036768 99.11398385 -13.56953949 99.80406936 -9.69995117 99.87255859 C-8.87536911 99.88862152 -8.05078705 99.90468445 -7.20121765 99.92123413 C-3.42834301 99.96571278 0.34435609 100.00675013 4.11743164 100.02978516 C6.10680847 100.04634301 8.09612585 100.07363078 10.08520508 100.11181641 C12.95425255 100.16661014 15.82190587 100.18846267 18.69140625 100.203125 C19.57802444 100.22579437 20.46464264 100.24846375 21.37812805 100.27182007 C25.83576094 100.25658766 27.7009817 100.13971732 31.3347168 97.33447266 C34.521669 93.02255051 34.86108625 88.90606535 34.296875 83.6796875 C32.85578097 80.04264065 31.39295744 77.10540796 28.296875 74.6796875 C25.6900727 74.17489093 25.6900727 74.17489093 22.75390625 74.16796875 C21.14418945 74.11479492 21.14418945 74.11479492 19.50195312 74.06054688 C17.82262695 74.02670898 17.82262695 74.02670898 16.109375 73.9921875 C14.97822266 73.95802734 13.84707031 73.92386719 12.68164062 73.88867188 C9.8868176 73.80612436 7.09231102 73.73699568 4.296875 73.6796875 C4.28807564 72.51243889 4.28807564 72.51243889 4.27909851 71.3216095 C4.22113762 63.97959576 4.14904192 56.63792007 4.06116009 49.29620838 C4.01647763 45.52195697 3.97721712 41.74781296 3.95043945 37.97338867 C3.92438482 34.32921572 3.88396791 30.68545655 3.83368874 27.04154015 C3.81703447 25.65297286 3.8055112 24.26433402 3.79926109 22.87568092 C3.78960528 20.9271773 3.75983239 18.97880508 3.72924805 17.03051758 C3.71814499 15.9224324 3.70704193 14.81434723 3.69560242 13.67268372 C3.24310315 10.27605601 2.32503755 8.42021649 0.296875 5.6796875 C-5.60319443 1.25463542 -11.96444952 -1.81276282 -18.703125 2.6796875 Z " fill="#050709" transform="translate(597.703125,46.3203125)"/>
<path d="M0 0 C8.61511959 5.79049022 13.59197405 14.01929112 15.83984375 24.0390625 C17.08222853 30.53059781 17.05033312 37.04267587 17.01074219 43.62695312 C17.00001829 45.74638469 17.01069362 47.86496899 17.0234375 49.984375 C17.04206341 65.60351291 14.07140227 80.56117925 3.74609375 92.91015625 C-2.82160527 98.96374967 -10.82871606 101.08891594 -19.53125 100.9609375 C-27.63519877 100.33218285 -34.44614091 97.47595494 -40.25 91.75 C-44.5304262 86.44227152 -47.08490364 80.16201616 -49.25 73.75 C-49.70246094 72.45642578 -49.70246094 72.45642578 -50.1640625 71.13671875 C-56.11380434 50.59064762 -53.44212317 24.08049431 -44.25 4.75 C-41.39593167 -0.31972664 -38.20364863 -3.9772501 -32.5390625 -5.80078125 C-20.82392028 -8.09982793 -10.25431272 -5.78398136 0 0 Z M-38.7890625 3.43359375 C-49.68332673 21.02900612 -51.32349777 47.30382205 -47.3046875 67.22265625 C-44.63283599 78.18945722 -40.69500423 87.15902965 -31.25 93.75 C-24.38443493 97.86933904 -16.37487975 97.97719259 -8.65625 96.12890625 C0.19978949 92.71690473 4.89847783 85.36222422 8.7578125 77.05078125 C9.94830289 74.29015589 10.97765085 71.66116219 11.75 68.75 C11.93433594 68.07839844 12.11867188 67.40679687 12.30859375 66.71484375 C16.27447861 49.45640686 15.79166465 26.42559193 6.4140625 11.01953125 C1.36308016 4.13075017 -5.91050441 -0.41636478 -14.25 -2.25 C-17.05676288 -2.42155565 -19.81720733 -2.5263171 -22.625 -2.5625 C-23.3675 -2.59150391 -24.11 -2.62050781 -24.875 -2.65039062 C-30.8921953 -2.71949269 -34.61748276 -1.12973333 -38.7890625 3.43359375 Z " fill="#090C0E" transform="translate(683.25,49.25)"/>
<path d="M0 0 C3.125 0.4375 3.125 0.4375 5.3125 2.5625 C13.04792063 14.83247756 14.05923782 29.5622187 11.4375 43.6875 C9.38148319 52.18570282 6.35088179 59.21161821 0.125 65.4375 C-0.865 65.4375 -1.855 65.4375 -2.875 65.4375 C-4.46655208 52.14858392 -5.19588075 39.05013503 -5.13574219 25.66699219 C-5.12477139 22.75175296 -5.13584683 19.83709865 -5.1484375 16.921875 C-5.14711976 15.05989448 -5.14456543 13.19791432 -5.140625 11.3359375 C-5.14467346 10.46842865 -5.14872192 9.6009198 -5.15289307 8.7071228 C-5.09008209 0.77457771 -5.09008209 0.77457771 0 0 Z " fill="#050B0F" transform="translate(941.875,59.5625)"/>
<path d="M0 0 C3.125 0.4375 3.125 0.4375 5.3125 2.5625 C13.04792063 14.83247756 14.05923782 29.5622187 11.4375 43.6875 C9.38148319 52.18570282 6.35088179 59.21161821 0.125 65.4375 C-0.865 65.4375 -1.855 65.4375 -2.875 65.4375 C-4.46655208 52.14858392 -5.19588075 39.05013503 -5.13574219 25.66699219 C-5.12477139 22.75175296 -5.13584683 19.83709865 -5.1484375 16.921875 C-5.14711976 15.05989448 -5.14456543 13.19791432 -5.140625 11.3359375 C-5.14467346 10.46842865 -5.14872192 9.6009198 -5.15289307 8.7071228 C-5.09008209 0.77457771 -5.09008209 0.77457771 0 0 Z " fill="#050B0F" transform="translate(321.875,59.5625)"/>
<path d="M0 0 C3.76032904 2.59554419 4.21398279 6.7582877 5 11 C5.26375142 13.85054987 5.2939908 16.67829116 5.29052734 19.53979492 C5.30060318 20.75844994 5.30060318 20.75844994 5.31088257 22.00172424 C5.3297326 24.6613695 5.33377902 27.32076106 5.3359375 29.98046875 C5.34237054 31.84035849 5.34909927 33.70024723 5.35610962 35.56013489 C5.36804694 39.44595692 5.37179371 43.33169024 5.37060547 47.2175293 C5.37040157 52.19429339 5.39779208 57.17049098 5.43214989 62.14712048 C5.45438299 65.98271805 5.45844424 69.81817797 5.45738602 73.65383339 C5.45974398 75.48904703 5.46857852 77.32426436 5.48405075 79.15941429 C5.50365422 81.72281239 5.49789727 84.28497048 5.48583984 86.84838867 C5.49707886 87.60330597 5.50831787 88.35822327 5.51989746 89.13601685 C5.4612657 94.04310113 4.51338271 96.56850436 1 100 C-4.09244108 102.71926465 -9.3658523 102.66094437 -15 102 C-18.3412159 100.84867516 -21.09044858 99.3563486 -23.11328125 96.33984375 C-28.00927576 83.42045737 -26.26630825 66.7842761 -26.03643799 53.24969482 C-25.99491757 50.68620894 -25.95998464 48.12266929 -25.92529297 45.55908203 C-25.85504758 40.48476406 -25.77142959 35.41079416 -25.67959595 30.33682251 C-25.64331318 28.2854164 -25.60974682 26.23396038 -25.57894897 24.1824646 C-25.53353983 21.27241406 -25.47543537 18.3628773 -25.4140625 15.453125 C-25.40249619 14.57390884 -25.39092987 13.69469269 -25.37901306 12.78883362 C-25.25414581 7.62715767 -24.9667228 3.39427124 -21.5625 -0.75 C-15.41177432 -5.67058055 -6.36825232 -2.96453125 0 0 Z M-19.64160156 2.46655273 C-21.66724203 6.24442317 -21.47987982 9.76842947 -21.51171875 13.99609375 C-21.52976059 14.88912704 -21.54780243 15.78216034 -21.56639099 16.70225525 C-21.62127068 19.61396163 -21.65493437 22.52546547 -21.6875 25.4375 C-21.7195983 27.44158432 -21.75264308 29.4456537 -21.78662109 31.44970703 C-21.88006924 37.29963191 -21.94359772 43.14961701 -22 49 C-22.01675713 50.56233732 -22.0335209 52.12467456 -22.05029297 53.68701172 C-22.08941453 57.58298058 -22.11152948 61.47884905 -22.125 65.375 C-22.12975342 66.46868896 -22.13450684 67.56237793 -22.1394043 68.68920898 C-22.13289769 71.79527245 -22.081938 74.89503192 -22 78 C-21.9700293 79.2262207 -21.94005859 80.45244141 -21.90917969 81.71582031 C-21.85407227 82.95686523 -21.79896484 84.19791016 -21.7421875 85.4765625 C-21.69690918 86.60400879 -21.65163086 87.73145508 -21.60498047 88.89306641 C-20.88550837 92.58798246 -19.59079626 94.31426265 -17 97 C-14.30893093 98.34553453 -12.12834578 98.20594114 -9.125 98.25 C-8.07570313 98.27578125 -7.02640625 98.3015625 -5.9453125 98.328125 C-2.64472815 97.96042064 -1.33336396 97.3225111 1 95 C2.07244229 91.78267312 2.12688628 89.4687171 2.12939453 86.0859375 C2.13254669 84.86616211 2.13569885 83.64638672 2.13894653 82.38964844 C2.13715343 81.05143193 2.13510166 79.71321575 2.1328125 78.375 C2.13348725 76.98990868 2.1344587 75.60481748 2.13571167 74.21972656 C2.13718842 71.30435061 2.13504003 68.38900522 2.13037109 65.47363281 C2.12475774 61.79467779 2.1280168 58.11579621 2.13377762 54.43684387 C2.17300449 35.62028341 2.17300449 35.62028341 1.6796875 16.8125 C1.65770294 16.08321289 1.63571838 15.35392578 1.61306763 14.60253906 C1.37718053 10.09529147 0.33364471 6.85760576 -2 3 C-5.13261299 0.65899764 -8.22777684 0.67251825 -12.0625 0.625 C-13.10535156 0.59664062 -14.14820312 0.56828125 -15.22265625 0.5390625 C-18.01200749 0.74745837 -18.01200749 0.74745837 -19.64160156 2.46655273 Z " fill="#07090A" transform="translate(106,46)"/>
<path d="M0 0 C3 1 3 1 4.31640625 2.96875 C11.91352243 18.40113647 11.88778275 34.06108826 6.4453125 50.21484375 C4.78488821 54.75898451 2.69393457 58.97629347 0 63 C-0.99 62.67 -1.98 62.34 -3 62 C-10.24505883 45.83794569 -9.05143177 22.48859021 -2.91015625 6.08984375 C-2.01391077 4.0262465 -1.02019713 2.00521505 0 0 Z " fill="#040C10" transform="translate(147,63)"/>
<path d="M0 0 C7.56742641 6.78458919 8.53237889 15.38797212 9.12988281 25.11425781 C9.74320371 39.10912555 9.50071134 54.75263978 0 66 C-0.66 66 -1.32 66 -2 66 C-2.6483289 63.77155786 -3.29356369 61.5422154 -3.9375 59.3125 C-4.29714844 58.07113281 -4.65679688 56.82976562 -5.02734375 55.55078125 C-9.77856621 38.20595707 -8.45089704 16.02756335 0 0 Z " fill="#050B0E" transform="translate(665,62)"/>
<path d="M0 0 C0.99 0 1.98 0 3 0 C3.81752303 1.58074564 4.62881997 3.16471223 5.4375 4.75 C5.88996094 5.63171875 6.34242188 6.5134375 6.80859375 7.421875 C11.97184245 18.59480661 10.2110831 35.06640422 6.16796875 46.34375 C4.87566809 49.28276153 3.46582532 52.14395066 2 55 C1.67 55 1.34 55 1 55 C-0.33872498 43.60800889 -0.11233346 32.20041381 -0.0625 20.75 C-0.05747471 18.73307403 -0.05291362 16.71614684 -0.04882812 14.69921875 C-0.03790468 9.79944878 -0.02069684 4.89973804 0 0 Z " fill="#F2F2F2" transform="translate(941,64)"/>
<path d="M0 0 C0.99 0 1.98 0 3 0 C3.81752303 1.58074564 4.62881997 3.16471223 5.4375 4.75 C5.88996094 5.63171875 6.34242188 6.5134375 6.80859375 7.421875 C11.97184245 18.59480661 10.2110831 35.06640422 6.16796875 46.34375 C4.87566809 49.28276153 3.46582532 52.14395066 2 55 C1.67 55 1.34 55 1 55 C-0.33872498 43.60800889 -0.11233346 32.20041381 -0.0625 20.75 C-0.05747471 18.73307403 -0.05291362 16.71614684 -0.04882812 14.69921875 C-0.03790468 9.79944878 -0.02069684 4.89973804 0 0 Z " fill="#F2F2F2" transform="translate(321,64)"/>
<path d="M0 0 C5.52130055 5.52130055 5.05800594 15.02837021 5.1875 22.375 C5.10107321 31.74150331 2.83217998 40.12583606 0 49 C-0.99 49 -1.98 49 -3 49 C-6.58302896 33.09365954 -4.4834331 15.49186258 0 0 Z " fill="#F1F1F1" transform="translate(148,69)"/>
<path d="M0 0 C5.3206839 5.3206839 4.18100904 15.01721558 4.1875 22.0625 C4.18830566 22.90087402 4.18911133 23.73924805 4.18994141 24.60302734 C4.11285764 33.35460397 3.39028715 40.89279161 0 49 C-0.66 49 -1.32 49 -2 49 C-3.6879631 42.38264664 -4.35189887 36.31964182 -4.3125 29.5 C-4.31048584 28.55036377 -4.30847168 27.60072754 -4.30639648 26.62231445 C-3.98987208 3.98987208 -3.98987208 3.98987208 0 0 Z " fill="#F2F2F2" transform="translate(666,70)"/>
<path d="M0 0 C-0.99 2.97 -1.98 5.94 -3 9 C-5.6875 9.5 -5.6875 9.5 -9 9 C-11.08132026 6.54759163 -12.55490096 3.8646211 -14 1 C-12.22932584 0.83165067 -10.45845388 0.66538091 -8.6875 0.5 C-7.70136719 0.4071875 -6.71523438 0.314375 -5.69921875 0.21875 C-3 0 -3 0 0 0 Z " fill="#F5F5F5" transform="translate(507,116)"/>
<path d="M0 0 C0.66 0.33 1.32 0.66 2 1 C1.34 1.5775 0.68 2.155 0 2.75 C-3.01105915 7.64297112 -2.32185363 12.39438258 -2 18 C-3.98 18.99 -3.98 18.99 -6 20 C-6.3964411 12.70254714 -6.33734334 6.83176457 -1.3125 1.0625 C-0.6628125 0.5365625 -0.6628125 0.5365625 0 0 Z " fill="#C4C4C4" transform="translate(884,103)"/>
<path d="M0 0 C0.66 0 1.32 0 2 0 C2 9.57 2 19.14 2 29 C1.01 29.33 0.02 29.66 -1 30 C-0.67 20.1 -0.34 10.2 0 0 Z " fill="#AAAAAA" transform="translate(700,86)"/>
</svg>
