<?xml version="1.0" encoding="UTF-8"?>
<svg version="1.1" xmlns="http://www.w3.org/2000/svg" width="1000" height="200">
<path d="M0 0 C1.15281543 0.90787024 2.30139483 1.82130368 3.4375 2.75 C3.68757812 2.13511719 3.93765625 1.52023438 4.1953125 0.88671875 C5.65178336 -1.61859433 6.71339622 -2.2360275 9.3125 -3.4375 C9.99054687 -3.76105469 10.66859375 -4.08460937 11.3671875 -4.41796875 C19.3903386 -7.64236721 27.57783305 -6.48169687 35.4375 -3.25 C39.54847263 -0.43617893 42.67704961 2.60932441 45.4375 6.75 C45.98277344 6.14671875 46.52804687 5.5434375 47.08984375 4.921875 C52.12138393 -0.4106975 56.42875139 -4.0160381 63.4375 -6.25 C64.12199219 -6.48460937 64.80648437 -6.71921875 65.51171875 -6.9609375 C77.57255807 -10.39415239 91.19998226 -7.24185033 102.2265625 -1.8984375 C107.77953073 1.23873791 112.19593666 5.00281984 116.4375 9.75 C117.118125 9.04875 117.79875 8.3475 118.5 7.625 C119.47559486 6.66303077 120.45507704 5.70499491 121.4375 4.75 C121.94539062 4.24597656 122.45328125 3.74195313 122.9765625 3.22265625 C131.26413952 -4.49539533 141.40141646 -6.68578068 152.43359375 -6.59375 C163.54177718 -5.93499931 175.43157804 -1.52706967 183.16796875 6.55859375 C190.43282091 15.47373331 193.51099546 26.39741789 192.4375 37.75 C190.82680644 44.05924523 188.36201696 49.56403116 184.4375 54.75 C184.83582031 55.29527344 185.23414063 55.84054688 185.64453125 56.40234375 C191.58898325 64.86342506 195.50207312 74.12228195 194.03515625 84.6328125 C191.67005058 95.57667425 186.69003059 104.28975096 177.4375 110.75 C164.89469429 118.52569205 151.17391081 120.45350764 136.8125 117.625 C126.63465093 115.00749097 119.78570825 110.0320995 113.4375 101.75 C112.89222656 102.41386719 112.34695313 103.07773438 111.78515625 103.76171875 C105.06542995 111.63011621 98.07212001 117.54797074 87.4375 118.75 C71.13296722 119.71212206 59.80054107 116.00133613 46.4375 106.75 C45.6640625 108.11125 45.6640625 108.11125 44.875 109.5 C41.12144728 115.00694239 36.10200873 116.81841169 29.8125 118.1875 C23.87558911 119.0706155 19.25646409 117.91706529 13.53515625 116.35546875 C9.55978212 115.57844102 6.6974216 116.18836841 2.83203125 117.1875 C-5.57338531 119.16201874 -14.44572459 117.84653133 -21.828125 113.37890625 C-27.55254323 108.95838328 -30.04006053 103.74736602 -31.5625 96.75 C-31.83041723 93.65555594 -31.76662255 90.86286882 -31.5625 87.75 C-32.17996094 88.03875 -32.79742188 88.3275 -33.43359375 88.625 C-40.77012387 91.8410132 -46.78029948 92.89621225 -54.5625 90.75 C-54.51029297 91.92755859 -54.51029297 91.92755859 -54.45703125 93.12890625 C-54.12733468 105.92427325 -54.12733468 105.92427325 -59.07421875 111.43359375 C-64.87776964 116.87197739 -71.12380916 118.25268853 -78.9453125 118.0625 C-86.75557992 117.12993076 -93.2158502 113.42283798 -98.5625 107.75 C-99.58198118 106.4315024 -100.58689508 105.10128562 -101.5625 103.75 C-102.00078125 104.33007812 -102.4390625 104.91015625 -102.890625 105.5078125 C-110.34766889 114.69270802 -119.44746661 119.31606494 -131.19921875 120.6953125 C-140.96007375 120.85402559 -150.31626539 117.91241547 -158.5625 112.75 C-159.2225 112.09 -159.8825 111.43 -160.5625 110.75 C-161.201875 111.6575 -161.84125 112.565 -162.5 113.5 C-166.85388083 118.76197597 -173.87447746 121.18372401 -180.53515625 121.98828125 C-188.33181982 122.26517211 -195.98234838 120.13158545 -202.125 115.1875 C-204.5625 112.75 -204.5625 112.75 -206.5625 109.75 C-206.98917969 110.13671875 -207.41585938 110.5234375 -207.85546875 110.921875 C-214.67091363 116.59907033 -223.34767877 120.39034632 -232.375 119.75 C-238.29736704 118.68113818 -243.45746254 116.15724881 -247.5625 111.75 C-248.28050781 112.03746094 -248.99851562 112.32492188 -249.73828125 112.62109375 C-251.13626953 113.17990234 -251.13626953 113.17990234 -252.5625 113.75 C-253.40167969 114.09160156 -254.24085938 114.43320313 -255.10546875 114.78515625 C-268.05168015 119.8144821 -280.07788131 119.34540664 -293.03515625 114.43359375 C-295.59057884 113.27623461 -298.09051036 112.07502834 -300.5625 110.75 C-300.98660156 111.15992188 -301.41070312 111.56984375 -301.84765625 111.9921875 C-308.69150805 118.2795063 -315.04038284 119.20507561 -324.19140625 119.078125 C-330.01903933 118.51089304 -336.33232618 116.98017382 -340.5625 112.75 C-342.4594341 112.98558894 -342.4594341 112.98558894 -344.5625 113.75 C-354.86163293 117.07336238 -363.65827759 117.75725721 -373.5625 112.75 C-376.71189866 110.55911397 -378.42884076 108.95048885 -380.5625 105.75 C-381.11164063 106.40355469 -381.11164063 106.40355469 -381.671875 107.0703125 C-389.01016045 115.1424265 -398.4105072 119.42909246 -409.19921875 120.6953125 C-420.78740885 120.88373836 -432.22112001 117.00079274 -440.8125 109.1875 C-453.69475146 95.29232958 -456.70793523 73.73096402 -456.54150391 55.44287109 C-456.38758486 51.52549781 -456.0462479 47.63959462 -455.5625 43.75 C-457.5425 43.255 -457.5425 43.255 -459.5625 42.75 C-459.44224198 47.99301749 -459.31792073 53.2359191 -459.19018555 58.47875977 C-459.14746156 60.25412526 -459.10575797 62.02951567 -459.06518555 63.80493164 C-458.839059 73.66795765 -458.56849763 83.50691758 -457.79615784 93.34507751 C-457.29110069 100.48596096 -458.90180264 104.79369543 -463.1875 110.5 C-467.97367607 115.7408628 -475.03657183 118.30897505 -482.0078125 118.98828125 C-488.86343443 119.17815999 -494.65973435 118.44052073 -500.5625 114.75 C-507.59415154 108.03863072 -508.84884739 99.8873836 -509.1875 90.5625 C-509.22544678 89.6535498 -509.26339355 88.74459961 -509.30249023 87.80810547 C-509.85026947 72.46780262 -509.64490351 57.09733754 -509.5625 41.75 C-510.23941895 41.49895508 -510.91633789 41.24791016 -511.61376953 40.98925781 C-512.50692871 40.64733398 -513.40008789 40.30541016 -514.3203125 39.953125 C-515.20348145 39.61958008 -516.08665039 39.28603516 -516.99658203 38.94238281 C-523.03699314 36.13540204 -527.15681626 30.9228398 -529.83984375 24.91796875 C-531.90344045 18.72717864 -532.42947345 12.59742846 -529.6796875 6.5625 C-525.53289507 -0.16516324 -519.58889288 -2.26266805 -512.234375 -4.390625 C-511.02265625 -4.67421875 -509.8109375 -4.9578125 -508.5625 -5.25 C-507.83554932 -5.42877686 -507.10859863 -5.60755371 -506.35961914 -5.79174805 C-497.96497895 -7.61208681 -489.59478496 -7.58794969 -481.04663086 -7.56567383 C-478.50135903 -7.56250169 -475.95723938 -7.58609 -473.41210938 -7.61132812 C-463.0793996 -7.6524279 -454.05203964 -7.45704159 -445.25 -1.4375 C-442.44878504 0.54890927 -442.44878504 0.54890927 -439.125 0.3125 C-438.279375 -0.203125 -437.43375 -0.71875 -436.5625 -1.25 C-424.68107018 -7.4931953 -413.34924044 -6.92376307 -400.57421875 -3.43359375 C-394.36013352 -1.37942173 -389.5181645 1.49011648 -384.5625 5.75 C-383.99982422 4.93595703 -383.99982422 4.93595703 -383.42578125 4.10546875 C-379.08725926 -1.95971943 -375.85127719 -4.85563816 -368.5 -6.625 C-360.83773935 -7.86585193 -353.28351154 -6.31507728 -346.875 -1.875 C-343.8524595 0.0151999 -343.8524595 0.0151999 -341.4921875 -0.62890625 C-339.96623889 -1.17920479 -338.45055304 -1.75863378 -336.9453125 -2.36328125 C-329.18708082 -5.25036091 -322.07610488 -4.42733031 -314.5625 -1.25 C-310.59755298 1.06911996 -307.10539832 3.83231903 -303.5625 6.75 C-303.10101563 6.30269531 -302.63953125 5.85539062 -302.1640625 5.39453125 C-292.42629805 -3.63118323 -281.88495224 -7.8167078 -268.65234375 -7.56640625 C-261.01071864 -6.78388838 -254.44017425 -3.57921155 -248.21875 0.796875 C-246.44762171 1.99938917 -246.44762171 1.99938917 -243.5625 1.75 C-241.80773229 0.75759122 -241.80773229 0.75759122 -240 -0.5625 C-232.16293381 -5.59652792 -223.80910794 -7.28661524 -214.5625 -6.25 C-210.03630446 -5.13550964 -206.09597883 -3.34179398 -202.5625 -0.25 C-201.758125 -0.6521875 -201.758125 -0.6521875 -200.9375 -1.0625 C-199.761875 -1.6503125 -199.761875 -1.6503125 -198.5625 -2.25 C-197.0775 -3.0234375 -197.0775 -3.0234375 -195.5625 -3.8125 C-188.4311604 -7.22960023 -179.61889946 -7.62643333 -172.125 -5 C-168.82836619 -3.38060093 -166.27594552 -1.70906 -163.5625 0.75 C-161.19894853 -0.16492315 -158.87502153 -1.0915472 -156.61328125 -2.23828125 C-144.71556883 -8.11237625 -132.21016255 -6.59882963 -119.875 -2.5625 C-114.15167567 -0.34892015 -109.39620271 3.0172491 -104.5625 6.75 C-104.44003906 6.15316406 -104.31757812 5.55632813 -104.19140625 4.94140625 C-103.20434855 1.50203127 -101.21327154 -0.93707189 -98.5625 -3.25 C-95.97586458 -4.58437541 -93.3632436 -5.47603706 -90.5625 -6.25 C-89.93601562 -6.43304688 -89.30953125 -6.61609375 -88.6640625 -6.8046875 C-78.95900132 -8.86115028 -69.67641737 -6.96425697 -61.2734375 -1.859375 C-56.99958424 1.1819438 -53.73389986 4.58753768 -50.5625 8.75 C-50.13839844 8.08613281 -49.71429687 7.42226563 -49.27734375 6.73828125 C-43.57796352 -1.84210438 -38.6796782 -6.42395629 -28.52734375 -8.875 C-18.10533731 -10.19319844 -8.22297772 -6.10602899 0 0 Z M-254.5625 31.75 C-255.2225 32.41 -255.8825 33.07 -256.5625 33.75 C-254.0875 34.74 -254.0875 34.74 -251.5625 35.75 C-251.5625 34.43 -251.5625 33.11 -251.5625 31.75 C-252.5525 31.75 -253.5425 31.75 -254.5625 31.75 Z M-312.5625 44.75 C-313.95445915 48.92587745 -312.38573219 50.88474776 -310.5625 54.75 C-309.9025 54.09 -309.2425 53.43 -308.5625 52.75 C-308.92526645 49.92042171 -309.65944764 47.45915709 -310.5625 44.75 C-311.2225 44.75 -311.8825 44.75 -312.5625 44.75 Z " fill="#FAFAFA" transform="translate(661.5625,44.25)"/>
<path d="M0 0 C7.84157226 3.46488077 11.56572858 9.78545381 14.8125 17.4375 C15.87039167 20.73342331 16.67550299 24.06214011 17.4375 27.4375 C17.64987305 28.35740723 17.86224609 29.27731445 18.08105469 30.22509766 C19.88162089 38.26902249 21.06933217 46.22808793 21.8125 54.4375 C21.92335938 55.53835937 22.03421875 56.63921875 22.1484375 57.7734375 C22.88868195 66.51632469 23.00775614 75.29265894 23.125 84.0625 C23.15480957 85.29709961 23.18461914 86.53169922 23.21533203 87.80371094 C23.22290527 88.97450195 23.23047852 90.14529297 23.23828125 91.3515625 C23.25286377 92.4029541 23.26744629 93.4543457 23.2824707 94.53759766 C22.69443437 98.16601094 21.33389 99.81548909 18.8125 102.4375 C14.16408356 104.76170822 7.87147407 103.85188695 2.8125 103.4375 C-0.8775031 102.20526666 -2.72108007 100.08083784 -5 96.9375 C-7.1716665 92.36557053 -7.33851886 88.37624806 -7.43359375 83.3203125 C-7.46659126 81.8932244 -7.49980171 80.46614121 -7.53320312 79.0390625 C-7.58008101 76.81709935 -7.6244139 74.5951467 -7.66430664 72.37304688 C-7.84863777 62.56265711 -8.54162336 53.13191542 -10.1875 43.4375 C-10.43918945 44.19369629 -10.69087891 44.94989258 -10.95019531 45.72900391 C-12.10346206 49.1766478 -13.2703324 52.61953853 -14.4375 56.0625 C-14.83324219 57.25230469 -15.22898437 58.44210938 -15.63671875 59.66796875 C-20.37076431 73.5596762 -20.37076431 73.5596762 -26.1875 77.4375 C-32.01468687 78.1065762 -37.4041101 78.28226364 -42.75 75.75 C-46.77770812 71.92884101 -49.21704009 68.61427845 -51.1875 63.4375 C-51.3616858 73.60996865 -51.3616858 73.60996865 -50.6875 83.75 C-49.20711558 96.98507863 -49.20711558 96.98507863 -51.875 100.9375 C-56.79768851 104.13059525 -60.19571946 104.81864588 -65.98046875 103.96484375 C-71.0233704 102.75990265 -73.99025077 100.04499968 -76.77929688 95.84179688 C-79.45093356 91.4251027 -80.14401716 87.62637195 -80.46875 82.53125 C-80.57334534 81.20111877 -80.57334534 81.20111877 -80.68005371 79.84411621 C-81.57206093 67.03970437 -81.63492553 54.18734616 -81.66796875 41.35693359 C-81.67912121 37.63232329 -81.72771064 33.90910879 -81.78391266 30.18494415 C-81.82111985 27.28525569 -81.83157204 24.38591471 -81.8346405 21.48600769 C-81.84066199 20.11126202 -81.8566126 18.73652016 -81.88301086 17.36201477 C-82.07175355 6.82116919 -82.07175355 6.82116919 -79.94113159 3.48719788 C-76.15240526 0.12049325 -72.17215106 -0.31756957 -67.3125 -0.125 C-66.60432129 -0.10767822 -65.89614258 -0.09035645 -65.16650391 -0.07250977 C-57.8399294 0.25913545 -53.21653052 2.05729615 -48.1875 7.3125 C-42.92058947 13.95401631 -38.93634198 21.87103936 -35.1875 29.4375 C-34.87111572 28.63699219 -34.87111572 28.63699219 -34.54833984 27.8203125 C-33.56543085 25.35424023 -32.56412248 22.89602791 -31.5625 20.4375 C-31.23121094 19.59832031 -30.89992188 18.75914063 -30.55859375 17.89453125 C-27.7339907 11.01955402 -24.24915941 4.14004168 -17.875 -0.0625 C-11.50872134 -2.65217267 -6.44907375 -2.2368409 0 0 Z " fill="#00A0F0" transform="translate(647.1875,47.5625)"/>
<path d="M0 0 C6.63328022 4.65378355 11.46162663 11.33306495 15.9140625 18.01171875 C16.01203125 17.20347656 16.11 16.39523438 16.2109375 15.5625 C17.73046337 4.70312974 17.73046337 4.70312974 21.9140625 1.01171875 C26.41823698 -1.6927108 30.7985093 -1.52081518 35.9140625 -0.98828125 C40.02682159 0.55400341 41.47187188 1.34843282 43.9140625 5.01171875 C44.12480069 8.03547814 44.21814686 10.96838977 44.22045898 13.99365234 C44.2287825 14.91264816 44.23710602 15.83164398 44.24568176 16.77848816 C44.26981592 19.82242037 44.27855797 22.86613845 44.28515625 25.91015625 C44.29411982 28.02381455 44.30324161 30.13747219 44.31251526 32.25112915 C44.32901699 36.68468774 44.33670756 41.1181707 44.33959961 45.55175781 C44.34498528 51.23384641 44.38266831 56.91522472 44.42834377 62.59711266 C44.45808071 66.96372068 44.46532244 71.33015696 44.46632576 75.69685745 C44.47053456 77.79165526 44.48299519 79.88645329 44.50384331 81.98115158 C44.5306881 84.91163161 44.52595271 87.84045605 44.51342773 90.77099609 C44.52826202 91.63662674 44.54309631 92.50225739 44.55838013 93.39411926 C44.50534736 97.74967141 44.32732672 99.48149266 41.56410217 103.02676392 C36.25370448 107.00440232 30.30326901 106.61176328 23.9140625 106.01171875 C18.88363976 103.71713996 16.86268811 101.13968089 14.9140625 96.01171875 C14.0783612 92.2451777 13.8332184 88.5966648 13.73828125 84.75390625 C13.70250977 83.32111328 13.70250977 83.32111328 13.66601562 81.859375 C13.6228823 79.87001382 13.59172195 77.88035861 13.57226562 75.890625 C13.54455078 74.93800781 13.51683594 73.98539062 13.48828125 73.00390625 C13.47369873 72.1413623 13.45911621 71.27881836 13.4440918 70.39013672 C12.74365158 67.24702819 11.22178374 66.22641358 8.9140625 64.01171875 C7.59924209 61.7989722 6.35154179 59.54533276 5.1640625 57.26171875 C4.84824219 56.65972656 4.53242188 56.05773437 4.20703125 55.4375 C3.43608355 53.96569075 2.67413926 52.48917133 1.9140625 51.01171875 C1.89947998 52.18154297 1.88489746 53.35136719 1.86987305 54.55664062 C1.81159867 58.92543043 1.73436887 63.29372045 1.65161133 67.66210938 C1.61849846 69.5474431 1.59042468 71.43287271 1.56762695 73.31835938 C1.53382874 76.03947547 1.4815022 78.75972363 1.42578125 81.48046875 C1.41619637 82.73096008 1.41619637 82.73096008 1.40641785 84.00671387 C1.26757664 89.61969884 0.32687808 93.91235745 -2.0859375 99.01171875 C-7.11132252 103.22775345 -12.70292166 104.37258273 -19.1171875 104.30078125 C-22.27974688 103.83643721 -23.94310684 102.28441793 -26.0859375 100.01171875 C-27.34198934 96.24356322 -27.25772065 92.70709749 -27.27880859 88.7800293 C-27.28698608 87.94066833 -27.29516357 87.10130737 -27.30358887 86.23651123 C-27.32841342 83.45716055 -27.34495063 80.67786082 -27.359375 77.8984375 C-27.36469868 76.9488447 -27.37002235 75.9992519 -27.37550735 75.02088356 C-27.40222512 69.99545728 -27.42160512 64.97005573 -27.43603516 59.94458008 C-27.44938066 55.7861535 -27.47724646 51.6282169 -27.51806641 47.4699707 C-27.5673656 42.44790982 -27.59215274 37.42629378 -27.59926224 32.40400124 C-27.60597666 30.4914343 -27.62120372 28.57887736 -27.64515305 26.66644859 C-27.67678801 23.98763693 -27.67684424 21.31054137 -27.66943359 18.6315918 C-27.68583893 17.84436234 -27.70224426 17.05713287 -27.71914673 16.24604797 C-27.65425437 10.50496011 -26.18384207 8.03630284 -22.0859375 4.01171875 C-19.953125 2.5859375 -19.953125 2.5859375 -17.9609375 1.69921875 C-17.29835938 1.39371094 -16.63578125 1.08820312 -15.953125 0.7734375 C-10.71829565 -1.36211004 -5.30629253 -2.51402998 0 0 Z " fill="#00A1F1" transform="translate(448.0859375,48.98828125)"/>
<path d="M0 0 C11.35848407 4.89472211 17.5770742 11.16742623 22.375 22.5625 C25.48898858 30.48543298 25.24874934 38.57084281 25.24780273 46.95019531 C25.24997982 49.10502157 25.26814337 51.25932717 25.28710938 53.4140625 C25.35444476 69.45483547 22.54548273 84.3499022 11.0625 96.375 C4.78611314 102.06559075 -1.9868665 103.8203032 -10.3828125 103.62890625 C-18.52394645 102.81977214 -25.35709765 99.27569992 -31 93.375 C-34.88461763 88.59549663 -36.94209319 83.14894311 -38.9375 77.375 C-39.25976562 76.4675 -39.58203125 75.56 -39.9140625 74.625 C-45.96933721 53.79938229 -43.20448944 26.53169982 -32.9375 7.375 C-25.89550673 -3.91024563 -11.52420255 -3.89023222 0 0 Z " fill="#00A0F0" transform="translate(535.9375,50.625)"/>
<path d="M0 0 C11.35848407 4.89472211 17.5770742 11.16742623 22.375 22.5625 C25.48898858 30.48543298 25.24874934 38.57084281 25.24780273 46.95019531 C25.24997982 49.10502157 25.26814337 51.25932717 25.28710938 53.4140625 C25.35444476 69.45483547 22.54548273 84.3499022 11.0625 96.375 C4.78611314 102.06559075 -1.9868665 103.8203032 -10.3828125 103.62890625 C-18.52394645 102.81977214 -25.35709765 99.27569992 -31 93.375 C-34.88461763 88.59549663 -36.94209319 83.14894311 -38.9375 77.375 C-39.25976562 76.4675 -39.58203125 75.56 -39.9140625 74.625 C-45.96933721 53.79938229 -43.20448944 26.53169982 -32.9375 7.375 C-25.89550673 -3.91024563 -11.52420255 -3.89023222 0 0 Z " fill="#00A0F0" transform="translate(257.9375,50.625)"/>
<path d="M0 0 C5.19436498 0.05209249 9.25279289 1.181218 13.4375 4.3125 C16.43379541 7.49340129 17.02086059 10.28705188 17.625 14.5625 C17.78355469 15.64015625 17.94210937 16.7178125 18.10546875 17.828125 C18.21503906 18.64796875 18.32460938 19.4678125 18.4375 20.3125 C19.21673828 18.97445312 19.21673828 18.97445312 20.01171875 17.609375 C20.71564229 16.42678346 21.42009776 15.24450843 22.125 14.0625 C22.46466797 13.47597656 22.80433594 12.88945313 23.15429688 12.28515625 C25.44973121 8.46658324 27.65445773 5.69420192 31.4375 3.3125 C37.0093006 2.10486011 42.1066334 2.67826464 47 5.625 C49.58505957 7.41465663 50.63403626 8.60730439 52.4375 11.3125 C53.5181264 18.30478846 50.3216463 23.19454211 47 29.1875 C46.48373047 30.14914063 45.96746094 31.11078125 45.43554688 32.1015625 C41.66003024 39.08996976 41.66003024 39.08996976 40.4375 40.3125 C40.82046789 46.8496729 43.28617285 52.43115522 45.75 58.4375 C49.03874091 66.6460834 52.16023789 74.75704014 54.4375 83.3125 C54.66050781 84.1478125 54.88351562 84.983125 55.11328125 85.84375 C56.2200483 90.36116654 57.15182644 94.66937817 56.4375 99.3125 C53.9607289 102.328379 51.14616927 104.07627691 47.4375 105.3125 C41.5029515 105.8436472 36.44432791 105.88880565 31.4375 102.3125 C24.95485611 94.53332734 23.53543142 83.9391782 21.4375 74.3125 C21.40011719 75.61445312 21.36273438 76.91640625 21.32421875 78.2578125 C21.25853326 79.98440257 21.19208682 81.71096381 21.125 83.4375 C21.10244141 84.2934375 21.07988281 85.149375 21.05664062 86.03125 C20.84075787 91.13393324 20.32228622 94.92707677 17.4375 99.3125 C11.81961438 102.82367852 5.95453372 103.2154625 -0.5625 102.3125 C-4.47325925 100.32281547 -6.13939098 98.94716354 -8.5625 95.3125 C-12.98258208 78.83300322 -10.8429464 59.37974766 -10.91259766 42.3828125 C-10.9261046 39.39390608 -10.95432326 36.4056555 -10.99462891 33.41699219 C-11.04390011 29.75752648 -11.06870192 26.0986678 -11.07582474 22.43888474 C-11.08251216 21.05856969 -11.09766877 19.67826706 -11.12171555 18.29814529 C-11.29819829 7.59544523 -11.29819829 7.59544523 -9.44903564 4.37078857 C-8.09228516 2.99755859 -8.09228516 2.99755859 -5.5625 1.3125 C-3.94996547 -0.30003453 -2.22650957 0.06458577 0 0 Z " fill="#00A0F0" transform="translate(297.5625,47.6875)"/>
<path d="M0 0 C7.15479463 4.22914986 11.81431027 8.91252091 15.39453125 16.3984375 C16.54120973 22.1318299 16.723651 27.37196048 14.89453125 32.9609375 C12.52460118 36.19984193 10.81941784 37.23290998 7.01953125 38.5234375 C1.31920214 39.07508225 -4.0520014 38.71043717 -8.98046875 35.5234375 C-12.16053691 30.32932618 -12.96213179 24.47771363 -13.98046875 18.5234375 C-23.73680267 30.75359968 -23.85016182 47.58771685 -22.98046875 62.5234375 C-22.37398654 67.64759331 -21.41449433 71.96219629 -18.98046875 76.5234375 C-18.52164648 74.54438412 -18.06343967 72.56518806 -17.60546875 70.5859375 C-17.32703125 69.40257813 -17.04859375 68.21921875 -16.76171875 67 C-16.29925804 64.94204982 -15.86910132 62.87565026 -15.51171875 60.796875 C-14.82598808 56.85392363 -14.43050468 54.99715954 -11.60546875 52.0234375 C-6.36321117 49.02786174 -0.90307109 48.99096379 5.01953125 49.5234375 C9.13229034 51.06572216 10.57734063 51.86015157 13.01953125 55.5234375 C14.15448211 67.53280123 13.32295963 79.74695651 6.26953125 89.9609375 C0.45697877 96.88622043 -5.7926127 100.91629571 -14.88671875 101.80859375 C-25.38044326 102.29580239 -33.73096321 99.53389943 -41.85546875 92.8359375 C-50.73626122 84.24421242 -55.90966404 72.43643592 -56.546875 60.11328125 C-56.57443214 57.89600419 -56.57234804 55.67819117 -56.54296875 53.4609375 C-56.53273682 52.28571533 -56.52250488 51.11049316 -56.51196289 49.8996582 C-56.08522375 32.17608145 -51.21013213 13.87337539 -38.98046875 0.5234375 C-27.95568988 -7.95716163 -11.8269141 -5.85920515 0 0 Z " fill="#00A0F0" transform="translate(758.98046875,51.4765625)"/>
<path d="M0 0 C5.46027607 3.66797171 9.39558596 8.5465252 11.609375 14.75 C12.56645402 22.38290294 12.70846147 29.04597848 8.609375 35.75 C3.92619261 39.09513028 -0.81126534 39.64114772 -6.390625 38.75 C-10.38619641 37.2062565 -12.97924619 35.36706822 -15.390625 31.75 C-15.69053569 29.16114829 -15.89927725 26.65850918 -16.015625 24.0625 C-16.07363281 23.0096582 -16.07363281 23.0096582 -16.1328125 21.93554688 C-16.2268584 20.20745345 -16.3098218 18.47876325 -16.390625 16.75 C-21.78341962 24.38131314 -24.42912658 30.45551531 -25.390625 39.75 C-24.276875 39.853125 -23.163125 39.95625 -22.015625 40.0625 C-10.11515797 41.61018816 1.66099902 46.11294929 9.23828125 55.76171875 C13.84791314 62.44634164 14.66263306 68.81005459 13.609375 76.75 C11.06247815 85.05099713 5.82843655 90.93445364 -1.765625 95.03125 C-11.788754 99.64716467 -23.96997438 100.7897997 -34.6875 97.84375 C-41.14214186 94.79246476 -44.48468646 90.6089078 -48.390625 84.75 C-50.48390475 77.42352088 -49.91453914 70.45584506 -46.390625 63.75 C-43.8610032 60.76044696 -42.04021368 58.9194022 -38.0703125 58.51171875 C-31.31538881 58.33296729 -27.1343066 59.13360788 -21.390625 62.75 C-19.97427667 65.58269666 -20.0443245 68.22466438 -19.828125 71.375 C-19.74433594 72.56351562 -19.66054688 73.75203125 -19.57421875 74.9765625 C-19.51363281 75.89179688 -19.45304688 76.80703125 -19.390625 77.75 C-18.730625 77.75 -18.070625 77.75 -17.390625 77.75 C-15.81216629 73.60654589 -14.73040571 70.18290093 -15.390625 65.75 C-19.26183033 60.8865634 -22.86305571 59.64740989 -28.640625 58.25 C-37.97324748 55.73591795 -45.79620922 53.05685979 -51.390625 44.75 C-54.66546488 38.20032024 -54.36240204 30.32847512 -52.48046875 23.3984375 C-48.49023228 12.44132513 -42.84513805 2.62827139 -32.48828125 -3.34765625 C-21.97145158 -7.97162021 -9.80619805 -5.12742382 0 0 Z " fill="#00A0EF" transform="translate(831.390625,53.25)"/>
<path d="M0 0 C2.04483434 1.54598464 3.37116933 2.99110884 5 5 C5.495 5.495 5.495 5.495 6 6 C5.76732673 12.28217822 5.76732673 12.28217822 3.0625 14.8125 C0.25839298 15.8998068 -2.11421041 16.39231542 -5.0625 16.875 C-8.6826286 17.52049098 -9.74976543 17.76227716 -12.5 20.375 C-12.995 21.24125 -13.49 22.1075 -14 23 C-14.5878125 23.928125 -14.5878125 23.928125 -15.1875 24.875 C-16.32778516 27.85728427 -16.63546488 30.84069561 -17 34 C-15.906875 33.9175 -14.81375 33.835 -13.6875 33.75 C-7.47667579 33.77210258 -1.19311416 35.61204609 3.8125 39.35546875 C6.28269316 41.97303139 7.017637 44.10229459 7.625 47.625 C7 51 7 51 4.6875 53.375 C0.85649811 55.69141975 -2.05143398 56.1042065 -6.4375 56.3125 C-10.76597643 56.68355938 -10.76597643 56.68355938 -14.5625 58.6875 C-18.61874538 65.21276431 -18.21731593 71.53881976 -18 79 C-15.86461214 77.40904304 -15.86461214 77.40904304 -14 75 C-13.66628509 71.85478222 -13.66628509 71.85478222 -14 68.5 C-14.43697479 62.54621849 -14.43697479 62.54621849 -12.125 59.65625 C-7.68643584 56.19678087 -3.45622128 56.5500867 2 57 C7.05605087 58.20926264 10.1641406 60.63713938 13 65 C15.02648187 71.07944561 14.85811214 77.7394146 12.4375 83.6875 C7.78840218 92.78994415 1.56664996 97.81111668 -8 101 C-19.22872892 101.97399136 -28.85527313 100.96807705 -37.9375 93.625 C-38.618125 92.75875 -39.29875 91.8925 -40 91 C-40.43828125 90.45214844 -40.8765625 89.90429688 -41.328125 89.33984375 C-47.60940919 81.12724517 -48.04249471 72.03089406 -47 62 C-45.46641199 55.43877294 -42.54170681 49.69202881 -39 44 C-39.61875 43.113125 -40.2375 42.22625 -40.875 41.3125 C-45.50663726 34.09259486 -46.19806719 27.52020832 -44.3828125 19.15625 C-41.76758301 10.91711991 -36.87988739 4.12180038 -29.4375 -0.4375 C-18.8195755 -5.26382932 -10.39993324 -5.07790168 0 0 Z " fill="#00A0F0" transform="translate(404,51)"/>
<path d="M0 0 C1.08655884 -0.00855011 1.08655884 -0.00855011 2.19506836 -0.01727295 C3.71434095 -0.02664461 5.23363315 -0.03322536 6.75292969 -0.03710938 C9.05700297 -0.04685176 11.36019622 -0.0779631 13.6640625 -0.109375 C22.40919152 -0.17201783 29.10816493 0.27556337 36.8125 4.828125 C40.54551942 8.76853439 42.85898483 13.16977982 43.2265625 18.6484375 C42.96395018 22.43755805 42.49216998 24.6302317 40.1875 27.703125 C36.91524108 30.01295483 34.27187634 30.34036009 30.375 30.328125 C29.56675781 30.33070312 28.75851563 30.33328125 27.92578125 30.3359375 C24.2675795 30.16625284 20.6950275 29.67056544 17.0625 29.203125 C17.03754075 35.23136096 17.01951879 41.25956598 17.00756836 47.2878418 C17.00257955 49.33309453 16.99578611 51.37834378 16.98706055 53.42358398 C16.94139821 64.41209156 17.00555474 75.25859448 18.0625 86.203125 C18.82169323 96.93778354 18.82169323 96.93778354 16 100.703125 C10.82529593 105.10712847 5.93489535 106.8295047 -0.79296875 106.54296875 C-4.40411945 105.9707099 -6.30773598 104.70766216 -8.9375 102.203125 C-12.63173256 94.89697344 -12.34297999 87.75021973 -12.265625 79.7109375 C-12.26256225 78.31468917 -12.26069006 76.91843777 -12.25994873 75.52218628 C-12.25537039 72.61232607 -12.24103316 69.70274643 -12.21875 66.79296875 C-12.19031111 63.06041577 -12.17951991 59.32808145 -12.1750679 55.59543037 C-12.17091836 52.71987726 -12.16110734 49.84436834 -12.14919281 46.96883774 C-12.14349388 45.59169746 -12.13873392 44.21455296 -12.13492584 42.83740616 C-12.1280703 40.92038679 -12.11354165 39.00339944 -12.09863281 37.08642578 C-12.09180481 35.99580841 -12.08497681 34.90519104 -12.07794189 33.78152466 C-11.9375 31.203125 -11.9375 31.203125 -10.9375 29.203125 C-11.79021484 29.25533203 -11.79021484 29.25533203 -12.66015625 29.30859375 C-19.57210707 29.5509159 -24.3734529 28.42529916 -29.75 23.765625 C-33.27388443 19.63764609 -34.56869612 16.79480051 -34.359375 11.1640625 C-33.76273211 8.39077795 -32.32812587 6.84149202 -30.0390625 5.23046875 C-20.93302624 0.77900493 -9.98799464 0.06267 0 0 Z " fill="#009FEF" transform="translate(174.9375,46.796875)"/>
<path d="M0 0 C3.15373735 0.81287194 5.68336597 1.68336597 8 4 C10.95963283 10.45742278 11.52196273 16.09412353 11.671875 23.14453125 C11.70448425 24.22595901 11.73709351 25.30738678 11.77069092 26.42158508 C12.10599965 38.58118077 12.22119498 50.74563313 12.24023438 62.90942383 C12.2501625 66.75036577 12.28143756 70.59081822 12.3125 74.43164062 C12.31901297 76.89583023 12.32427008 79.36002355 12.328125 81.82421875 C12.3404718 82.9616301 12.3528186 84.09904144 12.36553955 85.2709198 C12.34962805 90.89112381 12.32137259 95.21573629 9 100 C3.93032852 103.80225361 -1.90911444 103.8326322 -8 103 C-11.91075925 101.01031547 -13.57689098 99.63466354 -16 96 C-16.97508805 90.95898834 -17.15321723 85.98326964 -17.16113281 80.86499023 C-17.16609772 80.08356659 -17.17106262 79.30214294 -17.17617798 78.49703979 C-17.19068165 75.93421525 -17.19757939 73.37145244 -17.203125 70.80859375 C-17.20595238 69.92886461 -17.20877975 69.04913548 -17.21169281 68.14274788 C-17.22663247 63.4933556 -17.2358967 58.84399397 -17.24023438 54.19458008 C-17.24573192 49.40071936 -17.26980176 44.60714081 -17.29820633 39.8133688 C-17.3168453 36.11671629 -17.32203883 32.42013188 -17.32357025 28.72343636 C-17.32659109 26.95603952 -17.33460037 25.18864372 -17.34775543 23.42129326 C-17.3648533 20.9491818 -17.36292752 18.4777622 -17.35644531 16.00561523 C-17.3656601 15.28077438 -17.37487488 14.55593353 -17.3843689 13.80912781 C-17.34613966 9.14350183 -16.50149882 5.94275107 -14 2 C-9.4981235 -1.001251 -5.27482779 -0.561305 0 0 Z " fill="#009FEE" transform="translate(688,49)"/>
<path d="M0 0 C7.84157226 3.46488077 11.56572858 9.78545381 14.8125 17.4375 C15.87039167 20.73342331 16.67550299 24.06214011 17.4375 27.4375 C17.64987305 28.35740723 17.86224609 29.27731445 18.08105469 30.22509766 C19.88162089 38.26902249 21.06933217 46.22808793 21.8125 54.4375 C21.92335938 55.53835937 22.03421875 56.63921875 22.1484375 57.7734375 C22.88868195 66.51632469 23.00775614 75.29265894 23.125 84.0625 C23.15480957 85.29709961 23.18461914 86.53169922 23.21533203 87.80371094 C23.22290527 88.97450195 23.23047852 90.14529297 23.23828125 91.3515625 C23.25286377 92.4029541 23.26744629 93.4543457 23.2824707 94.53759766 C22.69443437 98.16601094 21.33389 99.81548909 18.8125 102.4375 C14.16408356 104.76170822 7.87147407 103.85188695 2.8125 103.4375 C-0.8775031 102.20526666 -2.72108007 100.08083784 -5 96.9375 C-7.1716665 92.36557053 -7.33851886 88.37624806 -7.43359375 83.3203125 C-7.46659126 81.8932244 -7.49980171 80.46614121 -7.53320312 79.0390625 C-7.58008101 76.81709935 -7.6244139 74.5951467 -7.66430664 72.37304688 C-7.84863777 62.56265711 -8.54162336 53.13191542 -10.1875 43.4375 C-10.43918945 44.19369629 -10.69087891 44.94989258 -10.95019531 45.72900391 C-12.10346206 49.1766478 -13.2703324 52.61953853 -14.4375 56.0625 C-14.83324219 57.25230469 -15.22898437 58.44210938 -15.63671875 59.66796875 C-20.37076431 73.5596762 -20.37076431 73.5596762 -26.1875 77.4375 C-32.01468687 78.1065762 -37.4041101 78.28226364 -42.75 75.75 C-46.77770812 71.92884101 -49.21704009 68.61427845 -51.1875 63.4375 C-51.3616858 73.60996865 -51.3616858 73.60996865 -50.6875 83.75 C-49.20711558 96.98507863 -49.20711558 96.98507863 -51.875 100.9375 C-56.79768851 104.13059525 -60.19571946 104.81864588 -65.98046875 103.96484375 C-71.0233704 102.75990265 -73.99025077 100.04499968 -76.77929688 95.84179688 C-79.45093356 91.4251027 -80.14401716 87.62637195 -80.46875 82.53125 C-80.57334534 81.20111877 -80.57334534 81.20111877 -80.68005371 79.84411621 C-81.57206093 67.03970437 -81.63492553 54.18734616 -81.66796875 41.35693359 C-81.67912121 37.63232329 -81.72771064 33.90910879 -81.78391266 30.18494415 C-81.82111985 27.28525569 -81.83157204 24.38591471 -81.8346405 21.48600769 C-81.84066199 20.11126202 -81.8566126 18.73652016 -81.88301086 17.36201477 C-82.07175355 6.82116919 -82.07175355 6.82116919 -79.94113159 3.48719788 C-76.15240526 0.12049325 -72.17215106 -0.31756957 -67.3125 -0.125 C-66.60432129 -0.10767822 -65.89614258 -0.09035645 -65.16650391 -0.07250977 C-57.8399294 0.25913545 -53.21653052 2.05729615 -48.1875 7.3125 C-42.92058947 13.95401631 -38.93634198 21.87103936 -35.1875 29.4375 C-34.87111572 28.63699219 -34.87111572 28.63699219 -34.54833984 27.8203125 C-33.56543085 25.35424023 -32.56412248 22.89602791 -31.5625 20.4375 C-31.23121094 19.59832031 -30.89992188 18.75914063 -30.55859375 17.89453125 C-27.7339907 11.01955402 -24.24915941 4.14004168 -17.875 -0.0625 C-11.50872134 -2.65217267 -6.44907375 -2.2368409 0 0 Z M-21.62084961 7.25 C-25.72580258 13.18809384 -28.24508746 19.1875285 -30.5625 26 C-30.91699219 27.00869141 -31.27148438 28.01738281 -31.63671875 29.05664062 C-32.49827772 31.51324796 -33.34822451 33.97321021 -34.1875 36.4375 C-34.48406494 35.87877197 -34.78062988 35.32004395 -35.08618164 34.74438477 C-36.46537993 32.15815441 -37.85759172 29.57914057 -39.25 27 C-39.71599609 26.12150391 -40.18199219 25.24300781 -40.66210938 24.33789062 C-45.3885156 15.62458391 -50.00696285 7.75775277 -59.1875 3.4375 C-59.8475 3.1075 -60.5075 2.7775 -61.1875 2.4375 C-66.3333928 2.04586568 -71.64892926 1.68685107 -76.1875 4.4375 C-78.8513146 6.94340493 -79.40097982 8.96922473 -79.55981445 12.4987793 C-79.57270074 14.16971214 -79.56850946 15.84083027 -79.55078125 17.51171875 C-79.55214081 18.41628311 -79.55350037 19.32084747 -79.55490112 20.25282288 C-79.55342056 23.21053893 -79.52816256 26.16742573 -79.5 29.125 C-79.489325 31.16243482 -79.47866429 33.19986972 -79.46801758 35.23730469 C-79.37619941 47.56659761 -79.07071381 59.87720562 -78.375 72.1875 C-78.34024567 72.85897064 -78.30549133 73.53044128 -78.26968384 74.22225952 C-77.95039079 86.41479466 -77.95039079 86.41479466 -72.73876953 97.04980469 C-68.56093913 100.6423596 -65.79724629 101.55803648 -60.35546875 101.86328125 C-57.06859089 101.21775028 -55.48097774 99.84188858 -53.1875 97.4375 C-52.54558295 94.44213443 -52.54558295 94.44213443 -52.8125 91.1875 C-52.84601562 90.10984375 -52.87953125 89.0321875 -52.9140625 87.921875 C-53.14519052 84.43833443 -53.14519052 84.43833443 -53.70703125 81.015625 C-54.60014435 74.21422524 -54.29117336 67.28470757 -54.25 60.4375 C-54.24497576 58.98047029 -54.24041449 57.5234389 -54.23632812 56.06640625 C-54.22539388 52.5234023 -54.20818 48.98046203 -54.1875 45.4375 C-53.98181396 46.10281738 -53.77612793 46.76813477 -53.56420898 47.45361328 C-52.60818466 50.49794248 -51.61704559 53.52972711 -50.625 56.5625 C-50.30208984 57.60921875 -49.97917969 58.6559375 -49.64648438 59.734375 C-47.49876299 66.19799365 -45.30295646 70.99972232 -39.1875 74.4375 C-35.45813989 75.60255555 -32.09117004 75.7799272 -28.1875 75.4375 C-23.56834092 72.54698328 -22.13457471 69.70171858 -20.375 64.625 C-20.13563721 63.95009521 -19.89627441 63.27519043 -19.6496582 62.57983398 C-18.81215789 60.20458492 -17.99982956 57.8214716 -17.1875 55.4375 C-16.11565345 52.33868606 -15.04039484 49.24107436 -13.96411133 46.14379883 C-13.24290765 44.06199211 -12.52652848 41.97850723 -11.81518555 39.89331055 C-11.4881665 38.93980713 -11.16114746 37.98630371 -10.82421875 37.00390625 C-10.53248779 36.14740479 -10.24075684 35.29090332 -9.94018555 34.40844727 C-9.1875 32.4375 -9.1875 32.4375 -8.1875 31.4375 C-6.47276561 42.78904169 -5.17148832 54.0696205 -4.68359375 65.5390625 C-4.62667358 66.84613411 -4.62667358 66.84613411 -4.56860352 68.17961121 C-4.38307746 72.56728727 -4.22506833 76.95424399 -4.09814453 81.34399414 C-4.03595788 82.98325381 -3.97331512 84.62249625 -3.91015625 86.26171875 C-3.88978554 87.38853561 -3.88978554 87.38853561 -3.8690033 88.53811646 C-3.65977576 93.41897473 -2.66479056 96.00072314 0.8125 99.4375 C4.88740497 101.8145279 9.20364496 102.06132482 13.8125 101.4375 C17.55797604 99.70782287 17.55797604 99.70782287 19.8125 96.4375 C19.93617771 94.01903851 20.00045059 91.6306217 20.015625 89.2109375 C20.02263931 88.4795607 20.02965363 87.7481839 20.03688049 86.99464417 C20.05453703 84.60053472 20.06074742 82.20667246 20.0625 79.8125 C20.06317474 78.99750031 20.06384949 78.18250061 20.06454468 77.34280396 C20.42239502 39.87625349 20.42239502 39.87625349 5.375 6.87109375 C0.26042352 2.19605119 -5.27908685 0.92219874 -12.01953125 1.13671875 C-16.37714398 1.74128844 -18.94135029 3.86171811 -21.62084961 7.25 Z " fill="#080C0E" transform="translate(647.1875,47.5625)"/>
<path d="M0 0 C5.46027607 3.66797171 9.39558596 8.5465252 11.609375 14.75 C12.56645402 22.38290294 12.70846147 29.04597848 8.609375 35.75 C3.92619261 39.09513028 -0.81126534 39.64114772 -6.390625 38.75 C-10.38619641 37.2062565 -12.97924619 35.36706822 -15.390625 31.75 C-15.69053569 29.16114829 -15.89927725 26.65850918 -16.015625 24.0625 C-16.07363281 23.0096582 -16.07363281 23.0096582 -16.1328125 21.93554688 C-16.2268584 20.20745345 -16.3098218 18.47876325 -16.390625 16.75 C-21.78341962 24.38131314 -24.42912658 30.45551531 -25.390625 39.75 C-24.276875 39.853125 -23.163125 39.95625 -22.015625 40.0625 C-10.11515797 41.61018816 1.66099902 46.11294929 9.23828125 55.76171875 C13.84791314 62.44634164 14.66263306 68.81005459 13.609375 76.75 C11.06247815 85.05099713 5.82843655 90.93445364 -1.765625 95.03125 C-11.788754 99.64716467 -23.96997438 100.7897997 -34.6875 97.84375 C-41.14214186 94.79246476 -44.48468646 90.6089078 -48.390625 84.75 C-50.48390475 77.42352088 -49.91453914 70.45584506 -46.390625 63.75 C-43.8610032 60.76044696 -42.04021368 58.9194022 -38.0703125 58.51171875 C-31.31538881 58.33296729 -27.1343066 59.13360788 -21.390625 62.75 C-19.97427667 65.58269666 -20.0443245 68.22466438 -19.828125 71.375 C-19.74433594 72.56351562 -19.66054688 73.75203125 -19.57421875 74.9765625 C-19.51363281 75.89179688 -19.45304688 76.80703125 -19.390625 77.75 C-18.730625 77.75 -18.070625 77.75 -17.390625 77.75 C-15.81216629 73.60654589 -14.73040571 70.18290093 -15.390625 65.75 C-19.26183033 60.8865634 -22.86305571 59.64740989 -28.640625 58.25 C-37.97324748 55.73591795 -45.79620922 53.05685979 -51.390625 44.75 C-54.66546488 38.20032024 -54.36240204 30.32847512 -52.48046875 23.3984375 C-48.49023228 12.44132513 -42.84513805 2.62827139 -32.48828125 -3.34765625 C-21.97145158 -7.97162021 -9.80619805 -5.12742382 0 0 Z M-40.7578125 6.55859375 C-48.1566007 16.48854633 -51.63162264 27.4625913 -50.390625 39.75 C-48.46248907 45.774122 -44.13512215 49.22482625 -38.76171875 52.2109375 C-34.17784958 54.3036889 -29.46173674 55.47517747 -24.58007812 56.6796875 C-19.59626957 58.02882178 -16.78107601 59.65022239 -13.390625 63.75 C-11.85847612 66.81429776 -12.16123952 69.3665642 -12.390625 72.75 C-13.890625 75.5625 -13.890625 75.5625 -15.390625 77.75 C-15.390625 78.41 -15.390625 79.07 -15.390625 79.75 C-16.174375 80.059375 -16.958125 80.36875 -17.765625 80.6875 C-20.31392628 81.67875038 -20.31392628 81.67875038 -22.390625 82.75 C-22.40480469 81.48542969 -22.41898438 80.22085938 -22.43359375 78.91796875 C-22.48049185 77.25777588 -22.52873926 75.59762073 -22.578125 73.9375 C-22.58392578 73.10412109 -22.58972656 72.27074219 -22.59570312 71.41210938 C-22.67982854 66.48041721 -22.67982854 66.48041721 -25.5625 62.703125 C-28.67659515 61.65362332 -31.16782553 61.31665335 -34.453125 61.3125 C-35.47535156 61.29316406 -36.49757813 61.27382812 -37.55078125 61.25390625 C-41.08087612 61.87058032 -42.20251786 62.96604675 -44.390625 65.75 C-46.65864431 71.53344923 -47.96120622 78.07665714 -45.4453125 83.9609375 C-42.01768771 89.75987504 -37.89809023 93.70183365 -31.390625 95.75 C-20.53701832 96.9957876 -8.69628263 97.06559522 0.609375 90.75 C5.94600108 86.00537907 10.08229813 81.19338056 10.9453125 73.91796875 C11.04832665 66.05798912 10.19477731 60.86976515 4.984375 54.8828125 C-2.69657185 47.42589327 -12.7579233 44.61500049 -22.9921875 42.42578125 C-25.390625 41.75 -25.390625 41.75 -27.390625 39.75 C-28.50001698 31.1918333 -25.00936131 22.7903159 -19.828125 16 C-17.390625 13.75 -17.390625 13.75 -13.390625 13.75 C-13.38675781 15.62945312 -13.38675781 15.62945312 -13.3828125 17.546875 C-13.34528802 19.19795234 -13.3061405 20.84899335 -13.265625 22.5 C-13.26820313 23.325 -13.27078125 24.15 -13.2734375 25 C-13.19649312 27.38527571 -13.03913778 29.45181544 -12.390625 31.75 C-8.88396655 35.02121138 -6.044858 36.29986441 -1.265625 36.1875 C-0.43804688 36.18621094 0.38953125 36.18492188 1.2421875 36.18359375 C4.10084007 35.65997917 5.48875124 34.71181053 7.609375 32.75 C10.356435 26.84382099 10.48451004 20.8062563 8.484375 14.6875 C5.63717163 7.94691157 1.28544836 3.46191166 -5.40234375 0.52734375 C-18.19226881 -4.47303953 -31.07295177 -3.86952373 -40.7578125 6.55859375 Z " fill="#0A1013" transform="translate(831.390625,53.25)"/>
<path d="M0 0 C6.63328022 4.65378355 11.46162663 11.33306495 15.9140625 18.01171875 C16.01203125 17.20347656 16.11 16.39523438 16.2109375 15.5625 C17.73046337 4.70312974 17.73046337 4.70312974 21.9140625 1.01171875 C26.41823698 -1.6927108 30.7985093 -1.52081518 35.9140625 -0.98828125 C40.02682159 0.55400341 41.47187188 1.34843282 43.9140625 5.01171875 C44.12480069 8.03547814 44.21814686 10.96838977 44.22045898 13.99365234 C44.2287825 14.91264816 44.23710602 15.83164398 44.24568176 16.77848816 C44.26981592 19.82242037 44.27855797 22.86613845 44.28515625 25.91015625 C44.29411982 28.02381455 44.30324161 30.13747219 44.31251526 32.25112915 C44.32901699 36.68468774 44.33670756 41.1181707 44.33959961 45.55175781 C44.34498528 51.23384641 44.38266831 56.91522472 44.42834377 62.59711266 C44.45808071 66.96372068 44.46532244 71.33015696 44.46632576 75.69685745 C44.47053456 77.79165526 44.48299519 79.88645329 44.50384331 81.98115158 C44.5306881 84.91163161 44.52595271 87.84045605 44.51342773 90.77099609 C44.52826202 91.63662674 44.54309631 92.50225739 44.55838013 93.39411926 C44.50534736 97.74967141 44.32732672 99.48149266 41.56410217 103.02676392 C36.25370448 107.00440232 30.30326901 106.61176328 23.9140625 106.01171875 C18.88363976 103.71713996 16.86268811 101.13968089 14.9140625 96.01171875 C14.0783612 92.2451777 13.8332184 88.5966648 13.73828125 84.75390625 C13.70250977 83.32111328 13.70250977 83.32111328 13.66601562 81.859375 C13.6228823 79.87001382 13.59172195 77.88035861 13.57226562 75.890625 C13.54455078 74.93800781 13.51683594 73.98539062 13.48828125 73.00390625 C13.47369873 72.1413623 13.45911621 71.27881836 13.4440918 70.39013672 C12.74365158 67.24702819 11.22178374 66.22641358 8.9140625 64.01171875 C7.59924209 61.7989722 6.35154179 59.54533276 5.1640625 57.26171875 C4.84824219 56.65972656 4.53242188 56.05773437 4.20703125 55.4375 C3.43608355 53.96569075 2.67413926 52.48917133 1.9140625 51.01171875 C1.89947998 52.18154297 1.88489746 53.35136719 1.86987305 54.55664062 C1.81159867 58.92543043 1.73436887 63.29372045 1.65161133 67.66210938 C1.61849846 69.5474431 1.59042468 71.43287271 1.56762695 73.31835938 C1.53382874 76.03947547 1.4815022 78.75972363 1.42578125 81.48046875 C1.41619637 82.73096008 1.41619637 82.73096008 1.40641785 84.00671387 C1.26757664 89.61969884 0.32687808 93.91235745 -2.0859375 99.01171875 C-7.11132252 103.22775345 -12.70292166 104.37258273 -19.1171875 104.30078125 C-22.27974688 103.83643721 -23.94310684 102.28441793 -26.0859375 100.01171875 C-27.34198934 96.24356322 -27.25772065 92.70709749 -27.27880859 88.7800293 C-27.28698608 87.94066833 -27.29516357 87.10130737 -27.30358887 86.23651123 C-27.32841342 83.45716055 -27.34495063 80.67786082 -27.359375 77.8984375 C-27.36469868 76.9488447 -27.37002235 75.9992519 -27.37550735 75.02088356 C-27.40222512 69.99545728 -27.42160512 64.97005573 -27.43603516 59.94458008 C-27.44938066 55.7861535 -27.47724646 51.6282169 -27.51806641 47.4699707 C-27.5673656 42.44790982 -27.59215274 37.42629378 -27.59926224 32.40400124 C-27.60597666 30.4914343 -27.62120372 28.57887736 -27.64515305 26.66644859 C-27.67678801 23.98763693 -27.67684424 21.31054137 -27.66943359 18.6315918 C-27.68583893 17.84436234 -27.70224426 17.05713287 -27.71914673 16.24604797 C-27.65425437 10.50496011 -26.18384207 8.03630284 -22.0859375 4.01171875 C-19.953125 2.5859375 -19.953125 2.5859375 -17.9609375 1.69921875 C-17.29835938 1.39371094 -16.63578125 1.08820312 -15.953125 0.7734375 C-10.71829565 -1.36211004 -5.30629253 -2.51402998 0 0 Z M-24.0859375 10.01171875 C-24.47534648 12.96539189 -24.62315402 15.54433046 -24.58764648 18.49633789 C-24.59304947 19.35041733 -24.59845245 20.20449677 -24.60401917 21.0844574 C-24.61651967 23.90561649 -24.60000821 26.72575779 -24.58203125 29.546875 C-24.58218619 31.50695347 -24.58367439 33.46703224 -24.58644104 35.42710876 C-24.58782558 39.53365635 -24.57525662 43.6398549 -24.55249023 47.74633789 C-24.52408679 53.01481987 -24.5268473 58.28272263 -24.53958035 63.5512476 C-24.54652855 67.59782373 -24.53875838 71.64426552 -24.52632332 75.69082451 C-24.52180178 77.63372724 -24.52147813 79.57664436 -24.52538872 81.51954842 C-24.528293 84.23216552 -24.51183241 86.94397854 -24.48999023 89.65649414 C-24.49449188 90.46228912 -24.49899353 91.26808411 -24.50363159 92.09829712 C-24.47996437 96.30347389 -24.47996437 96.30347389 -22.70033264 100.00682068 C-19.20590652 102.18196478 -15.0163749 101.55364269 -11.0859375 101.01171875 C-7.69237583 99.80415575 -4.88360077 98.30256911 -2.93530273 95.1496582 C0.9679201 85.32484579 -0.74972225 71.79519922 -0.5234375 61.32421875 C-0.48015668 59.44725778 -0.43653966 57.57030453 -0.39257812 55.69335938 C-0.28648727 51.13289229 -0.18495004 46.57234477 -0.0859375 42.01171875 C0.25663086 42.62692383 0.59919922 43.24212891 0.95214844 43.87597656 C2.51591409 46.67512764 4.08986016 49.46842483 5.6640625 52.26171875 C6.20289063 53.22980469 6.74171875 54.19789062 7.296875 55.1953125 C7.82539063 56.12988281 8.35390625 57.06445312 8.8984375 58.02734375 C9.38022461 58.88618164 9.86201172 59.74501953 10.35839844 60.62988281 C11.82692833 63.09948774 11.82692833 63.09948774 14.07104492 64.95874023 C16.50440576 67.66931531 16.41144867 69.24154556 16.41796875 72.84375 C16.44600586 74.53661133 16.44600586 74.53661133 16.47460938 76.26367188 C16.47525391 77.43865234 16.47589844 78.61363281 16.4765625 79.82421875 C16.14862706 91.79152094 16.14862706 91.79152094 21.6953125 101.92578125 C24.69888577 103.39584 27.08107815 103.40965213 30.4140625 103.38671875 C32.10015625 103.39832031 32.10015625 103.39832031 33.8203125 103.41015625 C37.37918953 102.95181603 38.51545316 102.66443671 40.9140625 100.01171875 C41.31044332 96.92012454 41.45040895 94.18340284 41.41577148 91.08984375 C41.42117447 90.17738892 41.42657745 89.26493408 41.43214417 88.3248291 C41.44466924 85.30346411 41.42811524 82.283045 41.41015625 79.26171875 C41.41031115 77.16568959 41.41179863 75.06966015 41.41456604 72.97363281 C41.41595173 68.5786474 41.40336341 64.18398766 41.38061523 59.7890625 C41.35223028 54.14951145 41.35496575 48.51050175 41.36770535 42.87091064 C41.37465331 38.54210774 41.36688331 34.21343043 41.35444832 29.88464355 C41.34992524 27.80497723 41.34960446 25.72529746 41.35351372 23.64562988 C41.35641727 20.7413357 41.33995988 17.83779308 41.31811523 14.93359375 C41.32261688 14.07012329 41.32711853 13.20665283 41.33175659 12.3170166 C41.41750266 8.03152025 41.41750266 8.03152025 39.5773325 4.32989502 C36.1240544 1.59309988 32.35164556 1.6579567 28.13671875 1.75390625 C25.72188816 1.92137187 25.72188816 1.92137187 22.9765625 3.32421875 C18.16363029 9.59561527 18.66509352 18.41816474 18.9140625 26.01171875 C16.05202602 23.29309586 13.79007457 20.54187526 11.6015625 17.26171875 C5.63384909 8.10671205 5.63384909 8.10671205 -3.0859375 2.01171875 C-11.11527406 1.19517605 -18.97493547 3.4231341 -24.0859375 10.01171875 Z " fill="#060A0D" transform="translate(448.0859375,48.98828125)"/>
<path d="M0 0 C7.15479463 4.22914986 11.81431027 8.91252091 15.39453125 16.3984375 C16.54120973 22.1318299 16.723651 27.37196048 14.89453125 32.9609375 C12.52460118 36.19984193 10.81941784 37.23290998 7.01953125 38.5234375 C1.31920214 39.07508225 -4.0520014 38.71043717 -8.98046875 35.5234375 C-12.16053691 30.32932618 -12.96213179 24.47771363 -13.98046875 18.5234375 C-23.73680267 30.75359968 -23.85016182 47.58771685 -22.98046875 62.5234375 C-22.37398654 67.64759331 -21.41449433 71.96219629 -18.98046875 76.5234375 C-18.52164648 74.54438412 -18.06343967 72.56518806 -17.60546875 70.5859375 C-17.32703125 69.40257813 -17.04859375 68.21921875 -16.76171875 67 C-16.29925804 64.94204982 -15.86910132 62.87565026 -15.51171875 60.796875 C-14.82598808 56.85392363 -14.43050468 54.99715954 -11.60546875 52.0234375 C-6.36321117 49.02786174 -0.90307109 48.99096379 5.01953125 49.5234375 C9.13229034 51.06572216 10.57734063 51.86015157 13.01953125 55.5234375 C14.15448211 67.53280123 13.32295963 79.74695651 6.26953125 89.9609375 C0.45697877 96.88622043 -5.7926127 100.91629571 -14.88671875 101.80859375 C-25.38044326 102.29580239 -33.73096321 99.53389943 -41.85546875 92.8359375 C-50.73626122 84.24421242 -55.90966404 72.43643592 -56.546875 60.11328125 C-56.57443214 57.89600419 -56.57234804 55.67819117 -56.54296875 53.4609375 C-56.53273682 52.28571533 -56.52250488 51.11049316 -56.51196289 49.8996582 C-56.08522375 32.17608145 -51.21013213 13.87337539 -38.98046875 0.5234375 C-27.95568988 -7.95716163 -11.8269141 -5.85920515 0 0 Z M-38.60546875 4.21875 C-49.67450846 17.88901404 -53.15884783 34.71597438 -53.16796875 51.8359375 C-53.18021484 53.03412109 -53.19246094 54.23230469 -53.20507812 55.46679688 C-53.22801831 69.34561009 -49.79096955 80.24562888 -40.16796875 90.54296875 C-32.44143181 97.53824415 -24.75207583 98.96486125 -14.59375 98.859375 C-7.3201078 98.18312286 -2.1101482 95.0522313 2.89453125 89.8359375 C9.87697896 81.10787786 11.38727676 70.890733 11.3125 59.98828125 C11.19653159 57.32619086 11.19653159 57.32619086 9.14453125 54.8984375 C5.62152254 52.61884363 3.41193278 52.30944937 -0.79296875 52.2109375 C-1.83066406 52.17355469 -2.86835937 52.13617188 -3.9375 52.09765625 C-7.98201737 52.66357717 -9.32978277 53.37660925 -11.98046875 56.5234375 C-13.13696466 60.17427709 -13.68773293 63.86382435 -14.23046875 67.6484375 C-14.5460527 69.65137754 -14.86366034 71.6540001 -15.18359375 73.65625 C-15.37937012 74.98487061 -15.37937012 74.98487061 -15.57910156 76.34033203 C-15.98046875 78.5234375 -15.98046875 78.5234375 -16.98046875 80.5234375 C-17.97046875 80.8534375 -18.96046875 81.1834375 -19.98046875 81.5234375 C-21.20238484 78.51564405 -22.38630952 75.49433303 -23.54296875 72.4609375 C-23.79175781 71.80996094 -24.04054688 71.15898438 -24.296875 70.48828125 C-29.24232136 56.27365542 -26.6157555 36.89374612 -20.41235352 23.55419922 C-19.05361803 20.77550151 -17.67265321 18.11555642 -15.98046875 15.5234375 C-14.99046875 15.1934375 -14.00046875 14.8634375 -12.98046875 14.5234375 C-11.43326995 18.81472474 -10.06541099 22.78322655 -9.54296875 27.3359375 C-8.886868 31.05384175 -7.90274178 32.22104057 -4.98046875 34.5234375 C-0.99828496 36.51452939 3.68845515 36.02893774 8.01953125 35.5234375 C11.47468373 34.06881129 11.47468373 34.06881129 13.01953125 30.5234375 C14.11309286 24.1585672 14.03963456 18.27792504 10.64453125 12.6484375 C5.1305571 5.59055059 -3.0537 -0.05639474 -11.98046875 -1.4765625 C-21.53833491 -2.35075758 -31.50796233 -3.18586006 -38.60546875 4.21875 Z " fill="#090E10" transform="translate(758.98046875,51.4765625)"/>
<path d="M0 0 C5.19436498 0.05209249 9.25279289 1.181218 13.4375 4.3125 C16.43379541 7.49340129 17.02086059 10.28705188 17.625 14.5625 C17.78355469 15.64015625 17.94210937 16.7178125 18.10546875 17.828125 C18.21503906 18.64796875 18.32460938 19.4678125 18.4375 20.3125 C19.21673828 18.97445312 19.21673828 18.97445312 20.01171875 17.609375 C20.71564229 16.42678346 21.42009776 15.24450843 22.125 14.0625 C22.46466797 13.47597656 22.80433594 12.88945313 23.15429688 12.28515625 C25.44973121 8.46658324 27.65445773 5.69420192 31.4375 3.3125 C37.0093006 2.10486011 42.1066334 2.67826464 47 5.625 C49.58505957 7.41465663 50.63403626 8.60730439 52.4375 11.3125 C53.5181264 18.30478846 50.3216463 23.19454211 47 29.1875 C46.48373047 30.14914063 45.96746094 31.11078125 45.43554688 32.1015625 C41.66003024 39.08996976 41.66003024 39.08996976 40.4375 40.3125 C40.82046789 46.8496729 43.28617285 52.43115522 45.75 58.4375 C49.03874091 66.6460834 52.16023789 74.75704014 54.4375 83.3125 C54.66050781 84.1478125 54.88351562 84.983125 55.11328125 85.84375 C56.2200483 90.36116654 57.15182644 94.66937817 56.4375 99.3125 C53.9607289 102.328379 51.14616927 104.07627691 47.4375 105.3125 C41.5029515 105.8436472 36.44432791 105.88880565 31.4375 102.3125 C24.95485611 94.53332734 23.53543142 83.9391782 21.4375 74.3125 C21.40011719 75.61445312 21.36273438 76.91640625 21.32421875 78.2578125 C21.25853326 79.98440257 21.19208682 81.71096381 21.125 83.4375 C21.10244141 84.2934375 21.07988281 85.149375 21.05664062 86.03125 C20.84075787 91.13393324 20.32228622 94.92707677 17.4375 99.3125 C11.81961438 102.82367852 5.95453372 103.2154625 -0.5625 102.3125 C-4.47325925 100.32281547 -6.13939098 98.94716354 -8.5625 95.3125 C-12.98258208 78.83300322 -10.8429464 59.37974766 -10.91259766 42.3828125 C-10.9261046 39.39390608 -10.95432326 36.4056555 -10.99462891 33.41699219 C-11.04390011 29.75752648 -11.06870192 26.0986678 -11.07582474 22.43888474 C-11.08251216 21.05856969 -11.09766877 19.67826706 -11.12171555 18.29814529 C-11.29819829 7.59544523 -11.29819829 7.59544523 -9.44903564 4.37078857 C-8.09228516 2.99755859 -8.09228516 2.99755859 -5.5625 1.3125 C-3.94996547 -0.30003453 -2.22650957 0.06458577 0 0 Z M-7.5625 6.3125 C-8.76548095 13.28149306 -8.71740089 20.25536542 -8.6875 27.3125 C-8.68484131 28.46661377 -8.68218262 29.62072754 -8.67944336 30.80981445 C-8.62927904 40.37723039 -8.40944341 49.93720477 -8.125 59.5 C-8.1054425 60.17393799 -8.08588501 60.84787598 -8.06573486 61.54223633 C-7.92931103 66.13381681 -7.75342676 70.72289274 -7.5625 75.3125 C-7.5379071 76.02102112 -7.51331421 76.72954224 -7.48797607 77.45953369 C-7.41078485 79.61577386 -7.31485158 81.77049162 -7.21484375 83.92578125 C-7.16191162 85.19848877 -7.10897949 86.47119629 -7.05444336 87.7824707 C-6.52614294 91.57338675 -5.56918839 94.0669902 -3.5625 97.3125 C0.90101575 100.28817717 5.20172642 99.81292344 10.4375 99.3125 C14.80686489 97.79380027 14.80686489 97.79380027 17.4375 94.3125 C17.59270557 91.98976841 17.68769167 89.66290687 17.75390625 87.3359375 C17.77468735 86.65069 17.79546844 85.9654425 17.81687927 85.25942993 C17.88230185 83.06888931 17.94122554 80.87822811 18 78.6875 C18.04319218 77.2031125 18.0868067 75.71873722 18.13085938 74.234375 C18.23797553 70.59387916 18.33926362 66.95324749 18.4375 63.3125 C19.0975 63.3125 19.7575 63.3125 20.4375 63.3125 C23.63492673 71.10064555 25.70573227 79.0261512 27.51049805 87.22949219 C28.83910112 92.94432062 30.31604209 98.133132 35.37890625 101.66796875 C40.42284769 103.2471914 45.73968298 103.10943452 50.5 100.875 C52.32763772 99.45787332 52.32763772 99.45787332 53.4375 98.3125 C54.05982163 91.02615087 52.13683836 84.90186105 49.9375 78 C49.58308838 76.85877686 49.22867676 75.71755371 48.86352539 74.54174805 C46.3317196 66.58536035 43.4051595 58.89294225 39.7890625 51.36401367 C37.59103095 46.59851052 36.96896128 43.55728113 38.4375 38.3125 C39.65782642 35.86090253 40.87437705 33.62174401 42.3125 31.3125 C47.52887322 23.02329984 47.52887322 23.02329984 49.5625 13.625 C48.68161041 10.08243086 48.68161041 10.08243086 45.5 7.875 C41.12331386 5.80848221 36.11506776 4.91374179 31.4375 6.3125 C27.2408295 10.58209842 24.23284929 15.59523138 21.125 20.6875 C20.67060547 21.42355469 20.21621094 22.15960938 19.74804688 22.91796875 C18.64036364 24.71358157 17.53833839 26.51268268 16.4375 28.3125 C16.33953125 27.07113281 16.2415625 25.82976562 16.140625 24.55078125 C15.99049828 22.90877026 15.83940569 21.26684737 15.6875 19.625 C15.625625 18.80837891 15.56375 17.99175781 15.5 17.15039062 C15.00703949 12.07700541 14.30520366 8.95064571 10.4375 5.3125 C7.30309129 3.18213186 4.62269757 3.01529672 0.875 3 C-0.55005859 2.97486328 -0.55005859 2.97486328 -2.00390625 2.94921875 C-5.03524543 3.37962263 -5.68201858 3.96845651 -7.5625 6.3125 Z " fill="#0B0E11" transform="translate(297.5625,47.6875)"/>
<path d="M0 0 C2.04483434 1.54598464 3.37116933 2.99110884 5 5 C5.495 5.495 5.495 5.495 6 6 C5.76732673 12.28217822 5.76732673 12.28217822 3.0625 14.8125 C0.25839298 15.8998068 -2.11421041 16.39231542 -5.0625 16.875 C-8.6826286 17.52049098 -9.74976543 17.76227716 -12.5 20.375 C-12.995 21.24125 -13.49 22.1075 -14 23 C-14.5878125 23.928125 -14.5878125 23.928125 -15.1875 24.875 C-16.32778516 27.85728427 -16.63546488 30.84069561 -17 34 C-15.906875 33.9175 -14.81375 33.835 -13.6875 33.75 C-7.47667579 33.77210258 -1.19311416 35.61204609 3.8125 39.35546875 C6.28269316 41.97303139 7.017637 44.10229459 7.625 47.625 C7 51 7 51 4.6875 53.375 C0.85649811 55.69141975 -2.05143398 56.1042065 -6.4375 56.3125 C-10.76597643 56.68355938 -10.76597643 56.68355938 -14.5625 58.6875 C-18.61874538 65.21276431 -18.21731593 71.53881976 -18 79 C-15.86461214 77.40904304 -15.86461214 77.40904304 -14 75 C-13.66628509 71.85478222 -13.66628509 71.85478222 -14 68.5 C-14.43697479 62.54621849 -14.43697479 62.54621849 -12.125 59.65625 C-7.68643584 56.19678087 -3.45622128 56.5500867 2 57 C7.05605087 58.20926264 10.1641406 60.63713938 13 65 C15.02648187 71.07944561 14.85811214 77.7394146 12.4375 83.6875 C7.78840218 92.78994415 1.56664996 97.81111668 -8 101 C-19.22872892 101.97399136 -28.85527313 100.96807705 -37.9375 93.625 C-38.618125 92.75875 -39.29875 91.8925 -40 91 C-40.43828125 90.45214844 -40.8765625 89.90429688 -41.328125 89.33984375 C-47.60940919 81.12724517 -48.04249471 72.03089406 -47 62 C-45.46641199 55.43877294 -42.54170681 49.69202881 -39 44 C-39.61875 43.113125 -40.2375 42.22625 -40.875 41.3125 C-45.50663726 34.09259486 -46.19806719 27.52020832 -44.3828125 19.15625 C-41.76758301 10.91711991 -36.87988739 4.12180038 -29.4375 -0.4375 C-18.8195755 -5.26382932 -10.39993324 -5.07790168 0 0 Z M-37 10 C-41.66850304 17.36134971 -42.82043701 24.34712429 -42 33 C-40.71048986 36.90519895 -38.93412858 40.06587142 -36 43 C-36.45815918 46.88229617 -38.57730897 49.56714881 -40.74609375 52.70703125 C-45.24561308 60.93512424 -45.58574237 72.59056226 -43.34765625 81.63671875 C-42.41436409 83.67554153 -41.40597586 85.25608929 -40 87 C-39.51402344 87.62132812 -39.02804687 88.24265625 -38.52734375 88.8828125 C-33.12861516 94.98350344 -27.13549483 97.60005683 -19.08203125 98.37890625 C-11.88632994 98.69604202 -4.77886794 98.83372599 1 94 C7.17293104 88.10309434 11.09412205 82.71321542 11.4375 74 C11.30500895 68.66061064 10.61015039 65.91959186 7 62 C3.55324591 59.70216394 2.06671888 59.70245117 -2 59.6875 C-3.051875 59.67074219 -4.10375 59.65398437 -5.1875 59.63671875 C-7.94747619 59.80567056 -7.94747619 59.80567056 -9.84765625 61.08984375 C-12.08839147 64.80414722 -11.42881344 69.329484 -11.49609375 73.5546875 C-12.08003696 77.54722941 -13.10217868 79.23365878 -16 82 C-16.99 82 -17.98 82 -19 82 C-21.47830784 76.11401887 -22.22549707 69.86859614 -20.27734375 63.71875 C-18.31403301 59.45828621 -16.22168151 56.24557527 -12 54 C-9.20202669 53.62018462 -6.42321112 53.43273308 -3.60546875 53.2578125 C-0.31972782 52.93268671 1.64285484 52.35714516 4 50 C4.91738597 47.08750447 4.91738597 47.08750447 4 44 C-0.33418899 39.45942106 -4.41048902 37.14397762 -10.82421875 36.88671875 C-13.5531142 36.87623644 -16.27264302 36.91264693 -19 37 C-19.49926469 30.25992671 -18.42473529 24.8970294 -15 19 C-11.61177426 15.15532934 -8.22781889 13.81491121 -3.1875 13.3125 C-2.06408203 13.27576172 -2.06408203 13.27576172 -0.91796875 13.23828125 C1.24003563 13.16965376 1.24003563 13.16965376 3 11 C3.14603837 8.03451971 3.14603837 8.03451971 2 5 C-3.54579679 0.35700734 -9.42437543 -1.51287499 -16.57421875 -1.30859375 C-24.7502786 -0.26848308 -31.62207452 3.83960499 -37 10 Z " fill="#090F12" transform="translate(404,51)"/>
<path d="M0 0 C1.08655884 -0.00855011 1.08655884 -0.00855011 2.19506836 -0.01727295 C3.71434095 -0.02664461 5.23363315 -0.03322536 6.75292969 -0.03710938 C9.05700297 -0.04685176 11.36019622 -0.0779631 13.6640625 -0.109375 C22.40919152 -0.17201783 29.10816493 0.27556337 36.8125 4.828125 C40.54551942 8.76853439 42.85898483 13.16977982 43.2265625 18.6484375 C42.96395018 22.43755805 42.49216998 24.6302317 40.1875 27.703125 C36.91524108 30.01295483 34.27187634 30.34036009 30.375 30.328125 C29.56675781 30.33070312 28.75851563 30.33328125 27.92578125 30.3359375 C24.2675795 30.16625284 20.6950275 29.67056544 17.0625 29.203125 C17.03754075 35.23136096 17.01951879 41.25956598 17.00756836 47.2878418 C17.00257955 49.33309453 16.99578611 51.37834378 16.98706055 53.42358398 C16.94139821 64.41209156 17.00555474 75.25859448 18.0625 86.203125 C18.82169323 96.93778354 18.82169323 96.93778354 16 100.703125 C10.82529593 105.10712847 5.93489535 106.8295047 -0.79296875 106.54296875 C-4.40411945 105.9707099 -6.30773598 104.70766216 -8.9375 102.203125 C-12.63173256 94.89697344 -12.34297999 87.75021973 -12.265625 79.7109375 C-12.26256225 78.31468917 -12.26069006 76.91843777 -12.25994873 75.52218628 C-12.25537039 72.61232607 -12.24103316 69.70274643 -12.21875 66.79296875 C-12.19031111 63.06041577 -12.17951991 59.32808145 -12.1750679 55.59543037 C-12.17091836 52.71987726 -12.16110734 49.84436834 -12.14919281 46.96883774 C-12.14349388 45.59169746 -12.13873392 44.21455296 -12.13492584 42.83740616 C-12.1280703 40.92038679 -12.11354165 39.00339944 -12.09863281 37.08642578 C-12.09180481 35.99580841 -12.08497681 34.90519104 -12.07794189 33.78152466 C-11.9375 31.203125 -11.9375 31.203125 -10.9375 29.203125 C-11.79021484 29.25533203 -11.79021484 29.25533203 -12.66015625 29.30859375 C-19.57210707 29.5509159 -24.3734529 28.42529916 -29.75 23.765625 C-33.27388443 19.63764609 -34.56869612 16.79480051 -34.359375 11.1640625 C-33.76273211 8.39077795 -32.32812587 6.84149202 -30.0390625 5.23046875 C-20.93302624 0.77900493 -9.98799464 0.06267 0 0 Z M-31.9375 11.203125 C-32.07033027 16.78199647 -29.18518526 19.66860567 -25.62890625 23.56640625 C-22.45473995 26.63794361 -19.61554346 26.4703181 -15.3125 26.765625 C-14.12398437 26.84941406 -12.93546875 26.93320313 -11.7109375 27.01953125 C-10.33808594 27.11041016 -10.33808594 27.11041016 -8.9375 27.203125 C-8.94416183 28.04171051 -8.95082367 28.88029602 -8.95768738 29.74429321 C-9.01787928 37.65967873 -9.06351542 45.57498702 -9.09293652 53.49054909 C-9.10857087 57.55971695 -9.12976809 61.62869517 -9.16381836 65.69775391 C-9.19649183 69.62701651 -9.21436979 73.55609707 -9.22213173 77.48548508 C-9.22766095 78.98215982 -9.23845824 80.47882497 -9.25469017 81.97542191 C-9.27657143 84.07709277 -9.27946258 86.17801812 -9.27807617 88.27978516 C-9.28473801 89.47447418 -9.29139984 90.66916321 -9.29826355 91.90005493 C-8.88987198 95.6391965 -7.91048017 98.01515676 -5.9375 101.203125 C-2.20453771 103.69176652 0.74045438 103.72652869 5.0625 103.203125 C8.98314977 102.06963021 12.57100867 100.52619321 15.0625 97.203125 C15.44777016 94.51790375 15.44777016 94.51790375 15.28125 91.46484375 C15.25417969 90.30001465 15.22710937 89.13518555 15.19921875 87.93505859 C15.15410156 86.70352051 15.10898438 85.47198242 15.0625 84.203125 C15.02769531 83.00123535 14.99289063 81.7993457 14.95703125 80.56103516 C14.83961066 76.71196785 14.70192879 72.86395384 14.5625 69.015625 C14.06784184 54.74018174 13.94185121 40.48794149 14.0625 26.203125 C14.63315186 26.27168701 15.20380371 26.34024902 15.79174805 26.41088867 C20.48859893 26.95710236 25.14338491 27.406918 29.875 27.515625 C31.49341797 27.57169922 31.49341797 27.57169922 33.14453125 27.62890625 C36.76155951 27.10112033 37.88842496 26.08984221 40.0625 23.203125 C40.84075745 18.14445161 39.79492086 14.40197916 37.40625 10 C34.54919552 6.17952017 30.50749984 4.68479161 26.0625 3.203125 C23.50650304 3.0822481 20.97872883 3.01498975 18.421875 3 C17.28301849 2.99144989 17.28301849 2.99144989 16.12115479 2.98272705 C14.50721628 2.97327578 12.89325846 2.96674256 11.27929688 2.96289062 C8.86291183 2.95332457 6.44743027 2.92236464 4.03125 2.890625 C-15.40145947 2.52662962 -15.40145947 2.52662962 -31.9375 11.203125 Z " fill="#0E1215" transform="translate(174.9375,46.796875)"/>
<path d="M0 0 C11.35848407 4.89472211 17.5770742 11.16742623 22.375 22.5625 C25.48898858 30.48543298 25.24874934 38.57084281 25.24780273 46.95019531 C25.24997982 49.10502157 25.26814337 51.25932717 25.28710938 53.4140625 C25.35444476 69.45483547 22.54548273 84.3499022 11.0625 96.375 C4.78611314 102.06559075 -1.9868665 103.8203032 -10.3828125 103.62890625 C-18.52394645 102.81977214 -25.35709765 99.27569992 -31 93.375 C-34.88461763 88.59549663 -36.94209319 83.14894311 -38.9375 77.375 C-39.25976562 76.4675 -39.58203125 75.56 -39.9140625 74.625 C-45.96933721 53.79938229 -43.20448944 26.53169982 -32.9375 7.375 C-25.89550673 -3.91024563 -11.52420255 -3.89023222 0 0 Z M-29.4765625 7.05859375 C-40.37082673 24.65400612 -42.01099777 50.92882205 -37.9921875 70.84765625 C-35.32033599 81.81445722 -31.38250423 90.78402965 -21.9375 97.375 C-15.07193493 101.49433904 -7.06237975 101.60219259 0.65625 99.75390625 C9.51700493 96.340088 14.10252607 89.04470601 18.01953125 80.76953125 C25.42180498 63.77479792 25.72689421 41.02831881 20.0625 23.375 C16.0129647 13.49658812 10.47230052 7.72962876 0.95703125 3.13671875 C-3.71873556 1.25677127 -8.32118192 1.12682111 -13.3125 1.0625 C-14.055 1.03349609 -14.7975 1.00449219 -15.5625 0.97460938 C-21.5796953 0.90550731 -25.30498276 2.49526667 -29.4765625 7.05859375 Z " fill="#0A0D10" transform="translate(535.9375,50.625)"/>
<path d="M0 0 C11.35848407 4.89472211 17.5770742 11.16742623 22.375 22.5625 C25.48898858 30.48543298 25.24874934 38.57084281 25.24780273 46.95019531 C25.24997982 49.10502157 25.26814337 51.25932717 25.28710938 53.4140625 C25.35444476 69.45483547 22.54548273 84.3499022 11.0625 96.375 C4.78611314 102.06559075 -1.9868665 103.8203032 -10.3828125 103.62890625 C-18.52394645 102.81977214 -25.35709765 99.27569992 -31 93.375 C-34.88461763 88.59549663 -36.94209319 83.14894311 -38.9375 77.375 C-39.25976562 76.4675 -39.58203125 75.56 -39.9140625 74.625 C-45.96933721 53.79938229 -43.20448944 26.53169982 -32.9375 7.375 C-25.89550673 -3.91024563 -11.52420255 -3.89023222 0 0 Z M-29.4765625 7.05859375 C-40.37082673 24.65400612 -42.01099777 50.92882205 -37.9921875 70.84765625 C-35.32033599 81.81445722 -31.38250423 90.78402965 -21.9375 97.375 C-15.07193493 101.49433904 -7.06237975 101.60219259 0.65625 99.75390625 C9.51700493 96.340088 14.10252607 89.04470601 18.01953125 80.76953125 C25.42180498 63.77479792 25.72689421 41.02831881 20.0625 23.375 C16.0129647 13.49658812 10.47230052 7.72962876 0.95703125 3.13671875 C-3.71873556 1.25677127 -8.32118192 1.12682111 -13.3125 1.0625 C-14.055 1.03349609 -14.7975 1.00449219 -15.5625 0.97460938 C-21.5796953 0.90550731 -25.30498276 2.49526667 -29.4765625 7.05859375 Z " fill="#0A0D10" transform="translate(257.9375,50.625)"/>
<path d="M0 0 C0.66 0.33 1.32 0.66 2 1 C2.8671776 4.12777647 3.11165851 7.40735101 3.5 10.625 C3.63035645 11.65085205 3.76071289 12.6767041 3.89501953 13.73364258 C4.72340512 20.85498707 5.17846353 27.93694944 5.4609375 35.09765625 C5.49701111 35.96928406 5.53308472 36.84091187 5.57025146 37.73895264 C5.74819108 42.12802887 5.8962285 46.51533108 6.00195312 50.90673828 C6.06042187 52.5459263 6.11963406 54.18508802 6.1796875 55.82421875 C6.18809662 56.57542496 6.19650574 57.32663116 6.20516968 58.1006012 C6.37327372 62.03068691 6.87482213 63.84385735 9.36376953 66.94848633 C13.05882908 69.82398043 15.64286448 70.12152124 20.1875 70.0625 C21.08855469 70.05347656 21.98960937 70.04445313 22.91796875 70.03515625 C23.60503906 70.02355469 24.29210937 70.01195312 25 70 C24.505 71.485 24.505 71.485 24 73 C13.31412104 73.62247839 13.31412104 73.62247839 8.4375 71.3125 C3.84824572 66.95859209 2.15764067 62.96169353 1.82641602 56.73876953 C1.80248779 55.46630371 1.77855957 54.19383789 1.75390625 52.8828125 C1.72090874 51.4557244 1.68769829 50.02864121 1.65429688 48.6015625 C1.60741899 46.37959935 1.5630861 44.1576467 1.52319336 41.93554688 C1.33886223 32.12515711 0.64587664 22.69441542 -1 13 C-1.25168945 13.75619629 -1.50337891 14.51239258 -1.76269531 15.29150391 C-2.91596206 18.7391478 -4.0828324 22.18203853 -5.25 25.625 C-5.64574219 26.81480469 -6.04148437 28.00460938 -6.44921875 29.23046875 C-11.18326431 43.1221762 -11.18326431 43.1221762 -17 47 C-22.82718687 47.6690762 -28.2166101 47.84476364 -33.5625 45.3125 C-37.59020812 41.49134101 -40.02954009 38.17677845 -42 33 C-42.1741858 43.17246865 -42.1741858 43.17246865 -41.5 53.3125 C-40.01320646 66.60487809 -40.01320646 66.60487809 -42.8125 70.5625 C-45 72 -45 72 -48 73 C-46.125 68.125 -46.125 68.125 -45 67 C-44.8992108 64.98125162 -44.87035877 62.95875751 -44.875 60.9375 C-44.87242187 59.83277344 -44.86984375 58.72804687 -44.8671875 57.58984375 C-44.94314939 53.96742981 -44.94314939 53.96742981 -45.50219727 50.27563477 C-46.0288774 46.17989071 -46.12894597 42.12572549 -46.09765625 38 C-46.0962413 37.2788501 -46.09482635 36.5577002 -46.09336853 35.81469727 C-46.08783381 33.54308676 -46.07529423 31.27158 -46.0625 29 C-46.05747654 27.44661602 -46.05291512 25.89323048 -46.04882812 24.33984375 C-46.03788589 20.55985672 -46.0206676 16.77994586 -46 13 C-43.66582999 15.33417001 -43.23983217 16.91803126 -42.265625 20.05078125 C-41.93820312 21.05947266 -41.61078125 22.06816406 -41.2734375 23.10742188 C-40.59597861 25.22900593 -39.92913955 27.35401302 -39.2734375 29.48242188 C-37.21600811 35.74641716 -35.62701992 39.41287102 -30 43 C-28.09291157 43.91428339 -28.09291157 43.91428339 -26 44 C-24.2984375 44.185625 -24.2984375 44.185625 -22.5625 44.375 C-17.8965548 43.88384787 -16.96015414 42.58611674 -14 39 C-12.62836624 36.24724348 -11.66220027 33.40682043 -10.703125 30.48828125 C-10.42402283 29.67884567 -10.14492065 28.8694101 -9.85736084 28.03544617 C-8.97444917 25.46559903 -8.11180737 22.88949191 -7.25 20.3125 C-6.36935079 17.72652381 -5.48468824 15.1419444 -4.59979248 12.55741882 C-4.0520961 10.95265079 -3.50775514 9.34673288 -2.96710205 7.73957825 C-1.10299873 2.20599746 -1.10299873 2.20599746 0 0 Z " fill="#061017" transform="translate(638,78)"/>
<path d="M0 0 C3.15373735 0.81287194 5.68336597 1.68336597 8 4 C10.95963283 10.45742278 11.52196273 16.09412353 11.671875 23.14453125 C11.70448425 24.22595901 11.73709351 25.30738678 11.77069092 26.42158508 C12.10599965 38.58118077 12.22119498 50.74563313 12.24023438 62.90942383 C12.2501625 66.75036577 12.28143756 70.59081822 12.3125 74.43164062 C12.31901297 76.89583023 12.32427008 79.36002355 12.328125 81.82421875 C12.3404718 82.9616301 12.3528186 84.09904144 12.36553955 85.2709198 C12.34962805 90.89112381 12.32137259 95.21573629 9 100 C3.93032852 103.80225361 -1.90911444 103.8326322 -8 103 C-11.91075925 101.01031547 -13.57689098 99.63466354 -16 96 C-16.97508805 90.95898834 -17.15321723 85.98326964 -17.16113281 80.86499023 C-17.16609772 80.08356659 -17.17106262 79.30214294 -17.17617798 78.49703979 C-17.19068165 75.93421525 -17.19757939 73.37145244 -17.203125 70.80859375 C-17.20595238 69.92886461 -17.20877975 69.04913548 -17.21169281 68.14274788 C-17.22663247 63.4933556 -17.2358967 58.84399397 -17.24023438 54.19458008 C-17.24573192 49.40071936 -17.26980176 44.60714081 -17.29820633 39.8133688 C-17.3168453 36.11671629 -17.32203883 32.42013188 -17.32357025 28.72343636 C-17.32659109 26.95603952 -17.33460037 25.18864372 -17.34775543 23.42129326 C-17.3648533 20.9491818 -17.36292752 18.4777622 -17.35644531 16.00561523 C-17.3656601 15.28077438 -17.37487488 14.55593353 -17.3843689 13.80912781 C-17.34613966 9.14350183 -16.50149882 5.94275107 -14 2 C-9.4981235 -1.001251 -5.27482779 -0.561305 0 0 Z M-12.64160156 4.46655273 C-14.66724203 8.24442317 -14.47987982 11.76842947 -14.51171875 15.99609375 C-14.52976059 16.88912704 -14.54780243 17.78216034 -14.56639099 18.70225525 C-14.62127068 21.61396163 -14.65493437 24.52546547 -14.6875 27.4375 C-14.7195983 29.44158432 -14.75264308 31.4456537 -14.78662109 33.44970703 C-14.88006924 39.29963191 -14.94359772 45.14961701 -15 51 C-15.01675713 52.56233732 -15.0335209 54.12467456 -15.05029297 55.68701172 C-15.08941453 59.58298058 -15.11152948 63.47884905 -15.125 67.375 C-15.12975342 68.46868896 -15.13450684 69.56237793 -15.1394043 70.68920898 C-15.13289769 73.79527245 -15.081938 76.89503192 -15 80 C-14.9700293 81.2262207 -14.94005859 82.45244141 -14.90917969 83.71582031 C-14.85407227 84.95686523 -14.79896484 86.19791016 -14.7421875 87.4765625 C-14.69690918 88.60400879 -14.65163086 89.73145508 -14.60498047 90.89306641 C-13.88550837 94.58798246 -12.59079626 96.31426265 -10 99 C-7.30893093 100.34553453 -5.12834578 100.20594114 -2.125 100.25 C-1.07570313 100.27578125 -0.02640625 100.3015625 1.0546875 100.328125 C4.35527185 99.96042064 5.66663604 99.3225111 8 97 C9.07244229 93.78267312 9.12688628 91.4687171 9.12939453 88.0859375 C9.13254669 86.86616211 9.13569885 85.64638672 9.13894653 84.38964844 C9.13715343 83.05143193 9.13510166 81.71321575 9.1328125 80.375 C9.13348725 78.98990868 9.1344587 77.60481748 9.13571167 76.21972656 C9.13718842 73.30435061 9.13504003 70.38900522 9.13037109 67.47363281 C9.12475774 63.79467779 9.1280168 60.11579621 9.13377762 56.43684387 C9.17300449 37.62028341 9.17300449 37.62028341 8.6796875 18.8125 C8.65770294 18.08321289 8.63571838 17.35392578 8.61306763 16.60253906 C8.37718053 12.09529147 7.33364471 8.85760576 5 5 C1.86738701 2.65899764 -1.22777684 2.67251825 -5.0625 2.625 C-6.10535156 2.59664062 -7.14820313 2.56828125 -8.22265625 2.5390625 C-11.01200749 2.74745837 -11.01200749 2.74745837 -12.64160156 4.46655273 Z " fill="#0D0F10" transform="translate(688,49)"/>
<path d="M0 0 C6.63328022 4.65378355 11.46162663 11.33306495 15.9140625 18.01171875 C16.01203125 17.20347656 16.11 16.39523438 16.2109375 15.5625 C17.73046337 4.70312974 17.73046337 4.70312974 21.9140625 1.01171875 C26.41823698 -1.6927108 30.7985093 -1.52081518 35.9140625 -0.98828125 C40.02682159 0.55400341 41.47187188 1.34843282 43.9140625 5.01171875 C44.09904386 8.06308961 44.16611342 11.02198371 44.14111328 14.07299805 C44.14140533 15.00002533 44.14169739 15.92705261 44.14199829 16.88217163 C44.14060354 19.95018838 44.12503543 23.0179631 44.109375 26.0859375 C44.10564539 28.21157193 44.10279817 30.33720808 44.10079956 32.46284485 C44.09315904 38.06064592 44.0735069 43.6583434 44.0513916 49.25610352 C44.03094223 54.96694538 44.02179979 60.67780396 44.01171875 66.38867188 C43.99026145 77.59639971 43.9561204 88.80405062 43.9140625 100.01171875 C42.4290625 99.51671875 42.4290625 99.51671875 40.9140625 99.01171875 C39.85242745 89.59544879 39.84175915 80.28985414 39.96115875 70.8337841 C40.00374725 67.25524289 40.02678159 63.6766509 40.05118942 60.09794712 C40.09672704 53.46033491 40.15055406 46.82301625 40.23632812 40.18579102 C40.2955883 35.54245897 40.33064397 30.89949549 40.34951019 26.25583076 C40.36126077 24.49146794 40.38208725 22.72714139 40.41214752 20.96299553 C40.45300178 18.5073378 40.46303011 16.05336563 40.46582031 13.59741211 C40.48536774 12.86964066 40.50491516 12.1418692 40.52505493 11.39204407 C40.56289228 9.1313042 40.56289228 9.1313042 39.9140625 6.01171875 C36.79526614 3.46782426 34.3514958 2.59498032 30.3515625 2.63671875 C29.23587891 2.62511719 29.23587891 2.62511719 28.09765625 2.61328125 C25.29119446 3.12537267 24.01279922 4.08935986 21.9140625 6.01171875 C21.09988994 8.20561268 21.09988994 8.20561268 20.8671875 10.6796875 C20.68349609 12.01870117 20.68349609 12.01870117 20.49609375 13.38476562 C20.38652344 14.31353516 20.27695312 15.24230469 20.1640625 16.19921875 C19.97650391 17.60977539 19.97650391 17.60977539 19.78515625 19.04882812 C19.47904262 21.36822756 19.18936066 23.68849406 18.9140625 26.01171875 C14.95276485 24.6912862 14.35806734 22.95523849 12.1640625 19.44921875 C6.10344679 9.56778935 6.10344679 9.56778935 -3.0859375 3.01171875 C-10.24334247 2.28384706 -15.70534642 4.08774139 -21.67773438 8.07421875 C-23.91073119 11.14652505 -23.56733658 14.51674204 -23.59765625 18.1796875 C-23.61560745 18.97450027 -23.63355865 19.76931305 -23.65205383 20.58821106 C-23.7062072 23.12515976 -23.74006778 25.66191982 -23.7734375 28.19921875 C-23.80660624 29.91994816 -23.84109549 31.64065265 -23.87695312 33.36132812 C-23.96193623 37.57798897 -24.02872292 41.79459339 -24.0859375 46.01171875 C-24.4159375 46.01171875 -24.7459375 46.01171875 -25.0859375 46.01171875 C-25.11099365 45.02776123 -25.1360498 44.04380371 -25.16186523 43.0300293 C-25.2560457 39.37901818 -25.3562404 35.72819259 -25.45825195 32.07739258 C-25.50156055 30.4973586 -25.54323856 28.91727906 -25.58325195 27.3371582 C-25.64105333 25.06577827 -25.7047191 22.79462686 -25.76953125 20.5234375 C-25.78624374 19.81708664 -25.80295624 19.11073578 -25.82017517 18.38298035 C-25.9119122 15.34523635 -26.11801436 12.91548817 -27.0859375 10.01171875 C-21.69165237 1.83328646 -9.67804962 -4.58529317 0 0 Z " fill="#070E13" transform="translate(448.0859375,48.98828125)"/>
<path d="M0 0 C0.66 0 1.32 0 2 0 C7.98840894 14.32010834 8.22193844 34.58132253 3.19921875 49.35546875 C2.53434993 50.93413833 1.78021399 52.47503629 1 54 C0.34 54 -0.32 54 -1 54 C-6.87823179 37.41498889 -5.52338057 16.57014172 0 0 Z " fill="#F5F5F5" transform="translate(527,73)"/>
<path d="M0 0 C0.66 0 1.32 0 2 0 C7.98840894 14.32010834 8.22193844 34.58132253 3.19921875 49.35546875 C2.53434993 50.93413833 1.78021399 52.47503629 1 54 C0.34 54 -0.32 54 -1 54 C-6.87823179 37.41498889 -5.52338057 16.57014172 0 0 Z " fill="#F5F5F5" transform="translate(249,73)"/>
<path d="M0 0 C7.56742641 6.78458919 8.53237889 15.38797212 9.12988281 25.11425781 C9.74320371 39.10912555 9.50071134 54.75263978 0 66 C-0.66 66 -1.32 66 -2 66 C-2.6483289 63.77155786 -3.29356369 61.5422154 -3.9375 59.3125 C-4.29714844 58.07113281 -4.65679688 56.82976562 -5.02734375 55.55078125 C-9.77856621 38.20595707 -8.45089704 16.02756335 0 0 Z M0 6 C-5.74957776 22.2341019 -6.80039762 43.63459244 -1 60 C-0.34 60 0.32 60 1 60 C7.31229142 44.29267019 7.96472432 26.51968467 4 10 C3.01164319 7.73325759 3.01164319 7.73325759 2 6 C1.34 6 0.68 6 0 6 Z " fill="#060E12" transform="translate(527,67)"/>
<path d="M0 0 C7.56742641 6.78458919 8.53237889 15.38797212 9.12988281 25.11425781 C9.74320371 39.10912555 9.50071134 54.75263978 0 66 C-0.66 66 -1.32 66 -2 66 C-2.6483289 63.77155786 -3.29356369 61.5422154 -3.9375 59.3125 C-4.29714844 58.07113281 -4.65679687 56.82976562 -5.02734375 55.55078125 C-9.77856621 38.20595707 -8.45089704 16.02756335 0 0 Z M0 6 C-5.74957776 22.2341019 -6.80039762 43.63459244 -1 60 C-0.34 60 0.32 60 1 60 C7.31229142 44.29267019 7.96472432 26.51968467 4 10 C3.01164319 7.73325759 3.01164319 7.73325759 2 6 C1.34 6 0.68 6 0 6 Z " fill="#060E12" transform="translate(249,67)"/>
<path d="M0 0 C0.66 0.33 1.32 0.66 2 1 C2.8671776 4.12777647 3.11165851 7.40735101 3.5 10.625 C3.69553467 12.16377808 3.69553467 12.16377808 3.89501953 13.73364258 C4.72340512 20.85498707 5.17846353 27.93694944 5.4609375 35.09765625 C5.49701111 35.96928406 5.53308472 36.84091187 5.57025146 37.73895264 C5.74819108 42.12802887 5.8962285 46.51533108 6.00195312 50.90673828 C6.06042187 52.5459263 6.11963406 54.18508802 6.1796875 55.82421875 C6.19230118 56.95102806 6.19230118 56.95102806 6.20516968 58.1006012 C6.37327372 62.03068691 6.87482213 63.84385735 9.36376953 66.94848633 C13.05882908 69.82398043 15.64286448 70.12152124 20.1875 70.0625 C21.08855469 70.05347656 21.98960937 70.04445313 22.91796875 70.03515625 C23.60503906 70.02355469 24.29210937 70.01195312 25 70 C24.67 70.99 24.34 71.98 24 73 C13.31412104 73.62247839 13.31412104 73.62247839 8.4375 71.3125 C3.86780491 66.97714825 2.16123508 62.98500323 1.82641602 56.78637695 C1.80248779 55.53300537 1.77855957 54.27963379 1.75390625 52.98828125 C1.722258 51.58324439 1.6902627 50.17821531 1.65795898 48.77319336 C1.64256073 48.04325165 1.62716248 47.31330994 1.61129761 46.56124878 C1.34494499 34.28687417 0.91066691 22.15035751 -1 10 C-1.66 10 -2.32 10 -3 10 C-2.01 6.7 -1.02 3.4 0 0 Z " fill="#0E1A21" transform="translate(638,78)"/>
<path d="M0 0 C0.33 0 0.66 0 1 0 C1.02061493 1.07297333 1.04122986 2.14594666 1.06246948 3.25143433 C1.25769221 13.34631109 1.46313628 23.44093452 1.67867851 33.53539848 C1.7891691 38.72549708 1.89601369 43.91561814 1.99462891 49.10595703 C2.08986946 54.1117065 2.19455249 59.11717631 2.3058815 64.12259293 C2.34675001 66.03555494 2.38417266 67.94859367 2.41814804 69.86169052 C2.46619002 72.53421612 2.52630266 75.20621043 2.58935547 77.87841797 C2.60086639 78.67539093 2.61237732 79.47236389 2.62423706 80.29348755 C2.58847077 84.6108548 2.58847077 84.6108548 5 88 C7.65537372 88.56520003 10.29144713 88.73788198 13 89 C12.67 89.99 12.34 90.98 12 92 C7.90075477 92.32150943 5.65644914 92.41384837 2.125 90.1875 C-1.67623042 86.27446869 -1.14284022 82.09960673 -1.12939453 76.96435547 C-1.13114685 76.14622375 -1.13289917 75.32809204 -1.13470459 74.48516846 C-1.13910843 71.77915328 -1.13619081 69.07320335 -1.1328125 66.3671875 C-1.13348583 64.49056994 -1.1344561 62.61395247 -1.13571167 60.73733521 C-1.13718654 56.80486216 -1.13504033 52.87241182 -1.13037109 48.93994141 C-1.12466608 43.88774756 -1.12795902 38.83560675 -1.13394356 33.78341484 C-1.13754815 29.90938921 -1.1364112 26.03537626 -1.13381577 22.16135025 C-1.13314662 20.2977307 -1.13397449 18.43411002 -1.13629532 16.57049179 C-1.13882102 13.97258172 -1.1349828 11.37475899 -1.12939453 8.77685547 C-1.13141876 7.99970184 -1.13344299 7.22254822 -1.13552856 6.42184448 C-1.11426422 1.11426422 -1.11426422 1.11426422 0 0 Z " fill="#000406" transform="translate(422,61)"/>
<path d="M0 0 C6.63328022 4.65378355 11.46162663 11.33306495 15.9140625 18.01171875 C16.5740625 14.05171875 17.2340625 10.09171875 17.9140625 6.01171875 C18.9040625 5.68171875 19.8940625 5.35171875 20.9140625 5.01171875 C21.19506752 12.17734664 20.11849445 18.95718874 18.9140625 26.01171875 C14.95276485 24.6912862 14.35806734 22.95523849 12.1640625 19.44921875 C6.10344679 9.56778935 6.10344679 9.56778935 -3.0859375 3.01171875 C-10.24334247 2.28384706 -15.70534642 4.08774139 -21.67773438 8.07421875 C-23.91073119 11.14652505 -23.56733658 14.51674204 -23.59765625 18.1796875 C-23.61560745 18.97450027 -23.63355865 19.76931305 -23.65205383 20.58821106 C-23.7062072 23.12515976 -23.74006778 25.66191982 -23.7734375 28.19921875 C-23.80660624 29.91994816 -23.84109549 31.64065265 -23.87695312 33.36132812 C-23.96193623 37.57798897 -24.02872292 41.79459339 -24.0859375 46.01171875 C-24.4159375 46.01171875 -24.7459375 46.01171875 -25.0859375 46.01171875 C-25.11099365 45.02776123 -25.1360498 44.04380371 -25.16186523 43.0300293 C-25.2560457 39.37901818 -25.3562404 35.72819259 -25.45825195 32.07739258 C-25.50156055 30.4973586 -25.54323856 28.91727906 -25.58325195 27.3371582 C-25.64105333 25.06577827 -25.7047191 22.79462686 -25.76953125 20.5234375 C-25.78624374 19.81708664 -25.80295624 19.11073578 -25.82017517 18.38298035 C-25.9119122 15.34523635 -26.11801436 12.91548817 -27.0859375 10.01171875 C-21.69165237 1.83328646 -9.67804962 -4.58529317 0 0 Z " fill="#0B0F12" transform="translate(448.0859375,48.98828125)"/>
<path d="M0 0 C1.96069119 2.09591128 2.80423792 3.08154819 2.83203125 5.9609375 C2.26934863 12.35216269 2.26934863 12.35216269 -0.1875 15.5 C-2.1875 16.9375 -2.1875 16.9375 -3.1875 16.9375 C-3.22488281 15.96167969 -3.26226563 14.98585937 -3.30078125 13.98046875 C-3.36652344 12.70816406 -3.43226563 11.43585938 -3.5 10.125 C-3.55800781 8.86042969 -3.61601563 7.59585938 -3.67578125 6.29296875 C-3.90749488 3.00373186 -3.90749488 3.00373186 -5.59375 1.05859375 C-10.10707196 -2.11621851 -14.84041242 -2.51872838 -20.1875 -3.0625 C-20.1875 -3.3925 -20.1875 -3.7225 -20.1875 -4.0625 C-13.24306476 -5.93902937 -5.93885335 -3.84278746 0 0 Z " fill="#E6E6E6" transform="translate(814.1875,115.0625)"/>
<path d="M0 0 C0.33 0.66 0.66 1.32 1 2 C-2.96 2.66 -6.92 3.32 -11 4 C-11.53649595 8.35902959 -12.01903389 12.41946622 -11.875 16.8125 C-12.01232578 20.3143075 -12.49792406 21.59415775 -15 24 C-15.66 24 -16.32 24 -17 24 C-19.06145694 19.87708612 -18.59309533 14.31568839 -17.46875 9.92578125 C-15.9731289 6.17860011 -14.38262419 3.19870572 -11 1 C-7.33942723 0.37579829 -3.70846067 0.12787795 0 0 Z " fill="#E0E0E0" transform="translate(403,106)"/>
<path d="M0 0 C-1.92756522 2.26772379 -3.99141664 3.63233488 -6.5625 5.0625 C-9.94563354 6.76643423 -9.94563354 6.76643423 -12 9 C-12.24556371 11.72000357 -12.37356486 14.34574257 -12.4140625 17.0703125 C-12.43342865 17.86654022 -12.4527948 18.66276794 -12.4727478 19.48312378 C-12.53260474 22.03030634 -12.57895279 24.57753395 -12.625 27.125 C-12.66317421 28.8502803 -12.70222561 30.57554143 -12.7421875 32.30078125 C-12.83831109 36.53369876 -12.92231908 40.76670549 -13 45 C-13.33 45 -13.66 45 -14 45 C-14.02505615 44.01604248 -14.0501123 43.03208496 -14.07592773 42.01831055 C-14.1701082 38.36729943 -14.2703029 34.71647384 -14.37231445 31.06567383 C-14.41562305 29.48563985 -14.45730106 27.90556031 -14.49731445 26.32543945 C-14.55511583 24.05405952 -14.6187816 21.78290811 -14.68359375 19.51171875 C-14.70030624 18.80536789 -14.71701874 18.09901703 -14.73423767 17.3712616 C-14.8259747 14.3335176 -15.03207686 11.90376942 -16 9 C-12.51715601 3.71955911 -6.7008498 -2.2336166 0 0 Z " fill="#062030" transform="translate(437,50)"/>
<path d="M0 0 C-0.62664746 5.51449766 -1.91746515 10.73805981 -3.30078125 16.109375 C-4.09866767 19.40789986 -4.61719844 22.63134631 -5 26 C-5.99 26 -6.98 26 -8 26 C-7.64707989 17.35345731 -6.03274349 9.12546368 -3 1 C-1 0 -1 0 0 0 Z " fill="#121517" transform="translate(503,63)"/>
<path d="M0 0 C-0.62664746 5.51449766 -1.91746515 10.73805981 -3.30078125 16.109375 C-4.09866767 19.40789986 -4.61719844 22.63134631 -5 26 C-5.99 26 -6.98 26 -8 26 C-7.64707989 17.35345731 -6.03274349 9.12546368 -3 1 C-1 0 -1 0 0 0 Z " fill="#121517" transform="translate(225,63)"/>
<path d="M0 0 C1 3 1 3 0.35083008 4.88525391 C-0.81488007 7.13981997 -1.98647389 9.38898826 -3.1875 11.625 C-3.58775391 12.41390625 -3.98800781 13.2028125 -4.40039062 14.015625 C-4.9969043 15.14097656 -4.9969043 15.14097656 -5.60546875 16.2890625 C-5.96793701 16.97693848 -6.33040527 17.66481445 -6.70385742 18.37353516 C-8.31731604 20.39818411 -9.48507817 20.63565323 -12 21 C-10.3453406 16.55310286 -8.22319613 12.43057532 -6 8.25 C-5.64421875 7.56550781 -5.2884375 6.88101563 -4.921875 6.17578125 C-2.23837601 1.11918801 -2.23837601 1.11918801 0 0 Z " fill="#040A0E" transform="translate(347,67)"/>
<path d="M0 0 C0.125 7.625 0.125 7.625 -1 11 C-1.99 11.33 -2.98 11.66 -4 12 C-4.15384615 4 -4.15384615 4 -3 1 C-1 0 -1 0 0 0 Z " fill="#141D22" transform="translate(469,54)"/>
<path d="M0 0 C0.33 0.99 0.66 1.98 1 3 C-3.455 6.96 -3.455 6.96 -8 11 C-8 6.67750434 -5.85084926 5.11604454 -3 2 C-2.01 1.34 -1.02 0.68 0 0 Z " fill="#060A0D" transform="translate(412,138)"/>
<path d="M0 0 C0.33 0.99 0.66 1.98 1 3 C-1.10889262 6.82724957 -2.79609368 9.49860488 -7 11 C-3.57894737 1.78947368 -3.57894737 1.78947368 0 0 Z " fill="#050A0D" transform="translate(627,114)"/>
<path d="M0 0 C0.66 0.33 1.32 0.66 2 1 C0.73882275 4.88862987 -0.45264167 6.89375599 -4 9 C-4.66 9 -5.32 9 -6 9 C-4.47291037 5.56404834 -2.40072955 2.88087546 0 0 Z " fill="#111416" transform="translate(668,142)"/>
<path d="M0 0 C0 0.33 0 0.66 0 1 C-0.71027344 1.04898438 -1.42054688 1.09796875 -2.15234375 1.1484375 C-3.53099609 1.26058594 -3.53099609 1.26058594 -4.9375 1.375 C-5.85402344 1.44460937 -6.77054687 1.51421875 -7.71484375 1.5859375 C-8.46894531 1.72257812 -9.22304688 1.85921875 -10 2 C-10.33 2.66 -10.66 3.32 -11 4 C-11.99 4.33 -12.98 4.66 -14 5 C-13.15355232 2.31958235 -12.5045647 0.4463457 -10.375 -1.4375 C-6.60524188 -2.33033745 -3.67993945 -1.10398184 0 0 Z " fill="#0E202A" transform="translate(404,110)"/>
<path d="M0 0 C0.5775 0.226875 1.155 0.45375 1.75 0.6875 C1.75 1.3475 1.75 2.0075 1.75 2.6875 C-1.58333333 4.02083333 -4.91666667 5.35416667 -8.25 6.6875 C-6.65594781 2.8352072 -4.57967475 -0.63606594 0 0 Z " fill="#13171A" transform="translate(574.25,48.3125)"/>
<path d="M0 0 C0.66 0.33 1.32 0.66 2 1 C0.68 3.64 -0.64 6.28 -2 9 C-2.99 9 -3.98 9 -5 9 C-4.42647107 5.12867972 -2.51295648 2.91827204 0 0 Z " fill="#0A0C0E" transform="translate(426,53)"/>
<path d="M0 0 C0.66 0.33 1.32 0.66 2 1 C1.01 3.97 0.02 6.94 -1 10 C-1.99 9.67 -2.98 9.34 -4 9 C-3.38461538 3.46153846 -3.38461538 3.46153846 -1.4375 1.125 C-0.963125 0.75375 -0.48875 0.3825 0 0 Z " fill="#171A1C" transform="translate(748,103)"/>
<path d="M0 0 C0.33 0 0.66 0 1 0 C1 3.3 1 6.6 1 10 C0.01 10 -0.98 10 -2 10 C-1.85950482 8.52031676 -1.71245174 7.04125484 -1.5625 5.5625 C-1.48128906 4.73878906 -1.40007813 3.91507812 -1.31640625 3.06640625 C-1 1 -1 1 0 0 Z " fill="#151516" transform="translate(534,103)"/>
<path d="M0 0 C0.33 0 0.66 0 1 0 C1 3.3 1 6.6 1 10 C0.01 10 -0.98 10 -2 10 C-1.85950482 8.52031676 -1.71245174 7.04125484 -1.5625 5.5625 C-1.48128906 4.73878906 -1.40007812 3.91507812 -1.31640625 3.06640625 C-1 1 -1 1 0 0 Z " fill="#151516" transform="translate(256,103)"/>
<path d="M0 0 C0.99 0.33 1.98 0.66 3 1 C4.66362417 1.34820041 6.32995171 1.68404492 8 2 C8 2.33 8 2.66 8 3 C6.7625 3.144375 5.525 3.28875 4.25 3.4375 C1.43495501 3.78688502 -1.2701497 4.20379366 -4 5 C-2.25 1.125 -2.25 1.125 0 0 Z " fill="#0C1A21" transform="translate(677,49)"/>
<path d="M0 0 C0.33 0.66 0.66 1.32 1 2 C0.22265625 3.7265625 0.22265625 3.7265625 -0.9375 5.625 C-1.618125 6.73875 -2.29875 7.8525 -3 9 C-3.99 9 -4.98 9 -6 9 C-4.83857315 4.64464931 -3.92300495 2.35380297 0 0 Z " fill="#060A0D" transform="translate(366,97)"/>
<path d="M0 0 C0.66 0.33 1.32 0.66 2 1 C1.67 3.97 1.34 6.94 1 10 C0.01 9.34 -0.98 8.68 -2 8 C-1.125 1.125 -1.125 1.125 0 0 Z " fill="#1A1D20" transform="translate(523,83)"/>
<path d="M0 0 C0.66 0.33 1.32 0.66 2 1 C1.67 3.97 1.34 6.94 1 10 C0.01 9.34 -0.98 8.68 -2 8 C-1.125 1.125 -1.125 1.125 0 0 Z " fill="#1A1D20" transform="translate(245,83)"/>
<path d="M0 0 C0.33 0 0.66 0 1 0 C0.67 2.97 0.34 5.94 0 9 C-0.99 9.33 -1.98 9.66 -3 10 C-2.69201674 8.51988629 -2.378482 7.04092675 -2.0625 5.5625 C-1.88847656 4.73878906 -1.71445312 3.91507812 -1.53515625 3.06640625 C-1 1 -1 1 0 0 Z " fill="#020304" transform="translate(533,112)"/>
<path d="M0 0 C0.33 0 0.66 0 1 0 C0.67 2.97 0.34 5.94 0 9 C-0.99 9.33 -1.98 9.66 -3 10 C-2.69201674 8.51988629 -2.378482 7.04092675 -2.0625 5.5625 C-1.88847656 4.73878906 -1.71445313 3.91507812 -1.53515625 3.06640625 C-1 1 -1 1 0 0 Z " fill="#020304" transform="translate(255,112)"/>
<path d="M0 0 C0.93065133 2.60582371 1.14917407 3.64198224 0.0625 6.25 C-0.4634375 7.11625 -0.4634375 7.11625 -1 8 C-1.66 8 -2.32 8 -3 8 C-2.74438677 5.6568787 -2.40729228 3.32156597 -2 1 C-1.34 0.67 -0.68 0.34 0 0 Z " fill="#141618" transform="translate(361,105)"/>
<path d="M0 0 C0.33 0.66 0.66 1.32 1 2 C0.06553465 4.03144641 -0.93224776 6.03533587 -2 8 C-2.99 8 -3.98 8 -5 8 C-3.375 2.25 -3.375 2.25 0 0 Z " fill="#04090D" transform="translate(506,56)"/>
<path d="M0 0 C0.33 0.66 0.66 1.32 1 2 C0.06553465 4.03144641 -0.93224776 6.03533587 -2 8 C-2.99 8 -3.98 8 -5 8 C-3.375 2.25 -3.375 2.25 0 0 Z " fill="#04090D" transform="translate(228,56)"/>
<path d="M0 0 C0.33 0 0.66 0 1 0 C1 2.64 1 5.28 1 8 C0.01 8 -0.98 8 -2 8 C-1.125 1.125 -1.125 1.125 0 0 Z " fill="#01111A" transform="translate(559,113)"/>
<path d="M0 0 C0.33 0 0.66 0 1 0 C1 2.64 1 5.28 1 8 C0.01 8 -0.98 8 -2 8 C-1.125 1.125 -1.125 1.125 0 0 Z " fill="#01111A" transform="translate(281,113)"/>
<path d="M0 0 C0.625 1.8125 0.625 1.8125 1 4 C0.01 5.485 0.01 5.485 -1 7 C-1.66 7 -2.32 7 -3 7 C-2.625 4.0625 -2.625 4.0625 -2 1 C-1.34 0.67 -0.68 0.34 0 0 Z " fill="#141617" transform="translate(710,71)"/>
<path d="M0 0 C0.66 0.33 1.32 0.66 2 1 C1.1875 3.4375 1.1875 3.4375 0 6 C-0.99 6.33 -1.98 6.66 -3 7 C-2.625 4.0625 -2.625 4.0625 -2 1 C-1.34 0.67 -0.68 0.34 0 0 Z " fill="#161617" transform="translate(616,71)"/>
<path d="M0 0 C0.99 0.33 1.98 0.66 3 1 C0.78065836 4.32901247 -0.34683329 4.75023244 -4 6 C-2.25 1.125 -2.25 1.125 0 0 Z " fill="#11171B" transform="translate(378,49)"/>
<path d="M0 0 C-0.66 1.98 -1.32 3.96 -2 6 C-2.99 6 -3.98 6 -5 6 C-4.625 3.5625 -4.625 3.5625 -4 1 C-2 0 -2 0 0 0 Z " fill="#0D181F" transform="translate(533,121)"/>
<path d="M0 0 C-0.66 1.98 -1.32 3.96 -2 6 C-2.99 6 -3.98 6 -5 6 C-4.625 3.5625 -4.625 3.5625 -4 1 C-2 0 -2 0 0 0 Z " fill="#0D181F" transform="translate(255,121)"/>
<path d="M0 0 C3.07536854 0.65900754 5.07735566 1.53867783 8 3 C3.545 3.495 3.545 3.495 -1 4 C-0.67 2.68 -0.34 1.36 0 0 Z " fill="#0C1A23" transform="translate(514,49)"/>
<path d="M0 0 C3.07536854 0.65900754 5.07735566 1.53867783 8 3 C3.545 3.495 3.545 3.495 -1 4 C-0.67 2.68 -0.34 1.36 0 0 Z " fill="#0C1A23" transform="translate(236,49)"/>
</svg>
